<svg width="300" height="301" viewBox="0 0 300 301" fill="none" xmlns="http://www.w3.org/2000/svg">
<rect y="0.969727" width="300" height="300" fill="#FAFAFA"/>
<path fill-rule="evenodd" clip-rule="evenodd" d="M94.1124 120.626L65.8004 120.633L65.7423 189.139L58.6229 189.127L58.7103 113.572L94.2044 113.559L121.578 103.459L121.585 198.556L94.1899 189.197L94.1124 120.626Z" fill="#646377" stroke="#646377" stroke-width="0.83531"/>
<path fill-rule="evenodd" clip-rule="evenodd" d="M93.6775 109.446H54.4854L54.4478 189.541H51.6218C51.6218 157.714 51.6553 138.561 51.6553 106.772H101.878L93.6775 109.446Z" fill="#646377"/>
<path fill-rule="evenodd" clip-rule="evenodd" d="M126.438 199.037V102.903L130.021 103.789V198.15L126.438 199.037Z" fill="#646377"/>
<path d="M152.325 123.821V125.808C152.325 127.036 151.624 127.649 150.221 127.649C148.848 127.649 148.176 127.036 148.176 125.808V115.609C148.176 114.382 148.848 113.768 150.221 113.768C151.624 113.768 152.325 114.382 152.325 115.609V117.626H156.037V115.434C156.037 113.914 155.54 112.687 154.546 111.752C153.553 110.846 152.092 110.378 150.221 110.378C148.322 110.378 146.89 110.846 145.925 111.752C144.932 112.687 144.464 113.914 144.464 115.434V125.984C144.464 127.532 144.932 128.76 145.925 129.666C146.89 130.601 148.322 131.039 150.221 131.039C152.092 131.039 153.553 130.601 154.546 129.666C155.54 128.76 156.037 127.532 156.037 125.984V123.821H152.325Z" fill="#646377"/>
<path d="M163.182 122.681L163.299 122.155C163.971 118.707 164.41 116.106 164.585 114.294C164.702 115.756 165.111 118.386 165.871 122.155L165.988 122.681H163.182ZM167.624 130.747H171.307L167.011 110.671H162.16L157.864 130.747H161.546L162.54 125.838H166.631L167.624 130.747Z" fill="#646377"/>
<path d="M177.341 113.914H179.065C180.439 113.914 181.14 114.528 181.14 115.726V118.356C181.14 119.584 180.439 120.168 179.065 120.168H177.341V113.914ZM181.257 130.747H185.348L182.426 122.711C184.033 121.892 184.851 120.431 184.851 118.386V115.726C184.851 114.207 184.355 112.979 183.361 112.044C182.368 111.138 180.936 110.671 179.065 110.671H173.63V130.747H177.341V123.412H178.861L181.257 130.747Z" fill="#646377"/>
<path d="M197.87 127.532H191.821V122.214H197.052V118.97H191.821V113.914H197.87V110.671H188.109V130.747H197.87V127.532Z" fill="#646377"/>
<path d="M210.352 127.532H204.302V122.214H209.533V118.97H204.302V113.914H210.352V110.671H200.591V130.747H210.352V127.532Z" fill="#646377"/>
<path d="M216.784 113.914H218.508C219.882 113.914 220.583 114.528 220.583 115.726V118.356C220.583 119.584 219.882 120.168 218.508 120.168H216.784V113.914ZM220.7 130.747H224.791L221.869 122.711C223.476 121.892 224.294 120.431 224.294 118.386V115.726C224.294 114.207 223.798 112.979 222.804 112.044C221.811 111.138 220.379 110.671 218.508 110.671H213.073V130.747H216.784V123.412H218.304L220.7 130.747Z" fill="#646377"/>
<path d="M152.647 153.818C152.647 155.045 152.004 155.659 150.718 155.659H148.409V150.398H150.572C151.945 150.398 152.647 151.012 152.647 152.239V153.818ZM150.543 142.041C151.829 142.041 152.501 142.654 152.501 143.852V145.343C152.501 146.57 151.799 147.155 150.397 147.155H148.409V142.041H150.543ZM156.154 143.648C156.154 140.433 154.342 138.797 150.718 138.797H144.756V158.873H150.893C154.517 158.873 156.329 157.266 156.329 154.051V152.327C156.329 150.457 155.598 149.229 154.166 148.703C155.481 148.119 156.154 146.921 156.154 145.08V143.648Z" fill="#646377"/>
<path d="M167.379 138.797V153.964C167.379 155.191 166.678 155.805 165.304 155.805C163.931 155.805 163.258 155.191 163.258 153.964V138.797H159.518V154.11C159.518 155.659 159.985 156.886 160.979 157.792C161.973 158.727 163.405 159.165 165.304 159.165C167.174 159.165 168.636 158.727 169.629 157.792C170.623 156.886 171.12 155.659 171.12 154.11V138.797H167.379Z" fill="#646377"/>
<path d="M178.341 158.873V138.797H174.6V158.873H178.341Z" fill="#646377"/>
<path d="M191.237 155.659H185.714V138.797H181.973V158.873H191.237V155.659Z" fill="#646377"/>
<path d="M193.342 138.797V158.873H199.099C200.97 158.873 202.431 158.435 203.424 157.529C204.418 156.623 204.915 155.396 204.915 153.847V143.852C204.915 142.333 204.418 141.105 203.424 140.17C202.431 139.264 200.999 138.797 199.099 138.797H193.342ZM197.054 155.659V142.041H199.099C200.502 142.041 201.203 142.654 201.203 143.852V153.818C201.203 155.045 200.502 155.659 199.099 155.659H197.054Z" fill="#646377"/>
<path d="M211.99 158.873V138.797H208.25V158.873H211.99Z" fill="#646377"/>
<path d="M224.186 158.873H227.868V138.797H224.186V145.284C224.186 149.025 224.361 151.684 224.77 153.204L224.595 152.561C224.449 152.123 224.186 151.334 223.806 150.223C223.397 149.113 222.958 147.914 222.432 146.57L219.393 138.797H215.623V158.873H219.276V152.181C219.276 148.587 219.072 145.986 218.692 144.349L218.925 145.08C219.072 145.547 219.335 146.336 219.744 147.447C220.153 148.557 220.591 149.726 221.088 150.983L224.186 158.873Z" fill="#646377"/>
<path d="M231.209 154.168C231.209 155.659 231.589 156.857 232.378 157.733C233.167 158.61 234.336 159.048 235.914 159.048C236.907 159.048 237.667 158.844 238.222 158.376C238.778 157.938 239.128 157.5 239.245 157.091V158.873H242.752V147.593H237.287V150.837H239.07V153.934C239.07 155.162 238.368 155.775 236.966 155.775C235.592 155.775 234.92 155.162 234.92 153.934V143.735C234.92 142.508 235.592 141.894 236.966 141.894C238.368 141.894 239.07 142.508 239.07 143.735V144.992H242.781V143.56C242.781 142.041 242.284 140.813 241.291 139.878C240.297 138.972 238.836 138.505 236.966 138.505C235.066 138.505 233.634 138.972 232.67 139.878C231.676 140.813 231.209 142.041 231.209 143.56V154.168Z" fill="#646377"/>
<path d="M148.497 186.999V166.923H144.756V186.999H148.497Z" fill="#646377"/>
<path d="M160.692 186.999H164.374V166.923H160.692V173.41C160.692 177.151 160.868 179.81 161.277 181.33L161.101 180.687C160.955 180.249 160.692 179.46 160.312 178.349C159.903 177.239 159.465 176.041 158.939 174.696L155.9 166.923H152.13V186.999H155.783V180.307C155.783 176.713 155.578 174.112 155.198 172.475L155.432 173.206C155.578 173.673 155.841 174.462 156.25 175.573C156.659 176.683 157.098 177.852 157.595 179.109L160.692 186.999Z" fill="#646377"/>
<path d="M173.356 179.401C173.94 179.781 174.32 180.132 174.554 180.453C174.758 180.804 174.875 181.213 174.875 181.739V182.148C174.875 183.376 174.174 183.96 172.83 183.96C171.485 183.96 170.842 183.376 170.842 182.148V180.804H167.102V182.294C167.102 183.843 167.569 185.071 168.534 185.947C169.498 186.853 170.93 187.291 172.83 187.291C174.7 187.291 176.132 186.853 177.125 185.947C178.119 185.071 178.616 183.843 178.616 182.294V181.564C178.616 180.512 178.382 179.606 177.973 178.846C177.564 178.115 176.892 177.443 175.986 176.83L172.596 174.638C171.982 174.258 171.544 173.878 171.31 173.527C171.076 173.177 170.959 172.738 170.959 172.212V171.774C170.959 171.189 171.076 170.751 171.368 170.459C171.661 170.167 172.157 169.991 172.859 169.991C174.115 169.991 174.758 170.605 174.758 171.774V173.089H178.499V171.657C178.499 170.108 178.031 168.881 177.096 167.975C176.161 167.098 174.729 166.631 172.859 166.631C170.959 166.631 169.557 167.098 168.621 167.975C167.686 168.881 167.219 170.108 167.219 171.657V172.358C167.219 174.404 168.125 176.011 169.995 177.209L173.356 179.401Z" fill="#646377"/>
<path d="M190.902 166.923H179.826V170.167H183.479V186.999H187.249V170.167H190.902V166.923Z" fill="#646377"/>
<path d="M196.74 186.999V166.923H193V186.999H196.74Z" fill="#646377"/>
<path d="M209.929 166.923H198.854V170.167H202.506V186.999H206.276V170.167H209.929V166.923Z" fill="#646377"/>
<path d="M219.742 166.923V182.09C219.742 183.317 219.041 183.931 217.667 183.931C216.294 183.931 215.622 183.317 215.622 182.09V166.923H211.881V182.236C211.881 183.785 212.349 185.012 213.342 185.918C214.336 186.853 215.768 187.291 217.667 187.291C219.538 187.291 220.999 186.853 221.992 185.918C222.986 185.012 223.483 183.785 223.483 182.236V166.923H219.742Z" fill="#646377"/>
<path d="M236.519 166.923H225.444V170.167H229.097V186.999H232.866V170.167H236.519V166.923Z" fill="#646377"/>
<path d="M248.378 183.785H242.329V178.466H247.56V175.222H242.329V170.167H248.378V166.923H238.618V186.999H248.378V183.785Z" fill="#646377"/>
</svg>
