<svg width="300" height="300" viewBox="0 0 300 300" fill="none" xmlns="http://www.w3.org/2000/svg">
<rect width="300" height="300" fill="#FAFAFA"/>
<path fill-rule="evenodd" clip-rule="evenodd" d="M142.849 83.2936L145.685 81.7603V104.356H142.849V83.2936Z" fill="#646377"/>
<path fill-rule="evenodd" clip-rule="evenodd" d="M142.833 104.338L144.465 102.019L150.224 106.052L148.598 108.375L142.833 104.338Z" fill="#646377"/>
<path fill-rule="evenodd" clip-rule="evenodd" d="M142.833 99.0732L144.465 96.7537L150.224 100.787L148.598 103.11L142.833 99.0732Z" fill="#646377"/>
<path fill-rule="evenodd" clip-rule="evenodd" d="M142.833 93.5889L144.465 91.2693L150.224 95.3024L148.598 97.6254L142.833 93.5889Z" fill="#646377"/>
<path fill-rule="evenodd" clip-rule="evenodd" d="M155.744 104.338L154.112 102.019L148.352 106.052L149.979 108.375L155.744 104.338Z" fill="#646377"/>
<path fill-rule="evenodd" clip-rule="evenodd" d="M155.744 98.854L154.112 96.5344L148.352 100.568L149.979 102.891L155.744 98.854Z" fill="#646377"/>
<path fill-rule="evenodd" clip-rule="evenodd" d="M155.744 93.3696L154.112 91.0501L148.352 95.0832L149.979 97.4062L155.744 93.3696Z" fill="#646377"/>
<path fill-rule="evenodd" clip-rule="evenodd" d="M155.72 83.2936L152.884 81.7603V104.356H155.72V83.2936Z" fill="#646377"/>
<path fill-rule="evenodd" clip-rule="evenodd" d="M147.867 80.5534L149.301 79.7856L150.703 80.5534V107.868L149.301 108.868L147.867 107.863L147.867 80.5534Z" fill="#646377"/>
<path fill-rule="evenodd" clip-rule="evenodd" d="M142.849 139.24L145.685 140.773V118.177H142.849V139.24Z" fill="#646377"/>
<path fill-rule="evenodd" clip-rule="evenodd" d="M142.833 118.195L144.465 120.514L150.224 116.481L148.598 114.158L142.833 118.195Z" fill="#646377"/>
<path fill-rule="evenodd" clip-rule="evenodd" d="M142.833 123.46L144.465 125.78L150.224 121.746L148.598 119.423L142.833 123.46Z" fill="#646377"/>
<path fill-rule="evenodd" clip-rule="evenodd" d="M142.833 128.944L144.465 131.264L150.224 127.231L148.598 124.908L142.833 128.944Z" fill="#646377"/>
<path fill-rule="evenodd" clip-rule="evenodd" d="M155.744 118.195L154.112 120.514L148.352 116.481L149.979 114.158L155.744 118.195Z" fill="#646377"/>
<path fill-rule="evenodd" clip-rule="evenodd" d="M155.744 123.679L154.112 125.999L148.352 121.966L149.979 119.643L155.744 123.679Z" fill="#646377"/>
<path fill-rule="evenodd" clip-rule="evenodd" d="M155.744 129.164L154.112 131.483L148.352 127.45L149.979 125.127L155.744 129.164Z" fill="#646377"/>
<path fill-rule="evenodd" clip-rule="evenodd" d="M155.72 139.24L152.884 140.773V118.177H155.72V139.24Z" fill="#646377"/>
<path fill-rule="evenodd" clip-rule="evenodd" d="M147.856 142.005L149.291 142.772L150.692 142.005V114.659L149.291 113.67L147.856 114.68V142.005Z" fill="#646377"/>
<path fill-rule="evenodd" clip-rule="evenodd" d="M166.409 88.8762L163.573 87.3853V135.144L166.409 133.636V88.8762Z" fill="#646377"/>
<path fill-rule="evenodd" clip-rule="evenodd" d="M170.948 113.267L169.317 110.948L163.557 114.981L165.183 117.304L170.948 113.267Z" fill="#646377"/>
<path fill-rule="evenodd" clip-rule="evenodd" d="M170.948 118.752L169.317 116.432L163.557 120.465L165.183 122.789L170.948 118.752Z" fill="#646377"/>
<path fill-rule="evenodd" clip-rule="evenodd" d="M168.792 113.048L170.424 110.728L176.184 114.761L174.557 117.084L168.792 113.048Z" fill="#646377"/>
<path fill-rule="evenodd" clip-rule="evenodd" d="M168.792 118.532L170.424 116.213L176.184 120.246L174.557 122.569L168.792 118.532Z" fill="#646377"/>
<path fill-rule="evenodd" clip-rule="evenodd" d="M163.557 102.518L165.188 100.198L170.948 104.231L169.322 106.554L163.557 102.518Z" fill="#646377"/>
<path fill-rule="evenodd" clip-rule="evenodd" d="M163.557 108.002L165.188 105.682L170.948 109.715L169.322 112.039L163.557 108.002Z" fill="#646377"/>
<path fill-rule="evenodd" clip-rule="evenodd" d="M176.444 94.1536L173.608 92.7129V129.827L176.444 128.302V94.1536Z" fill="#646377"/>
<path fill-rule="evenodd" clip-rule="evenodd" d="M171.427 91.5276L168.591 90.0454V132.496L171.427 130.979V91.5276Z" fill="#646377"/>
<path fill-rule="evenodd" clip-rule="evenodd" d="M175.966 102.737L174.334 100.417L168.574 104.45L170.201 106.773L175.966 102.737Z" fill="#646377"/>
<path fill-rule="evenodd" clip-rule="evenodd" d="M175.966 108.222L174.334 105.902L168.574 109.935L170.201 112.258L175.966 108.222Z" fill="#646377"/>
<path fill-rule="evenodd" clip-rule="evenodd" d="M132.378 88.7084L135.214 87.2446V135.289L132.378 133.753V88.7084Z" fill="#646377"/>
<path fill-rule="evenodd" clip-rule="evenodd" d="M127.839 113.268L129.47 110.948L135.23 114.981L133.604 117.304L127.839 113.268Z" fill="#646377"/>
<path fill-rule="evenodd" clip-rule="evenodd" d="M127.839 118.752L129.47 116.432L135.23 120.465L133.604 122.789L127.839 118.752Z" fill="#646377"/>
<path fill-rule="evenodd" clip-rule="evenodd" d="M129.995 113.048L128.363 110.728L122.603 114.761L124.23 117.084L129.995 113.048Z" fill="#646377"/>
<path fill-rule="evenodd" clip-rule="evenodd" d="M129.995 118.532L128.363 116.213L122.603 120.246L124.23 122.569L129.995 118.532Z" fill="#646377"/>
<path fill-rule="evenodd" clip-rule="evenodd" d="M135.23 102.518L133.599 100.198L127.839 104.231L129.465 106.554L135.23 102.518Z" fill="#646377"/>
<path fill-rule="evenodd" clip-rule="evenodd" d="M135.23 108.002L133.599 105.683L127.839 109.716L129.465 112.039L135.23 108.002Z" fill="#646377"/>
<path fill-rule="evenodd" clip-rule="evenodd" d="M122.343 94.0455L125.179 92.5947V129.945L122.343 128.47V94.0455Z" fill="#646377"/>
<path fill-rule="evenodd" clip-rule="evenodd" d="M127.361 91.4528L130.197 89.9507V132.614L127.361 131.087V91.4528Z" fill="#646377"/>
<path fill-rule="evenodd" clip-rule="evenodd" d="M122.821 102.737L124.453 100.417L130.213 104.45L128.586 106.773L122.821 102.737Z" fill="#646377"/>
<path fill-rule="evenodd" clip-rule="evenodd" d="M122.821 108.222L124.453 105.902L130.213 109.935L128.586 112.258L122.821 108.222Z" fill="#646377"/>
<path d="M42 180.655H48.1721V167.797H58.8018V180.655H64.9738V149.795H58.8018V161.968H48.1721V149.795H42V180.655Z" fill="#646377"/>
<path d="M82.7306 173.712H92.7174L94.7319 180.655H101.375L91.4315 149.795H84.2308L74.2869 180.655H80.6733L82.7306 173.712ZM87.7883 156.567L91.0458 167.883H84.4451L87.7883 156.567Z" fill="#646377"/>
<path d="M133.436 180.655L128.293 168.954C130.865 168.225 132.493 166.04 132.493 163.125V155.881C132.493 152.281 130.007 149.795 126.407 149.795H110.677V180.655H116.849V169.211H121.821L126.793 180.655H133.436ZM126.321 162.011C126.321 162.953 125.807 163.468 124.864 163.468H116.849V155.624H124.864C125.807 155.624 126.321 156.139 126.321 157.081V162.011Z" fill="#646377"/>
<path d="M166.554 149.795H159.696L153.567 173.24L147.609 149.795H140.58L149.967 180.655H157.167L166.554 149.795Z" fill="#646377"/>
<path d="M175.921 149.795V180.655H196.109V174.826H182.093V167.797H193.452V161.968H182.093V155.624H196.109V149.795H175.921Z" fill="#646377"/>
<path d="M220.831 159.31H226.832V155.71C226.832 152.11 224.346 149.624 220.746 149.624H211.659C208.058 149.624 205.573 152.11 205.573 155.71V160.939C205.573 164.368 208.401 166.382 211.745 167.111L219.717 168.826C220.66 169.04 221.174 169.34 221.174 170.283V173.54C221.174 174.483 220.66 174.998 219.717 174.998H213.03C212.087 174.998 211.573 174.483 211.573 173.54V170.797H205.573V174.74C205.573 178.341 208.058 180.827 211.659 180.827H221.26C224.86 180.827 227.346 178.341 227.346 174.74V169.168C227.346 165.74 224.517 163.725 221.174 162.996L213.202 161.282C212.259 161.068 211.745 160.768 211.745 159.825V156.91C211.745 155.967 212.259 155.453 213.202 155.453H219.374C220.317 155.453 220.831 155.967 220.831 156.91V159.31Z" fill="#646377"/>
<path d="M258 155.538V149.795H235.712V155.538H243.77V180.655H249.942V155.538H258Z" fill="#646377"/>
<path d="M131.427 207.728V207.764L131.174 207.944L131.282 207.836C130.922 208.161 130.381 208.702 129.696 209.423C129.01 210.18 128.469 210.721 128.109 211.046C128.109 210.974 128.145 210.901 128.289 210.793C128.433 210.721 128.505 210.613 128.542 210.541L129.443 209.603H129.479C129.948 209.134 130.128 208.918 130.056 208.918C129.84 208.99 129.479 209.279 129.046 209.747H129.01L128.938 209.856V209.82C128.902 209.82 129.263 209.423 130.02 208.629L130.525 208.088C130.741 207.944 130.85 207.8 130.922 207.728C130.994 207.656 131.03 207.548 131.066 207.475L131.138 207.259C131.607 206.79 131.859 206.538 131.895 206.466C131.895 206.466 131.931 206.43 131.931 206.321C131.968 206.177 132.076 206.033 132.292 205.817L132.4 205.636C132.4 205.636 132.436 205.636 132.472 205.564C132.472 205.492 132.508 205.456 132.581 205.42C132.581 205.348 132.653 205.312 132.725 205.276C132.797 205.24 132.833 205.24 132.869 205.24C132.869 205.167 132.869 205.131 132.905 205.131V205.167C132.905 205.24 132.941 205.24 132.977 205.24C132.977 205.24 133.013 205.203 133.049 205.131C133.049 205.059 133.085 205.059 133.158 205.059V204.879C133.158 204.879 133.194 204.915 133.23 204.951C133.23 204.987 133.266 204.987 133.302 204.987C133.302 204.951 133.374 204.879 133.482 204.735C133.59 204.626 133.662 204.482 133.735 204.338H133.699C133.699 204.338 133.699 204.302 133.771 204.266C133.807 204.23 133.807 204.194 133.807 204.158L133.699 204.23C133.626 204.302 133.59 204.338 133.554 204.338L133.735 204.158C133.41 204.266 133.23 204.41 133.158 204.554C133.194 204.554 133.23 204.554 133.266 204.518C133.266 204.482 133.302 204.446 133.338 204.41C133.338 204.41 133.374 204.41 133.41 204.41C133.374 204.482 133.302 204.59 133.23 204.735C133.194 204.735 133.194 204.735 133.194 204.663L133.158 204.626L132.833 204.987C132.833 204.915 132.869 204.843 132.869 204.771C132.869 204.699 132.941 204.626 133.085 204.518C133.194 204.41 133.266 204.338 133.302 204.266C133.518 204.194 133.626 204.122 133.626 204.013C133.482 204.013 133.374 204.086 133.302 204.158C133.302 204.122 133.266 204.122 133.194 204.158C133.122 204.194 133.049 204.194 133.049 204.194C133.122 204.158 133.194 204.086 133.266 203.977C133.338 203.905 133.41 203.833 133.446 203.797C133.446 203.761 133.482 203.689 133.554 203.617C133.626 203.545 133.626 203.508 133.626 203.436C133.482 203.653 133.338 203.725 133.194 203.725C133.194 203.797 133.158 203.833 133.085 203.833C133.049 203.869 133.049 203.905 133.049 203.905V203.653C132.977 203.653 132.941 203.689 132.941 203.761C132.905 203.833 132.869 203.869 132.869 203.869C132.869 203.869 132.869 203.833 132.905 203.797C132.905 203.761 132.941 203.725 132.941 203.653L132.869 203.797C132.797 203.941 132.725 203.941 132.653 203.833C132.653 203.833 132.689 203.761 132.797 203.689C132.869 203.617 132.905 203.545 132.905 203.472C132.581 203.869 132.364 204.086 132.256 204.122C132.256 204.122 132.292 204.086 132.328 204.013C132.364 203.941 132.4 203.905 132.436 203.869C132.436 203.833 132.472 203.761 132.508 203.689C132.545 203.617 132.581 203.581 132.581 203.508H132.545V203.436C132.508 203.472 132.472 203.545 132.436 203.653C132.364 203.761 132.328 203.833 132.292 203.833C132.22 203.905 132.076 204.049 131.823 204.338C131.535 204.626 131.318 204.843 131.174 204.987L131.138 204.951C131.102 204.951 131.102 204.951 131.102 204.879L131.138 204.843C131.174 204.843 131.174 204.807 131.138 204.771L131.03 204.879C131.03 204.987 130.994 205.095 130.958 205.24C130.741 205.384 130.489 205.636 130.164 205.961C129.84 206.321 129.623 206.538 129.479 206.646L129.515 206.682C129.515 206.718 129.479 206.754 129.479 206.754L129.299 206.971C129.155 207.115 129.046 207.223 128.974 207.295C128.938 207.295 128.902 207.295 128.83 207.367H128.794C128.794 207.403 128.758 207.403 128.758 207.403C128.686 207.439 128.614 207.511 128.542 207.656C128.433 207.8 128.325 207.908 128.217 207.944C128.217 207.98 128.145 208.052 128.073 208.125C128.001 208.197 127.928 208.305 127.928 208.413C127.892 208.413 127.82 208.485 127.712 208.593C127.604 208.702 127.496 208.738 127.388 208.738L127.351 208.846V208.99C126.414 210.144 124.791 211.587 122.447 213.354C120.103 215.157 118.805 216.131 118.588 216.347C118.516 216.347 118.408 216.419 118.264 216.527C118.119 216.635 117.975 216.708 117.903 216.744V216.671C117.29 217.068 116.893 217.285 116.713 217.357C116.641 217.393 116.533 217.429 116.46 217.429C116.352 217.465 116.28 217.501 116.208 217.501C116.136 217.537 116.028 217.573 115.956 217.609C115.883 217.681 115.775 217.717 115.631 217.717C115.523 217.753 115.27 217.789 114.91 217.789C114.549 217.789 114.297 217.789 114.225 217.753C113.575 217.825 113.107 217.645 112.854 217.14C112.385 216.491 112.133 215.662 112.061 214.652C111.989 214.147 111.953 213.859 111.953 213.75C111.953 213.678 111.989 213.354 112.061 212.777C112.133 212.236 112.169 211.875 112.205 211.695C112.349 210.397 112.674 209.134 113.143 207.944C113.143 207.836 113.143 207.764 113.179 207.764C113.179 207.764 113.359 207.115 113.792 205.817C113.972 205.312 114.225 204.735 114.549 204.086C114.549 204.013 114.549 203.905 114.621 203.761C114.693 203.653 114.729 203.545 114.729 203.472C114.766 203.472 114.802 203.472 114.802 203.436H114.838C114.91 203.22 115.523 202.066 116.605 199.974C116.893 199.506 117.326 198.82 117.903 197.955C118.48 197.089 118.877 196.44 119.165 196.007C119.959 194.745 120.896 193.519 121.942 192.365C122.014 192.185 122.231 191.968 122.555 191.68C122.844 191.427 123.06 191.247 123.168 191.103L123.132 190.995C123.204 191.067 123.312 191.031 123.421 190.923L123.565 190.778C123.637 190.706 123.673 190.67 123.709 190.634C123.709 190.598 123.745 190.562 123.781 190.49C123.745 190.49 123.709 190.526 123.673 190.598L123.565 190.706C123.637 190.562 123.889 190.382 124.25 190.129H124.394C124.539 190.057 124.791 189.949 125.152 189.732C125.476 189.552 125.729 189.408 125.945 189.336V189.408C125.945 189.48 125.945 189.48 125.981 189.48C126.053 189.444 126.161 189.444 126.306 189.48C126.45 189.552 126.558 189.552 126.63 189.516C126.738 189.805 126.811 190.093 126.811 190.418C126.774 190.85 126.702 191.283 126.594 191.716C126.486 192.149 126.342 192.581 126.161 193.086C125.945 193.591 125.837 193.952 125.801 194.096C125.584 194.601 125.476 194.926 125.44 195.142C125.296 195.394 125.152 195.719 124.935 196.116C124.719 196.548 124.539 196.837 124.466 197.053C124.25 197.342 124.142 197.594 124.106 197.811L124.07 197.919C124.034 197.991 123.998 198.027 123.962 198.027C123.925 198.063 123.817 198.279 123.601 198.712C123.385 199.145 123.168 199.469 123.024 199.686C122.952 199.758 122.88 199.902 122.808 200.155C122.735 200.263 122.591 200.407 122.447 200.623C122.267 200.84 122.158 200.984 122.086 201.056C121.798 201.525 121.69 201.814 121.69 201.958C121.257 202.499 121.04 202.823 120.968 202.968C121.004 203.04 121.04 203.22 121.04 203.508C121.113 203.545 121.185 203.581 121.257 203.653C121.185 203.653 121.185 203.725 121.185 203.797C121.185 203.797 121.257 203.905 121.365 204.049C121.437 204.049 121.509 204.086 121.581 204.086C121.654 204.086 121.69 204.086 121.69 204.049C121.942 204.266 122.411 204.338 123.06 204.194C123.132 204.122 123.276 204.086 123.565 204.086C123.565 204.086 123.565 204.049 123.637 204.013C123.673 204.013 123.709 203.941 123.745 203.869L123.781 203.905L123.817 203.977C123.889 203.905 123.962 203.833 124.07 203.797V203.653C124.25 203.508 124.466 203.256 124.755 202.859C125.043 202.463 125.224 202.21 125.332 202.066C125.332 202.03 125.296 201.994 125.26 201.994C125.332 201.922 125.476 201.705 125.693 201.309H125.765C125.801 201.164 126.125 200.587 126.738 199.578C126.847 199.325 127.027 198.965 127.279 198.496C127.496 198.063 127.676 197.702 127.784 197.486C127.82 197.486 127.856 197.414 127.892 197.342L127.928 197.234C127.965 197.089 128.073 196.873 128.253 196.584C128.433 196.296 128.542 196.08 128.578 195.935C128.614 195.719 128.722 195.394 128.866 194.962C129.01 194.529 129.119 194.276 129.155 194.168C129.371 193.303 129.515 192.293 129.587 191.139C129.479 190.634 129.335 190.237 129.155 189.949C129.082 189.841 129.01 189.696 128.938 189.48C128.83 189.3 128.758 189.155 128.722 189.011L128.505 188.47C128.145 188.254 127.965 188.11 127.892 187.965C127.604 187.857 127.315 187.785 126.991 187.713C126.991 187.713 126.955 187.677 126.883 187.605C126.811 187.569 126.738 187.533 126.702 187.533C126.63 187.533 126.558 187.497 126.486 187.461C126.378 187.461 126.306 187.424 126.306 187.352C126.306 187.497 126.234 187.533 126.053 187.497C125.729 187.461 125.548 187.388 125.512 187.244C125.476 187.28 125.332 187.316 125.043 187.388L125.007 187.352C124.935 187.352 124.863 187.352 124.791 187.352C124.683 187.352 124.611 187.316 124.539 187.316C124.466 187.352 124.286 187.388 123.962 187.424C123.925 187.533 123.889 187.605 123.817 187.677L123.673 187.821C123.601 187.821 123.565 187.857 123.493 187.857C123.421 187.857 123.348 187.857 123.276 187.857C121.509 189.011 120.031 190.237 118.877 191.5V191.427C118.66 191.644 118.552 191.716 118.48 191.716C118.228 191.932 117.975 192.185 117.759 192.473C117.542 192.762 117.29 193.05 117.001 193.375C116.713 193.735 116.497 193.988 116.352 194.168C116.28 194.276 116.208 194.312 116.208 194.312C116.208 194.385 116.172 194.385 116.136 194.385C116.064 194.493 115.956 194.637 115.847 194.853C115.739 195.07 115.631 195.25 115.523 195.394C115.415 195.539 115.306 195.683 115.162 195.791V195.863L115.126 195.899C114.225 197.27 113.323 198.856 112.421 200.696C112.385 200.84 112.313 201.02 112.169 201.237C112.025 201.453 111.953 201.633 111.953 201.741C111.953 201.777 111.953 201.777 111.989 201.741C111.989 201.741 112.025 201.741 112.025 201.777C111.808 202.102 111.736 202.282 111.736 202.318H111.628C111.628 202.354 111.556 202.463 111.484 202.607C111.376 202.787 111.34 202.895 111.34 202.968L111.376 202.859C111.376 202.787 111.412 202.751 111.448 202.679C111.484 202.643 111.556 202.607 111.628 202.607C111.448 202.895 111.34 203.184 111.303 203.508V203.436C111.087 203.545 111.015 203.761 111.015 204.049C111.087 203.833 111.195 203.725 111.267 203.689C111.195 203.833 111.123 204.049 110.979 204.302C110.835 204.554 110.726 204.735 110.69 204.843H110.618C110.546 204.987 110.474 205.131 110.402 205.312C110.33 205.492 110.258 205.6 110.258 205.636C110.33 205.6 110.402 205.492 110.474 205.276C110.546 205.095 110.582 204.951 110.654 204.879C110.366 205.672 110.149 206.321 110.077 206.898C110.041 206.971 110.041 207.043 110.041 207.115C109.825 207.872 109.609 208.449 109.428 208.882C109.464 209.026 109.464 209.242 109.392 209.603L109.428 209.567V209.639C109.356 209.675 109.284 209.711 109.284 209.747C109.284 209.82 109.248 209.82 109.212 209.82C109.176 210.144 109.104 210.721 108.959 211.551C108.815 212.416 108.743 213.065 108.743 213.498V213.642C108.743 213.678 108.743 213.714 108.743 213.714C108.743 213.75 108.779 213.786 108.779 213.786C108.707 213.786 108.707 213.859 108.779 214.075C108.779 214.147 108.743 214.147 108.743 214.075V214.472C108.743 214.436 108.707 214.399 108.671 214.399C108.671 214.399 108.707 214.436 108.707 214.508C108.707 214.58 108.707 214.616 108.743 214.616V214.652V214.832V215.013V215.373L108.851 216.563H108.923C108.851 216.347 108.815 215.914 108.779 215.337C108.851 215.698 108.923 215.95 108.959 216.022C108.887 215.95 108.851 215.914 108.851 215.914C108.851 215.95 108.887 215.986 108.923 216.058C108.923 216.131 108.959 216.203 108.995 216.203V216.167C108.995 216.239 109.032 216.347 109.104 216.527C109.14 216.708 109.176 216.816 109.212 216.888C109.356 217.14 109.428 217.321 109.428 217.429C109.572 217.681 109.681 217.862 109.753 217.97C109.825 218.042 109.897 218.222 110.005 218.439C110.113 218.655 110.222 218.799 110.294 218.871C110.366 218.943 110.474 219.052 110.69 219.196C110.871 219.34 111.015 219.484 111.159 219.556C111.303 219.629 111.556 219.701 111.953 219.773C112.313 219.845 112.602 219.881 112.746 219.809C112.746 219.845 112.782 219.881 112.854 219.881H112.926C113.431 220.097 113.936 220.206 114.513 220.206C115.054 220.242 115.631 220.17 116.208 220.025C116.785 219.881 117.398 219.665 118.011 219.376C118.624 219.088 119.273 218.727 119.923 218.294C120.572 217.862 121.221 217.429 121.87 216.924C122.519 216.455 123.168 215.914 123.889 215.265C124.611 214.652 125.26 214.039 125.909 213.462C126.522 212.885 127.207 212.2 127.928 211.478C127.856 211.514 127.784 211.587 127.676 211.659C127.568 211.731 127.46 211.803 127.388 211.803C127.82 211.514 128.109 211.262 128.217 211.046H128.253C129.407 209.892 130.381 208.882 131.102 208.016C131.391 207.836 131.607 207.656 131.751 207.511L131.427 207.728ZM109.212 217.429C109.068 216.996 108.995 216.708 108.923 216.599C108.959 216.924 109.068 217.212 109.212 217.429ZM128.578 210.324C128.578 210.252 128.65 210.18 128.722 210.108L128.902 209.928C128.902 209.928 128.938 209.964 128.974 210C128.902 210.036 128.866 210.072 128.83 210.144C128.758 210.216 128.722 210.252 128.722 210.252C128.686 210.252 128.65 210.288 128.65 210.324C128.65 210.36 128.614 210.36 128.578 210.324ZM131.535 207.295C131.499 207.331 131.463 207.367 131.391 207.403C131.318 207.439 131.282 207.475 131.21 207.548C131.138 207.62 131.138 207.692 131.138 207.764C131.138 207.728 131.21 207.656 131.282 207.584L131.463 207.403C131.499 207.367 131.535 207.331 131.535 207.295ZM132.292 203.653L131.751 204.194C131.968 204.122 132.148 203.941 132.292 203.653ZM128.505 210.937C128.253 211.154 128.145 211.262 128.181 211.262L128.361 211.154C128.433 211.118 128.505 211.046 128.505 210.937ZM130.381 205.42L130.092 205.708C129.948 205.853 129.876 205.925 129.876 205.961C130.2 205.636 130.381 205.456 130.381 205.42ZM132.184 206.646C132.004 206.754 131.895 206.898 131.859 207.043C131.859 206.971 131.931 206.898 132.04 206.826C132.112 206.754 132.184 206.682 132.184 206.646ZM133.049 205.24C132.905 205.384 132.869 205.492 132.869 205.564C132.977 205.384 133.049 205.276 133.049 205.24ZM109.392 209.242C109.248 209.242 109.212 209.315 109.212 209.459C109.248 209.459 109.284 209.423 109.32 209.351C109.32 209.279 109.356 209.242 109.392 209.242ZM108.671 212.452C108.743 212.416 108.779 212.272 108.779 212.019C108.743 212.128 108.707 212.236 108.707 212.308C108.671 212.38 108.671 212.452 108.671 212.452ZM133.049 205.42C133.049 205.492 133.013 205.528 132.941 205.528C132.869 205.564 132.833 205.6 132.869 205.636C133.013 205.564 133.049 205.492 133.049 205.42ZM109.104 210.649C108.959 210.793 108.923 210.901 109.032 210.937C109.032 210.937 109.032 210.865 109.068 210.793C109.068 210.721 109.104 210.685 109.104 210.649ZM109.717 207.836C109.717 207.836 109.753 207.8 109.789 207.728C109.789 207.656 109.789 207.584 109.789 207.548C109.717 207.62 109.717 207.692 109.717 207.836ZM131.499 207.62C131.643 207.475 131.715 207.367 131.751 207.295L131.571 207.511L131.499 207.62ZM132.581 205.636L132.472 205.744C132.4 205.78 132.364 205.817 132.436 205.817C132.508 205.744 132.581 205.672 132.581 205.636ZM131.715 204.158C131.715 204.194 131.679 204.23 131.643 204.23L131.571 204.266C131.571 204.302 131.607 204.338 131.679 204.338L131.715 204.266V204.158ZM110.799 204.338L110.943 204.194C110.907 204.194 110.871 204.194 110.835 204.23C110.799 204.302 110.799 204.338 110.799 204.338ZM131.895 207.259L131.968 207.223C131.968 207.151 132.004 207.115 132.076 207.079C131.859 207.151 131.823 207.187 131.895 207.259ZM132.436 206.357L132.508 206.141L132.436 206.321V206.357ZM132.472 203.436C132.364 203.545 132.292 203.617 132.292 203.653C132.292 203.653 132.292 203.617 132.364 203.581C132.436 203.545 132.472 203.508 132.472 203.436ZM108.851 211.551C108.779 211.587 108.779 211.659 108.779 211.731L108.851 211.551ZM132.076 206.357C132.148 206.357 132.184 206.321 132.184 206.249L132.112 206.285C132.04 206.321 132.04 206.357 132.076 206.357ZM130.741 205.312C130.669 205.384 130.669 205.42 130.669 205.42C130.705 205.42 130.741 205.384 130.741 205.312ZM129.804 206.249C129.696 206.321 129.659 206.357 129.659 206.394C129.732 206.357 129.768 206.321 129.804 206.249ZM130.056 205.853C130.02 205.853 129.984 205.889 129.984 205.925C129.948 205.961 129.948 205.997 129.984 205.997C130.02 205.961 130.056 205.925 130.056 205.853ZM110.69 204.626C110.763 204.554 110.799 204.482 110.799 204.41C110.763 204.482 110.726 204.518 110.726 204.554C110.69 204.59 110.69 204.626 110.69 204.626ZM132.581 206.646C132.508 206.646 132.436 206.682 132.436 206.718C132.436 206.718 132.508 206.718 132.581 206.646ZM131.499 204.338L131.463 204.554C131.463 204.41 131.463 204.338 131.499 204.338ZM108.743 215.013V214.976C108.743 214.94 108.707 214.904 108.707 214.832C108.707 214.76 108.707 214.724 108.743 214.652V214.832V215.013ZM128.109 211.334C128.037 211.406 128.001 211.442 128.037 211.442C128.073 211.406 128.109 211.37 128.109 211.334ZM132.292 206.538C132.292 206.538 132.292 206.502 132.364 206.43H132.292V206.538ZM111.303 203.076C111.303 203.148 111.303 203.256 111.267 203.328C111.267 203.328 111.303 203.22 111.303 203.076ZM131.751 204.049C131.715 204.086 131.715 204.122 131.715 204.122L131.751 204.049ZM110.077 206.574C110.077 206.646 110.077 206.646 110.077 206.646V206.574ZM132.328 206.321C132.292 206.357 132.292 206.394 132.292 206.394L132.328 206.357C132.328 206.357 132.328 206.357 132.328 206.321ZM109.428 217.789L109.392 217.717V217.681C109.392 217.681 109.428 217.717 109.428 217.789ZM133.879 204.049C133.843 204.049 133.807 204.086 133.807 204.086C133.807 204.086 133.843 204.086 133.879 204.049ZM118.083 216.599C118.047 216.599 118.011 216.635 118.011 216.635H117.975C117.975 216.635 118.011 216.635 118.083 216.599ZM131.715 204.266C131.715 204.266 131.715 204.23 131.751 204.23L131.715 204.266Z" fill="#646377"/>
<path d="M145.3 204.987C145.191 205.131 145.119 205.312 145.083 205.456C145.083 205.384 145.155 205.167 145.3 204.807C145.263 204.807 145.263 204.807 145.263 204.771V204.735C145.191 204.771 145.119 204.843 145.047 204.987C144.975 205.131 144.939 205.203 144.903 205.203C144.903 205.023 144.867 204.915 144.867 204.843C144.939 204.699 145.011 204.59 145.083 204.518C145.011 204.554 144.975 204.59 144.939 204.626L144.795 204.771C144.759 204.807 144.723 204.843 144.686 204.843C144.614 205.167 144.542 205.348 144.47 205.384V205.276C144.362 205.636 144.218 205.853 144.001 205.961C143.965 205.961 143.965 205.925 143.965 205.889L144.001 205.853C143.929 205.889 143.857 205.961 143.785 206.033C143.713 206.141 143.677 206.213 143.677 206.213C144.146 205.348 144.434 204.771 144.542 204.41C144.506 204.41 144.47 204.41 144.47 204.374L143.388 205.853C143.352 205.853 143.316 205.853 143.316 205.817C143.172 205.997 143.1 206.069 143.1 206.069C143.136 206.033 143.172 205.961 143.244 205.853C143.28 205.744 143.316 205.672 143.352 205.636C143.064 205.961 142.811 206.285 142.595 206.574C142.378 206.898 142.126 207.187 141.874 207.475C141.729 207.692 141.549 207.872 141.369 208.016L141.405 207.98C141.333 207.98 141.297 208.016 141.297 208.088V208.197H141.333L140.864 208.665L140.828 208.629C140.792 208.738 140.72 208.846 140.647 208.918C140.575 208.99 140.539 209.062 140.539 209.098H140.503V209.134C140.359 209.315 140.179 209.459 139.998 209.567C139.818 209.711 139.674 209.82 139.566 209.964C139.566 210 139.457 210.072 139.313 210.216C139.169 210.36 139.061 210.433 139.061 210.433C138.989 210.541 138.808 210.685 138.556 210.865C138.303 211.046 138.123 211.226 138.015 211.37C137.474 211.839 137.113 212.128 136.969 212.2V212.128C136.897 212.236 136.861 212.272 136.861 212.236C136.897 212.164 137.005 211.911 137.149 211.478C137.294 211.118 137.402 210.901 137.474 210.793L137.654 210.613C137.726 210.108 137.943 209.495 138.303 208.774C138.339 208.665 138.52 208.305 138.844 207.656C138.989 207.331 139.097 207.115 139.205 206.971C139.638 205.889 140.07 204.951 140.467 204.194C140.864 203.4 141.08 202.859 141.152 202.571C141.297 201.886 141.26 201.417 141.044 201.128L140.972 201.092C140.9 201.092 140.864 201.056 140.864 201.02C140.792 200.876 140.647 200.66 140.431 200.407H139.998C139.782 200.263 139.602 200.191 139.529 200.155C139.457 200.155 139.457 200.155 139.529 200.227C139.385 200.299 139.169 200.299 138.952 200.227C138.772 200.299 138.412 200.479 137.834 200.84C137.185 201.273 136.536 201.85 135.851 202.499C135.815 202.535 135.779 202.571 135.707 202.607C135.635 202.643 135.599 202.679 135.563 202.715C135.49 202.751 135.49 202.787 135.49 202.859C135.635 202.715 135.707 202.643 135.779 202.643L134.156 204.338C134.661 203.4 135.563 201.525 136.897 198.784V198.64C137.005 198.46 137.185 198.171 137.438 197.811C137.438 197.702 137.546 197.45 137.762 197.089C137.943 196.729 138.195 196.26 138.484 195.683C138.772 195.106 138.989 194.637 139.205 194.204C139.205 194.168 139.241 194.06 139.313 193.916C139.385 193.772 139.421 193.663 139.421 193.555C139.277 193.555 139.169 193.447 139.097 193.267C139.025 193.122 138.989 193.014 138.916 192.942C138.844 192.942 138.808 192.942 138.772 192.978C138.7 193.014 138.664 193.014 138.664 193.014C138.628 192.906 138.556 192.798 138.448 192.726C138.339 192.654 138.303 192.581 138.303 192.545C138.303 192.618 138.267 192.618 138.231 192.618H138.159C138.123 192.69 138.051 192.69 137.907 192.69C137.762 192.69 137.654 192.726 137.654 192.726C137.51 192.978 137.402 193.086 137.33 193.086L137.185 193.231V193.195H137.149C137.149 193.339 137.113 193.411 137.041 193.411C136.969 193.591 136.825 193.772 136.68 193.988C136.5 194.204 136.392 194.385 136.32 194.529L135.31 196.224C135.094 196.729 134.517 197.847 133.651 199.614C133.687 199.506 133.759 199.325 133.904 199.073C134.012 198.82 134.084 198.604 134.156 198.46C134.012 198.676 133.868 198.965 133.687 199.397C133.471 199.83 133.327 200.119 133.218 200.263L132.786 201.164C132.569 201.777 132.317 202.246 132.101 202.571C132.101 202.607 132.064 202.643 132.064 202.679C132.028 202.715 132.028 202.751 132.064 202.787C131.992 202.859 131.956 202.895 131.956 202.968C131.055 204.915 130.478 206.249 130.261 206.898C130.117 207.079 130.009 207.331 129.937 207.692C129.865 208.052 129.792 208.233 129.792 208.269C129.756 208.269 129.756 208.305 129.756 208.305V208.341C129.648 208.557 129.432 209.026 129.143 209.675C128.855 210.36 128.638 210.901 128.494 211.298C128.458 211.37 128.386 211.587 128.242 211.947C128.098 212.308 128.061 212.596 128.061 212.813C128.134 212.813 128.17 212.921 128.17 213.137C128.17 213.173 128.206 213.209 128.206 213.282C128.206 213.354 128.242 213.39 128.278 213.39C128.314 213.354 128.422 213.318 128.566 213.318C128.566 213.39 128.602 213.462 128.675 213.498C128.747 213.57 128.819 213.606 128.891 213.642C128.963 213.678 129.035 213.714 129.071 213.714C129.071 213.75 129.107 213.822 129.143 213.967C129.143 214.111 129.179 214.183 129.252 214.183C129.252 214.147 129.288 214.075 129.288 214.003C129.288 213.931 129.288 213.895 129.288 213.859C129.288 213.822 129.36 213.786 129.432 213.786C129.432 213.859 129.576 213.931 129.829 214.003C129.865 213.714 129.901 213.57 129.937 213.57C130.009 213.714 130.117 213.75 130.261 213.714C130.261 213.786 130.261 213.822 130.333 213.822C130.369 213.678 130.406 213.57 130.442 213.57V213.426C130.586 212.993 130.694 212.705 130.838 212.524C130.766 212.596 130.73 212.705 130.73 212.777L130.694 212.921C130.874 212.632 131.235 211.983 131.812 210.937C132.353 209.928 132.75 209.206 133.038 208.846C133.255 208.557 133.615 208.088 134.12 207.403C134.625 206.754 135.022 206.249 135.31 205.925C135.49 205.708 135.779 205.384 136.212 204.987C136.608 204.626 136.897 204.302 137.077 204.086C137.149 204.049 137.257 203.977 137.402 203.833C137.546 203.689 137.654 203.617 137.726 203.581C137.69 203.653 137.618 203.797 137.546 204.013C137.438 204.23 137.366 204.374 137.366 204.518C137.149 204.807 136.933 205.276 136.68 205.853C136.392 206.466 136.248 206.826 136.212 206.934L135.454 208.846C135.382 208.918 135.274 209.17 135.13 209.603C134.986 210.036 134.913 210.288 134.913 210.36C134.697 210.757 134.553 211.19 134.481 211.695C134.264 212.128 134.192 212.56 134.3 212.993C134.336 213.318 134.481 213.498 134.697 213.57C134.697 213.678 134.733 213.75 134.769 213.822C134.805 213.895 134.877 213.931 134.949 213.967C135.022 214.039 135.094 214.075 135.166 214.111C135.238 214.147 135.31 214.183 135.454 214.183C135.599 214.219 135.671 214.255 135.743 214.255C135.815 214.255 135.887 214.291 136.031 214.291C136.176 214.291 136.248 214.291 136.284 214.291C136.356 214.363 136.644 214.363 137.149 214.291C137.185 214.219 137.294 214.111 137.474 214.039L137.69 213.931C137.907 213.859 138.159 213.75 138.448 213.57L138.772 213.245C138.844 213.209 138.952 213.101 139.133 212.921C139.277 212.741 139.421 212.596 139.529 212.524C139.602 212.488 139.71 212.38 139.854 212.236C139.998 212.091 140.143 212.019 140.251 211.947C140.251 211.947 140.287 211.911 140.359 211.839L140.395 211.767C140.9 211.19 141.405 210.685 141.837 210.288C141.946 210.144 142.018 210.072 142.054 210.072L142.09 210C142.09 209.928 142.126 209.892 142.198 209.82L142.703 209.279C143.1 208.882 143.316 208.593 143.352 208.377C143.46 208.233 144.037 207.367 145.083 205.817C145.083 205.744 145.119 205.6 145.191 205.42C145.263 205.276 145.3 205.131 145.3 204.987ZM138.015 200.768C138.448 200.515 138.736 200.371 138.808 200.371L138.375 200.66C138.303 200.696 138.087 200.84 137.726 201.092C137.294 201.417 136.861 201.777 136.5 202.21C136.428 202.21 136.356 202.246 136.284 202.282C136.212 202.354 136.176 202.354 136.176 202.354C136.464 201.994 137.077 201.453 138.015 200.768ZM142.991 208.629C143.1 208.413 143.244 208.233 143.46 208.088C143.352 208.233 143.208 208.413 142.991 208.629ZM144.903 204.338C144.795 204.446 144.723 204.59 144.686 204.771C144.831 204.59 144.903 204.446 144.903 204.338ZM134.264 198.135C134.12 198.207 134.084 198.315 134.156 198.424L134.264 198.135ZM138.808 200.515C138.808 200.443 138.88 200.407 138.952 200.407C138.88 200.479 138.808 200.515 138.808 200.515ZM142.883 208.774C142.883 208.882 142.847 208.954 142.775 208.954L142.883 208.774ZM138.844 192.798L138.916 192.834C138.916 192.906 138.916 192.942 138.916 192.942C138.952 192.87 138.916 192.798 138.844 192.798ZM136.031 202.427C136.031 202.391 136.067 202.354 136.14 202.354C136.14 202.427 136.103 202.427 136.031 202.427ZM135.995 202.463C135.923 202.571 135.887 202.607 135.815 202.607L135.995 202.463ZM134.409 197.919C134.336 197.919 134.336 197.955 134.336 198.027C134.372 198.027 134.409 197.991 134.409 197.919ZM142.919 208.774C142.883 208.774 142.883 208.738 142.919 208.702C142.919 208.702 142.955 208.665 142.955 208.629C142.991 208.665 142.991 208.702 142.955 208.702L142.919 208.774ZM144.686 204.771C144.614 204.843 144.614 204.879 144.614 204.879C144.614 204.879 144.65 204.879 144.686 204.843V204.771ZM134.589 197.414C134.589 197.45 134.553 197.486 134.553 197.522C134.553 197.558 134.553 197.594 134.553 197.594C134.589 197.522 134.589 197.45 134.589 197.414ZM134.661 197.342C134.697 197.342 134.733 197.306 134.733 197.197L134.661 197.342ZM137.041 212.055C136.969 212.055 136.969 212.091 136.969 212.128L137.041 212.055Z" fill="#646377"/>
<path d="M151.565 214.147C151.565 214.183 151.565 214.183 151.637 214.183H151.709C151.925 214.111 152.106 214.039 152.25 213.931C152.646 213.642 153.043 213.318 153.404 212.957C153.764 212.596 154.125 212.164 154.558 211.623C154.991 211.118 155.279 210.721 155.495 210.505C155.495 210.469 155.495 210.433 155.568 210.36C155.568 210.36 155.532 210.324 155.532 210.288C155.676 210.108 155.892 209.856 156.181 209.495L157.263 208.052C157.19 208.125 157.19 208.125 157.19 208.052L157.443 207.764C157.479 207.692 157.515 207.62 157.587 207.475C157.659 207.367 157.695 207.295 157.767 207.223C157.803 207.151 157.876 207.079 157.984 206.934C158.092 206.79 158.164 206.682 158.236 206.574C158.2 206.538 158.2 206.502 158.236 206.43C158.236 206.357 158.272 206.321 158.272 206.285C158.092 206.357 157.984 206.394 157.984 206.394L157.948 206.357C157.948 206.357 157.948 206.321 157.984 206.285C158.02 206.249 158.056 206.213 158.056 206.177L157.984 206.213C157.984 206.249 157.948 206.249 157.948 206.249C157.984 205.961 158.02 205.817 158.02 205.744C157.515 206.394 157.154 206.862 156.866 207.187L157.154 206.79C157.118 206.79 157.118 206.79 157.118 206.754C157.118 206.682 157.19 206.538 157.299 206.321C157.407 206.141 157.479 205.997 157.479 205.853L156.83 206.61C156.794 206.61 156.758 206.61 156.722 206.574C156.686 206.574 156.649 206.574 156.649 206.538C156.397 206.826 155.892 207.367 155.135 208.125C154.377 208.918 153.981 209.315 153.909 209.387C153.656 209.675 153.512 209.856 153.476 209.892L153.44 209.856C153.44 209.82 153.404 209.82 153.404 209.82C153.368 209.856 153.368 209.892 153.44 209.928C153.296 210.072 153.151 210.144 153.079 210.216C153.007 210.288 152.899 210.397 152.827 210.469L152.538 210.757C152.358 210.974 151.961 211.262 151.312 211.551C151.384 211.334 151.456 211.082 151.492 210.865L151.853 209.279L152.286 207.944C152.358 207.656 152.502 207.295 152.719 206.826C152.899 206.394 153.043 205.997 153.187 205.636C153.26 205.456 153.404 205.095 153.656 204.59C153.909 204.086 154.089 203.725 154.161 203.436C154.197 203.04 154.269 202.715 154.341 202.499V202.463C154.414 202.246 154.305 201.958 154.017 201.561C153.945 201.561 153.873 201.561 153.837 201.489C153.728 201.056 153.548 200.804 153.296 200.804C153.26 200.804 153.26 200.804 153.26 200.768L153.223 200.696C153.151 200.732 153.043 200.732 152.971 200.66C152.863 200.623 152.791 200.587 152.755 200.587C152.683 200.587 152.61 200.587 152.538 200.515C152.43 200.479 152.394 200.515 152.394 200.623C152.358 200.623 152.358 200.66 152.358 200.696V200.768C152.178 200.732 152.069 200.696 152.033 200.696C152.033 200.768 151.997 200.804 151.925 200.804C151.925 200.84 151.925 200.84 151.961 200.84L151.997 200.876C151.925 201.02 151.817 201.273 151.601 201.561C151.529 201.633 151.456 201.741 151.348 201.85C151.24 201.994 151.168 202.066 151.132 202.138C150.483 203.076 149.978 203.761 149.617 204.194C149.473 204.338 149.329 204.518 149.184 204.735C149.04 204.951 148.932 205.131 148.86 205.203C148.68 205.492 148.535 205.672 148.463 205.672L148.355 205.78C148.211 205.997 148.103 206.069 148.103 206.033C147.85 206.43 147.598 206.79 147.309 207.151C147.021 207.511 146.624 207.944 146.191 208.449C145.758 208.954 145.362 209.423 145.037 209.82C145.398 208.702 145.65 207.908 145.795 207.475C145.939 207.043 146.227 206.43 146.588 205.636C146.949 204.843 147.417 204.013 147.922 203.184V203.148C147.958 203.148 147.958 203.112 147.958 203.076C147.994 203.04 148.03 202.968 148.103 202.895C148.139 202.823 148.175 202.751 148.175 202.715C148.175 202.715 148.283 202.535 148.427 202.21C148.571 201.886 148.607 201.705 148.607 201.633C148.607 201.561 148.571 201.417 148.571 201.128H148.463L148.391 201.092C148.355 201.02 148.319 200.948 148.283 200.804C148.211 200.696 148.175 200.587 148.175 200.515C148.066 200.515 147.994 200.515 147.958 200.479L147.994 200.551C148.03 200.587 148.03 200.623 148.03 200.623C147.958 200.623 147.85 200.587 147.742 200.515C147.634 200.443 147.562 200.371 147.526 200.371C147.489 200.371 147.453 200.407 147.453 200.407C147.417 200.407 147.381 200.407 147.381 200.407L147.237 200.335C147.093 200.335 147.021 200.335 146.985 200.335C146.949 200.407 146.804 200.443 146.516 200.515C146.227 200.587 146.083 200.66 146.083 200.66C146.011 200.623 145.939 200.623 145.939 200.66C145.903 200.696 145.867 200.696 145.867 200.696H145.831C145.758 200.804 145.722 200.912 145.686 200.984C145.614 201.056 145.578 201.128 145.578 201.164C145.542 201.237 145.506 201.309 145.47 201.453C145.434 201.597 145.398 201.814 145.362 202.03C145.326 202.03 145.326 202.066 145.326 202.102C145.326 202.174 145.29 202.21 145.254 202.21C145.181 202.391 145.145 202.499 145.145 202.535C145.073 202.607 145.037 202.679 145.037 202.751C145.037 202.823 145.001 202.895 144.965 202.968C143.162 206.646 142.224 208.918 142.08 209.856L141.936 210.577C141.864 210.865 141.828 211.262 141.828 211.767C141.828 212.091 141.9 212.416 142.008 212.705H142.188C142.224 212.885 142.332 213.029 142.477 213.101C142.441 213.318 142.513 213.498 142.729 213.57C142.946 213.642 143.126 213.642 143.27 213.498C143.342 213.57 143.523 213.606 143.811 213.606C144.1 213.606 144.28 213.57 144.388 213.498L144.46 213.57C144.46 213.606 144.532 213.606 144.604 213.534C144.641 213.534 144.641 213.462 144.641 213.39C145.109 213.029 145.831 212.272 146.768 211.082C147.021 210.649 147.778 209.567 149.04 207.764H149.112C149.112 207.764 149.112 207.728 149.112 207.692H149.076C149.365 207.331 149.545 207.079 149.617 207.007C149.689 206.862 149.834 206.682 150.014 206.502C149.978 206.646 149.906 206.862 149.834 207.151C149.437 208.377 149.076 209.567 148.752 210.793C148.535 211.442 148.535 212.055 148.716 212.56C148.752 212.705 148.86 212.885 149.04 213.101C149.184 213.318 149.329 213.498 149.401 213.642C149.509 213.931 149.761 214.075 150.122 214.111C150.158 214.183 150.266 214.255 150.447 214.255C150.591 214.291 150.771 214.291 150.952 214.291C151.096 214.291 151.24 214.291 151.348 214.291L151.529 214.147L151.601 214.291C151.601 214.291 151.601 214.255 151.601 214.219C151.565 214.219 151.565 214.183 151.565 214.147ZM152.863 200.696C152.863 200.696 152.935 200.696 153.079 200.768C153.007 200.804 152.935 200.768 152.863 200.696ZM157.299 206.61C157.263 206.646 157.263 206.682 157.263 206.682L157.299 206.61Z" fill="#646377"/>
<path d="M166.102 208.305V208.269C165.958 208.377 165.814 208.521 165.633 208.702C165.417 208.882 165.309 208.99 165.273 209.026C165.201 209.062 165.201 209.098 165.201 209.134C165.128 209.206 165.056 209.242 164.984 209.315C164.912 209.387 164.84 209.459 164.84 209.459C164.84 209.567 164.732 209.675 164.588 209.783H164.66C164.407 209.964 164.083 210.252 163.722 210.649C163.361 211.046 163.145 211.262 163.073 211.298H163.037C162.82 211.442 162.568 211.551 162.243 211.695C161.919 211.839 161.666 212.019 161.486 212.164C161.558 211.803 161.63 211.442 161.702 211.118C161.775 210.829 161.847 210.505 161.955 210.216C162.027 209.928 162.135 209.711 162.207 209.531C162.279 209.351 162.388 209.098 162.532 208.81C162.676 208.521 162.82 208.341 162.893 208.197C162.965 208.052 163.109 207.8 163.325 207.439C163.542 207.079 163.686 206.826 163.794 206.646C163.902 206.43 164.047 206.213 164.227 205.997C164.371 205.78 164.551 205.456 164.768 205.095C164.804 205.059 164.84 204.987 164.912 204.915C164.984 204.843 165.02 204.771 165.056 204.735C165.092 204.626 165.201 204.41 165.417 204.049C165.597 203.689 165.742 203.4 165.814 203.148V203.256C165.814 203.328 165.814 203.328 165.85 203.328C165.886 203.292 165.922 203.22 165.958 203.076C165.994 202.968 166.03 202.895 166.066 202.859C166.066 202.859 166.03 202.787 165.958 202.715C165.886 202.643 165.85 202.535 165.85 202.463C165.778 202.427 165.742 202.318 165.705 202.138L165.561 202.066C165.489 201.994 165.417 201.958 165.417 201.886C165.381 201.814 165.345 201.741 165.273 201.669C165.201 201.597 165.201 201.525 165.201 201.489C165.128 201.525 165.092 201.525 165.056 201.489L164.948 201.453C164.876 201.525 164.804 201.561 164.696 201.561H164.443C164.407 201.561 164.371 201.525 164.335 201.525C164.191 201.597 164.119 201.597 164.047 201.525V201.561C164.047 201.597 164.011 201.597 164.011 201.597C163.83 201.597 163.65 201.633 163.434 201.705C163.217 201.777 163.037 201.814 162.965 201.814C162.893 201.814 162.82 201.814 162.748 201.777C162.64 201.777 162.568 201.741 162.568 201.741C162.532 201.741 162.496 201.777 162.496 201.777C162.46 201.777 162.424 201.777 162.424 201.777C162.279 201.814 162.135 201.814 161.991 201.741C161.847 201.669 161.739 201.597 161.739 201.525C161.739 201.417 161.775 201.237 161.883 200.984L162.099 200.551C162.171 200.371 162.243 200.191 162.316 200.046C162.604 199.145 162.712 198.496 162.568 198.063C162.279 197.955 162.099 197.883 162.063 197.811C162.027 197.811 161.991 197.847 161.991 197.883C161.991 197.919 161.955 197.919 161.955 197.919C161.883 197.919 161.811 197.919 161.702 197.847C161.558 197.775 161.486 197.738 161.45 197.738C161.342 197.738 161.27 197.775 161.198 197.811L161.089 197.883C161.162 197.775 161.198 197.702 161.198 197.666L160.981 197.919C160.909 197.883 160.837 197.847 160.729 197.847C160.621 197.847 160.585 197.847 160.585 197.919C160.729 197.847 160.873 197.883 160.981 197.991C160.945 197.991 160.909 197.991 160.873 197.955C160.837 197.955 160.801 197.919 160.801 197.919C160.729 197.955 160.657 198.027 160.585 198.171C160.512 198.315 160.404 198.424 160.332 198.424C160.296 198.424 160.296 198.388 160.296 198.352V198.315C160.26 198.315 160.224 198.352 160.224 198.352C160.188 198.388 160.152 198.388 160.152 198.352C160.008 198.856 159.899 199.253 159.899 199.542C159.791 199.686 159.719 200.155 159.683 200.876C159.467 200.335 159.539 199.758 159.899 199.109C159.899 199.037 159.899 198.929 159.971 198.748C160.008 198.604 160.008 198.496 159.971 198.496C159.827 198.64 159.719 198.748 159.719 198.82C159.647 198.965 159.575 199.181 159.503 199.433C159.431 199.722 159.358 199.938 159.286 200.119C159.214 200.299 159.178 200.479 159.142 200.696C159.07 200.912 159.07 201.128 159.106 201.273C159.106 201.453 159.178 201.597 159.25 201.741H159.214C159.142 201.814 159.106 201.814 159.07 201.777L159.106 201.814C159.142 201.85 159.142 201.886 159.142 201.886C158.998 202.138 158.781 202.463 158.493 202.895C158.204 203.328 157.988 203.689 157.844 204.013C157.808 204.086 157.591 204.41 157.231 204.915C157.123 205.131 156.906 205.492 156.545 205.961C156.185 206.43 155.968 206.754 155.896 206.898H155.86L155.824 206.934C155.752 207.079 155.644 207.295 155.5 207.548C155.428 207.62 155.283 207.836 155.031 208.125C154.778 208.449 154.598 208.702 154.526 208.918C154.526 208.918 154.598 208.918 154.67 208.846C154.742 208.81 154.851 208.774 154.923 208.738C154.995 208.738 155.031 208.702 155.103 208.702V208.738C155.103 208.774 155.103 208.774 155.139 208.774C155.211 208.629 155.283 208.557 155.355 208.557C155.319 208.629 155.247 208.702 155.175 208.81C155.103 208.918 155.067 208.99 155.103 209.026C155.103 209.026 155.139 208.99 155.139 208.918C155.139 208.882 155.175 208.846 155.247 208.774C155.283 208.738 155.355 208.702 155.428 208.702C155.355 208.774 155.211 208.954 154.995 209.242C155.067 209.242 155.139 209.17 155.247 209.098C155.319 209.026 155.391 208.954 155.464 208.918C155.464 208.99 155.428 209.026 155.355 209.098C155.283 209.17 155.247 209.206 155.283 209.206C155.283 209.206 155.355 209.17 155.464 209.062C155.5 209.098 155.5 209.134 155.5 209.17C155.464 209.206 155.464 209.242 155.464 209.242C155.536 209.134 155.644 209.062 155.824 209.062C155.824 209.098 155.788 209.134 155.752 209.134C155.716 209.17 155.716 209.206 155.716 209.242C155.716 209.242 155.752 209.242 155.788 209.206C155.788 209.206 155.824 209.206 155.86 209.206L155.752 209.423C155.752 209.423 155.788 209.351 155.824 209.279C155.86 209.206 155.896 209.134 155.968 209.062C156.005 209.026 156.077 208.99 156.185 208.99V209.134C156.185 209.134 156.257 209.062 156.401 208.882H156.473C156.618 208.665 156.726 208.521 156.798 208.449C156.906 208.305 157.159 208.052 157.555 207.656C157.952 207.295 158.204 207.007 158.313 206.79C158.529 206.502 158.817 206.105 159.178 205.636C159.539 205.167 159.791 204.807 160.008 204.518C160.368 203.797 160.693 203.292 160.945 203.004L161.089 202.715C161.522 203.184 162.171 203.292 163.109 203.04C162.857 203.436 162.568 203.869 162.207 204.302C161.847 204.771 161.522 205.276 161.234 205.817C161.162 205.853 161.125 205.889 161.125 205.961C161.089 206.033 161.053 206.105 161.053 206.105C160.873 206.43 160.621 206.898 160.296 207.511C159.971 208.125 159.719 208.593 159.575 208.954C159.394 209.315 159.214 209.783 159.034 210.36C158.817 210.937 158.673 211.551 158.601 212.164C158.457 212.632 158.457 213.209 158.565 213.895C158.601 213.967 158.637 214.039 158.637 214.147L158.817 214.291C159.07 214.255 159.322 214.363 159.539 214.652C159.755 214.94 159.935 215.085 160.152 215.085C160.26 215.085 160.512 215.013 160.909 214.868C161.27 214.724 161.486 214.652 161.558 214.652C161.594 214.652 161.702 214.616 161.883 214.544C162.027 214.472 162.171 214.436 162.243 214.363C162.279 214.363 162.316 214.327 162.388 214.291C162.424 214.255 162.46 214.219 162.532 214.147C162.568 214.075 162.604 214.039 162.676 214.003C163.145 213.786 163.47 213.534 163.686 213.209C163.794 213.137 163.938 212.957 164.119 212.741C164.263 212.524 164.371 212.416 164.443 212.344C164.66 212.272 164.876 212.091 165.02 211.803C165.201 211.659 165.381 211.514 165.525 211.334L166.751 209.964L167.941 208.377C167.869 208.521 167.617 208.882 167.184 209.495L168.266 208.197L169.168 207.007C169.312 206.79 169.42 206.646 169.492 206.574C169.492 206.502 169.564 206.43 169.636 206.357C169.708 206.285 169.781 206.213 169.781 206.141C169.708 206.177 169.636 206.249 169.564 206.357C169.492 206.502 169.42 206.574 169.348 206.574L169.023 207.043L168.627 207.584V207.511L168.482 207.764L168.158 208.088H168.122L167.833 208.413H167.761C167.797 208.521 167.761 208.557 167.653 208.557V208.665C167.509 208.774 167.076 209.242 166.391 210.108C166.391 210.072 166.535 209.82 166.859 209.387C167.148 208.954 167.328 208.738 167.4 208.702L167.436 208.629C167.436 208.629 167.473 208.629 167.473 208.593C167.545 208.593 167.581 208.557 167.653 208.485C167.689 208.413 167.725 208.377 167.761 208.377L169.528 206.141C169.745 205.961 169.961 205.708 170.141 205.384C169.961 205.564 169.708 205.817 169.42 206.141C169.131 206.502 168.915 206.718 168.771 206.862C169.492 205.961 169.961 205.348 170.177 204.987C170.249 204.843 170.249 204.771 170.249 204.735C169.672 205.564 169.312 206.033 169.204 206.177L169.672 205.276L170.213 204.374C169.745 204.771 169.023 205.528 168.013 206.646C167.941 206.682 167.977 206.574 168.158 206.321C169.023 205.24 169.456 204.626 169.528 204.482C169.456 204.482 169.42 204.482 169.42 204.41L168.771 205.059C168.699 205.131 168.591 205.276 168.446 205.456C168.302 205.636 168.194 205.744 168.122 205.817C168.05 205.889 167.977 205.925 167.941 205.889C168.05 205.78 168.266 205.456 168.627 204.951C168.554 204.951 168.518 204.987 168.482 205.059C168.41 205.131 168.374 205.167 168.374 205.167C168.23 205.348 167.977 205.636 167.689 206.033C167.4 206.466 167.076 206.898 166.751 207.331C166.427 207.8 166.246 208.088 166.174 208.197L166.102 208.305ZM165.886 210.649C165.886 210.649 165.922 210.613 166.03 210.541L165.705 210.865L165.742 210.829C165.742 210.829 165.742 210.793 165.742 210.757C165.669 210.829 165.669 210.865 165.669 210.901C165.597 210.937 165.561 211.01 165.489 211.082C165.417 211.19 165.381 211.226 165.381 211.226C165.597 210.793 165.85 210.505 166.174 210.288C166.174 210.36 166.138 210.397 166.102 210.433C166.102 210.469 166.066 210.505 166.066 210.505C165.922 210.577 165.85 210.613 165.886 210.649ZM165.669 208.738C165.669 208.702 165.778 208.593 165.994 208.413L165.669 208.738ZM166.21 210.36C166.246 210.216 166.319 210.108 166.391 210.108L166.21 210.36ZM166.643 209.964C166.643 210.108 166.571 210.18 166.427 210.216L166.643 209.964ZM168.915 207.115C168.843 207.187 168.771 207.259 168.699 207.403L168.915 207.115ZM167.761 205.817V205.708C167.689 205.708 167.689 205.744 167.689 205.817H167.761ZM169.348 206.574C169.456 206.466 169.528 206.357 169.6 206.249L169.348 206.574ZM166.932 209.747C166.823 209.892 166.751 209.964 166.751 209.964L166.932 209.747ZM168.915 207.079C168.951 207.079 168.987 207.079 169.023 207.007L168.951 207.043C168.915 207.043 168.915 207.079 168.915 207.079Z" fill="#646377"/>
<path d="M167.824 214.436C167.968 214.508 168.076 214.544 168.184 214.544L168.112 214.436C168.256 214.436 168.401 214.472 168.509 214.544C168.581 214.472 168.617 214.472 168.617 214.508L168.545 214.58C168.581 214.58 168.653 214.58 168.725 214.544C168.797 214.508 168.869 214.508 168.942 214.508L168.905 214.58C168.905 214.58 169.194 214.544 169.699 214.472V214.436C169.879 214.363 170.132 214.255 170.456 214.111C170.781 213.967 171.033 213.859 171.214 213.786C171.214 213.75 171.214 213.714 171.25 213.678C171.394 213.606 171.574 213.498 171.827 213.282C172.043 213.101 172.223 212.957 172.368 212.885C172.476 212.813 172.692 212.668 172.981 212.488C173.269 212.308 173.449 212.2 173.522 212.128C173.594 212.055 173.81 211.875 174.135 211.587C174.423 211.334 174.639 211.118 174.784 210.901H174.892C174.892 210.829 174.928 210.793 175 210.721C175.072 210.649 175.108 210.649 175.18 210.649C175.18 210.541 175.253 210.469 175.397 210.469C175.397 210.469 175.397 210.433 175.397 210.397C175.397 210.397 175.433 210.36 175.433 210.324L175.83 210C175.866 209.928 175.902 209.856 175.974 209.856C175.938 209.892 175.938 209.928 175.938 209.928L177.092 208.954C176.948 209.026 176.731 209.17 176.515 209.387C176.262 209.603 176.082 209.747 175.974 209.82C176.046 209.675 176.19 209.567 176.371 209.495C176.443 209.351 176.515 209.279 176.623 209.242C176.623 209.242 176.659 209.206 176.659 209.17C176.659 209.17 176.659 209.17 176.731 209.17V209.062C177.236 208.485 177.597 208.088 177.813 207.8L177.849 207.764L177.885 207.8C177.885 207.764 177.921 207.728 177.993 207.692C177.993 207.692 178.029 207.692 178.029 207.62H178.065C178.102 207.548 178.174 207.475 178.282 207.367C178.354 207.259 178.426 207.187 178.462 207.151C178.354 207.259 178.282 207.331 178.246 207.331C178.282 207.259 178.354 207.187 178.498 207.043C178.606 206.934 178.715 206.826 178.787 206.682H178.751L178.787 206.646C178.787 206.61 178.823 206.574 178.859 206.538V206.646C178.859 206.574 178.931 206.502 179.003 206.43L179.183 206.249C179.147 206.285 179.111 206.321 179.039 206.394C178.967 206.466 178.895 206.502 178.895 206.502C179.039 206.357 179.256 206.105 179.58 205.744C179.869 205.384 180.121 205.131 180.265 204.915C180.193 204.915 180.157 204.951 180.121 205.023C180.049 205.095 180.013 205.095 180.013 205.095L180.121 204.879L179.941 205.131V205.167C179.76 205.564 179.508 205.817 179.183 205.961C179.111 206.033 179.111 206.069 179.111 206.069C178.823 206.466 178.498 206.826 178.138 207.187L178.715 206.466L177.993 207.223C178.498 206.538 178.967 206.033 179.4 205.672C179.544 205.42 179.833 205.059 180.265 204.554C180.698 204.049 180.987 203.689 181.167 203.4L181.527 202.859H181.455C181.311 202.968 181.203 203.112 181.059 203.328C181.095 203.184 181.167 203.04 181.311 202.823C181.419 202.643 181.491 202.499 181.527 202.427C181.455 202.571 181.383 202.679 181.347 202.679C181.275 202.751 181.239 202.787 181.239 202.715C181.203 202.715 181.203 202.679 181.203 202.643L181.239 202.571V202.535C181.239 202.499 181.203 202.499 181.167 202.535C181.167 202.571 181.167 202.571 181.203 202.571C181.167 202.571 181.131 202.607 181.095 202.643C181.059 202.715 181.023 202.715 181.023 202.715V202.679L180.987 202.643C180.698 203.04 180.554 203.256 180.554 203.328C180.337 203.472 180.049 203.761 179.76 204.158C179.472 204.554 179.256 204.807 179.183 204.879C179.147 204.879 179.147 204.915 179.147 204.915C179.003 205.059 178.715 205.348 178.354 205.78C177.957 206.213 177.633 206.538 177.416 206.682L177.38 206.646C177.344 206.646 177.308 206.718 177.236 206.79C177.164 206.862 177.092 206.898 177.056 206.898C177.2 206.79 177.344 206.646 177.452 206.43C177.705 206.141 177.849 205.961 177.849 205.925L178.029 205.853C178.029 205.853 178.029 205.817 178.065 205.744V205.708C178.246 205.528 178.498 205.203 178.787 204.771C178.931 204.59 179.075 204.41 179.147 204.23C179.364 204.194 179.544 204.049 179.76 203.761C179.833 203.653 179.941 203.472 180.157 203.22C180.337 203.004 180.482 202.823 180.554 202.679C180.518 202.679 180.482 202.643 180.482 202.643L180.446 202.607L180.41 202.643H180.337C180.265 202.751 180.157 202.787 180.085 202.787C179.869 203.076 179.724 203.292 179.616 203.436C179.472 203.581 179.328 203.725 179.147 203.869C178.931 204.013 178.751 204.158 178.606 204.302C178.426 204.482 178.246 204.735 178.065 205.023C178.029 205.023 177.993 205.059 177.993 205.059C177.993 205.095 177.957 205.095 177.957 205.095C177.885 205.131 177.849 205.167 177.813 205.24C177.741 205.312 177.705 205.348 177.669 205.348C177.669 205.42 177.633 205.492 177.633 205.492C177.561 205.564 177.452 205.636 177.344 205.708C177.236 205.817 177.164 205.889 177.092 205.925C177.02 205.997 176.948 206.069 176.839 206.213C176.695 206.357 176.623 206.466 176.551 206.502C176.551 206.538 176.515 206.574 176.479 206.61H176.515C176.551 206.574 176.587 206.574 176.623 206.574C176.551 206.61 176.479 206.682 176.371 206.79C176.262 206.898 176.19 206.971 176.154 206.971C176.154 206.971 176.154 206.934 176.19 206.898C176.226 206.862 176.226 206.826 176.226 206.79C176.226 206.826 176.19 206.862 176.154 206.898C176.118 206.971 176.082 207.007 176.082 207.007C176.082 207.043 176.082 207.079 176.118 207.115C176.082 207.115 176.046 207.151 176.046 207.151C176.01 207.187 175.974 207.187 175.974 207.151C175.83 207.331 175.757 207.439 175.721 207.439C175.721 207.439 175.721 207.403 175.793 207.331C175.83 207.295 175.866 207.259 175.866 207.223C175.757 207.331 175.685 207.403 175.649 207.403L175.613 207.439V207.475L175.541 207.584C175.541 207.584 175.577 207.548 175.613 207.548L175.505 207.62L175.469 207.656L175.325 207.836L175.289 207.872H175.18C175.18 207.908 175.144 207.944 175.144 207.944C175.144 207.98 175.144 208.016 175.144 208.016H175.108L175.072 208.052C174.964 208.125 174.712 208.341 174.351 208.629C173.99 208.954 173.702 209.17 173.522 209.315C173.485 209.351 173.341 209.459 173.089 209.675C173.053 209.747 172.981 209.82 172.872 209.856L172.728 209.964C172.692 210.036 172.692 210.036 172.728 210.036L172.368 210.288C172.331 210.36 172.259 210.397 172.151 210.433C172.115 210.433 172.115 210.397 172.151 210.36V210.324C172.079 210.324 172.007 210.397 171.935 210.505C171.863 210.613 171.827 210.649 171.791 210.649V210.577C171.574 210.721 171.286 210.901 170.853 211.19C170.42 211.478 170.059 211.731 169.735 211.947C169.374 212.164 169.05 212.308 168.761 212.416C168.725 211.082 169.086 209.603 169.843 208.016C170.817 206.105 171.863 204.554 172.981 203.364C172.981 203.509 172.908 203.653 172.764 203.797C172.62 203.941 172.512 204.049 172.512 204.086C172.728 203.905 172.836 203.797 172.872 203.761C172.872 203.797 172.872 203.869 172.872 203.941C172.872 204.013 172.908 204.086 172.945 204.086L173.053 203.977L172.764 204.554C172.8 204.554 172.836 204.482 172.908 204.338C172.981 204.23 173.017 204.158 173.089 204.122L172.872 204.554C172.945 204.554 172.981 204.59 172.981 204.663C172.908 204.735 172.908 204.807 172.981 204.879C173.017 204.735 173.053 204.626 173.125 204.59C173.125 204.59 173.161 204.699 173.161 204.879C173.161 204.879 173.161 204.843 173.197 204.807H173.305C173.305 204.843 173.305 204.843 173.377 204.807L173.413 204.843C173.377 204.915 173.377 204.987 173.377 205.059C173.377 205.131 173.341 205.203 173.341 205.24H173.413C173.413 205.24 173.449 205.276 173.485 205.276C173.413 205.42 173.377 205.492 173.413 205.528C173.413 205.456 173.485 205.384 173.594 205.276V205.384L173.63 205.42C173.666 205.42 173.702 205.456 173.738 205.456C173.774 205.492 173.81 205.492 173.846 205.456L173.882 205.42C173.882 205.528 173.846 205.6 173.774 205.672C173.81 205.708 173.846 205.708 173.882 205.636C173.882 205.564 173.918 205.528 173.954 205.528C174.099 205.6 174.279 205.564 174.459 205.42C174.459 205.348 174.495 205.312 174.495 205.276C174.531 205.167 174.567 205.059 174.639 204.915C174.676 204.771 174.712 204.626 174.784 204.482C174.856 204.338 174.892 204.194 174.928 204.086C174.928 204.049 175 203.977 175.072 203.833C175.144 203.725 175.18 203.653 175.216 203.581C175.325 202.968 175.397 202.607 175.469 202.463C175.469 202.102 175.505 201.85 175.613 201.777V201.597L175.541 201.453C175.541 201.345 175.541 201.237 175.469 201.092C175.397 200.984 175.397 200.912 175.397 200.876L175.18 200.804C175.253 200.551 175.108 200.407 174.784 200.407C174.748 200.335 174.603 200.263 174.387 200.191C174.387 200.155 174.351 200.119 174.279 200.083C174.207 200.083 174.135 200.046 174.135 200.01V199.686C174.062 199.65 173.918 199.614 173.666 199.578C173.413 199.542 173.269 199.469 173.233 199.361C173.233 199.397 173.197 199.397 173.161 199.397V199.433C173.161 199.469 173.161 199.469 173.161 199.469C173.053 199.469 172.945 199.506 172.836 199.614C172.764 199.686 172.692 199.722 172.584 199.758L172.44 199.866C172.295 199.974 171.935 200.299 171.358 200.876C170.997 201.237 170.42 201.886 169.663 202.787C168.797 204.013 168.22 204.843 168.004 205.348C167.86 205.348 167.824 205.42 167.896 205.528L167.968 205.456C167.896 205.6 167.788 205.853 167.607 206.177C167.427 206.538 167.319 206.754 167.283 206.826C167.247 206.862 167.211 206.898 167.211 206.971C167.211 207.043 167.174 207.115 167.174 207.151C167.138 207.187 167.102 207.187 167.102 207.187L167.211 207.007C166.994 207.223 166.814 207.511 166.706 207.872C166.67 208.016 166.634 208.197 166.561 208.413C166.489 208.629 166.417 208.81 166.381 208.954C166.345 209.098 166.309 209.279 166.309 209.423C166.129 209.639 166.057 209.928 166.057 210.324H166.093V210.397C166.093 210.433 166.057 210.469 166.057 210.469C166.057 210.433 166.02 210.397 166.02 210.397C165.984 210.469 165.984 210.541 165.984 210.685C165.984 210.721 166.02 210.721 166.02 210.685C165.984 210.829 165.984 211.01 166.02 211.262C166.02 211.551 166.057 211.731 166.057 211.803C166.057 211.911 166.057 212.019 166.093 212.164C166.093 212.308 166.093 212.38 166.093 212.416L166.057 212.344C166.057 212.56 166.201 212.957 166.489 213.462L166.525 213.426V213.39C166.561 213.426 166.597 213.462 166.634 213.534C166.634 213.606 166.67 213.678 166.706 213.678C166.706 213.642 166.706 213.606 166.742 213.606C166.814 213.642 166.85 213.714 166.922 213.786C166.958 213.895 166.994 213.967 167.066 213.967C167.066 213.967 167.066 213.931 167.03 213.859C166.958 213.786 166.958 213.75 166.958 213.714C167.066 213.786 167.138 213.895 167.138 213.967C167.174 214.003 167.247 214.075 167.319 214.219C167.391 214.363 167.499 214.436 167.571 214.472C167.571 214.472 167.535 214.436 167.499 214.436C167.499 214.472 167.535 214.508 167.643 214.544V214.472C167.932 214.652 168.148 214.724 168.365 214.652C168.292 214.652 168.256 214.616 168.184 214.544C168.148 214.616 168.076 214.616 168.004 214.58C167.896 214.58 167.824 214.508 167.824 214.436ZM181.347 202.679L181.383 202.607C181.527 202.246 181.564 202.102 181.527 202.174C181.419 202.246 181.311 202.354 181.239 202.535V202.715C181.239 202.751 181.275 202.751 181.347 202.679ZM179.292 205.853C179.58 205.636 179.796 205.42 179.905 205.167L179.292 205.853ZM177.056 208.449C176.984 208.449 176.984 208.449 176.984 208.413C176.984 208.413 176.984 208.377 177.056 208.341C177.092 208.341 177.128 208.305 177.128 208.269C177.128 208.341 177.128 208.377 177.092 208.413H177.128V208.521C177.092 208.521 177.056 208.521 177.056 208.485V208.449ZM173.702 199.902C173.774 199.902 173.846 199.974 173.846 200.046C173.738 200.046 173.702 200.01 173.702 199.902ZM179.256 204.987C179.256 204.951 179.328 204.843 179.472 204.626C179.472 204.699 179.436 204.771 179.364 204.843C179.292 204.915 179.256 204.987 179.256 204.987ZM166.417 213.029C166.525 213.173 166.597 213.282 166.634 213.354L166.417 213.029ZM181.059 202.859C180.987 202.787 181.059 202.715 181.203 202.643C181.131 202.787 181.095 202.859 181.059 202.859ZM175.325 207.836L175.469 207.656L175.541 207.584C175.505 207.62 175.469 207.62 175.469 207.62C175.397 207.692 175.325 207.8 175.289 207.872L175.325 207.836ZM177.813 207.584C177.849 207.656 177.813 207.692 177.669 207.764C177.669 207.692 177.741 207.62 177.813 207.584ZM177.308 208.233C177.308 208.305 177.236 208.377 177.164 208.377L177.308 208.233ZM167.607 214.291C167.643 214.363 167.715 214.399 167.788 214.399H167.715C167.571 214.399 167.535 214.363 167.607 214.291ZM166.129 212.488C166.129 212.524 166.129 212.56 166.165 212.596C166.165 212.632 166.201 212.668 166.201 212.668C166.093 212.632 166.057 212.56 166.129 212.488ZM179.111 206.069V206.033L178.787 206.394L179.111 206.069ZM178.967 205.203C178.967 205.167 179.039 205.095 179.183 205.023L178.967 205.203ZM180.914 202.823C180.914 202.787 180.95 202.751 181.023 202.751L180.914 202.823ZM180.914 203.076C180.878 203.076 180.878 203.04 180.914 203.004C180.914 203.004 180.95 202.968 180.987 202.968C180.987 203.004 180.95 203.04 180.95 203.04L180.914 203.076ZM180.41 203.689C180.373 203.689 180.373 203.653 180.41 203.617C180.41 203.617 180.446 203.581 180.446 203.545C180.446 203.581 180.446 203.617 180.446 203.653L180.41 203.689ZM180.121 202.895C180.193 202.823 180.229 202.823 180.229 202.823C180.157 202.895 180.121 202.895 180.121 202.895ZM179.111 205.997L179.183 205.961L179.292 205.853L179.111 205.997ZM175.649 207.475H175.685C175.649 207.511 175.613 207.511 175.613 207.511L175.649 207.475ZM177.092 208.413C177.056 208.413 177.056 208.413 177.056 208.449L177.092 208.413ZM173.197 204.915H173.161C173.161 204.987 173.161 204.987 173.197 204.915ZM175.938 209.928C175.866 210 175.83 210 175.83 210L175.938 209.928ZM175.469 207.62C175.433 207.62 175.433 207.62 175.469 207.584V207.62Z" fill="#646377"/>
<path d="M191.857 204.987C191.749 205.131 191.677 205.312 191.641 205.456C191.641 205.384 191.713 205.167 191.857 204.807C191.821 204.807 191.821 204.807 191.821 204.771V204.735C191.749 204.771 191.677 204.843 191.605 204.987C191.533 205.131 191.497 205.203 191.461 205.203C191.461 205.023 191.424 204.915 191.424 204.843C191.497 204.699 191.569 204.59 191.641 204.518C191.569 204.554 191.533 204.59 191.497 204.626L191.352 204.771C191.316 204.807 191.28 204.843 191.244 204.843C191.172 205.167 191.1 205.348 191.028 205.384V205.276C190.92 205.636 190.775 205.853 190.559 205.961C190.523 205.961 190.523 205.925 190.523 205.889L190.559 205.853C190.487 205.889 190.415 205.961 190.343 206.033C190.27 206.141 190.234 206.213 190.234 206.213C190.703 205.348 190.992 204.771 191.1 204.41C191.064 204.41 191.028 204.41 191.028 204.374L189.946 205.853C189.91 205.853 189.874 205.853 189.874 205.817C189.73 205.997 189.657 206.069 189.657 206.069C189.693 206.033 189.73 205.961 189.802 205.853C189.838 205.744 189.874 205.672 189.91 205.636C189.621 205.961 189.369 206.285 189.153 206.574C188.936 206.898 188.684 207.187 188.431 207.475C188.287 207.692 188.107 207.872 187.926 208.016L187.962 207.98C187.89 207.98 187.854 208.016 187.854 208.088V208.197H187.89L187.422 208.665L187.385 208.629C187.349 208.738 187.277 208.846 187.205 208.918C187.133 208.99 187.097 209.062 187.097 209.098H187.061V209.134C186.917 209.315 186.736 209.459 186.556 209.567C186.376 209.711 186.231 209.82 186.123 209.964C186.123 210 186.015 210.072 185.871 210.216C185.727 210.36 185.618 210.433 185.618 210.433C185.546 210.541 185.366 210.685 185.113 210.865C184.861 211.046 184.681 211.226 184.573 211.37C184.032 211.839 183.671 212.128 183.527 212.2V212.128C183.455 212.236 183.419 212.272 183.419 212.236C183.455 212.164 183.563 211.911 183.707 211.478C183.851 211.118 183.959 210.901 184.032 210.793L184.212 210.613C184.284 210.108 184.5 209.495 184.861 208.774C184.897 208.665 185.077 208.305 185.402 207.656C185.546 207.331 185.654 207.115 185.763 206.971C186.195 205.889 186.628 204.951 187.025 204.194C187.422 203.4 187.638 202.859 187.71 202.571C187.854 201.886 187.818 201.417 187.602 201.128L187.53 201.092C187.458 201.092 187.422 201.056 187.422 201.02C187.349 200.876 187.205 200.66 186.989 200.407H186.556C186.34 200.263 186.159 200.191 186.087 200.155C186.015 200.155 186.015 200.155 186.087 200.227C185.943 200.299 185.727 200.299 185.51 200.227C185.33 200.299 184.969 200.479 184.392 200.84C183.743 201.273 183.094 201.85 182.409 202.499C182.373 202.535 182.337 202.571 182.265 202.607C182.192 202.643 182.156 202.679 182.12 202.715C182.048 202.751 182.048 202.787 182.048 202.859C182.192 202.715 182.265 202.643 182.337 202.643L180.714 204.338C181.219 203.4 182.12 201.525 183.455 198.784V198.64C183.563 198.46 183.743 198.171 183.996 197.811C183.996 197.702 184.104 197.45 184.32 197.089C184.5 196.729 184.753 196.26 185.041 195.683C185.33 195.106 185.546 194.637 185.763 194.204C185.763 194.168 185.799 194.06 185.871 193.916C185.943 193.772 185.979 193.663 185.979 193.555C185.835 193.555 185.727 193.447 185.654 193.267C185.582 193.122 185.546 193.014 185.474 192.942C185.402 192.942 185.366 192.942 185.33 192.978C185.258 193.014 185.222 193.014 185.222 193.014C185.186 192.906 185.113 192.798 185.005 192.726C184.897 192.654 184.861 192.581 184.861 192.545C184.861 192.618 184.825 192.618 184.789 192.618H184.717C184.681 192.69 184.609 192.69 184.464 192.69C184.32 192.69 184.212 192.726 184.212 192.726C184.068 192.978 183.959 193.086 183.887 193.086L183.743 193.231V193.195H183.707C183.707 193.339 183.671 193.411 183.599 193.411C183.527 193.591 183.382 193.772 183.238 193.988C183.058 194.204 182.95 194.385 182.878 194.529L181.868 196.224C181.651 196.729 181.074 197.847 180.209 199.614C180.245 199.506 180.317 199.325 180.461 199.073C180.57 198.82 180.642 198.604 180.714 198.46C180.57 198.676 180.425 198.965 180.245 199.397C180.029 199.83 179.884 200.119 179.776 200.263L179.343 201.164C179.127 201.777 178.875 202.246 178.658 202.571C178.658 202.607 178.622 202.643 178.622 202.679C178.586 202.715 178.586 202.751 178.622 202.787C178.55 202.859 178.514 202.895 178.514 202.968C177.612 204.915 177.035 206.249 176.819 206.898C176.675 207.079 176.567 207.331 176.494 207.692C176.422 208.052 176.35 208.233 176.35 208.269C176.314 208.269 176.314 208.305 176.314 208.305V208.341C176.206 208.557 175.99 209.026 175.701 209.675C175.413 210.36 175.196 210.901 175.052 211.298C175.016 211.37 174.944 211.587 174.8 211.947C174.655 212.308 174.619 212.596 174.619 212.813C174.691 212.813 174.727 212.921 174.727 213.137C174.727 213.173 174.763 213.209 174.763 213.282C174.763 213.354 174.8 213.39 174.836 213.39C174.872 213.354 174.98 213.318 175.124 213.318C175.124 213.39 175.16 213.462 175.232 213.498C175.304 213.57 175.377 213.606 175.449 213.642C175.521 213.678 175.593 213.714 175.629 213.714C175.629 213.75 175.665 213.822 175.701 213.967C175.701 214.111 175.737 214.183 175.809 214.183C175.809 214.147 175.845 214.075 175.845 214.003C175.845 213.931 175.845 213.895 175.845 213.859C175.845 213.822 175.917 213.786 175.99 213.786C175.99 213.859 176.134 213.931 176.386 214.003C176.422 213.714 176.458 213.57 176.494 213.57C176.567 213.714 176.675 213.75 176.819 213.714C176.819 213.786 176.819 213.822 176.891 213.822C176.927 213.678 176.963 213.57 176.999 213.57V213.426C177.144 212.993 177.252 212.705 177.396 212.524C177.324 212.596 177.288 212.705 177.288 212.777L177.252 212.921C177.432 212.632 177.793 211.983 178.37 210.937C178.911 209.928 179.307 209.206 179.596 208.846C179.812 208.557 180.173 208.088 180.678 207.403C181.183 206.754 181.579 206.249 181.868 205.925C182.048 205.708 182.337 205.384 182.769 204.987C183.166 204.626 183.455 204.302 183.635 204.086C183.707 204.049 183.815 203.977 183.959 203.833C184.104 203.689 184.212 203.617 184.284 203.581C184.248 203.653 184.176 203.797 184.104 204.013C183.996 204.23 183.923 204.374 183.923 204.518C183.707 204.807 183.491 205.276 183.238 205.853C182.95 206.466 182.805 206.826 182.769 206.934L182.012 208.846C181.94 208.918 181.832 209.17 181.688 209.603C181.543 210.036 181.471 210.288 181.471 210.36C181.255 210.757 181.111 211.19 181.038 211.695C180.822 212.128 180.75 212.56 180.858 212.993C180.894 213.318 181.038 213.498 181.255 213.57C181.255 213.678 181.291 213.75 181.327 213.822C181.363 213.895 181.435 213.931 181.507 213.967C181.579 214.039 181.651 214.075 181.724 214.111C181.796 214.147 181.868 214.183 182.012 214.183C182.156 214.219 182.228 214.255 182.301 214.255C182.373 214.255 182.445 214.291 182.589 214.291C182.733 214.291 182.805 214.291 182.842 214.291C182.914 214.363 183.202 214.363 183.707 214.291C183.743 214.219 183.851 214.111 184.032 214.039L184.248 213.931C184.464 213.859 184.717 213.75 185.005 213.57L185.33 213.245C185.402 213.209 185.51 213.101 185.69 212.921C185.835 212.741 185.979 212.596 186.087 212.524C186.159 212.488 186.268 212.38 186.412 212.236C186.556 212.091 186.7 212.019 186.808 211.947C186.808 211.947 186.845 211.911 186.917 211.839L186.953 211.767C187.458 211.19 187.962 210.685 188.395 210.288C188.503 210.144 188.576 210.072 188.612 210.072L188.648 210C188.648 209.928 188.684 209.892 188.756 209.82L189.261 209.279C189.657 208.882 189.874 208.593 189.91 208.377C190.018 208.233 190.595 207.367 191.641 205.817C191.641 205.744 191.677 205.6 191.749 205.42C191.821 205.276 191.857 205.131 191.857 204.987ZM184.573 200.768C185.005 200.515 185.294 200.371 185.366 200.371L184.933 200.66C184.861 200.696 184.645 200.84 184.284 201.092C183.851 201.417 183.419 201.777 183.058 202.21C182.986 202.21 182.914 202.246 182.842 202.282C182.769 202.354 182.733 202.354 182.733 202.354C183.022 201.994 183.635 201.453 184.573 200.768ZM189.549 208.629C189.657 208.413 189.802 208.233 190.018 208.088C189.91 208.233 189.766 208.413 189.549 208.629ZM191.461 204.338C191.352 204.446 191.28 204.59 191.244 204.771C191.388 204.59 191.461 204.446 191.461 204.338ZM180.822 198.135C180.678 198.207 180.642 198.315 180.714 198.424L180.822 198.135ZM185.366 200.515C185.366 200.443 185.438 200.407 185.51 200.407C185.438 200.479 185.366 200.515 185.366 200.515ZM189.441 208.774C189.441 208.882 189.405 208.954 189.333 208.954L189.441 208.774ZM185.402 192.798L185.474 192.834C185.474 192.906 185.474 192.942 185.474 192.942C185.51 192.87 185.474 192.798 185.402 192.798ZM182.589 202.427C182.589 202.391 182.625 202.354 182.697 202.354C182.697 202.427 182.661 202.427 182.589 202.427ZM182.553 202.463C182.481 202.571 182.445 202.607 182.373 202.607L182.553 202.463ZM180.966 197.919C180.894 197.919 180.894 197.955 180.894 198.027C180.93 198.027 180.966 197.991 180.966 197.919ZM189.477 208.774C189.441 208.774 189.441 208.738 189.477 208.702C189.477 208.702 189.513 208.665 189.513 208.629C189.549 208.665 189.549 208.702 189.513 208.702L189.477 208.774ZM191.244 204.771C191.172 204.843 191.172 204.879 191.172 204.879C191.172 204.879 191.208 204.879 191.244 204.843V204.771ZM181.147 197.414C181.147 197.45 181.111 197.486 181.111 197.522C181.111 197.558 181.111 197.594 181.111 197.594C181.147 197.522 181.147 197.45 181.147 197.414ZM181.219 197.342C181.255 197.342 181.291 197.306 181.291 197.197L181.219 197.342ZM183.599 212.055C183.527 212.055 183.527 212.091 183.527 212.128L183.599 212.055Z" fill="#646377"/>
<path fill-rule="evenodd" clip-rule="evenodd" d="M77.5543 207.04H99.447Z" fill="#646377"/>
<path d="M77.5543 207.04H99.447" stroke="white" stroke-width="1.47799" stroke-linecap="square"/>
<path fill-rule="evenodd" clip-rule="evenodd" d="M200.523 207.04H222.416Z" fill="#646377"/>
<path d="M200.523 207.04H222.416" stroke="white" stroke-width="1.47799" stroke-linecap="square"/>
<path d="M191.547 117.615C191.459 117.63 191.4 117.675 191.341 117.808L190.646 119.507C190.557 119.685 190.661 119.758 190.764 119.773V119.788H191.592V127.695C191.592 127.814 191.68 127.902 191.799 127.902H193.543C193.661 127.902 193.764 127.814 193.764 127.695V117.793L193.72 117.704L193.691 117.675C193.661 117.66 193.631 117.63 193.602 117.63C193.587 117.63 193.572 117.615 193.572 117.615H191.547Z" fill="#646377"/>
<path d="M204.012 126.542V118.946C204.012 118.946 204.042 118.739 203.865 118.561L203.022 117.734C202.934 117.645 202.83 117.601 202.756 117.586H198.928C198.928 117.586 198.721 117.556 198.544 117.734L197.716 118.561C197.568 118.709 197.554 118.886 197.568 118.931V122.463C197.568 122.463 197.539 122.67 197.716 122.847L198.544 123.675C198.721 123.852 198.928 123.823 198.928 123.823C198.943 123.823 198.943 123.838 198.958 123.838H200.48C200.48 123.838 200.495 123.823 200.51 123.823H201.589L201.795 124.03C201.84 124.074 201.84 124.119 201.84 124.133V125.33C201.84 125.33 201.855 125.39 201.795 125.449L201.559 125.685C201.515 125.73 201.47 125.73 201.456 125.73H199.741V124.991C199.741 124.872 199.638 124.784 199.519 124.784H197.775C197.657 124.784 197.568 124.872 197.568 124.991V126.542C197.568 126.542 197.539 126.749 197.716 126.927L198.544 127.754C198.721 127.932 198.928 127.902 198.928 127.902H202.638C202.638 127.902 202.845 127.932 203.022 127.754L203.865 126.927C204.042 126.749 204.012 126.542 204.012 126.542ZM201.795 119.951C201.84 119.995 201.84 120.039 201.84 120.054V121.251C201.84 121.251 201.855 121.31 201.795 121.369L201.559 121.606C201.515 121.65 201.47 121.65 201.456 121.65V121.665L200.066 121.65C200.051 121.65 200.037 121.636 200.022 121.636L199.785 121.384C199.741 121.34 199.741 121.31 199.726 121.281V120.497H199.741V120.069C199.741 120.054 199.741 120.01 199.785 119.98L199.992 119.773H201.603L201.795 119.951Z" fill="#646377"/>
<path d="M214.085 126.542V118.946C214.085 118.946 214.115 118.739 213.937 118.561L213.095 117.734C213.006 117.645 212.903 117.601 212.829 117.586H209.001C209.001 117.586 208.794 117.556 208.617 117.734L207.789 118.561C207.641 118.709 207.626 118.886 207.641 118.931V122.463C207.641 122.463 207.612 122.67 207.789 122.847L208.617 123.675C208.794 123.852 209.001 123.823 209.001 123.823C209.016 123.823 209.016 123.838 209.031 123.838H210.553C210.553 123.838 210.568 123.823 210.582 123.823H211.661L211.868 124.03C211.913 124.074 211.913 124.119 211.913 124.133V125.33C211.913 125.33 211.927 125.39 211.868 125.449L211.632 125.685C211.587 125.73 211.543 125.73 211.528 125.73H209.814V124.991C209.814 124.872 209.71 124.784 209.592 124.784H207.848C207.73 124.784 207.641 124.872 207.641 124.991V126.542C207.641 126.542 207.612 126.749 207.789 126.927L208.617 127.754C208.794 127.932 209.001 127.902 209.001 127.902H212.711C212.711 127.902 212.918 127.932 213.095 127.754L213.937 126.927C214.115 126.749 214.085 126.542 214.085 126.542ZM211.868 119.951C211.913 119.995 211.913 120.039 211.913 120.054V121.251C211.913 121.251 211.927 121.31 211.868 121.369L211.632 121.606C211.587 121.65 211.543 121.65 211.528 121.65V121.665L210.139 121.65C210.124 121.65 210.109 121.636 210.095 121.636L209.858 121.384C209.814 121.34 209.814 121.31 209.799 121.281V120.497H209.814V120.069C209.814 120.054 209.814 120.01 209.858 119.98L210.065 119.773H211.676L211.868 119.951Z" fill="#646377"/>
<path d="M218.778 117.615C218.69 117.63 218.63 117.675 218.571 117.808L217.877 119.507C217.788 119.685 217.891 119.758 217.995 119.773V119.788H218.823V127.695C218.823 127.814 218.911 127.902 219.029 127.902H220.774C220.892 127.902 220.995 127.814 220.995 127.695V117.793L220.951 117.704L220.921 117.675C220.892 117.66 220.862 117.63 220.833 117.63C220.818 117.63 220.803 117.615 220.803 117.615H218.778Z" fill="#646377"/>
<path d="M84.825 119.744H88.2391C88.3426 119.744 88.4461 119.655 88.4461 119.537V117.778C88.4461 117.66 88.3426 117.571 88.2391 117.571H82.8593C82.741 117.571 82.6523 117.66 82.6523 117.778V127.695C82.6523 127.813 82.741 127.902 82.8593 127.902H88.2391C88.3426 127.902 88.4461 127.813 88.4461 127.695V125.936C88.4461 125.818 88.3426 125.729 88.2391 125.729H84.825V123.823H87.441C87.5593 123.823 87.6479 123.734 87.6479 123.616V121.857C87.6479 121.739 87.5593 121.65 87.441 121.65H84.825V119.744Z" fill="#646377"/>
<path d="M98.5671 118.946C98.5671 118.946 98.5819 118.739 98.4046 118.561L97.5769 117.734C97.3995 117.541 97.1926 117.571 97.1926 117.571H93.3646C93.3646 117.571 93.1577 117.541 92.9804 117.734L92.1527 118.561C91.9753 118.739 92.0049 118.946 92.0049 118.946H91.9901V122.448H92.0049C92.0049 122.448 91.9753 122.655 92.1527 122.833L92.9804 123.66C93.1577 123.838 93.3646 123.823 93.3646 123.823H96.025C96.0546 123.823 96.0693 123.838 96.0989 123.867L96.3502 124.104C96.3945 124.163 96.3945 124.222 96.3945 124.222V125.33C96.3945 125.33 96.3945 125.39 96.3502 125.449L96.0989 125.685C96.0693 125.715 96.0546 125.729 96.025 125.729H94.1627V125.064C94.1627 124.946 94.0741 124.857 93.9558 124.857H92.2118C92.0936 124.857 91.9901 124.946 91.9901 125.064V126.498C91.9901 126.513 92.0049 126.528 92.0049 126.528C92.0049 126.528 91.9753 126.734 92.1527 126.912L92.9804 127.74C93.1577 127.917 93.3646 127.902 93.3646 127.902H97.1926C97.1926 127.902 97.3995 127.917 97.5769 127.74L98.4046 126.912C98.5819 126.734 98.5671 126.528 98.5671 126.528V123.025C98.5671 123.025 98.5819 122.818 98.4046 122.64L97.5769 121.813C97.3995 121.621 97.1926 121.65 97.1926 121.65H94.4288L94.2219 121.443C94.1627 121.384 94.1775 121.325 94.1775 121.325L94.1627 121.34V120.143C94.1627 120.143 94.1627 120.084 94.2219 120.024L94.4583 119.788C94.5027 119.744 94.5322 119.744 94.5618 119.744H96.3945V120.483C96.3945 120.601 96.4832 120.69 96.6014 120.69H98.3454C98.4637 120.69 98.5671 120.601 98.5671 120.483V118.96L98.5524 118.946H98.5671Z" fill="#646377"/>
<path d="M108.149 117.601H102.237C102.119 117.601 102.015 117.704 102.015 117.822V119.566C102.015 119.684 102.119 119.773 102.237 119.773H104.114V127.725C104.129 127.828 104.218 127.902 104.321 127.902H106.065C106.169 127.902 106.257 127.828 106.272 127.725V119.773H108.149C108.267 119.773 108.371 119.684 108.371 119.566V117.822C108.371 117.704 108.267 117.601 108.149 117.601Z" fill="#646377"/>
</svg>
