<svg width="300" height="300" viewBox="0 0 300 300" fill="none" xmlns="http://www.w3.org/2000/svg">
<rect y="0.000976562" width="300" height="300" fill="#FAFAFA"/>
<path d="M67.8596 135.433C65.915 135.433 63.8927 136.444 61.637 138.389C55.6478 143.678 52.6921 149.823 52.6921 156.745C52.6921 159.468 54.0144 162.034 56.659 164.523C54.5589 169.735 53.5477 174.946 53.5477 180.235C53.5477 185.758 57.6701 189.103 62.337 191.825C64.7483 193.225 66.7706 193.925 68.404 193.925C70.6597 193.925 73.1487 193.147 75.8711 191.514C78.5935 189.958 80.6158 188.014 81.9381 185.602C82.327 184.98 82.2492 183.191 81.7825 180.158C82.2492 180.08 82.9492 180.002 83.8826 179.769C86.7606 179.146 87.8495 178.524 87.8495 176.346C87.8495 175.957 87.6939 175.257 87.4606 174.402C87.2273 173.468 87.0717 173.002 86.9939 173.002C86.3717 173.002 83.9604 174.168 79.9935 174.791C69.5708 176.58 65.3705 175.335 65.6039 175.335C65.215 175.491 67.4706 179.069 68.404 179.846C69.2596 180.547 71.6709 180.858 75.4822 180.78C76.6489 180.78 77.8156 180.702 79.0602 180.547C75.56 185.213 73.1487 187.547 69.493 188.791C65.0594 190.347 61.7148 188.558 61.2481 188.091C60.0814 186.925 59.4591 184.669 59.3813 181.48C59.3036 177.202 60.1592 172.691 62.0259 168.101C63.8927 168.801 65.7594 169.113 67.704 169.113C76.6489 169.113 84.4271 164.912 89.9496 158.145C93.4498 153.79 94.3054 150.445 92.3609 148.034C90.883 146.245 89.0162 144.767 86.7606 143.445C84.5049 142.122 82.8715 141.5 81.7047 141.5C76.5711 141.5 71.282 144.378 65.7594 150.134C62.5704 153.478 59.9258 157.29 57.8257 161.723C57.2812 160.712 57.0479 159.468 57.0479 158.145C57.0479 153.167 60.3147 147.1 66.2261 142.433C68.6374 140.644 71.282 139.011 74.1599 137.611C74.2377 137.222 73.3821 136.755 71.6709 136.211C70.0375 135.666 68.7152 135.433 67.8596 135.433ZM65.8372 161.179C70.1152 155.034 74.9377 150.756 80.3047 148.345C83.4937 146.867 85.7494 146.478 87.0717 147.1C88.394 149.589 86.7606 154.567 82.327 158.845C77.349 163.59 71.7487 165.924 65.5261 165.924C64.6705 165.924 63.8927 165.846 63.1149 165.69C63.9705 164.135 64.8261 162.657 65.8372 161.179ZM94.8517 166.624C91.896 170.513 89.9514 175.024 88.9403 180.08C88.0847 184.669 88.2402 187.702 89.3292 189.336C90.5737 191.125 92.9849 192.525 95.085 192.525C96.0962 192.525 98.5852 188.714 102.708 181.013C102.474 182.336 102.319 183.502 102.241 184.591C102.163 186.847 102.708 188.48 103.952 189.569C105.975 191.358 107.686 192.214 109.164 192.214C110.253 192.214 111.497 191.436 112.897 189.88C114.375 188.325 115.542 186.769 116.475 185.291C118.342 182.258 119.82 178.68 119.82 178.057C119.742 177.824 119.586 177.746 119.431 177.824C118.653 179.146 117.175 180.935 114.919 183.191C111.419 186.691 108.541 188.48 108.075 188.325C107.53 188.169 107.53 187.002 107.919 184.825C108.308 182.88 109.864 179.069 112.586 173.468L114.531 169.501C114.686 169.113 114.842 168.724 115.075 168.335C115.464 167.401 115.542 166.935 115.542 166.546C115.542 165.223 114.764 164.212 113.13 163.434C111.575 162.734 110.097 162.579 109.941 162.89L109.008 165.379C106.597 162.89 104.574 161.646 102.785 161.646C99.9853 161.646 97.3407 163.279 94.8517 166.624ZM106.597 170.668C105.508 172.924 103.952 175.491 102.008 178.369C100.063 181.247 98.2741 183.58 96.6407 185.447C95.085 187.314 94.1517 188.247 93.9183 188.247C93.3738 188.247 93.2183 187.158 93.6072 184.98C94.385 180.391 96.0962 176.191 98.663 172.535C101.23 168.879 103.563 167.012 105.663 167.012C106.286 167.012 107.063 167.246 107.997 167.713L106.597 170.668ZM120.981 171.29C118.881 177.513 117.17 183.269 115.692 188.48C115.458 189.258 115.614 189.88 116.314 190.347C118.57 191.903 119.892 192.369 120.203 191.669C120.748 190.503 123.548 186.769 128.526 180.469C131.637 176.502 133.659 174.013 134.593 173.079C134.048 174.402 133.582 175.88 133.037 177.513C132.026 180.858 131.482 183.502 131.482 185.447C131.482 187.858 132.493 189.647 134.515 190.969C136.148 191.98 137.471 192.525 138.404 192.525C140.504 192.525 142.915 190.503 145.638 186.458C147.893 183.113 149.216 180.313 149.76 178.057C149.838 177.746 149.605 177.513 149.371 177.824C148.905 178.291 147.427 180.391 144.704 183.347C141.282 186.769 138.015 188.714 137.704 188.558C137.237 188.558 137.004 187.936 137.004 186.614C137.004 183.969 138.015 180.469 139.96 176.113C141.515 172.613 143.693 168.724 144.627 167.09C145.093 166.235 145.327 165.535 145.327 165.068C145.327 163.901 144.627 162.968 143.227 162.19C142.449 161.801 141.438 161.568 140.193 161.568C139.882 161.801 138.949 162.89 136.771 165.612L133.971 169.113C132.182 171.29 128.292 176.424 122.459 184.436L126.659 174.557C127.515 172.613 129.07 169.346 129.615 168.024C129.848 167.324 130.004 166.857 130.004 166.468C130.004 165.768 129.537 164.99 128.604 164.212C126.892 162.812 124.17 162.89 124.014 163.201C123.237 164.99 122.225 167.713 120.981 171.29ZM154.631 166.624C151.676 170.513 149.731 175.024 148.72 180.08C147.864 184.669 148.02 187.702 149.109 189.336C150.353 191.125 152.765 192.525 154.865 192.525C155.876 192.525 158.365 188.714 162.487 181.013C162.254 182.336 162.098 183.502 162.021 184.591C161.943 186.847 162.487 188.48 163.732 189.569C165.754 191.358 167.465 192.214 168.943 192.214C170.032 192.214 171.277 191.436 172.677 189.88C174.155 188.325 175.321 186.769 176.255 185.291C178.121 182.258 179.599 178.68 179.599 178.057C179.522 177.824 179.366 177.746 179.21 177.824C178.433 179.146 176.955 180.935 174.699 183.191C171.199 186.691 168.321 188.48 167.854 188.325C167.31 188.169 167.31 187.002 167.699 184.825C168.088 182.88 169.643 179.069 172.366 173.468L174.31 169.501C174.466 169.113 174.621 168.724 174.855 168.335C175.244 167.401 175.321 166.935 175.321 166.546C175.321 165.223 174.543 164.212 172.91 163.434C171.354 162.734 169.877 162.579 169.721 162.89L168.788 165.379C166.376 162.89 164.354 161.646 162.565 161.646C159.765 161.646 157.12 163.279 154.631 166.624ZM166.376 170.668C165.287 172.924 163.732 175.491 161.787 178.369C159.843 181.247 158.054 183.58 156.42 185.447C154.865 187.314 153.931 188.247 153.698 188.247C153.153 188.247 152.998 187.158 153.387 184.98C154.165 180.391 155.876 176.191 158.443 172.535C161.009 168.879 163.343 167.012 165.443 167.012C166.065 167.012 166.843 167.246 167.776 167.713L166.376 170.668ZM197.795 172.924C199.273 170.513 199.584 168.335 198.573 166.468C198.028 165.457 197.017 164.368 195.384 163.046C193.75 161.723 192.272 161.023 190.872 161.023C188.072 161.023 185.427 162.657 182.861 165.846C179.049 170.59 177.027 175.802 176.871 181.324C176.716 184.124 177.26 186.302 178.505 187.936C180.605 190.658 183.794 192.136 186.283 192.136C189.161 192.136 193.517 190.191 197.25 185.836C198.728 184.124 200.05 182.413 201.062 180.702C202.073 178.991 202.617 177.902 202.617 177.513C202.54 177.28 202.306 177.202 202.073 177.357C201.139 178.135 198.884 180.702 194.917 183.502C190.872 186.38 187.45 187.858 184.65 187.858C182.783 187.858 182.005 187.002 182.005 184.124C182.005 179.535 184.883 173.624 189.161 169.346C191.183 167.324 192.661 166.312 193.672 166.312C193.906 166.312 194.061 166.39 194.139 166.624C194.45 167.479 194.061 168.879 192.895 170.824C191.417 173.235 189.628 175.102 187.528 176.424C187.294 176.58 187.216 176.813 187.294 177.046C187.528 177.591 188.15 177.902 189.161 177.902C190.483 177.902 192.117 177.357 193.906 176.346C195.695 175.335 197.017 174.168 197.795 172.924ZM213.32 143.678C213.086 143.756 212.542 144.767 212.075 146.634C211.764 147.8 210.908 150.212 210.208 152.389L201.419 177.824C198.93 184.825 197.685 188.636 197.685 189.258C197.685 190.814 200.252 192.136 201.808 192.136C202.119 192.136 202.663 190.58 203.441 189.258C205.541 185.836 207.719 182.724 210.131 179.924C213.709 175.646 215.731 173.313 216.198 172.924C214.72 176.346 213.709 179.224 213.242 181.635C212.308 186.225 212.853 189.336 214.953 190.892C217.053 192.369 218.687 193.147 219.775 193.147C221.642 193.147 224.053 190.892 227.087 186.458C228.02 184.98 228.876 183.424 229.732 181.713C230.587 180.002 231.132 178.835 231.209 178.135C231.287 177.98 231.209 177.824 231.132 177.669C231.054 177.513 230.898 177.513 230.821 177.746C229.965 179.069 228.409 180.935 226.154 183.347C223.353 186.38 220.087 189.103 219.075 189.103C218.531 189.103 218.22 188.325 218.22 186.769C218.22 183.58 220.242 178.135 224.287 170.59C225.92 167.479 226.776 165.535 226.776 164.679C226.776 163.979 226.231 163.279 225.22 162.579C224.209 161.879 223.276 161.568 222.498 161.568C221.176 161.568 220.787 162.112 219.698 163.746L212.464 172.846C208.964 177.124 206.786 180.002 205.775 181.48C206.941 178.291 210.753 168.957 217.131 153.401C218.22 150.678 218.764 148.889 218.764 147.878C218.764 146.945 218.142 145.934 216.898 144.845C216.042 144.067 214.797 143.678 213.32 143.678ZM249.271 175.802C252.46 172.691 253.627 168.646 252.383 166.546C251.838 165.535 250.671 164.29 248.882 162.968C247.093 161.646 245.538 160.945 244.293 160.868C242.038 160.79 239.782 162.034 237.526 164.679C234.182 168.568 232.004 173.002 230.992 177.98C230.059 182.491 230.215 185.913 231.537 188.169C232.237 189.336 233.248 190.425 234.726 191.28C236.204 192.214 237.526 192.758 238.537 192.914C241.337 193.303 246.004 191.203 250.982 185.836C253.705 182.958 256.038 178.835 256.349 177.513C256.349 177.28 255.883 177.124 255.805 177.357C254.016 179.302 251.605 181.324 248.649 183.502C243.36 187.314 238.304 189.336 236.437 188.48C235.815 188.169 235.504 187.236 235.582 185.602C235.582 184.591 235.737 183.347 236.126 181.869C241.804 180.702 246.16 178.68 249.271 175.802ZM241.493 170.668C243.593 168.101 246.16 166.312 247.404 166.312C248.26 166.312 248.027 167.713 246.627 170.513C245.615 172.691 243.438 174.868 240.249 177.124C239.393 177.746 238.304 178.369 236.982 178.991C238.226 175.724 239.704 172.924 241.493 170.668Z" fill="#646377"/>
<path d="M91.9171 204.983C92.1182 204.954 92.3432 204.93 92.5921 204.911C92.8505 204.892 93.1138 204.878 93.3818 204.868C93.6499 204.858 93.9084 204.854 94.1573 204.854C94.4157 204.844 94.6455 204.839 94.8465 204.839C95.7368 204.839 96.4979 204.964 97.1297 205.213C97.7616 205.462 98.2737 205.811 98.6662 206.261C99.0587 206.711 99.3459 207.247 99.5278 207.869C99.7097 208.491 99.8006 209.176 99.8006 209.923C99.8006 210.602 99.7145 211.258 99.5422 211.89C99.3699 212.522 99.0827 213.082 98.6806 213.57C98.2785 214.058 97.7472 214.451 97.0867 214.747C96.4357 215.044 95.6267 215.193 94.6599 215.193C94.5067 215.193 94.3009 215.188 94.0424 215.178C93.7935 215.169 93.5302 215.154 93.2526 215.135C92.9846 215.126 92.7261 215.111 92.4772 215.092C92.2283 215.083 92.0416 215.068 91.9171 215.049V204.983ZM95.0045 206.591C94.7939 206.591 94.5785 206.596 94.3583 206.606C94.1477 206.615 93.9897 206.629 93.8844 206.649V213.383C93.9227 213.393 93.985 213.402 94.0711 213.412C94.1668 213.412 94.2674 213.417 94.3727 213.426C94.478 213.426 94.5785 213.431 94.6742 213.441C94.7699 213.441 94.8417 213.441 94.8896 213.441C95.4449 213.441 95.9044 213.345 96.2681 213.154C96.6415 212.953 96.9335 212.689 97.1441 212.364C97.3643 212.038 97.5174 211.665 97.6036 211.244C97.6898 210.813 97.7328 210.373 97.7328 209.923C97.7328 209.53 97.6945 209.138 97.618 208.745C97.5414 208.343 97.3978 207.984 97.1872 207.668C96.9861 207.352 96.7085 207.094 96.3543 206.893C96.0001 206.692 95.5502 206.591 95.0045 206.591ZM101.536 204.983H107.495V206.735H103.503V209.075H107.136V210.827H103.503V213.283H107.567V215.035H101.536V204.983ZM113.696 212.335C113.696 212.029 113.581 211.78 113.351 211.588C113.131 211.397 112.849 211.225 112.504 211.071C112.169 210.909 111.8 210.746 111.398 210.583C111.006 210.411 110.637 210.205 110.293 209.966C109.958 209.717 109.675 209.41 109.445 209.047C109.225 208.683 109.115 208.219 109.115 207.654C109.115 207.166 109.197 206.744 109.359 206.39C109.522 206.026 109.752 205.725 110.049 205.485C110.355 205.246 110.714 205.069 111.126 204.954C111.537 204.839 111.997 204.782 112.504 204.782C113.088 204.782 113.638 204.834 114.155 204.94C114.672 205.036 115.098 205.179 115.433 205.371L114.816 207.022C114.605 206.888 114.289 206.768 113.868 206.663C113.447 206.548 112.992 206.491 112.504 206.491C112.045 206.491 111.69 206.582 111.441 206.763C111.202 206.945 111.082 207.189 111.082 207.496C111.082 207.783 111.193 208.022 111.413 208.214C111.642 208.405 111.925 208.582 112.26 208.745C112.605 208.908 112.973 209.075 113.366 209.248C113.768 209.42 114.136 209.631 114.471 209.88C114.816 210.119 115.098 210.42 115.319 210.784C115.548 211.138 115.663 211.584 115.663 212.12C115.663 212.656 115.572 213.12 115.39 213.513C115.218 213.895 114.969 214.216 114.644 214.475C114.328 214.733 113.94 214.925 113.481 215.049C113.031 215.173 112.533 215.236 111.987 215.236C111.269 215.236 110.637 215.169 110.092 215.035C109.546 214.901 109.144 214.767 108.885 214.633L109.517 212.953C109.623 213.01 109.757 213.072 109.919 213.139C110.092 213.206 110.283 213.268 110.494 213.326C110.704 213.383 110.924 213.431 111.154 213.469C111.394 213.508 111.638 213.527 111.887 213.527C112.471 213.527 112.916 213.431 113.222 213.24C113.538 213.039 113.696 212.737 113.696 212.335ZM121.632 212.335C121.632 212.029 121.517 211.78 121.287 211.588C121.067 211.397 120.784 211.225 120.44 211.071C120.105 210.909 119.736 210.746 119.334 210.583C118.942 210.411 118.573 210.205 118.228 209.966C117.893 209.717 117.611 209.41 117.381 209.047C117.161 208.683 117.051 208.219 117.051 207.654C117.051 207.166 117.132 206.744 117.295 206.39C117.458 206.026 117.688 205.725 117.984 205.485C118.291 205.246 118.65 205.069 119.061 204.954C119.473 204.839 119.932 204.782 120.44 204.782C121.024 204.782 121.574 204.834 122.091 204.94C122.608 205.036 123.034 205.179 123.369 205.371L122.752 207.022C122.541 206.888 122.225 206.768 121.804 206.663C121.383 206.548 120.928 206.491 120.44 206.491C119.98 206.491 119.626 206.582 119.377 206.763C119.138 206.945 119.018 207.189 119.018 207.496C119.018 207.783 119.128 208.022 119.348 208.214C119.578 208.405 119.861 208.582 120.196 208.745C120.54 208.908 120.909 209.075 121.301 209.248C121.703 209.42 122.072 209.631 122.407 209.88C122.752 210.119 123.034 210.42 123.254 210.784C123.484 211.138 123.599 211.584 123.599 212.12C123.599 212.656 123.508 213.12 123.326 213.513C123.154 213.895 122.905 214.216 122.579 214.475C122.263 214.733 121.876 214.925 121.416 215.049C120.966 215.173 120.469 215.236 119.923 215.236C119.205 215.236 118.573 215.169 118.027 215.035C117.482 214.901 117.08 214.767 116.821 214.633L117.453 212.953C117.558 213.01 117.692 213.072 117.855 213.139C118.027 213.206 118.219 213.268 118.429 213.326C118.64 213.383 118.86 213.431 119.09 213.469C119.329 213.508 119.573 213.527 119.822 213.527C120.406 213.527 120.851 213.431 121.158 213.24C121.474 213.039 121.632 212.737 121.632 212.335ZM125.231 204.983H131.19V206.735H127.198V209.075H130.831V210.827H127.198V213.283H131.262V215.035H125.231V204.983ZM133.054 205.083C133.275 205.045 133.509 205.012 133.758 204.983C134.016 204.945 134.27 204.916 134.519 204.897C134.778 204.878 135.026 204.863 135.266 204.854C135.505 204.844 135.725 204.839 135.926 204.839C136.395 204.839 136.855 204.882 137.305 204.968C137.764 205.055 138.171 205.203 138.525 205.414C138.889 205.624 139.176 205.916 139.387 206.29C139.607 206.653 139.717 207.113 139.717 207.668C139.717 208.491 139.526 209.162 139.143 209.678C138.76 210.195 138.248 210.554 137.606 210.755L138.31 211.201L140.608 215.035H138.339L136.056 211.1L135.022 210.913V215.035H133.054V205.083ZM136.07 206.591C135.869 206.591 135.668 206.596 135.467 206.606C135.275 206.615 135.127 206.634 135.022 206.663V209.578H135.854C136.4 209.578 136.836 209.454 137.161 209.205C137.487 208.956 137.649 208.544 137.649 207.97C137.649 207.539 137.515 207.204 137.247 206.964C136.979 206.716 136.587 206.591 136.07 206.591ZM148.449 206.735H145.52V215.035H143.553V206.735H140.609V204.983H148.449V206.735ZM153.633 212.249C153.633 211.885 153.69 211.54 153.805 211.215C153.93 210.88 154.097 210.569 154.308 210.282C154.528 209.994 154.787 209.726 155.083 209.477C155.38 209.229 155.701 209.008 156.045 208.817C155.806 208.501 155.61 208.18 155.457 207.855C155.304 207.529 155.227 207.185 155.227 206.821C155.227 206.582 155.27 206.342 155.356 206.103C155.452 205.854 155.596 205.634 155.787 205.442C155.988 205.241 156.247 205.083 156.562 204.968C156.878 204.844 157.261 204.782 157.711 204.782C158.152 204.782 158.525 204.834 158.831 204.94C159.147 205.045 159.401 205.184 159.592 205.356C159.784 205.529 159.923 205.725 160.009 205.945C160.095 206.165 160.138 206.39 160.138 206.62C160.138 207.012 159.999 207.424 159.722 207.855C159.444 208.276 158.97 208.683 158.3 209.075C158.635 209.592 158.97 210.066 159.305 210.497C159.64 210.928 160.014 211.354 160.425 211.775C160.645 211.536 160.842 211.239 161.014 210.885C161.196 210.521 161.354 210.152 161.488 209.779L162.838 210.497C162.78 210.669 162.699 210.861 162.594 211.071C162.498 211.272 162.388 211.478 162.263 211.689C162.148 211.899 162.029 212.1 161.904 212.292C161.78 212.474 161.665 212.632 161.56 212.766C161.866 213.043 162.134 213.264 162.364 213.426C162.594 213.58 162.828 213.723 163.067 213.857L162.077 215.236C161.809 215.111 161.531 214.949 161.244 214.747C160.966 214.537 160.688 214.298 160.411 214.029C160.066 214.345 159.635 214.628 159.118 214.877C158.601 215.116 157.965 215.236 157.209 215.236C156.711 215.236 156.242 215.169 155.801 215.035C155.371 214.901 154.992 214.704 154.667 214.446C154.351 214.187 154.097 213.876 153.906 213.513C153.724 213.139 153.633 212.718 153.633 212.249ZM159.291 212.895C158.803 212.388 158.357 211.885 157.955 211.387C157.553 210.88 157.204 210.401 156.907 209.951C156.448 210.306 156.098 210.65 155.859 210.985C155.619 211.311 155.5 211.679 155.5 212.091C155.5 212.579 155.677 212.962 156.031 213.24C156.395 213.517 156.869 213.656 157.453 213.656C157.836 213.656 158.195 213.58 158.53 213.426C158.865 213.264 159.118 213.087 159.291 212.895ZM157.094 206.907C157.094 207.309 157.266 207.74 157.611 208.199C157.984 207.96 158.252 207.735 158.415 207.525C158.587 207.314 158.673 207.113 158.673 206.921C158.673 206.692 158.606 206.51 158.472 206.376C158.348 206.242 158.142 206.175 157.855 206.175C157.596 206.175 157.405 206.242 157.28 206.376C157.156 206.51 157.094 206.687 157.094 206.907ZM175.767 214.618C175.461 214.838 175.069 214.996 174.59 215.092C174.121 215.188 173.637 215.236 173.14 215.236C172.536 215.236 171.962 215.145 171.416 214.963C170.88 214.771 170.406 214.47 169.995 214.058C169.583 213.637 169.253 213.096 169.004 212.436C168.765 211.765 168.645 210.957 168.645 210.009C168.645 209.023 168.779 208.199 169.047 207.539C169.325 206.869 169.679 206.333 170.11 205.931C170.55 205.519 171.038 205.227 171.574 205.055C172.11 204.873 172.647 204.782 173.183 204.782C173.757 204.782 174.24 204.82 174.633 204.897C175.035 204.973 175.365 205.064 175.624 205.17L175.236 206.835C175.016 206.73 174.753 206.653 174.446 206.606C174.15 206.558 173.786 206.534 173.355 206.534C172.56 206.534 171.919 206.816 171.431 207.381C170.952 207.946 170.713 208.822 170.713 210.009C170.713 210.526 170.77 211 170.885 211.43C171 211.852 171.172 212.215 171.402 212.522C171.641 212.818 171.933 213.053 172.278 213.225C172.632 213.388 173.039 213.469 173.499 213.469C173.929 213.469 174.293 213.426 174.59 213.34C174.887 213.254 175.145 213.144 175.365 213.01L175.767 214.618ZM176.511 210.009C176.511 208.333 176.879 207.046 177.616 206.146C178.353 205.237 179.407 204.782 180.775 204.782C181.493 204.782 182.12 204.906 182.657 205.155C183.193 205.404 183.638 205.758 183.992 206.218C184.346 206.677 184.61 207.228 184.782 207.869C184.954 208.511 185.04 209.224 185.04 210.009C185.04 211.684 184.667 212.976 183.92 213.886C183.183 214.786 182.135 215.236 180.775 215.236C180.048 215.236 179.416 215.111 178.88 214.862C178.344 214.613 177.899 214.259 177.545 213.8C177.2 213.34 176.941 212.79 176.769 212.148C176.597 211.507 176.511 210.794 176.511 210.009ZM178.578 210.009C178.578 210.516 178.622 210.985 178.708 211.416C178.794 211.837 178.923 212.201 179.095 212.507C179.277 212.814 179.507 213.053 179.785 213.225C180.062 213.398 180.393 213.484 180.775 213.484C181.474 213.484 182.015 213.211 182.398 212.665C182.781 212.12 182.973 211.234 182.973 210.009C182.973 209.521 182.929 209.066 182.843 208.645C182.767 208.223 182.642 207.855 182.47 207.539C182.298 207.223 182.073 206.979 181.795 206.807C181.517 206.625 181.178 206.534 180.775 206.534C180.077 206.534 179.536 206.816 179.153 207.381C178.77 207.936 178.578 208.812 178.578 210.009ZM186.768 204.983H192.727V206.735H188.735V209.219H192.411V210.971H188.735V215.035H186.768V204.983ZM194.381 204.983H200.34V206.735H196.348V209.219H200.024V210.971H196.348V215.035H194.381V204.983ZM201.994 204.983H207.953V206.735H203.961V209.075H207.594V210.827H203.961V213.283H208.025V215.035H201.994V204.983Z" fill="#646377"/>
<path fill-rule="evenodd" clip-rule="evenodd" d="M153.079 118.08H163.691C164.319 117.064 164.681 115.869 164.681 114.59C164.681 110.903 161.672 107.915 157.96 107.915C156.5 107.915 155.149 108.377 154.047 109.162C154.439 110.246 154.653 111.415 154.653 112.633C154.653 114.634 154.076 116.501 153.079 118.08ZM160.318 120.844H155.602C156.335 121.117 157.13 121.266 157.96 121.266C158.789 121.266 159.584 121.117 160.318 120.844Z" fill="#646377"/>
<path fill-rule="evenodd" clip-rule="evenodd" d="M138.08 118.08H150.559C151.978 116.568 152.846 114.539 152.846 112.308C152.846 107.631 149.029 103.839 144.32 103.839C139.61 103.839 135.793 107.631 135.793 112.308C135.793 114.539 136.661 116.568 138.08 118.08Z" fill="#646377"/>
<path fill-rule="evenodd" clip-rule="evenodd" d="M140.818 110.491C142.155 110.491 143.238 109.415 143.238 108.088C143.238 106.76 142.155 105.684 140.818 105.684C139.482 105.684 138.398 106.76 138.398 108.088C138.398 109.415 139.482 110.491 140.818 110.491Z" fill="#646377"/>
<path fill-rule="evenodd" clip-rule="evenodd" d="M156.982 108.685C156.822 109.293 156.407 108.865 156.377 108.739C156.346 108.614 156.52 108.039 156.37 107.369C155.997 105.694 155.493 104.718 155.044 103.437C154.434 101.692 152.484 97.3188 153.249 93.6263C153.789 91.0193 156.663 89.5443 156.711 89.5637C156.772 89.5873 156.303 90.0057 155.957 90.681C155.522 91.5296 154.985 92.4202 154.708 93.902C154.066 97.3513 154.619 99.3655 155.172 101.469C155.661 103.331 156.54 105.569 156.842 106.772C156.998 107.392 157.076 108.328 156.982 108.685Z" fill="#646377"/>
<path fill-rule="evenodd" clip-rule="evenodd" d="M144.289 104.259C144.346 105.054 144.964 104.619 145.031 104.469C145.099 104.32 145.017 103.563 145.361 102.763C146.221 100.763 147.079 99.6647 147.94 98.1731C149.112 96.1425 152.572 91.1498 152.488 86.3671C152.428 82.9903 149.193 80.4751 149.128 80.4878C149.048 80.503 149.534 81.135 149.806 82.0583C150.148 83.2184 150.608 84.455 150.604 86.3671C150.592 90.8179 149.429 93.1985 148.245 95.6902C147.196 97.8965 145.573 100.479 144.914 101.907C144.574 102.644 144.256 103.792 144.289 104.259Z" fill="#646377"/>
<path fill-rule="evenodd" clip-rule="evenodd" d="M182.753 139.085V120.064H116.938V155.889C116.938 155.889 121.171 155.105 122.759 151.899C124.434 148.517 120.277 143.492 120.282 138.612C120.288 133.731 121.847 133.024 122.627 133.078C125.017 133.243 124.448 139.083 128.365 139.083C132.281 139.083 134.695 131.117 137.936 131.133C143.238 131.158 143.154 148.168 149.014 148.185C154.874 148.202 153.83 135.408 159.602 135.413C163.908 135.417 163.759 144.754 167.94 144.704C172.121 144.653 174.294 131.881 178.936 131.881C180.012 131.881 180.99 134.728 182.037 138.051C182.248 138.723 182.753 139.085 182.753 139.085Z" fill="#646377"/>
</svg>
