<svg width="300" height="301" viewBox="0 0 300 301" fill="none" xmlns="http://www.w3.org/2000/svg">
<rect y="0.953613" width="300" height="300" fill="#FAFAFA"/>
<path fill-rule="evenodd" clip-rule="evenodd" d="M261.542 147.563C261.842 146.892 262.331 146.371 262.932 145.998C263.496 145.589 264.134 145.402 264.811 145.402C265.6 145.402 266.238 145.626 266.652 146.073C267.027 146.482 267.291 147.041 267.366 147.674C267.478 148.308 267.516 149.164 267.516 150.244V158.588C267.516 159.631 267.741 160.413 268.23 160.934C268.718 161.456 269.357 161.716 270.109 161.716C270.898 161.716 271.499 161.456 271.987 160.934C272.476 160.413 272.701 159.631 272.701 158.588V148.904C272.701 146.967 272.476 145.551 272.062 144.657C271.574 143.652 270.822 142.907 269.845 142.348C268.831 141.827 267.666 141.566 266.313 141.566C265.111 141.566 264.059 141.827 263.082 142.311C262.105 142.795 261.203 143.54 260.377 144.583C259.776 143.577 259.024 142.795 258.122 142.311C257.22 141.827 256.131 141.566 254.891 141.566C253.689 141.566 252.561 141.827 251.584 142.311C250.607 142.795 249.668 143.54 248.804 144.583V144.099C248.804 143.279 248.578 142.683 248.09 142.199C247.639 141.752 247.075 141.529 246.399 141.529C245.685 141.529 245.121 141.789 244.67 142.274C244.257 142.758 244.032 143.465 244.032 144.397V158.588C244.032 159.631 244.257 160.413 244.746 160.934C245.234 161.456 245.873 161.716 246.624 161.716C247.376 161.716 248.015 161.456 248.466 160.934C248.954 160.413 249.179 159.631 249.179 158.588L249.18 151.883C249.18 149.798 249.442 148.196 249.968 147.078C250.495 145.961 251.547 145.402 253.2 145.402C254.027 145.402 254.628 145.626 255.004 146.073C255.379 146.52 255.605 147.078 255.717 147.749C255.793 148.457 255.83 149.425 255.83 150.691L255.83 158.588C255.83 159.631 256.055 160.413 256.544 160.934C256.995 161.456 257.634 161.716 258.385 161.716C259.174 161.716 259.775 161.456 260.264 160.934C260.753 160.413 260.978 159.631 260.978 158.588V151.995C260.978 149.872 261.166 148.382 261.542 147.563V147.563Z" fill="#646377" stroke="#646377" stroke-width="0.634374"/>
<path fill-rule="evenodd" clip-rule="evenodd" d="M234.337 152.442C234.337 154.156 234.112 155.422 233.661 156.167C233.285 156.837 232.647 157.396 231.82 157.843C230.993 158.253 230.054 158.476 229.077 158.476C228.138 158.476 227.386 158.215 226.823 157.694C226.259 157.173 225.958 156.502 225.958 155.757C225.958 155.05 226.221 154.454 226.71 154.044C227.198 153.634 227.687 153.374 228.25 153.224C228.776 153.113 229.753 152.889 231.144 152.591C232.534 152.293 233.586 151.995 234.337 151.735V152.442ZM236.254 161.008C236.78 161.493 237.268 161.716 237.794 161.716C238.396 161.716 238.959 161.493 239.448 161.083C239.899 160.673 240.161 160.226 240.161 159.705C240.161 159.407 240.011 158.774 239.673 157.731C239.373 156.725 239.222 155.757 239.222 154.826C239.222 153.82 239.26 152.926 239.26 152.106C239.26 151.324 239.26 150.319 239.26 149.164C239.26 147.302 238.997 145.812 238.471 144.694C237.945 143.614 237.08 142.795 235.803 142.273C234.563 141.752 232.834 141.491 230.618 141.491C228.664 141.491 227.01 141.752 225.695 142.273C224.343 142.832 223.366 143.503 222.764 144.322C222.126 145.141 221.825 145.998 221.825 146.892C221.825 147.451 222.013 147.898 222.426 148.27C222.84 148.605 223.328 148.792 223.892 148.792C224.531 148.792 224.944 148.68 225.132 148.456C225.32 148.233 225.62 147.749 226.109 147.078C226.559 146.37 227.085 145.849 227.724 145.477C228.401 145.141 229.34 144.955 230.618 144.955C232.083 144.955 233.06 145.253 233.548 145.886C233.999 146.482 234.262 147.451 234.337 148.754C233.285 149.052 232.308 149.313 231.407 149.536C230.505 149.723 229.453 149.983 228.175 150.244C226.935 150.468 226.146 150.654 225.808 150.728C224.305 151.026 223.103 151.697 222.238 152.628C221.374 153.596 220.923 154.751 220.923 156.129C220.923 157.135 221.186 158.066 221.712 158.923C222.238 159.779 222.99 160.45 223.967 160.971C224.944 161.455 226.071 161.716 227.349 161.716C228.739 161.716 230.016 161.493 231.144 161.008C232.271 160.561 233.473 159.854 234.676 158.923C235.239 159.816 235.765 160.524 236.254 161.008V161.008Z" fill="#646377"/>
<path d="M233.661 156.167L233.39 156.003L233.384 156.012L233.661 156.167ZM231.82 157.843L231.961 158.127L231.971 158.122L231.82 157.843ZM226.823 157.694L227.038 157.461L227.038 157.461L226.823 157.694ZM226.71 154.044L226.914 154.287L226.914 154.287L226.71 154.044ZM228.25 153.224L228.184 152.914L228.177 152.916L228.169 152.918L228.25 153.224ZM231.144 152.591L231.21 152.901L231.21 152.901L231.144 152.591ZM234.337 151.735H234.655V151.289L234.234 151.435L234.337 151.735ZM239.448 161.083L239.652 161.326L239.661 161.318L239.448 161.083ZM239.673 157.731L239.369 157.822L239.371 157.829L239.673 157.731ZM238.471 144.694L238.758 144.559L238.756 144.555L238.471 144.694ZM235.803 142.273L235.68 142.566L235.683 142.567L235.803 142.273ZM225.695 142.273L225.578 141.978L225.574 141.98L225.695 142.273ZM222.764 144.322L223.015 144.517L223.02 144.51L222.764 144.322ZM222.426 148.27L222.214 148.506L222.22 148.511L222.227 148.516L222.426 148.27ZM225.132 148.456L225.374 148.661L225.375 148.66L225.132 148.456ZM226.109 147.078L226.365 147.265L226.371 147.257L226.376 147.249L226.109 147.078ZM227.724 145.477L227.584 145.192L227.574 145.197L227.565 145.203L227.724 145.477ZM233.548 145.886L233.801 145.695L233.8 145.693L233.548 145.886ZM234.337 148.754L234.424 149.059L234.669 148.99L234.654 148.736L234.337 148.754ZM231.407 149.536L231.471 149.847L231.483 149.844L231.407 149.536ZM228.175 150.244L228.232 150.556L228.239 150.555L228.175 150.244ZM225.808 150.728L225.87 151.039L225.876 151.038L225.808 150.728ZM222.238 152.628L222.006 152.412L222.002 152.417L222.238 152.628ZM223.967 160.971L223.817 161.251L223.826 161.255L223.967 160.971ZM231.144 161.008L231.027 160.713L231.018 160.717L231.144 161.008ZM234.676 158.923L234.944 158.753L234.758 158.458L234.481 158.672L234.676 158.923ZM234.02 152.442C234.02 154.146 233.793 155.336 233.39 156.003L233.933 156.331C234.431 155.507 234.655 154.166 234.655 152.442H234.02ZM233.384 156.012C233.047 156.614 232.461 157.136 231.669 157.564L231.971 158.122C232.832 157.657 233.524 157.061 233.938 156.322L233.384 156.012ZM231.679 157.559C230.897 157.947 230.006 158.159 229.077 158.159V158.793C230.102 158.793 231.09 158.559 231.961 158.127L231.679 157.559ZM229.077 158.159C228.199 158.159 227.531 157.917 227.038 157.461L226.607 157.927C227.242 158.514 228.077 158.793 229.077 158.793V158.159ZM227.038 157.461C226.536 156.997 226.275 156.41 226.275 155.757H225.641C225.641 156.594 225.981 157.348 226.607 157.927L227.038 157.461ZM226.275 155.757C226.275 155.133 226.505 154.63 226.914 154.287L226.506 153.801C225.938 154.277 225.641 154.967 225.641 155.757H226.275ZM226.914 154.287C227.37 153.904 227.817 153.667 228.331 153.531L228.169 152.918C227.556 153.08 227.026 153.364 226.506 153.801L226.914 154.287ZM228.316 153.535C228.831 153.425 229.837 153.196 231.21 152.901L231.077 152.281C229.67 152.583 228.721 152.8 228.184 152.914L228.316 153.535ZM231.21 152.901C232.61 152.601 233.675 152.3 234.441 152.034L234.234 151.435C233.497 151.69 232.458 151.985 231.077 152.281L231.21 152.901ZM234.02 151.735V152.442H234.655V151.735H234.02ZM236.039 161.242C236.603 161.761 237.164 162.033 237.794 162.033V161.399C237.372 161.399 236.957 161.225 236.469 160.775L236.039 161.242ZM237.794 162.033C238.479 162.033 239.113 161.778 239.652 161.326L239.244 160.84C238.805 161.208 238.312 161.399 237.794 161.399V162.033ZM239.661 161.318C240.15 160.873 240.479 160.347 240.479 159.705H239.844C239.844 160.105 239.647 160.473 239.234 160.848L239.661 161.318ZM240.479 159.705C240.479 159.515 240.433 159.251 240.352 158.922C240.27 158.585 240.145 158.158 239.975 157.633L239.371 157.829C239.539 158.346 239.659 158.757 239.736 159.073C239.815 159.395 239.844 159.596 239.844 159.705H240.479ZM239.977 157.64C239.684 156.66 239.539 155.722 239.539 154.826H238.905C238.905 155.791 239.061 156.79 239.369 157.822L239.977 157.64ZM239.539 154.826C239.539 154.326 239.549 153.854 239.558 153.403C239.567 152.952 239.577 152.52 239.577 152.106H238.943C238.943 152.512 238.933 152.937 238.924 153.39C238.914 153.841 238.905 154.319 238.905 154.826H239.539ZM239.577 152.106C239.577 152.105 239.577 152.103 239.577 152.102C239.577 152.1 239.577 152.099 239.577 152.097C239.577 152.096 239.577 152.094 239.577 152.093C239.577 152.091 239.577 152.09 239.577 152.088C239.577 152.087 239.577 152.085 239.577 152.084C239.577 152.082 239.577 152.08 239.577 152.079C239.577 152.077 239.577 152.076 239.577 152.074C239.577 152.073 239.577 152.071 239.577 152.07C239.577 152.068 239.577 152.067 239.577 152.065C239.577 152.063 239.577 152.062 239.577 152.06C239.577 152.059 239.577 152.057 239.577 152.056C239.577 152.054 239.577 152.053 239.577 152.051C239.577 152.05 239.577 152.048 239.577 152.046C239.577 152.045 239.577 152.043 239.577 152.042C239.577 152.04 239.577 152.039 239.577 152.037C239.577 152.036 239.577 152.034 239.577 152.033C239.577 152.031 239.577 152.029 239.577 152.028C239.577 152.026 239.577 152.025 239.577 152.023C239.577 152.022 239.577 152.02 239.577 152.018C239.577 152.017 239.577 152.015 239.577 152.014C239.577 152.012 239.577 152.011 239.577 152.009C239.577 152.008 239.577 152.006 239.577 152.004C239.577 152.003 239.577 152.001 239.577 152C239.577 151.998 239.577 151.997 239.577 151.995C239.577 151.993 239.577 151.992 239.577 151.99C239.577 151.989 239.577 151.987 239.577 151.986C239.577 151.984 239.577 151.982 239.577 151.981C239.577 151.979 239.577 151.978 239.577 151.976C239.577 151.975 239.577 151.973 239.577 151.971C239.577 151.97 239.577 151.968 239.577 151.967C239.577 151.965 239.577 151.964 239.577 151.962C239.577 151.96 239.577 151.959 239.577 151.957C239.577 151.956 239.577 151.954 239.577 151.952C239.577 151.951 239.577 151.949 239.577 151.948C239.577 151.946 239.577 151.945 239.577 151.943C239.577 151.941 239.577 151.94 239.577 151.938C239.577 151.937 239.577 151.935 239.577 151.933C239.577 151.932 239.577 151.93 239.577 151.929C239.577 151.927 239.577 151.925 239.577 151.924C239.577 151.922 239.577 151.921 239.577 151.919C239.577 151.918 239.577 151.916 239.577 151.914C239.577 151.913 239.577 151.911 239.577 151.91C239.577 151.908 239.577 151.906 239.577 151.905C239.577 151.903 239.577 151.902 239.577 151.9C239.577 151.898 239.577 151.897 239.577 151.895C239.577 151.894 239.577 151.892 239.577 151.89C239.577 151.889 239.577 151.887 239.577 151.885C239.577 151.884 239.577 151.882 239.577 151.881C239.577 151.879 239.577 151.877 239.577 151.876C239.577 151.874 239.577 151.873 239.577 151.871C239.577 151.869 239.577 151.868 239.577 151.866C239.577 151.865 239.577 151.863 239.577 151.861C239.577 151.86 239.577 151.858 239.577 151.856C239.577 151.855 239.577 151.853 239.577 151.852C239.577 151.85 239.577 151.848 239.577 151.847C239.577 151.845 239.577 151.844 239.577 151.842C239.577 151.84 239.577 151.839 239.577 151.837C239.577 151.835 239.577 151.834 239.577 151.832C239.577 151.831 239.577 151.829 239.577 151.827C239.577 151.826 239.577 151.824 239.577 151.822C239.577 151.821 239.577 151.819 239.577 151.818C239.577 151.816 239.577 151.814 239.577 151.813C239.577 151.811 239.577 151.809 239.577 151.808C239.577 151.806 239.577 151.804 239.577 151.803C239.577 151.801 239.577 151.8 239.577 151.798C239.577 151.796 239.577 151.795 239.577 151.793C239.577 151.791 239.577 151.79 239.577 151.788C239.577 151.786 239.577 151.785 239.577 151.783C239.577 151.782 239.577 151.78 239.577 151.778C239.577 151.777 239.577 151.775 239.577 151.773C239.577 151.772 239.577 151.77 239.577 151.768C239.577 151.767 239.577 151.765 239.577 151.763C239.577 151.762 239.577 151.76 239.577 151.758C239.577 151.757 239.577 151.755 239.577 151.754C239.577 151.752 239.577 151.75 239.577 151.749C239.577 151.747 239.577 151.745 239.577 151.744C239.577 151.742 239.577 151.74 239.577 151.739C239.577 151.737 239.577 151.735 239.577 151.734C239.577 151.732 239.577 151.73 239.577 151.729C239.577 151.727 239.577 151.725 239.577 151.724C239.577 151.722 239.577 151.72 239.577 151.719C239.577 151.717 239.577 151.715 239.577 151.714C239.577 151.712 239.577 151.71 239.577 151.709C239.577 151.707 239.577 151.705 239.577 151.704C239.577 151.702 239.577 151.7 239.577 151.699C239.577 151.697 239.577 151.695 239.577 151.694C239.577 151.692 239.577 151.69 239.577 151.689C239.577 151.687 239.577 151.685 239.577 151.684C239.577 151.682 239.577 151.68 239.577 151.679C239.577 151.677 239.577 151.675 239.577 151.674C239.577 151.672 239.577 151.67 239.577 151.669C239.577 151.667 239.577 151.665 239.577 151.664C239.577 151.662 239.577 151.66 239.577 151.659C239.577 151.657 239.577 151.655 239.577 151.654C239.577 151.652 239.577 151.65 239.577 151.648C239.577 151.647 239.577 151.645 239.577 151.643C239.577 151.642 239.577 151.64 239.577 151.638C239.577 151.637 239.577 151.635 239.577 151.633C239.577 151.632 239.577 151.63 239.577 151.628C239.577 151.627 239.577 151.625 239.577 151.623C239.577 151.621 239.577 151.62 239.577 151.618C239.577 151.616 239.577 151.615 239.577 151.613C239.577 151.611 239.577 151.61 239.577 151.608C239.577 151.606 239.577 151.604 239.577 151.603C239.577 151.601 239.577 151.599 239.577 151.598C239.577 151.596 239.577 151.594 239.577 151.593C239.577 151.591 239.577 151.589 239.577 151.587C239.577 151.586 239.577 151.584 239.577 151.582C239.577 151.581 239.577 151.579 239.577 151.577C239.577 151.576 239.577 151.574 239.577 151.572C239.577 151.57 239.577 151.569 239.577 151.567C239.577 151.565 239.577 151.564 239.577 151.562C239.577 151.56 239.577 151.558 239.577 151.557C239.577 151.555 239.577 151.553 239.577 151.552C239.577 151.55 239.577 151.548 239.577 151.546C239.577 151.545 239.577 151.543 239.577 151.541C239.577 151.54 239.577 151.538 239.577 151.536C239.577 151.534 239.577 151.533 239.577 151.531C239.577 151.529 239.577 151.528 239.577 151.526C239.577 151.524 239.577 151.522 239.577 151.521C239.577 151.519 239.577 151.517 239.577 151.515C239.577 151.514 239.577 151.512 239.577 151.51C239.577 151.509 239.577 151.507 239.577 151.505C239.577 151.503 239.577 151.502 239.577 151.5C239.577 151.498 239.577 151.496 239.577 151.495C239.577 151.493 239.577 151.491 239.577 151.49C239.577 151.488 239.577 151.486 239.577 151.484C239.577 151.483 239.577 151.481 239.577 151.479C239.577 151.477 239.577 151.476 239.577 151.474C239.577 151.472 239.577 151.47 239.577 151.469C239.577 151.467 239.577 151.465 239.577 151.463C239.577 151.462 239.577 151.46 239.577 151.458C239.577 151.456 239.577 151.455 239.577 151.453C239.577 151.451 239.577 151.449 239.577 151.448C239.577 151.446 239.577 151.444 239.577 151.442C239.577 151.441 239.577 151.439 239.577 151.437C239.577 151.436 239.577 151.434 239.577 151.432C239.577 151.43 239.577 151.429 239.577 151.427C239.577 151.425 239.577 151.423 239.577 151.421C239.577 151.42 239.577 151.418 239.577 151.416C239.577 151.414 239.577 151.413 239.577 151.411C239.577 151.409 239.577 151.407 239.577 151.406C239.577 151.404 239.577 151.402 239.577 151.4C239.577 151.399 239.577 151.397 239.577 151.395C239.577 151.393 239.577 151.392 239.577 151.39C239.577 151.388 239.577 151.386 239.577 151.385C239.577 151.383 239.577 151.381 239.577 151.379C239.577 151.377 239.577 151.376 239.577 151.374C239.577 151.372 239.577 151.37 239.577 151.369C239.577 151.367 239.577 151.365 239.577 151.363C239.577 151.362 239.577 151.36 239.577 151.358C239.577 151.356 239.577 151.354 239.577 151.353C239.577 151.351 239.577 151.349 239.577 151.347C239.577 151.346 239.577 151.344 239.577 151.342C239.577 151.34 239.577 151.338 239.577 151.337C239.577 151.335 239.577 151.333 239.577 151.331C239.577 151.33 239.577 151.328 239.577 151.326C239.577 151.324 239.577 151.322 239.577 151.321C239.577 151.319 239.577 151.317 239.577 151.315C239.577 151.314 239.577 151.312 239.577 151.31C239.577 151.308 239.577 151.306 239.577 151.305C239.577 151.303 239.577 151.301 239.577 151.299C239.577 151.297 239.577 151.296 239.577 151.294C239.577 151.292 239.577 151.29 239.577 151.288C239.577 151.287 239.577 151.285 239.577 151.283C239.577 151.281 239.577 151.28 239.577 151.278C239.577 151.276 239.577 151.274 239.577 151.272C239.577 151.271 239.577 151.269 239.577 151.267C239.577 151.265 239.577 151.263 239.577 151.262C239.577 151.26 239.577 151.258 239.577 151.256C239.577 151.254 239.577 151.253 239.577 151.251C239.577 151.249 239.577 151.247 239.577 151.245C239.577 151.244 239.577 151.242 239.577 151.24C239.577 151.238 239.577 151.236 239.577 151.234C239.577 151.233 239.577 151.231 239.577 151.229C239.577 151.227 239.577 151.225 239.577 151.224C239.577 151.222 239.577 151.22 239.577 151.218C239.577 151.216 239.577 151.215 239.577 151.213C239.577 151.211 239.577 151.209 239.577 151.207C239.577 151.206 239.577 151.204 239.577 151.202C239.577 151.2 239.577 151.198 239.577 151.196C239.577 151.195 239.577 151.193 239.577 151.191C239.577 151.189 239.577 151.187 239.577 151.186C239.577 151.184 239.577 151.182 239.577 151.18C239.577 151.178 239.577 151.176 239.577 151.175C239.577 151.173 239.577 151.171 239.577 151.169C239.577 151.167 239.577 151.165 239.577 151.164C239.577 151.162 239.577 151.16 239.577 151.158C239.577 151.156 239.577 151.154 239.577 151.153C239.577 151.151 239.577 151.149 239.577 151.147C239.577 151.145 239.577 151.143 239.577 151.142C239.577 151.14 239.577 151.138 239.577 151.136C239.577 151.134 239.577 151.132 239.577 151.131C239.577 151.129 239.577 151.127 239.577 151.125C239.577 151.123 239.577 151.121 239.577 151.12C239.577 151.118 239.577 151.116 239.577 151.114C239.577 151.112 239.577 151.11 239.577 151.109C239.577 151.107 239.577 151.105 239.577 151.103C239.577 151.101 239.577 151.099 239.577 151.098C239.577 151.096 239.577 151.094 239.577 151.092C239.577 151.09 239.577 151.088 239.577 151.086C239.577 151.085 239.577 151.083 239.577 151.081C239.577 151.079 239.577 151.077 239.577 151.075C239.577 151.073 239.577 151.072 239.577 151.07C239.577 151.068 239.577 151.066 239.577 151.064C239.577 151.062 239.577 151.061 239.577 151.059C239.577 151.057 239.577 151.055 239.577 151.053C239.577 151.051 239.577 151.049 239.577 151.048C239.577 151.046 239.577 151.044 239.577 151.042C239.577 151.04 239.577 151.038 239.577 151.036C239.577 151.035 239.577 151.033 239.577 151.031C239.577 151.029 239.577 151.027 239.577 151.025C239.577 151.023 239.577 151.021 239.577 151.02C239.577 151.018 239.577 151.016 239.577 151.014C239.577 151.012 239.577 151.01 239.577 151.008C239.577 151.007 239.577 151.005 239.577 151.003C239.577 151.001 239.577 150.999 239.577 150.997C239.577 150.995 239.577 150.993 239.577 150.992C239.577 150.99 239.577 150.988 239.577 150.986C239.577 150.984 239.577 150.982 239.577 150.98C239.577 150.978 239.577 150.977 239.577 150.975C239.577 150.973 239.577 150.971 239.577 150.969C239.577 150.967 239.577 150.965 239.577 150.963C239.577 150.962 239.577 150.96 239.577 150.958C239.577 150.956 239.577 150.954 239.577 150.952C239.577 150.95 239.577 150.948 239.577 150.946C239.577 150.945 239.577 150.943 239.577 150.941C239.577 150.939 239.577 150.937 239.577 150.935C239.577 150.933 239.577 150.931 239.577 150.929C239.577 150.928 239.577 150.926 239.577 150.924C239.577 150.922 239.577 150.92 239.577 150.918C239.577 150.916 239.577 150.914 239.577 150.912C239.577 150.911 239.577 150.909 239.577 150.907C239.577 150.905 239.577 150.903 239.577 150.901C239.577 150.899 239.577 150.897 239.577 150.895C239.577 150.894 239.577 150.892 239.577 150.89C239.577 150.888 239.577 150.886 239.577 150.884C239.577 150.882 239.577 150.88 239.577 150.878C239.577 150.876 239.577 150.874 239.577 150.873C239.577 150.871 239.577 150.869 239.577 150.867C239.577 150.865 239.577 150.863 239.577 150.861C239.577 150.859 239.577 150.857 239.577 150.855C239.577 150.854 239.577 150.852 239.577 150.85C239.577 150.848 239.577 150.846 239.577 150.844C239.577 150.842 239.577 150.84 239.577 150.838C239.577 150.836 239.577 150.834 239.577 150.833C239.577 150.831 239.577 150.829 239.577 150.827C239.577 150.825 239.577 150.823 239.577 150.821C239.577 150.819 239.577 150.817 239.577 150.815C239.577 150.813 239.577 150.811 239.577 150.81C239.577 150.808 239.577 150.806 239.577 150.804C239.577 150.802 239.577 150.8 239.577 150.798C239.577 150.796 239.577 150.794 239.577 150.792C239.577 150.79 239.577 150.788 239.577 150.786C239.577 150.785 239.577 150.783 239.577 150.781C239.577 150.779 239.577 150.777 239.577 150.775C239.577 150.773 239.577 150.771 239.577 150.769C239.577 150.767 239.577 150.765 239.577 150.763C239.577 150.761 239.577 150.759 239.577 150.758C239.577 150.756 239.577 150.754 239.577 150.752C239.577 150.75 239.577 150.748 239.577 150.746C239.577 150.744 239.577 150.742 239.577 150.74C239.577 150.738 239.577 150.736 239.577 150.734C239.577 150.732 239.577 150.73 239.577 150.728C239.577 150.727 239.577 150.725 239.577 150.723C239.577 150.721 239.577 150.719 239.577 150.717C239.577 150.715 239.577 150.713 239.577 150.711C239.577 150.709 239.577 150.707 239.577 150.705C239.577 150.703 239.577 150.701 239.577 150.699C239.577 150.697 239.577 150.695 239.577 150.694C239.577 150.692 239.577 150.69 239.577 150.688C239.577 150.686 239.577 150.684 239.577 150.682C239.577 150.68 239.577 150.678 239.577 150.676C239.577 150.674 239.577 150.672 239.577 150.67C239.577 150.668 239.577 150.666 239.577 150.664C239.577 150.662 239.577 150.66 239.577 150.658C239.577 150.656 239.577 150.654 239.577 150.653C239.577 150.651 239.577 150.649 239.577 150.647C239.577 150.645 239.577 150.643 239.577 150.641C239.577 150.639 239.577 150.637 239.577 150.635C239.577 150.633 239.577 150.631 239.577 150.629C239.577 150.627 239.577 150.625 239.577 150.623C239.577 150.621 239.577 150.619 239.577 150.617C239.577 150.615 239.577 150.613 239.577 150.611C239.577 150.609 239.577 150.607 239.577 150.605C239.577 150.603 239.577 150.601 239.577 150.599C239.577 150.598 239.577 150.596 239.577 150.594C239.577 150.592 239.577 150.59 239.577 150.588C239.577 150.586 239.577 150.584 239.577 150.582C239.577 150.58 239.577 150.578 239.577 150.576C239.577 150.574 239.577 150.572 239.577 150.57C239.577 150.568 239.577 150.566 239.577 150.564C239.577 150.562 239.577 150.56 239.577 150.558C239.577 150.556 239.577 150.554 239.577 150.552C239.577 150.55 239.577 150.548 239.577 150.546C239.577 150.544 239.577 150.542 239.577 150.54C239.577 150.538 239.577 150.536 239.577 150.534C239.577 150.532 239.577 150.53 239.577 150.528C239.577 150.526 239.577 150.524 239.577 150.522C239.577 150.52 239.577 150.518 239.577 150.516C239.577 150.514 239.577 150.512 239.577 150.51C239.577 150.508 239.577 150.506 239.577 150.504C239.577 150.502 239.577 150.5 239.577 150.498C239.577 150.496 239.577 150.494 239.577 150.492C239.577 150.49 239.577 150.488 239.577 150.486C239.577 150.484 239.577 150.482 239.577 150.48C239.577 150.478 239.577 150.476 239.577 150.474C239.577 150.472 239.577 150.47 239.577 150.468C239.577 150.466 239.577 150.464 239.577 150.462C239.577 150.46 239.577 150.458 239.577 150.456C239.577 150.454 239.577 150.452 239.577 150.45C239.577 150.448 239.577 150.446 239.577 150.444C239.577 150.442 239.577 150.44 239.577 150.438C239.577 150.436 239.577 150.434 239.577 150.432C239.577 150.43 239.577 150.428 239.577 150.426C239.577 150.424 239.577 150.422 239.577 150.42C239.577 150.418 239.577 150.416 239.577 150.414C239.577 150.412 239.577 150.41 239.577 150.408C239.577 150.406 239.577 150.404 239.577 150.402C239.577 150.4 239.577 150.398 239.577 150.396C239.577 150.394 239.577 150.392 239.577 150.39C239.577 150.388 239.577 150.386 239.577 150.384C239.577 150.382 239.577 150.38 239.577 150.378C239.577 150.376 239.577 150.374 239.577 150.372C239.577 150.37 239.577 150.368 239.577 150.366C239.577 150.364 239.577 150.362 239.577 150.36C239.577 150.358 239.577 150.356 239.577 150.354C239.577 150.352 239.577 150.35 239.577 150.348C239.577 150.346 239.577 150.344 239.577 150.342C239.577 150.34 239.577 150.338 239.577 150.335C239.577 150.333 239.577 150.331 239.577 150.329C239.577 150.327 239.577 150.325 239.577 150.323C239.577 150.321 239.577 150.319 239.577 150.317C239.577 150.315 239.577 150.313 239.577 150.311C239.577 150.309 239.577 150.307 239.577 150.305C239.577 150.303 239.577 150.301 239.577 150.299C239.577 150.297 239.577 150.295 239.577 150.293C239.577 150.291 239.577 150.289 239.577 150.287C239.577 150.285 239.577 150.283 239.577 150.281C239.577 150.278 239.577 150.276 239.577 150.274C239.577 150.272 239.577 150.27 239.577 150.268C239.577 150.266 239.577 150.264 239.577 150.262C239.577 150.26 239.577 150.258 239.577 150.256C239.577 150.254 239.577 150.252 239.577 150.25C239.577 150.248 239.577 150.246 239.577 150.244C239.577 150.242 239.577 150.24 239.577 150.238C239.577 150.235 239.577 150.233 239.577 150.231C239.577 150.229 239.577 150.227 239.577 150.225C239.577 150.223 239.577 150.221 239.577 150.219C239.577 150.217 239.577 150.215 239.577 150.213C239.577 150.211 239.577 150.209 239.577 150.207C239.577 150.205 239.577 150.203 239.577 150.201C239.577 150.198 239.577 150.196 239.577 150.194C239.577 150.192 239.577 150.19 239.577 150.188C239.577 150.186 239.577 150.184 239.577 150.182C239.577 150.18 239.577 150.178 239.577 150.176C239.577 150.174 239.577 150.172 239.577 150.17C239.577 150.168 239.577 150.165 239.577 150.163C239.577 150.161 239.577 150.159 239.577 150.157C239.577 150.155 239.577 150.153 239.577 150.151C239.577 150.149 239.577 150.147 239.577 150.145C239.577 150.143 239.577 150.141 239.577 150.139C239.577 150.136 239.577 150.134 239.577 150.132C239.577 150.13 239.577 150.128 239.577 150.126C239.577 150.124 239.577 150.122 239.577 150.12C239.577 150.118 239.577 150.116 239.577 150.114C239.577 150.112 239.577 150.11 239.577 150.107C239.577 150.105 239.577 150.103 239.577 150.101C239.577 150.099 239.577 150.097 239.577 150.095C239.577 150.093 239.577 150.091 239.577 150.089C239.577 150.087 239.577 150.085 239.577 150.082C239.577 150.08 239.577 150.078 239.577 150.076C239.577 150.074 239.577 150.072 239.577 150.07C239.577 150.068 239.577 150.066 239.577 150.064C239.577 150.062 239.577 150.06 239.577 150.057C239.577 150.055 239.577 150.053 239.577 150.051C239.577 150.049 239.577 150.047 239.577 150.045C239.577 150.043 239.577 150.041 239.577 150.039C239.577 150.037 239.577 150.034 239.577 150.032C239.577 150.03 239.577 150.028 239.577 150.026C239.577 150.024 239.577 150.022 239.577 150.02C239.577 150.018 239.577 150.016 239.577 150.013C239.577 150.011 239.577 150.009 239.577 150.007C239.577 150.005 239.577 150.003 239.577 150.001C239.577 149.999 239.577 149.997 239.577 149.995C239.577 149.992 239.577 149.99 239.577 149.988C239.577 149.986 239.577 149.984 239.577 149.982C239.577 149.98 239.577 149.978 239.577 149.976C239.577 149.974 239.577 149.971 239.577 149.969C239.577 149.967 239.577 149.965 239.577 149.963C239.577 149.961 239.577 149.959 239.577 149.957C239.577 149.955 239.577 149.952 239.577 149.95C239.577 149.948 239.577 149.946 239.577 149.944C239.577 149.942 239.577 149.94 239.577 149.938C239.577 149.936 239.577 149.933 239.577 149.931C239.577 149.929 239.577 149.927 239.577 149.925C239.577 149.923 239.577 149.921 239.577 149.919C239.577 149.916 239.577 149.914 239.577 149.912C239.577 149.91 239.577 149.908 239.577 149.906C239.577 149.904 239.577 149.902 239.577 149.9C239.577 149.897 239.577 149.895 239.577 149.893C239.577 149.891 239.577 149.889 239.577 149.887C239.577 149.885 239.577 149.883 239.577 149.88C239.577 149.878 239.577 149.876 239.577 149.874C239.577 149.872 239.577 149.87 239.577 149.868C239.577 149.866 239.577 149.863 239.577 149.861C239.577 149.859 239.577 149.857 239.577 149.855C239.577 149.853 239.577 149.851 239.577 149.849C239.577 149.846 239.577 149.844 239.577 149.842C239.577 149.84 239.577 149.838 239.577 149.836C239.577 149.834 239.577 149.831 239.577 149.829C239.577 149.827 239.577 149.825 239.577 149.823C239.577 149.821 239.577 149.819 239.577 149.817C239.577 149.814 239.577 149.812 239.577 149.81C239.577 149.808 239.577 149.806 239.577 149.804C239.577 149.802 239.577 149.799 239.577 149.797C239.577 149.795 239.577 149.793 239.577 149.791C239.577 149.789 239.577 149.787 239.577 149.784C239.577 149.782 239.577 149.78 239.577 149.778C239.577 149.776 239.577 149.774 239.577 149.772C239.577 149.769 239.577 149.767 239.577 149.765C239.577 149.763 239.577 149.761 239.577 149.759C239.577 149.757 239.577 149.754 239.577 149.752C239.577 149.75 239.577 149.748 239.577 149.746C239.577 149.744 239.577 149.741 239.577 149.739C239.577 149.737 239.577 149.735 239.577 149.733C239.577 149.731 239.577 149.729 239.577 149.726C239.577 149.724 239.577 149.722 239.577 149.72C239.577 149.718 239.577 149.716 239.577 149.713C239.577 149.711 239.577 149.709 239.577 149.707C239.577 149.705 239.577 149.703 239.577 149.7C239.577 149.698 239.577 149.696 239.577 149.694C239.577 149.692 239.577 149.69 239.577 149.688C239.577 149.685 239.577 149.683 239.577 149.681C239.577 149.679 239.577 149.677 239.577 149.675C239.577 149.672 239.577 149.67 239.577 149.668C239.577 149.666 239.577 149.664 239.577 149.662C239.577 149.659 239.577 149.657 239.577 149.655C239.577 149.653 239.577 149.651 239.577 149.649C239.577 149.646 239.577 149.644 239.577 149.642C239.577 149.64 239.577 149.638 239.577 149.636C239.577 149.633 239.577 149.631 239.577 149.629C239.577 149.627 239.577 149.625 239.577 149.622C239.577 149.62 239.577 149.618 239.577 149.616C239.577 149.614 239.577 149.612 239.577 149.609C239.577 149.607 239.577 149.605 239.577 149.603C239.577 149.601 239.577 149.599 239.577 149.596C239.577 149.594 239.577 149.592 239.577 149.59C239.577 149.588 239.577 149.585 239.577 149.583C239.577 149.581 239.577 149.579 239.577 149.577C239.577 149.575 239.577 149.572 239.577 149.57C239.577 149.568 239.577 149.566 239.577 149.564C239.577 149.561 239.577 149.559 239.577 149.557C239.577 149.555 239.577 149.553 239.577 149.551C239.577 149.548 239.577 149.546 239.577 149.544C239.577 149.542 239.577 149.54 239.577 149.537C239.577 149.535 239.577 149.533 239.577 149.531C239.577 149.529 239.577 149.526 239.577 149.524C239.577 149.522 239.577 149.52 239.577 149.518C239.577 149.515 239.577 149.513 239.577 149.511C239.577 149.509 239.577 149.507 239.577 149.504C239.577 149.502 239.577 149.5 239.577 149.498C239.577 149.496 239.577 149.494 239.577 149.491C239.577 149.489 239.577 149.487 239.577 149.485C239.577 149.483 239.577 149.48 239.577 149.478C239.577 149.476 239.577 149.474 239.577 149.472C239.577 149.469 239.577 149.467 239.577 149.465C239.577 149.463 239.577 149.46 239.577 149.458C239.577 149.456 239.577 149.454 239.577 149.452C239.577 149.449 239.577 149.447 239.577 149.445C239.577 149.443 239.577 149.441 239.577 149.438C239.577 149.436 239.577 149.434 239.577 149.432C239.577 149.43 239.577 149.427 239.577 149.425C239.577 149.423 239.577 149.421 239.577 149.419C239.577 149.416 239.577 149.414 239.577 149.412C239.577 149.41 239.577 149.407 239.577 149.405C239.577 149.403 239.577 149.401 239.577 149.399C239.577 149.396 239.577 149.394 239.577 149.392C239.577 149.39 239.577 149.388 239.577 149.385C239.577 149.383 239.577 149.381 239.577 149.379C239.577 149.376 239.577 149.374 239.577 149.372C239.577 149.37 239.577 149.368 239.577 149.365C239.577 149.363 239.577 149.361 239.577 149.359C239.577 149.356 239.577 149.354 239.577 149.352C239.577 149.35 239.577 149.348 239.577 149.345C239.577 149.343 239.577 149.341 239.577 149.339C239.577 149.336 239.577 149.334 239.577 149.332C239.577 149.33 239.577 149.328 239.577 149.325C239.577 149.323 239.577 149.321 239.577 149.319C239.577 149.316 239.577 149.314 239.577 149.312C239.577 149.31 239.577 149.308 239.577 149.305C239.577 149.303 239.577 149.301 239.577 149.299C239.577 149.296 239.577 149.294 239.577 149.292C239.577 149.29 239.577 149.287 239.577 149.285C239.577 149.283 239.577 149.281 239.577 149.278C239.577 149.276 239.577 149.274 239.577 149.272C239.577 149.27 239.577 149.267 239.577 149.265C239.577 149.263 239.577 149.261 239.577 149.258C239.577 149.256 239.577 149.254 239.577 149.252C239.577 149.249 239.577 149.247 239.577 149.245C239.577 149.243 239.577 149.24 239.577 149.238C239.577 149.236 239.577 149.234 239.577 149.231C239.577 149.229 239.577 149.227 239.577 149.225C239.577 149.222 239.577 149.22 239.577 149.218C239.577 149.216 239.577 149.213 239.577 149.211C239.577 149.209 239.577 149.207 239.577 149.204C239.577 149.202 239.577 149.2 239.577 149.198C239.577 149.195 239.577 149.193 239.577 149.191C239.577 149.189 239.577 149.186 239.577 149.184C239.577 149.182 239.577 149.18 239.577 149.177C239.577 149.175 239.577 149.173 239.577 149.171C239.577 149.168 239.577 149.166 239.577 149.164H238.943C238.943 149.166 238.943 149.168 238.943 149.171C238.943 149.173 238.943 149.175 238.943 149.177C238.943 149.18 238.943 149.182 238.943 149.184C238.943 149.186 238.943 149.189 238.943 149.191C238.943 149.193 238.943 149.195 238.943 149.198C238.943 149.2 238.943 149.202 238.943 149.204C238.943 149.207 238.943 149.209 238.943 149.211C238.943 149.213 238.943 149.216 238.943 149.218C238.943 149.22 238.943 149.222 238.943 149.225C238.943 149.227 238.943 149.229 238.943 149.231C238.943 149.234 238.943 149.236 238.943 149.238C238.943 149.24 238.943 149.243 238.943 149.245C238.943 149.247 238.943 149.249 238.943 149.252C238.943 149.254 238.943 149.256 238.943 149.258C238.943 149.261 238.943 149.263 238.943 149.265C238.943 149.267 238.943 149.27 238.943 149.272C238.943 149.274 238.943 149.276 238.943 149.278C238.943 149.281 238.943 149.283 238.943 149.285C238.943 149.287 238.943 149.29 238.943 149.292C238.943 149.294 238.943 149.296 238.943 149.299C238.943 149.301 238.943 149.303 238.943 149.305C238.943 149.308 238.943 149.31 238.943 149.312C238.943 149.314 238.943 149.316 238.943 149.319C238.943 149.321 238.943 149.323 238.943 149.325C238.943 149.328 238.943 149.33 238.943 149.332C238.943 149.334 238.943 149.336 238.943 149.339C238.943 149.341 238.943 149.343 238.943 149.345C238.943 149.348 238.943 149.35 238.943 149.352C238.943 149.354 238.943 149.356 238.943 149.359C238.943 149.361 238.943 149.363 238.943 149.365C238.943 149.368 238.943 149.37 238.943 149.372C238.943 149.374 238.943 149.376 238.943 149.379C238.943 149.381 238.943 149.383 238.943 149.385C238.943 149.388 238.943 149.39 238.943 149.392C238.943 149.394 238.943 149.396 238.943 149.399C238.943 149.401 238.943 149.403 238.943 149.405C238.943 149.407 238.943 149.41 238.943 149.412C238.943 149.414 238.943 149.416 238.943 149.419C238.943 149.421 238.943 149.423 238.943 149.425C238.943 149.427 238.943 149.43 238.943 149.432C238.943 149.434 238.943 149.436 238.943 149.438C238.943 149.441 238.943 149.443 238.943 149.445C238.943 149.447 238.943 149.449 238.943 149.452C238.943 149.454 238.943 149.456 238.943 149.458C238.943 149.46 238.943 149.463 238.943 149.465C238.943 149.467 238.943 149.469 238.943 149.472C238.943 149.474 238.943 149.476 238.943 149.478C238.943 149.48 238.943 149.483 238.943 149.485C238.943 149.487 238.943 149.489 238.943 149.491C238.943 149.494 238.943 149.496 238.943 149.498C238.943 149.5 238.943 149.502 238.943 149.504C238.943 149.507 238.943 149.509 238.943 149.511C238.943 149.513 238.943 149.515 238.943 149.518C238.943 149.52 238.943 149.522 238.943 149.524C238.943 149.526 238.943 149.529 238.943 149.531C238.943 149.533 238.943 149.535 238.943 149.537C238.943 149.54 238.943 149.542 238.943 149.544C238.943 149.546 238.943 149.548 238.943 149.551C238.943 149.553 238.943 149.555 238.943 149.557C238.943 149.559 238.943 149.561 238.943 149.564C238.943 149.566 238.943 149.568 238.943 149.57C238.943 149.572 238.943 149.575 238.943 149.577C238.943 149.579 238.943 149.581 238.943 149.583C238.943 149.585 238.943 149.588 238.943 149.59C238.943 149.592 238.943 149.594 238.943 149.596C238.943 149.599 238.943 149.601 238.943 149.603C238.943 149.605 238.943 149.607 238.943 149.609C238.943 149.612 238.943 149.614 238.943 149.616C238.943 149.618 238.943 149.62 238.943 149.622C238.943 149.625 238.943 149.627 238.943 149.629C238.943 149.631 238.943 149.633 238.943 149.636C238.943 149.638 238.943 149.64 238.943 149.642C238.943 149.644 238.943 149.646 238.943 149.649C238.943 149.651 238.943 149.653 238.943 149.655C238.943 149.657 238.943 149.659 238.943 149.662C238.943 149.664 238.943 149.666 238.943 149.668C238.943 149.67 238.943 149.672 238.943 149.675C238.943 149.677 238.943 149.679 238.943 149.681C238.943 149.683 238.943 149.685 238.943 149.688C238.943 149.69 238.943 149.692 238.943 149.694C238.943 149.696 238.943 149.698 238.943 149.7C238.943 149.703 238.943 149.705 238.943 149.707C238.943 149.709 238.943 149.711 238.943 149.713C238.943 149.716 238.943 149.718 238.943 149.72C238.943 149.722 238.943 149.724 238.943 149.726C238.943 149.729 238.943 149.731 238.943 149.733C238.943 149.735 238.943 149.737 238.943 149.739C238.943 149.741 238.943 149.744 238.943 149.746C238.943 149.748 238.943 149.75 238.943 149.752C238.943 149.754 238.943 149.757 238.943 149.759C238.943 149.761 238.943 149.763 238.943 149.765C238.943 149.767 238.943 149.769 238.943 149.772C238.943 149.774 238.943 149.776 238.943 149.778C238.943 149.78 238.943 149.782 238.943 149.784C238.943 149.787 238.943 149.789 238.943 149.791C238.943 149.793 238.943 149.795 238.943 149.797C238.943 149.799 238.943 149.802 238.943 149.804C238.943 149.806 238.943 149.808 238.943 149.81C238.943 149.812 238.943 149.814 238.943 149.817C238.943 149.819 238.943 149.821 238.943 149.823C238.943 149.825 238.943 149.827 238.943 149.829C238.943 149.831 238.943 149.834 238.943 149.836C238.943 149.838 238.943 149.84 238.943 149.842C238.943 149.844 238.943 149.846 238.943 149.849C238.943 149.851 238.943 149.853 238.943 149.855C238.943 149.857 238.943 149.859 238.943 149.861C238.943 149.863 238.943 149.866 238.943 149.868C238.943 149.87 238.943 149.872 238.943 149.874C238.943 149.876 238.943 149.878 238.943 149.88C238.943 149.883 238.943 149.885 238.943 149.887C238.943 149.889 238.943 149.891 238.943 149.893C238.943 149.895 238.943 149.897 238.943 149.9C238.943 149.902 238.943 149.904 238.943 149.906C238.943 149.908 238.943 149.91 238.943 149.912C238.943 149.914 238.943 149.916 238.943 149.919C238.943 149.921 238.943 149.923 238.943 149.925C238.943 149.927 238.943 149.929 238.943 149.931C238.943 149.933 238.943 149.936 238.943 149.938C238.943 149.94 238.943 149.942 238.943 149.944C238.943 149.946 238.943 149.948 238.943 149.95C238.943 149.952 238.943 149.955 238.943 149.957C238.943 149.959 238.943 149.961 238.943 149.963C238.943 149.965 238.943 149.967 238.943 149.969C238.943 149.971 238.943 149.974 238.943 149.976C238.943 149.978 238.943 149.98 238.943 149.982C238.943 149.984 238.943 149.986 238.943 149.988C238.943 149.99 238.943 149.992 238.943 149.995C238.943 149.997 238.943 149.999 238.943 150.001C238.943 150.003 238.943 150.005 238.943 150.007C238.943 150.009 238.943 150.011 238.943 150.013C238.943 150.016 238.943 150.018 238.943 150.02C238.943 150.022 238.943 150.024 238.943 150.026C238.943 150.028 238.943 150.03 238.943 150.032C238.943 150.034 238.943 150.037 238.943 150.039C238.943 150.041 238.943 150.043 238.943 150.045C238.943 150.047 238.943 150.049 238.943 150.051C238.943 150.053 238.943 150.055 238.943 150.057C238.943 150.06 238.943 150.062 238.943 150.064C238.943 150.066 238.943 150.068 238.943 150.07C238.943 150.072 238.943 150.074 238.943 150.076C238.943 150.078 238.943 150.08 238.943 150.082C238.943 150.085 238.943 150.087 238.943 150.089C238.943 150.091 238.943 150.093 238.943 150.095C238.943 150.097 238.943 150.099 238.943 150.101C238.943 150.103 238.943 150.105 238.943 150.107C238.943 150.11 238.943 150.112 238.943 150.114C238.943 150.116 238.943 150.118 238.943 150.12C238.943 150.122 238.943 150.124 238.943 150.126C238.943 150.128 238.943 150.13 238.943 150.132C238.943 150.134 238.943 150.136 238.943 150.139C238.943 150.141 238.943 150.143 238.943 150.145C238.943 150.147 238.943 150.149 238.943 150.151C238.943 150.153 238.943 150.155 238.943 150.157C238.943 150.159 238.943 150.161 238.943 150.163C238.943 150.165 238.943 150.168 238.943 150.17C238.943 150.172 238.943 150.174 238.943 150.176C238.943 150.178 238.943 150.18 238.943 150.182C238.943 150.184 238.943 150.186 238.943 150.188C238.943 150.19 238.943 150.192 238.943 150.194C238.943 150.196 238.943 150.198 238.943 150.201C238.943 150.203 238.943 150.205 238.943 150.207C238.943 150.209 238.943 150.211 238.943 150.213C238.943 150.215 238.943 150.217 238.943 150.219C238.943 150.221 238.943 150.223 238.943 150.225C238.943 150.227 238.943 150.229 238.943 150.231C238.943 150.233 238.943 150.235 238.943 150.238C238.943 150.24 238.943 150.242 238.943 150.244C238.943 150.246 238.943 150.248 238.943 150.25C238.943 150.252 238.943 150.254 238.943 150.256C238.943 150.258 238.943 150.26 238.943 150.262C238.943 150.264 238.943 150.266 238.943 150.268C238.943 150.27 238.943 150.272 238.943 150.274C238.943 150.276 238.943 150.278 238.943 150.281C238.943 150.283 238.943 150.285 238.943 150.287C238.943 150.289 238.943 150.291 238.943 150.293C238.943 150.295 238.943 150.297 238.943 150.299C238.943 150.301 238.943 150.303 238.943 150.305C238.943 150.307 238.943 150.309 238.943 150.311C238.943 150.313 238.943 150.315 238.943 150.317C238.943 150.319 238.943 150.321 238.943 150.323C238.943 150.325 238.943 150.327 238.943 150.329C238.943 150.331 238.943 150.333 238.943 150.335C238.943 150.338 238.943 150.34 238.943 150.342C238.943 150.344 238.943 150.346 238.943 150.348C238.943 150.35 238.943 150.352 238.943 150.354C238.943 150.356 238.943 150.358 238.943 150.36C238.943 150.362 238.943 150.364 238.943 150.366C238.943 150.368 238.943 150.37 238.943 150.372C238.943 150.374 238.943 150.376 238.943 150.378C238.943 150.38 238.943 150.382 238.943 150.384C238.943 150.386 238.943 150.388 238.943 150.39C238.943 150.392 238.943 150.394 238.943 150.396C238.943 150.398 238.943 150.4 238.943 150.402C238.943 150.404 238.943 150.406 238.943 150.408C238.943 150.41 238.943 150.412 238.943 150.414C238.943 150.416 238.943 150.418 238.943 150.42C238.943 150.422 238.943 150.424 238.943 150.426C238.943 150.428 238.943 150.43 238.943 150.432C238.943 150.434 238.943 150.436 238.943 150.438C238.943 150.44 238.943 150.442 238.943 150.444C238.943 150.446 238.943 150.448 238.943 150.45C238.943 150.452 238.943 150.454 238.943 150.456C238.943 150.458 238.943 150.46 238.943 150.462C238.943 150.464 238.943 150.466 238.943 150.468C238.943 150.47 238.943 150.472 238.943 150.474C238.943 150.476 238.943 150.478 238.943 150.48C238.943 150.482 238.943 150.484 238.943 150.486C238.943 150.488 238.943 150.49 238.943 150.492C238.943 150.494 238.943 150.496 238.943 150.498C238.943 150.5 238.943 150.502 238.943 150.504C238.943 150.506 238.943 150.508 238.943 150.51C238.943 150.512 238.943 150.514 238.943 150.516C238.943 150.518 238.943 150.52 238.943 150.522C238.943 150.524 238.943 150.526 238.943 150.528C238.943 150.53 238.943 150.532 238.943 150.534C238.943 150.536 238.943 150.538 238.943 150.54C238.943 150.542 238.943 150.544 238.943 150.546C238.943 150.548 238.943 150.55 238.943 150.552C238.943 150.554 238.943 150.556 238.943 150.558C238.943 150.56 238.943 150.562 238.943 150.564C238.943 150.566 238.943 150.568 238.943 150.57C238.943 150.572 238.943 150.574 238.943 150.576C238.943 150.578 238.943 150.58 238.943 150.582C238.943 150.584 238.943 150.586 238.943 150.588C238.943 150.59 238.943 150.592 238.943 150.594C238.943 150.596 238.943 150.598 238.943 150.599C238.943 150.601 238.943 150.603 238.943 150.605C238.943 150.607 238.943 150.609 238.943 150.611C238.943 150.613 238.943 150.615 238.943 150.617C238.943 150.619 238.943 150.621 238.943 150.623C238.943 150.625 238.943 150.627 238.943 150.629C238.943 150.631 238.943 150.633 238.943 150.635C238.943 150.637 238.943 150.639 238.943 150.641C238.943 150.643 238.943 150.645 238.943 150.647C238.943 150.649 238.943 150.651 238.943 150.653C238.943 150.654 238.943 150.656 238.943 150.658C238.943 150.66 238.943 150.662 238.943 150.664C238.943 150.666 238.943 150.668 238.943 150.67C238.943 150.672 238.943 150.674 238.943 150.676C238.943 150.678 238.943 150.68 238.943 150.682C238.943 150.684 238.943 150.686 238.943 150.688C238.943 150.69 238.943 150.692 238.943 150.694C238.943 150.695 238.943 150.697 238.943 150.699C238.943 150.701 238.943 150.703 238.943 150.705C238.943 150.707 238.943 150.709 238.943 150.711C238.943 150.713 238.943 150.715 238.943 150.717C238.943 150.719 238.943 150.721 238.943 150.723C238.943 150.725 238.943 150.727 238.943 150.728C238.943 150.73 238.943 150.732 238.943 150.734C238.943 150.736 238.943 150.738 238.943 150.74C238.943 150.742 238.943 150.744 238.943 150.746C238.943 150.748 238.943 150.75 238.943 150.752C238.943 150.754 238.943 150.756 238.943 150.758C238.943 150.759 238.943 150.761 238.943 150.763C238.943 150.765 238.943 150.767 238.943 150.769C238.943 150.771 238.943 150.773 238.943 150.775C238.943 150.777 238.943 150.779 238.943 150.781C238.943 150.783 238.943 150.785 238.943 150.786C238.943 150.788 238.943 150.79 238.943 150.792C238.943 150.794 238.943 150.796 238.943 150.798C238.943 150.8 238.943 150.802 238.943 150.804C238.943 150.806 238.943 150.808 238.943 150.81C238.943 150.811 238.943 150.813 238.943 150.815C238.943 150.817 238.943 150.819 238.943 150.821C238.943 150.823 238.943 150.825 238.943 150.827C238.943 150.829 238.943 150.831 238.943 150.833C238.943 150.834 238.943 150.836 238.943 150.838C238.943 150.84 238.943 150.842 238.943 150.844C238.943 150.846 238.943 150.848 238.943 150.85C238.943 150.852 238.943 150.854 238.943 150.855C238.943 150.857 238.943 150.859 238.943 150.861C238.943 150.863 238.943 150.865 238.943 150.867C238.943 150.869 238.943 150.871 238.943 150.873C238.943 150.874 238.943 150.876 238.943 150.878C238.943 150.88 238.943 150.882 238.943 150.884C238.943 150.886 238.943 150.888 238.943 150.89C238.943 150.892 238.943 150.894 238.943 150.895C238.943 150.897 238.943 150.899 238.943 150.901C238.943 150.903 238.943 150.905 238.943 150.907C238.943 150.909 238.943 150.911 238.943 150.912C238.943 150.914 238.943 150.916 238.943 150.918C238.943 150.92 238.943 150.922 238.943 150.924C238.943 150.926 238.943 150.928 238.943 150.929C238.943 150.931 238.943 150.933 238.943 150.935C238.943 150.937 238.943 150.939 238.943 150.941C238.943 150.943 238.943 150.945 238.943 150.946C238.943 150.948 238.943 150.95 238.943 150.952C238.943 150.954 238.943 150.956 238.943 150.958C238.943 150.96 238.943 150.962 238.943 150.963C238.943 150.965 238.943 150.967 238.943 150.969C238.943 150.971 238.943 150.973 238.943 150.975C238.943 150.977 238.943 150.978 238.943 150.98C238.943 150.982 238.943 150.984 238.943 150.986C238.943 150.988 238.943 150.99 238.943 150.992C238.943 150.993 238.943 150.995 238.943 150.997C238.943 150.999 238.943 151.001 238.943 151.003C238.943 151.005 238.943 151.007 238.943 151.008C238.943 151.01 238.943 151.012 238.943 151.014C238.943 151.016 238.943 151.018 238.943 151.02C238.943 151.021 238.943 151.023 238.943 151.025C238.943 151.027 238.943 151.029 238.943 151.031C238.943 151.033 238.943 151.035 238.943 151.036C238.943 151.038 238.943 151.04 238.943 151.042C238.943 151.044 238.943 151.046 238.943 151.048C238.943 151.049 238.943 151.051 238.943 151.053C238.943 151.055 238.943 151.057 238.943 151.059C238.943 151.061 238.943 151.062 238.943 151.064C238.943 151.066 238.943 151.068 238.943 151.07C238.943 151.072 238.943 151.073 238.943 151.075C238.943 151.077 238.943 151.079 238.943 151.081C238.943 151.083 238.943 151.085 238.943 151.086C238.943 151.088 238.943 151.09 238.943 151.092C238.943 151.094 238.943 151.096 238.943 151.098C238.943 151.099 238.943 151.101 238.943 151.103C238.943 151.105 238.943 151.107 238.943 151.109C238.943 151.11 238.943 151.112 238.943 151.114C238.943 151.116 238.943 151.118 238.943 151.12C238.943 151.121 238.943 151.123 238.943 151.125C238.943 151.127 238.943 151.129 238.943 151.131C238.943 151.132 238.943 151.134 238.943 151.136C238.943 151.138 238.943 151.14 238.943 151.142C238.943 151.143 238.943 151.145 238.943 151.147C238.943 151.149 238.943 151.151 238.943 151.153C238.943 151.154 238.943 151.156 238.943 151.158C238.943 151.16 238.943 151.162 238.943 151.164C238.943 151.165 238.943 151.167 238.943 151.169C238.943 151.171 238.943 151.173 238.943 151.175C238.943 151.176 238.943 151.178 238.943 151.18C238.943 151.182 238.943 151.184 238.943 151.186C238.943 151.187 238.943 151.189 238.943 151.191C238.943 151.193 238.943 151.195 238.943 151.196C238.943 151.198 238.943 151.2 238.943 151.202C238.943 151.204 238.943 151.206 238.943 151.207C238.943 151.209 238.943 151.211 238.943 151.213C238.943 151.215 238.943 151.216 238.943 151.218C238.943 151.22 238.943 151.222 238.943 151.224C238.943 151.225 238.943 151.227 238.943 151.229C238.943 151.231 238.943 151.233 238.943 151.234C238.943 151.236 238.943 151.238 238.943 151.24C238.943 151.242 238.943 151.244 238.943 151.245C238.943 151.247 238.943 151.249 238.943 151.251C238.943 151.253 238.943 151.254 238.943 151.256C238.943 151.258 238.943 151.26 238.943 151.262C238.943 151.263 238.943 151.265 238.943 151.267C238.943 151.269 238.943 151.271 238.943 151.272C238.943 151.274 238.943 151.276 238.943 151.278C238.943 151.28 238.943 151.281 238.943 151.283C238.943 151.285 238.943 151.287 238.943 151.288C238.943 151.29 238.943 151.292 238.943 151.294C238.943 151.296 238.943 151.297 238.943 151.299C238.943 151.301 238.943 151.303 238.943 151.305C238.943 151.306 238.943 151.308 238.943 151.31C238.943 151.312 238.943 151.314 238.943 151.315C238.943 151.317 238.943 151.319 238.943 151.321C238.943 151.322 238.943 151.324 238.943 151.326C238.943 151.328 238.943 151.33 238.943 151.331C238.943 151.333 238.943 151.335 238.943 151.337C238.943 151.338 238.943 151.34 238.943 151.342C238.943 151.344 238.943 151.346 238.943 151.347C238.943 151.349 238.943 151.351 238.943 151.353C238.943 151.354 238.943 151.356 238.943 151.358C238.943 151.36 238.943 151.362 238.943 151.363C238.943 151.365 238.943 151.367 238.943 151.369C238.943 151.37 238.943 151.372 238.943 151.374C238.943 151.376 238.943 151.377 238.943 151.379C238.943 151.381 238.943 151.383 238.943 151.385C238.943 151.386 238.943 151.388 238.943 151.39C238.943 151.392 238.943 151.393 238.943 151.395C238.943 151.397 238.943 151.399 238.943 151.4C238.943 151.402 238.943 151.404 238.943 151.406C238.943 151.407 238.943 151.409 238.943 151.411C238.943 151.413 238.943 151.414 238.943 151.416C238.943 151.418 238.943 151.42 238.943 151.421C238.943 151.423 238.943 151.425 238.943 151.427C238.943 151.429 238.943 151.43 238.943 151.432C238.943 151.434 238.943 151.436 238.943 151.437C238.943 151.439 238.943 151.441 238.943 151.442C238.943 151.444 238.943 151.446 238.943 151.448C238.943 151.449 238.943 151.451 238.943 151.453C238.943 151.455 238.943 151.456 238.943 151.458C238.943 151.46 238.943 151.462 238.943 151.463C238.943 151.465 238.943 151.467 238.943 151.469C238.943 151.47 238.943 151.472 238.943 151.474C238.943 151.476 238.943 151.477 238.943 151.479C238.943 151.481 238.943 151.483 238.943 151.484C238.943 151.486 238.943 151.488 238.943 151.49C238.943 151.491 238.943 151.493 238.943 151.495C238.943 151.496 238.943 151.498 238.943 151.5C238.943 151.502 238.943 151.503 238.943 151.505C238.943 151.507 238.943 151.509 238.943 151.51C238.943 151.512 238.943 151.514 238.943 151.515C238.943 151.517 238.943 151.519 238.943 151.521C238.943 151.522 238.943 151.524 238.943 151.526C238.943 151.528 238.943 151.529 238.943 151.531C238.943 151.533 238.943 151.534 238.943 151.536C238.943 151.538 238.943 151.54 238.943 151.541C238.943 151.543 238.943 151.545 238.943 151.546C238.943 151.548 238.943 151.55 238.943 151.552C238.943 151.553 238.943 151.555 238.943 151.557C238.943 151.558 238.943 151.56 238.943 151.562C238.943 151.564 238.943 151.565 238.943 151.567C238.943 151.569 238.943 151.57 238.943 151.572C238.943 151.574 238.943 151.576 238.943 151.577C238.943 151.579 238.943 151.581 238.943 151.582C238.943 151.584 238.943 151.586 238.943 151.587C238.943 151.589 238.943 151.591 238.943 151.593C238.943 151.594 238.943 151.596 238.943 151.598C238.943 151.599 238.943 151.601 238.943 151.603C238.943 151.604 238.943 151.606 238.943 151.608C238.943 151.61 238.943 151.611 238.943 151.613C238.943 151.615 238.943 151.616 238.943 151.618C238.943 151.62 238.943 151.621 238.943 151.623C238.943 151.625 238.943 151.627 238.943 151.628C238.943 151.63 238.943 151.632 238.943 151.633C238.943 151.635 238.943 151.637 238.943 151.638C238.943 151.64 238.943 151.642 238.943 151.643C238.943 151.645 238.943 151.647 238.943 151.648C238.943 151.65 238.943 151.652 238.943 151.654C238.943 151.655 238.943 151.657 238.943 151.659C238.943 151.66 238.943 151.662 238.943 151.664C238.943 151.665 238.943 151.667 238.943 151.669C238.943 151.67 238.943 151.672 238.943 151.674C238.943 151.675 238.943 151.677 238.943 151.679C238.943 151.68 238.943 151.682 238.943 151.684C238.943 151.685 238.943 151.687 238.943 151.689C238.943 151.69 238.943 151.692 238.943 151.694C238.943 151.695 238.943 151.697 238.943 151.699C238.943 151.7 238.943 151.702 238.943 151.704C238.943 151.705 238.943 151.707 238.943 151.709C238.943 151.71 238.943 151.712 238.943 151.714C238.943 151.715 238.943 151.717 238.943 151.719C238.943 151.72 238.943 151.722 238.943 151.724C238.943 151.725 238.943 151.727 238.943 151.729C238.943 151.73 238.943 151.732 238.943 151.734C238.943 151.735 238.943 151.737 238.943 151.739C238.943 151.74 238.943 151.742 238.943 151.744C238.943 151.745 238.943 151.747 238.943 151.749C238.943 151.75 238.943 151.752 238.943 151.754C238.943 151.755 238.943 151.757 238.943 151.758C238.943 151.76 238.943 151.762 238.943 151.763C238.943 151.765 238.943 151.767 238.943 151.768C238.943 151.77 238.943 151.772 238.943 151.773C238.943 151.775 238.943 151.777 238.943 151.778C238.943 151.78 238.943 151.782 238.943 151.783C238.943 151.785 238.943 151.786 238.943 151.788C238.943 151.79 238.943 151.791 238.943 151.793C238.943 151.795 238.943 151.796 238.943 151.798C238.943 151.8 238.943 151.801 238.943 151.803C238.943 151.804 238.943 151.806 238.943 151.808C238.943 151.809 238.943 151.811 238.943 151.813C238.943 151.814 238.943 151.816 238.943 151.818C238.943 151.819 238.943 151.821 238.943 151.822C238.943 151.824 238.943 151.826 238.943 151.827C238.943 151.829 238.943 151.831 238.943 151.832C238.943 151.834 238.943 151.835 238.943 151.837C238.943 151.839 238.943 151.84 238.943 151.842C238.943 151.844 238.943 151.845 238.943 151.847C238.943 151.848 238.943 151.85 238.943 151.852C238.943 151.853 238.943 151.855 238.943 151.856C238.943 151.858 238.943 151.86 238.943 151.861C238.943 151.863 238.943 151.865 238.943 151.866C238.943 151.868 238.943 151.869 238.943 151.871C238.943 151.873 238.943 151.874 238.943 151.876C238.943 151.877 238.943 151.879 238.943 151.881C238.943 151.882 238.943 151.884 238.943 151.885C238.943 151.887 238.943 151.889 238.943 151.89C238.943 151.892 238.943 151.894 238.943 151.895C238.943 151.897 238.943 151.898 238.943 151.9C238.943 151.902 238.943 151.903 238.943 151.905C238.943 151.906 238.943 151.908 238.943 151.91C238.943 151.911 238.943 151.913 238.943 151.914C238.943 151.916 238.943 151.918 238.943 151.919C238.943 151.921 238.943 151.922 238.943 151.924C238.943 151.925 238.943 151.927 238.943 151.929C238.943 151.93 238.943 151.932 238.943 151.933C238.943 151.935 238.943 151.937 238.943 151.938C238.943 151.94 238.943 151.941 238.943 151.943C238.943 151.945 238.943 151.946 238.943 151.948C238.943 151.949 238.943 151.951 238.943 151.952C238.943 151.954 238.943 151.956 238.943 151.957C238.943 151.959 238.943 151.96 238.943 151.962C238.943 151.964 238.943 151.965 238.943 151.967C238.943 151.968 238.943 151.97 238.943 151.971C238.943 151.973 238.943 151.975 238.943 151.976C238.943 151.978 238.943 151.979 238.943 151.981C238.943 151.982 238.943 151.984 238.943 151.986C238.943 151.987 238.943 151.989 238.943 151.99C238.943 151.992 238.943 151.993 238.943 151.995C238.943 151.997 238.943 151.998 238.943 152C238.943 152.001 238.943 152.003 238.943 152.004C238.943 152.006 238.943 152.008 238.943 152.009C238.943 152.011 238.943 152.012 238.943 152.014C238.943 152.015 238.943 152.017 238.943 152.018C238.943 152.02 238.943 152.022 238.943 152.023C238.943 152.025 238.943 152.026 238.943 152.028C238.943 152.029 238.943 152.031 238.943 152.033C238.943 152.034 238.943 152.036 238.943 152.037C238.943 152.039 238.943 152.04 238.943 152.042C238.943 152.043 238.943 152.045 238.943 152.046C238.943 152.048 238.943 152.05 238.943 152.051C238.943 152.053 238.943 152.054 238.943 152.056C238.943 152.057 238.943 152.059 238.943 152.06C238.943 152.062 238.943 152.063 238.943 152.065C238.943 152.067 238.943 152.068 238.943 152.07C238.943 152.071 238.943 152.073 238.943 152.074C238.943 152.076 238.943 152.077 238.943 152.079C238.943 152.08 238.943 152.082 238.943 152.084C238.943 152.085 238.943 152.087 238.943 152.088C238.943 152.09 238.943 152.091 238.943 152.093C238.943 152.094 238.943 152.096 238.943 152.097C238.943 152.099 238.943 152.1 238.943 152.102C238.943 152.103 238.943 152.105 238.943 152.106H239.577ZM239.577 149.164C239.577 147.277 239.311 145.735 238.758 144.559L238.184 144.829C238.682 145.889 238.943 147.327 238.943 149.164H239.577ZM238.756 144.555C238.194 143.401 237.268 142.529 235.923 141.98L235.683 142.567C236.893 143.061 237.696 143.827 238.185 144.833L238.756 144.555ZM235.926 141.981C234.63 141.436 232.853 141.174 230.618 141.174V141.808C232.816 141.808 234.496 142.068 235.68 142.566L235.926 141.981ZM230.618 141.174C228.638 141.174 226.942 141.438 225.578 141.979L225.812 142.568C227.079 142.066 228.689 141.808 230.618 141.808V141.174ZM225.574 141.98C224.193 142.551 223.158 143.25 222.509 144.134L223.02 144.51C223.574 143.755 224.492 143.114 225.816 142.567L225.574 141.98ZM222.514 144.127C221.837 144.996 221.508 145.92 221.508 146.892H222.142C222.142 146.076 222.415 145.286 223.015 144.517L222.514 144.127ZM221.508 146.892C221.508 147.536 221.73 148.07 222.214 148.506L222.639 148.034C222.296 147.725 222.142 147.366 222.142 146.892H221.508ZM222.227 148.516C222.694 148.895 223.252 149.109 223.892 149.109V148.474C223.404 148.474 222.985 148.315 222.626 148.024L222.227 148.516ZM223.892 149.109C224.227 149.109 224.52 149.08 224.764 149.014C225.005 148.949 225.224 148.84 225.374 148.661L224.889 148.252C224.852 148.296 224.77 148.355 224.598 148.402C224.428 148.448 224.195 148.474 223.892 148.474V149.109ZM225.375 148.66C225.481 148.534 225.613 148.341 225.769 148.114C225.929 147.881 226.124 147.596 226.365 147.265L225.852 146.891C225.605 147.231 225.405 147.523 225.246 147.755C225.082 147.994 224.97 148.155 224.889 148.252L225.375 148.66ZM226.376 147.249C226.804 146.578 227.294 146.094 227.884 145.751L227.565 145.203C226.876 145.604 226.315 146.163 225.841 146.908L226.376 147.249ZM227.865 145.761C228.481 145.455 229.366 145.272 230.618 145.272V144.638C229.314 144.638 228.32 144.827 227.584 145.192L227.865 145.761ZM230.618 145.272C232.067 145.272 232.906 145.572 233.297 146.08L233.8 145.693C233.214 144.934 232.099 144.638 230.618 144.638V145.272ZM233.296 146.078C233.689 146.598 233.947 147.489 234.021 148.772L234.654 148.736C234.578 147.412 234.31 146.367 233.801 145.695L233.296 146.078ZM234.251 148.449C233.202 148.746 232.228 149.006 231.33 149.229L231.483 149.844C232.389 149.62 233.369 149.358 234.424 149.059L234.251 148.449ZM231.343 149.226C230.888 149.32 230.396 149.432 229.862 149.553C229.327 149.674 228.747 149.804 228.112 149.933L228.239 150.555C228.881 150.424 229.466 150.293 230.002 150.172C230.539 150.05 231.024 149.939 231.471 149.847L231.343 149.226ZM228.119 149.932C226.872 150.157 226.076 150.345 225.74 150.418L225.876 151.038C226.217 150.963 226.999 150.779 228.232 150.556L228.119 149.932ZM225.746 150.417C224.185 150.727 222.92 151.427 222.006 152.412L222.471 152.844C223.285 151.966 224.426 151.326 225.87 151.039L225.746 150.417ZM222.002 152.417C221.085 153.444 220.606 154.674 220.606 156.129H221.241C221.241 154.828 221.663 153.749 222.475 152.839L222.002 152.417ZM220.606 156.129C220.606 157.193 220.885 158.182 221.442 159.089L221.983 158.757C221.487 157.95 221.241 157.076 221.241 156.129H220.606ZM221.442 159.089C222.002 160 222.799 160.707 223.817 161.251L224.116 160.691C223.181 160.192 222.475 159.558 221.983 158.757L221.442 159.089ZM223.826 161.255C224.851 161.763 226.027 162.033 227.349 162.033V161.399C226.115 161.399 225.037 161.147 224.108 160.687L223.826 161.255ZM227.349 162.033C228.772 162.033 230.094 161.804 231.269 161.3L231.018 160.717C229.939 161.181 228.706 161.399 227.349 161.399V162.033ZM231.26 161.303C232.421 160.843 233.649 160.119 234.87 159.173L234.481 158.672C233.297 159.589 232.121 160.28 231.027 160.713L231.26 161.303ZM234.407 159.092C234.976 159.993 235.517 160.725 236.03 161.234L236.477 160.783C236.014 160.324 235.503 159.639 234.944 158.753L234.407 159.092Z" fill="#646377"/>
<path fill-rule="evenodd" clip-rule="evenodd" d="M205.321 146.222C206.11 145.365 207.125 144.955 208.402 144.955C209.68 144.955 210.769 145.365 211.558 146.222C212.348 147.041 212.799 148.308 212.949 150.021H203.856C204.044 148.345 204.532 147.078 205.321 146.222ZM216.706 152.293C217.42 151.92 217.796 151.101 217.796 149.872C217.796 148.531 217.42 147.19 216.744 145.886C216.03 144.583 214.978 143.54 213.588 142.72C212.197 141.901 210.506 141.491 208.553 141.491C207.05 141.491 205.697 141.715 204.457 142.199C203.217 142.683 202.165 143.391 201.338 144.285C200.474 145.179 199.835 146.259 199.422 147.488C198.971 148.754 198.746 150.132 198.746 151.585C198.746 154.714 199.647 157.172 201.413 158.997C203.217 160.822 205.697 161.716 208.928 161.716C210.319 161.716 211.559 161.53 212.648 161.157C213.738 160.822 214.64 160.338 215.354 159.816C216.068 159.258 216.593 158.662 216.969 158.066C217.307 157.47 217.495 156.949 217.495 156.502C217.495 155.98 217.345 155.608 217.007 155.31C216.706 155.049 216.293 154.9 215.767 154.9C215.278 154.9 214.903 155.012 214.677 155.235C214.038 155.831 213.512 156.278 213.137 156.613C212.761 156.949 212.31 157.284 211.859 157.582C211.408 157.88 210.92 158.103 210.431 158.215C209.905 158.364 209.379 158.438 208.778 158.438C207.876 158.438 207.05 158.215 206.336 157.768C205.584 157.358 204.983 156.688 204.532 155.831C204.081 154.974 203.856 153.969 203.856 152.851H213.663C214.978 152.851 215.992 152.665 216.706 152.293V152.293Z" fill="#646377"/>
<path d="M205.321 146.222L205.554 146.437L205.554 146.437L205.321 146.222ZM211.558 146.222L211.325 146.437L211.33 146.442L211.558 146.222ZM212.949 150.021V150.338H213.295L213.265 149.993L212.949 150.021ZM203.856 150.021L203.54 149.986L203.501 150.338H203.856V150.021ZM216.744 145.886L217.025 145.74L217.022 145.734L216.744 145.886ZM213.588 142.72L213.749 142.447L213.749 142.447L213.588 142.72ZM204.457 142.199L204.572 142.494L204.572 142.494L204.457 142.199ZM201.338 144.285L201.566 144.505L201.571 144.5L201.338 144.285ZM199.422 147.488L199.721 147.594L199.723 147.589L199.422 147.488ZM201.413 158.997L201.185 159.218L201.188 159.22L201.413 158.997ZM212.648 161.157L212.555 160.854L212.546 160.857L212.648 161.157ZM215.354 159.816L215.541 160.073L215.549 160.066L215.354 159.816ZM216.969 158.066L217.238 158.235L217.241 158.229L217.245 158.223L216.969 158.066ZM217.007 155.31L217.217 155.072L217.215 155.07L217.007 155.31ZM214.677 155.235L214.894 155.467L214.9 155.46L214.677 155.235ZM213.137 156.613L212.925 156.377L212.925 156.377L213.137 156.613ZM211.859 157.582L211.684 157.317L211.684 157.317L211.859 157.582ZM210.431 158.215L210.361 157.906L210.353 157.907L210.345 157.91L210.431 158.215ZM206.336 157.768L206.504 157.499L206.496 157.494L206.487 157.489L206.336 157.768ZM204.532 155.831L204.251 155.979L204.251 155.979L204.532 155.831ZM203.856 152.851V152.534H203.538V152.851H203.856ZM205.554 146.437C206.276 145.653 207.201 145.273 208.402 145.273V144.638C207.048 144.638 205.944 145.077 205.088 146.007L205.554 146.437ZM208.402 145.273C209.609 145.273 210.607 145.657 211.325 146.437L211.792 146.007C210.932 145.073 209.751 144.638 208.402 144.638V145.273ZM211.33 146.442C212.047 147.186 212.485 148.369 212.633 150.049L213.265 149.993C213.112 148.246 212.648 146.896 211.787 146.002L211.33 146.442ZM212.949 149.704H203.856V150.338H212.949V149.704ZM204.171 150.056C204.355 148.418 204.827 147.226 205.554 146.437L205.088 146.007C204.237 146.931 203.733 148.271 203.54 149.986L204.171 150.056ZM216.853 152.574C217.719 152.122 218.113 151.154 218.113 149.872H217.479C217.479 151.048 217.121 151.718 216.56 152.011L216.853 152.574ZM218.113 149.872C218.113 148.471 217.72 147.08 217.025 145.74L216.462 146.032C217.12 147.3 217.479 148.591 217.479 149.872H218.113ZM217.022 145.734C216.277 144.374 215.182 143.292 213.749 142.447L213.427 142.994C214.774 143.788 215.782 144.791 216.466 146.039L217.022 145.734ZM213.749 142.447C212.3 141.593 210.551 141.174 208.553 141.174V141.808C210.462 141.808 212.095 142.209 213.427 142.994L213.749 142.447ZM208.553 141.174C207.018 141.174 205.625 141.402 204.341 141.904L204.572 142.494C205.769 142.027 207.081 141.808 208.553 141.808V141.174ZM204.342 141.904C203.06 142.404 201.967 143.138 201.105 144.069L201.571 144.5C202.363 143.644 203.374 142.962 204.572 142.494L204.342 141.904ZM201.11 144.064C200.211 144.995 199.548 146.117 199.121 147.387L199.723 147.589C200.122 146.401 200.737 145.363 201.566 144.505L201.11 144.064ZM199.123 147.381C198.659 148.685 198.428 150.1 198.428 151.585H199.063C199.063 150.165 199.283 148.823 199.721 147.594L199.123 147.381ZM198.428 151.585C198.428 154.778 199.351 157.322 201.185 159.218L201.641 158.776C199.944 157.022 199.063 154.649 199.063 151.585H198.428ZM201.188 159.22C203.066 161.12 205.636 162.033 208.928 162.033V161.399C205.758 161.399 203.368 160.524 201.639 158.774L201.188 159.22ZM208.928 162.033C210.346 162.033 211.622 161.843 212.751 161.457L212.546 160.857C211.495 161.216 210.291 161.399 208.928 161.399V162.033ZM212.741 161.461C213.866 161.114 214.8 160.614 215.541 160.073L215.166 159.56C214.48 160.062 213.609 160.53 212.555 160.854L212.741 161.461ZM215.549 160.066C216.29 159.486 216.841 158.864 217.238 158.235L216.701 157.897C216.346 158.46 215.845 159.029 215.158 159.567L215.549 160.066ZM217.245 158.223C217.593 157.61 217.812 157.031 217.812 156.502H217.178C217.178 156.867 217.022 157.33 216.693 157.909L217.245 158.223ZM217.812 156.502C217.812 155.907 217.635 155.441 217.217 155.072L216.797 155.548C217.055 155.775 217.178 156.053 217.178 156.502H217.812ZM217.215 155.07C216.846 154.75 216.355 154.583 215.767 154.583V155.217C216.231 155.217 216.566 155.347 216.799 155.549L217.215 155.07ZM215.767 154.583C215.243 154.583 214.766 154.701 214.454 155.01L214.9 155.46C215.039 155.323 215.314 155.217 215.767 155.217V154.583ZM214.461 155.003C213.825 155.596 213.308 156.035 212.925 156.377L213.348 156.85C213.717 156.521 214.252 156.066 214.894 155.467L214.461 155.003ZM212.925 156.377C212.564 156.699 212.126 157.025 211.684 157.317L212.034 157.846C212.494 157.543 212.958 157.198 213.348 156.85L212.925 156.377ZM211.684 157.317C211.259 157.598 210.806 157.804 210.361 157.906L210.502 158.524C211.034 158.402 211.557 158.161 212.034 157.846L211.684 157.317ZM210.345 157.91C209.848 158.05 209.351 158.121 208.778 158.121V158.756C209.407 158.756 209.963 158.677 210.518 158.52L210.345 157.91ZM208.778 158.121C207.93 158.121 207.163 157.911 206.504 157.499L206.167 158.037C206.936 158.518 207.823 158.756 208.778 158.756V158.121ZM206.487 157.489C205.803 157.116 205.242 156.498 204.813 155.683L204.251 155.979C204.724 156.877 205.365 157.6 206.184 158.046L206.487 157.489ZM204.813 155.683C204.39 154.879 204.173 153.926 204.173 152.851H203.538C203.538 154.011 203.773 155.069 204.251 155.979L204.813 155.683ZM203.856 153.169H213.663V152.534H203.856V153.169ZM213.663 153.169C215 153.169 216.074 152.98 216.853 152.574L216.559 152.011C215.911 152.35 214.955 152.534 213.663 152.534V153.169Z" fill="#646377"/>
<path fill-rule="evenodd" clip-rule="evenodd" d="M198.474 138.474C198.925 138.065 199.15 137.506 199.15 136.835C199.15 136.165 198.925 135.643 198.474 135.234C198.023 134.824 197.309 134.601 196.37 134.601H179.048C178.146 134.601 177.47 134.787 176.981 135.196C176.53 135.606 176.305 136.165 176.305 136.835C176.305 137.506 176.53 138.065 176.981 138.474C177.432 138.884 178.109 139.07 179.048 139.07H184.985V158.438C184.985 159.519 185.248 160.338 185.736 160.897C186.262 161.455 186.901 161.716 187.728 161.716C188.517 161.716 189.193 161.455 189.682 160.897C190.17 160.375 190.433 159.556 190.433 158.438L190.433 139.07H196.37C197.309 139.07 197.985 138.884 198.474 138.474Z" fill="#646377" stroke="#646377" stroke-width="0.634374"/>
<path fill-rule="evenodd" clip-rule="evenodd" d="M167.212 150.765C167.325 149.722 167.475 148.828 167.738 148.084C168.001 147.339 168.377 146.78 168.827 146.37C169.278 145.998 169.88 145.811 170.631 145.811C171.157 145.811 171.796 145.923 172.472 146.147C173.186 146.37 173.637 146.482 173.825 146.482C174.313 146.482 174.764 146.296 175.178 145.886C175.591 145.514 175.816 144.992 175.816 144.396C175.816 143.54 175.328 142.832 174.313 142.31C173.336 141.789 172.322 141.528 171.27 141.528C170.218 141.528 169.353 141.789 168.752 142.31C168.114 142.832 167.512 143.614 166.911 144.62C166.874 143.614 166.648 142.832 166.31 142.31C165.934 141.789 165.333 141.528 164.506 141.528C162.891 141.528 162.064 142.646 162.064 144.88V158.699C162.064 159.705 162.289 160.449 162.778 160.934C163.229 161.455 163.83 161.716 164.544 161.716C165.258 161.716 165.859 161.455 166.347 160.971C166.836 160.449 167.062 159.705 167.062 158.699V154.565C167.062 153.075 167.099 151.808 167.212 150.765H167.212Z" fill="#646377" stroke="#646377" stroke-width="0.634374"/>
<path fill-rule="evenodd" clip-rule="evenodd" d="M145.419 146.221C146.208 145.365 147.222 144.955 148.5 144.955C149.777 144.955 150.867 145.365 151.656 146.221C152.445 147.041 152.896 148.307 153.046 150.02H143.953C144.141 148.344 144.629 147.078 145.419 146.221ZM156.804 152.292C157.518 151.92 157.893 151.1 157.893 149.871C157.893 148.53 157.518 147.189 156.841 145.886C156.127 144.582 155.075 143.539 153.685 142.72C152.295 141.9 150.604 141.491 148.65 141.491C147.147 141.491 145.794 141.714 144.554 142.199C143.314 142.683 142.262 143.39 141.436 144.284C140.571 145.178 139.933 146.258 139.519 147.487C139.068 148.754 138.843 150.132 138.843 151.585C138.843 154.713 139.745 157.172 141.511 158.996C143.314 160.822 145.794 161.716 149.026 161.716C150.416 161.716 151.656 161.529 152.746 161.157C153.835 160.822 154.737 160.337 155.451 159.816C156.165 159.257 156.691 158.661 157.067 158.065C157.405 157.47 157.593 156.948 157.593 156.501C157.593 155.98 157.442 155.607 157.104 155.309C156.804 155.048 156.39 154.899 155.864 154.899C155.376 154.899 155 155.011 154.775 155.235C154.136 155.831 153.61 156.278 153.234 156.613C152.858 156.948 152.408 157.283 151.957 157.581C151.506 157.879 151.017 158.103 150.529 158.214C150.003 158.363 149.477 158.438 148.875 158.438C147.974 158.438 147.147 158.214 146.433 157.767C145.682 157.358 145.08 156.687 144.63 155.831C144.179 154.974 143.953 153.968 143.953 152.851H153.76C155.075 152.851 156.09 152.665 156.804 152.292V152.292Z" fill="#646377"/>
<path d="M145.419 146.221L145.652 146.436L145.652 146.436L145.419 146.221ZM151.656 146.221L151.423 146.436L151.427 146.441L151.656 146.221ZM153.046 150.02V150.338H153.392L153.362 149.993L153.046 150.02ZM143.953 150.02L143.638 149.985L143.599 150.338H143.953V150.02ZM156.841 145.886L157.123 145.74L157.119 145.734L156.841 145.886ZM153.685 142.72L153.524 142.993L153.524 142.993L153.685 142.72ZM144.554 142.199L144.67 142.494L144.67 142.494L144.554 142.199ZM141.436 144.284L141.664 144.505L141.669 144.5L141.436 144.284ZM139.519 147.487L139.818 147.594L139.82 147.588L139.519 147.487ZM141.511 158.996L141.283 159.217L141.285 159.219L141.511 158.996ZM152.746 161.157L152.652 160.854L152.643 160.857L152.746 161.157ZM155.451 159.816L155.638 160.072L155.646 160.066L155.451 159.816ZM157.067 158.065L157.335 158.235L157.339 158.228L157.343 158.222L157.067 158.065ZM157.104 155.309L157.314 155.071L157.312 155.069L157.104 155.309ZM154.775 155.235L154.991 155.467L154.998 155.46L154.775 155.235ZM153.234 156.613L153.023 156.376L153.023 156.376L153.234 156.613ZM151.957 157.581L152.131 157.846L152.131 157.846L151.957 157.581ZM150.529 158.214L150.458 157.905L150.45 157.907L150.442 157.909L150.529 158.214ZM146.433 157.767L146.601 157.499L146.593 157.493L146.585 157.489L146.433 157.767ZM144.63 155.831L144.349 155.978L144.349 155.978L144.63 155.831ZM143.953 152.851V152.534H143.636V152.851H143.953ZM145.652 146.436C146.373 145.653 147.299 145.272 148.5 145.272V144.638C147.145 144.638 146.042 145.076 145.185 146.006L145.652 146.436ZM148.5 145.272C149.706 145.272 150.705 145.657 151.423 146.436L151.889 146.006C151.029 145.072 149.848 144.638 148.5 144.638V145.272ZM151.427 146.441C152.145 147.186 152.583 148.368 152.73 150.048L153.362 149.993C153.209 148.246 152.746 146.895 151.884 146.001L151.427 146.441ZM153.046 149.703H143.953V150.338H153.046V149.703ZM144.268 150.056C144.452 148.418 144.925 147.225 145.652 146.436L145.185 146.006C144.334 146.93 143.83 148.271 143.638 149.985L144.268 150.056ZM156.95 152.573C157.817 152.122 158.211 151.153 158.211 149.871H157.576C157.576 151.047 157.219 151.718 156.657 152.011L156.95 152.573ZM158.211 149.871C158.211 148.47 157.818 147.079 157.123 145.74L156.56 146.032C157.217 147.3 157.576 148.591 157.576 149.871H158.211ZM157.119 145.734C156.375 144.374 155.279 143.291 153.846 142.447L153.524 142.993C154.871 143.787 155.88 144.79 156.563 146.038L157.119 145.734ZM153.846 142.447C152.397 141.593 150.648 141.174 148.65 141.174V141.808C150.56 141.808 152.192 142.208 153.524 142.993L153.846 142.447ZM148.65 141.174C147.115 141.174 145.722 141.402 144.439 141.903L144.67 142.494C145.866 142.027 147.179 141.808 148.65 141.808V141.174ZM144.439 141.903C143.158 142.403 142.064 143.137 141.203 144.069L141.669 144.5C142.46 143.643 143.471 142.962 144.67 142.494L144.439 141.903ZM141.208 144.064C140.308 144.994 139.646 146.116 139.219 147.386L139.82 147.588C140.219 146.4 140.835 145.362 141.664 144.505L141.208 144.064ZM139.221 147.381C138.756 148.685 138.526 150.099 138.526 151.585H139.16C139.16 150.165 139.38 148.823 139.818 147.594L139.221 147.381ZM138.526 151.585C138.526 154.778 139.448 157.321 141.283 159.217L141.739 158.776C140.041 157.022 139.16 154.649 139.16 151.585H138.526ZM141.285 159.219C143.163 161.12 145.733 162.033 149.026 162.033V161.398C145.855 161.398 143.466 160.523 141.736 158.774L141.285 159.219ZM149.026 162.033C150.444 162.033 151.719 161.843 152.848 161.457L152.643 160.857C151.592 161.216 150.388 161.398 149.026 161.398V162.033ZM152.839 161.46C153.964 161.114 154.897 160.613 155.638 160.072L155.264 159.56C154.577 160.061 153.707 160.529 152.652 160.854L152.839 161.46ZM155.646 160.066C156.387 159.486 156.939 158.863 157.335 158.235L156.798 157.896C156.443 158.459 155.943 159.029 155.256 159.566L155.646 160.066ZM157.343 158.222C157.69 157.609 157.91 157.03 157.91 156.501H157.276C157.276 156.866 157.12 157.33 156.791 157.909L157.343 158.222ZM157.91 156.501C157.91 155.906 157.733 155.44 157.314 155.071L156.895 155.547C157.152 155.774 157.276 156.053 157.276 156.501H157.91ZM157.312 155.069C156.944 154.75 156.452 154.582 155.864 154.582V155.217C156.329 155.217 156.664 155.347 156.896 155.549L157.312 155.069ZM155.864 154.582C155.34 154.582 154.863 154.7 154.551 155.009L154.998 155.46C155.137 155.322 155.412 155.217 155.864 155.217V154.582ZM154.558 155.003C153.923 155.596 153.406 156.035 153.023 156.376L153.445 156.85C153.814 156.521 154.349 156.066 154.991 155.467L154.558 155.003ZM153.023 156.376C152.662 156.699 152.224 157.025 151.782 157.317L152.131 157.846C152.591 157.542 153.055 157.198 153.445 156.85L153.023 156.376ZM151.782 157.317C151.357 157.597 150.903 157.803 150.458 157.905L150.599 158.524C151.131 158.402 151.655 158.161 152.131 157.846L151.782 157.317ZM150.442 157.909C149.945 158.05 149.448 158.121 148.875 158.121V158.755C149.505 158.755 150.06 158.677 150.615 158.519L150.442 157.909ZM148.875 158.121C148.027 158.121 147.26 157.911 146.601 157.499L146.265 158.036C147.034 158.518 147.92 158.755 148.875 158.755V158.121ZM146.585 157.489C145.901 157.116 145.339 156.498 144.91 155.683L144.349 155.978C144.822 156.877 145.463 157.6 146.281 158.046L146.585 157.489ZM144.91 155.683C144.487 154.879 144.27 153.926 144.27 152.851H143.636C143.636 154.011 143.87 155.069 144.349 155.978L144.91 155.683ZM143.953 153.168H153.76V152.534H143.953V153.168ZM153.76 153.168C155.098 153.168 156.171 152.98 156.95 152.573L156.657 152.011C156.008 152.349 155.053 152.534 153.76 152.534V153.168Z" fill="#646377"/>
<path fill-rule="evenodd" clip-rule="evenodd" d="M121.296 142.757C121.108 142.348 120.807 142.05 120.469 141.826C120.093 141.64 119.718 141.528 119.267 141.528C118.553 141.528 117.989 141.752 117.576 142.236C117.162 142.683 116.937 143.391 116.937 144.359V158.699C116.937 159.667 117.162 160.412 117.651 160.934C118.102 161.455 118.703 161.716 119.417 161.716C120.169 161.716 120.77 161.455 121.22 160.971C121.709 160.449 121.934 159.705 121.934 158.699V152.479C121.934 150.467 122.047 149.052 122.31 148.344C122.648 147.413 123.174 146.668 123.926 146.147C124.64 145.625 125.466 145.365 126.368 145.365C127.721 145.365 128.623 145.811 129.111 146.668C129.562 147.525 129.787 148.791 129.787 150.43V158.699C129.787 159.667 130.013 160.412 130.502 160.934C130.952 161.455 131.554 161.716 132.305 161.716C133.056 161.716 133.62 161.455 134.109 160.934C134.56 160.449 134.785 159.705 134.785 158.699V149.462C134.785 148.382 134.747 147.45 134.635 146.78C134.522 146.072 134.334 145.402 133.996 144.806C133.47 143.763 132.718 142.944 131.666 142.385C130.614 141.826 129.449 141.528 128.134 141.528C126.744 141.528 125.579 141.789 124.527 142.348C123.475 142.869 122.498 143.726 121.634 144.88V144.284C121.634 143.689 121.521 143.167 121.296 142.757V142.757Z" fill="#646377" stroke="#646377" stroke-width="0.634374"/>
<path fill-rule="evenodd" clip-rule="evenodd" d="M100.442 164.174C100.179 164.621 99.8783 164.919 99.5401 165.068C99.2019 165.254 98.7509 165.329 98.1874 165.329C97.9619 165.329 97.6612 165.292 97.3607 165.217C97.0976 165.142 96.8347 165.105 96.5716 165.105C95.8953 165.105 95.3693 165.254 95.0311 165.589C94.6552 165.888 94.5049 166.334 94.5049 166.893C94.5049 167.712 94.8807 168.308 95.5947 168.606C96.3461 168.942 97.4358 169.091 98.9012 169.091C100.404 169.091 101.607 168.867 102.471 168.42C103.373 167.936 104.086 167.303 104.613 166.446C105.176 165.589 105.702 164.435 106.266 162.945L112.804 145.998C112.954 145.551 113.104 145.104 113.217 144.694C113.33 144.284 113.405 143.949 113.443 143.726C113.443 143.353 113.33 142.981 113.142 142.646C112.954 142.31 112.691 142.012 112.353 141.826C112.015 141.64 111.639 141.528 111.263 141.528C110.737 141.528 110.324 141.603 110.023 141.789C109.76 141.975 109.497 142.348 109.234 142.869C108.971 143.391 108.671 144.098 108.37 145.029L104.35 156.39L100.104 144.173C99.8406 143.316 99.5024 142.683 99.1266 142.199C98.7884 141.752 98.2248 141.528 97.511 141.528C97.0976 141.528 96.6843 141.64 96.3085 141.864C95.9329 142.087 95.6322 142.348 95.4067 142.72C95.1812 143.093 95.0685 143.502 95.0685 143.912C95.0685 144.322 95.2566 144.955 95.6322 145.849L101.795 161.232L101.344 162.349C101.005 163.168 100.705 163.764 100.442 164.174V164.174Z" fill="#646377" stroke="#646377" stroke-width="0.634374"/>
<path fill-rule="evenodd" clip-rule="evenodd" d="M91.7244 149.872C91.2359 148.941 90.5596 148.158 89.6954 147.563C88.8312 146.967 87.779 146.445 86.5768 145.998C85.3368 145.588 83.9465 145.216 82.4434 144.843C81.2411 144.546 80.3393 144.322 79.8133 144.173C79.2871 143.987 78.7988 143.801 78.2726 143.503C77.7467 143.242 77.3708 142.907 77.0703 142.497C76.7698 142.124 76.6195 141.64 76.6195 141.119C76.6195 140.262 77.0327 139.517 77.897 138.921C78.7611 138.288 79.926 137.99 81.3162 137.99C82.8193 137.99 83.9465 138.288 84.6228 138.847C85.2992 139.406 85.9004 140.188 86.3888 141.193C86.7646 141.901 87.1028 142.385 87.4409 142.72C87.779 143.018 88.23 143.167 88.8687 143.167C89.5451 143.167 90.1086 142.907 90.5596 142.385C91.048 141.901 91.2735 141.305 91.2735 140.672C91.2735 139.964 91.0857 139.257 90.7099 138.512C90.3341 137.767 89.7704 137.059 88.9814 136.389C88.1923 135.718 87.1778 135.159 85.9755 134.75C84.7732 134.34 83.3453 134.154 81.692 134.154C79.6253 134.154 77.8217 134.452 76.2813 135.085C74.7782 135.681 73.6135 136.575 72.7868 137.692C71.9978 138.847 71.5844 140.15 71.5844 141.603C71.5844 143.167 71.9601 144.434 72.7117 145.477C73.5007 146.52 74.5153 147.339 75.8303 147.935C77.1454 148.531 78.7611 149.052 80.6775 149.499C82.1052 149.835 83.2701 150.133 84.1343 150.43C84.9986 150.728 85.7124 151.138 86.2386 151.697C86.8022 152.256 87.0651 152.963 87.0651 153.857C87.0651 154.974 86.5768 155.906 85.5622 156.651C84.5477 157.396 83.2325 157.768 81.6169 157.768C80.452 157.768 79.4751 157.582 78.7611 157.209C78.0472 156.837 77.4835 156.39 77.1079 155.794C76.6945 155.235 76.3188 154.528 75.9807 153.671C75.68 152.963 75.3418 152.404 74.9662 152.069C74.5527 151.697 74.0644 151.511 73.5007 151.511C72.7868 151.511 72.2231 151.734 71.7723 152.218C71.2837 152.665 71.0583 153.224 71.0583 153.894C71.0583 155.012 71.4341 156.167 72.2231 157.358C72.9746 158.55 73.9892 159.519 75.1916 160.226C76.92 161.232 79.0993 161.716 81.7671 161.716C83.9841 161.716 85.9004 161.344 87.516 160.636C89.1318 159.891 90.3341 158.885 91.1984 157.619C92.025 156.315 92.4384 154.9 92.4384 153.261C92.4384 151.92 92.2129 150.803 91.7244 149.872V149.872Z" fill="#646377" stroke="#646377" stroke-width="0.634374"/>
<path fill-rule="evenodd" clip-rule="evenodd" d="M36.003 135.572C36.1761 135.572 36.3467 135.589 36.5116 135.621C36.6807 135.655 36.8445 135.705 37.0007 135.769C37.1583 135.834 37.3095 135.914 37.4505 136.008C37.5938 136.103 37.7272 136.211 37.847 136.329C37.9678 136.449 38.0779 136.581 38.1745 136.724C38.2692 136.864 38.351 137.014 38.4162 137.17C38.4808 137.326 38.532 137.489 38.5651 137.656C38.598 137.82 38.6154 137.989 38.6154 138.161C38.6154 138.333 38.598 138.501 38.5654 138.665C38.532 138.831 38.4814 138.994 38.4165 139.15C38.351 139.307 38.2698 139.458 38.1757 139.598C38.0802 139.741 37.9706 139.873 37.8506 139.992C37.6595 140.182 37.3536 140.406 37.0297 140.642C36.7591 140.839 36.4748 141.047 36.2312 141.258C35.8263 141.626 35.4476 142.022 35.1001 142.441C34.7534 142.86 34.4351 143.304 34.149 143.77C33.8667 144.23 33.6155 144.712 33.3997 145.211C33.1868 145.703 33.0067 146.215 32.864 146.74C32.781 147.045 32.7106 147.353 32.6533 147.663C32.5968 147.971 32.5518 148.285 32.5201 148.602C32.485 148.971 32.3888 149.259 32.2911 149.615C32.2329 149.755 32.1644 149.89 32.0874 150.016C31.993 150.172 31.8835 150.317 31.7629 150.449C31.6432 150.579 31.5103 150.698 31.3674 150.802C31.2263 150.904 31.0746 150.993 30.9153 151.066C30.7568 151.137 30.591 151.192 30.4208 151.229C30.2553 151.264 30.0845 151.283 29.9112 151.283C29.7378 151.283 29.5667 151.264 29.4009 151.229C29.231 151.192 29.066 151.136 28.9095 151.066C28.7511 150.994 28.6002 150.905 28.4592 150.802C28.3156 150.698 28.1827 150.579 28.0625 150.449C27.9417 150.317 27.8318 150.173 27.7363 150.017C27.6422 149.864 27.5613 149.701 27.4964 149.529C27.4328 149.361 27.3826 149.183 27.3491 148.999C27.3163 148.819 27.2988 148.634 27.2988 148.449C27.2988 148.31 27.3106 148.061 27.3295 147.823C27.3452 147.629 27.3657 147.441 27.3893 147.322C27.5281 146.55 27.6242 146.201 27.799 145.56C28.0235 144.737 28.2827 143.96 28.6227 143.175C28.9362 142.452 29.3012 141.753 29.7114 141.084C30.1241 140.413 30.5858 139.77 31.0903 139.162C31.5951 138.554 32.1441 137.981 32.7314 137.448C32.9412 137.258 33.1519 137.072 33.361 136.899C33.574 136.722 33.7948 136.55 34.0254 136.385C34.3345 136.162 34.6489 135.915 35.0035 135.769C35.1602 135.704 35.3243 135.655 35.4926 135.621C35.6586 135.589 35.8294 135.572 36.003 135.572V135.572Z" fill="#646377" stroke="#646377" stroke-width="0.634374"/>
<path fill-rule="evenodd" clip-rule="evenodd" d="M35.6394 163.755C35.5535 163.606 35.484 163.451 35.4304 163.293C35.3755 163.131 35.3381 162.965 35.3167 162.799C35.2953 162.631 35.291 162.46 35.3029 162.293C35.3148 162.122 35.3436 161.954 35.3876 161.792C35.4323 161.629 35.4938 161.468 35.5709 161.314C35.6466 161.163 35.7373 161.018 35.8415 160.885C35.9458 160.752 36.0631 160.627 36.193 160.516C36.3201 160.406 36.4598 160.307 36.6107 160.222C36.761 160.136 36.9172 160.068 37.0763 160.015C37.239 159.961 37.4065 159.924 37.5751 159.902C37.7457 159.88 37.9178 159.875 38.0873 159.887C38.2598 159.898 38.4301 159.927 38.5937 159.971C38.8545 160.041 39.2024 160.194 39.5705 160.355C39.8774 160.49 40.2007 160.631 40.5058 160.737C41.0294 160.902 41.5643 161.031 42.1038 161.122C42.6422 161.213 43.1892 161.267 43.7392 161.282C44.2824 161.296 44.829 161.273 45.3731 161.211C45.9103 161.15 46.4475 161.051 46.9786 160.913C47.2863 160.834 47.5913 160.741 47.8912 160.637C48.1888 160.532 48.486 160.415 48.7801 160.285C49.1201 160.132 49.4201 160.072 49.7807 159.979C49.9323 159.96 50.0841 159.952 50.2331 159.956C50.4161 159.959 50.5977 159.982 50.7727 160.02C50.9462 160.059 51.1164 160.114 51.2785 160.185C51.4383 160.256 51.5917 160.342 51.7339 160.443C51.8747 160.545 52.0053 160.66 52.122 160.788C52.2353 160.913 52.337 161.05 52.423 161.199C52.5091 161.349 52.5771 161.505 52.6282 161.666C52.6803 161.83 52.7136 162 52.7299 162.169C52.7455 162.341 52.7422 162.516 52.722 162.688C52.7022 162.863 52.6638 163.037 52.6091 163.205C52.5542 163.374 52.4818 163.54 52.3931 163.7C52.3062 163.856 52.2029 164.007 52.0848 164.148C51.9693 164.286 51.8384 164.418 51.6933 164.538C51.552 164.656 51.3993 164.762 51.2365 164.855C51.1153 164.923 50.8916 165.036 50.6738 165.138C50.4962 165.221 50.3209 165.297 50.2047 165.336C49.4603 165.599 49.1063 165.69 48.4583 165.858C47.6261 166.073 46.8169 166.236 45.9611 166.332C45.1718 166.422 44.3784 166.455 43.5898 166.433C42.7965 166.411 42.0043 166.333 41.2219 166.201C40.4386 166.068 39.6639 165.88 38.9059 165.639C38.6351 165.553 38.3679 165.464 38.1125 165.37C37.8521 165.274 37.5918 165.17 37.3332 165.053C36.9842 164.898 36.6118 164.75 36.3082 164.517C36.1736 164.414 36.0485 164.298 35.9359 164.17C35.8252 164.043 35.7253 163.904 35.6392 163.755H35.6394Z" fill="#646377" stroke="#646377" stroke-width="0.634374"/>
<path fill-rule="evenodd" clip-rule="evenodd" d="M52.0897 135.601C51.9165 135.601 51.746 135.618 51.5811 135.65C51.4119 135.683 51.2482 135.733 51.092 135.797C50.9343 135.862 50.7831 135.943 50.6421 136.037C50.4989 136.131 50.3654 136.24 50.2457 136.358C50.1249 136.478 50.0148 136.61 49.9182 136.753C49.8234 136.893 49.7416 137.043 49.6765 137.199C49.6119 137.355 49.5607 137.518 49.5275 137.685C49.4947 137.848 49.4773 138.018 49.4773 138.19C49.4773 138.362 49.4947 138.53 49.5273 138.693C49.5607 138.86 49.6113 139.023 49.6762 139.179C49.7416 139.336 49.8229 139.487 49.917 139.627C50.0125 139.77 50.122 139.902 50.2421 140.021C50.4331 140.21 50.739 140.434 51.063 140.671C51.3335 140.868 51.6179 141.076 51.8615 141.286C52.2663 141.655 52.6451 142.051 52.9926 142.47C53.3393 142.888 53.6576 143.333 53.9436 143.799C54.226 144.259 54.4771 144.74 54.6929 145.239C54.9059 145.732 55.086 146.243 55.2287 146.769C55.3116 147.073 55.3821 147.382 55.4394 147.692C55.4959 147.999 55.5408 148.313 55.5726 148.631C55.6077 149 55.7038 149.288 55.8016 149.644C55.8598 149.784 55.9283 149.919 56.0053 150.045C56.0996 150.2 56.2092 150.346 56.3298 150.477C56.4495 150.608 56.5823 150.726 56.7253 150.831C56.8664 150.933 57.0181 151.022 57.1774 151.094C57.3359 151.165 57.5016 151.221 57.6719 151.257C57.8374 151.293 58.0082 151.312 58.1815 151.312C58.3549 151.312 58.5259 151.293 58.6918 151.257C58.8617 151.221 59.0267 151.165 59.1832 151.095C59.3416 151.023 59.4925 150.934 59.6335 150.831C59.7771 150.727 59.91 150.608 60.0302 150.477C60.151 150.346 60.2608 150.201 60.3564 150.046C60.4505 149.893 60.5314 149.729 60.5963 149.558C60.6599 149.39 60.7101 149.212 60.7435 149.027C60.7764 148.847 60.7939 148.663 60.7939 148.477C60.7939 148.339 60.7821 148.09 60.7632 147.852C60.7475 147.658 60.727 147.47 60.7034 147.351C60.5646 146.579 60.4685 146.229 60.2937 145.588C60.0692 144.765 59.81 143.988 59.47 143.204C59.1564 142.48 58.7915 141.781 58.3813 141.113C57.9685 140.441 57.5069 139.798 57.0024 139.191C56.4975 138.583 55.9485 138.009 55.3613 137.477C55.1514 137.286 54.9407 137.101 54.7317 136.927C54.5187 136.751 54.2979 136.579 54.0673 136.414C53.7581 136.191 53.4438 135.944 53.0892 135.798C52.9324 135.733 52.7684 135.683 52.6001 135.65C52.4341 135.618 52.2632 135.601 52.0897 135.601V135.601Z" fill="#646377" stroke="#646377" stroke-width="0.634374"/>
<path fill-rule="evenodd" clip-rule="evenodd" d="M44.0295 132.817C44.3798 132.817 44.7153 132.886 45.022 133.012C45.3408 133.144 45.6268 133.335 45.8645 133.57C46.102 133.806 46.2944 134.089 46.4266 134.405C46.554 134.709 46.6242 135.042 46.6242 135.389C46.6242 135.736 46.554 136.069 46.427 136.373C46.2944 136.689 46.102 136.972 45.8645 137.207C45.6239 137.444 45.3375 137.635 45.0195 137.765C44.7131 137.891 44.3785 137.961 44.0295 137.961C43.6794 137.961 43.3439 137.891 43.0372 137.765C42.7187 137.634 42.4326 137.443 42.195 137.207C41.9571 136.971 41.7643 136.687 41.6327 136.373C41.5052 136.069 41.4351 135.736 41.4351 135.389C41.4351 135.042 41.5052 134.709 41.6323 134.405C41.7643 134.09 41.9571 133.807 42.1954 133.571C42.4326 133.335 42.7187 133.144 43.0374 133.013C43.3439 132.886 43.6794 132.817 44.0295 132.817V132.817Z" fill="#646377" stroke="#646377" stroke-width="0.840605"/>
<path fill-rule="evenodd" clip-rule="evenodd" d="M56.3928 154.37C56.7431 154.37 57.0786 154.44 57.3853 154.566C57.704 154.697 57.99 154.888 58.2278 155.123C58.4652 155.359 58.6577 155.642 58.7897 155.959C58.9173 156.262 58.9875 156.595 58.9875 156.942C58.9875 157.289 58.9173 157.622 58.7902 157.926C58.6577 158.242 58.4652 158.525 58.2278 158.761C57.9871 158.997 57.7008 159.188 57.3828 159.319C57.0763 159.444 56.7416 159.514 56.3928 159.514C56.0426 159.514 55.7071 159.444 55.4005 159.319C55.0819 159.187 54.7959 158.996 54.5582 158.761C54.3204 158.524 54.1276 158.241 53.996 157.926C53.8684 157.622 53.7983 157.289 53.7983 156.942C53.7983 156.595 53.8684 156.262 53.9956 155.958C54.1276 155.644 54.3204 155.36 54.5586 155.124C54.7959 154.888 55.0819 154.697 55.4007 154.566C55.7071 154.44 56.0426 154.37 56.3928 154.37V154.37Z" fill="#646377" stroke="#646377" stroke-width="0.840605"/>
<path fill-rule="evenodd" clip-rule="evenodd" d="M31.5215 154.41C31.8717 154.41 32.2071 154.479 32.5137 154.605C32.8324 154.736 33.1183 154.927 33.356 155.163C33.5933 155.398 33.7858 155.682 33.9178 155.998C34.0453 156.301 34.1155 156.634 34.1155 156.981C34.1155 157.328 34.0453 157.66 33.9182 157.964C33.7858 158.28 33.5933 158.564 33.356 158.799C33.1154 159.035 32.8291 159.226 32.5112 159.357C32.205 159.482 31.8703 159.552 31.5215 159.552C31.1715 159.552 30.836 159.483 30.5295 159.357C30.211 159.225 29.9251 159.035 29.6874 158.799C29.4496 158.563 29.257 158.279 29.1254 157.964C28.9979 157.661 28.9277 157.328 28.9277 156.981C28.9277 156.634 28.9979 156.301 29.125 155.997C29.257 155.683 29.4496 155.399 29.6878 155.163C29.9251 154.927 30.211 154.736 30.5297 154.606C30.836 154.479 31.1715 154.41 31.5215 154.41V154.41Z" fill="#646377" stroke="#646377" stroke-width="0.840605"/>
</svg>
