<svg width="301" height="300" viewBox="0 0 301 300" fill="none" xmlns="http://www.w3.org/2000/svg">
<rect x="0.928223" width="300" height="300" fill="#FAFAFA"/>
<path d="M58.4191 183.962L54.7818 183.879C51.4635 183.804 50.1323 186.2 50.0628 189.263L50.0613 189.327C49.9918 192.39 51.213 194.843 54.5313 194.919L57.4666 194.985C59.7958 195.038 60.845 193.817 62.1386 191.676L63.665 189.125C64.2965 188.022 64.8788 187.684 66.0274 187.71L67.7823 187.75C69.1542 187.781 69.7423 188.592 69.717 189.709C69.6917 190.826 69.0673 191.609 67.6954 191.578L64.3133 191.502L64.2308 195.139L68.1233 195.227C71.6011 195.306 72.8301 193.195 72.9069 189.813L72.9083 189.749C72.9851 186.367 71.8212 184.202 68.3753 184.124L65.1528 184.051C62.7598 183.996 61.7417 185.25 60.4808 187.36L58.9537 189.943C58.3236 190.983 57.8044 191.354 56.6558 191.328L55.1243 191.293C53.7204 191.261 53.228 190.452 53.2527 189.367C53.2773 188.282 53.8059 187.496 55.2097 187.528L58.3366 187.599L58.4191 183.962Z" fill="#646377"/>
<path d="M51.7084 172.352L50.6339 178.028L72.5842 182.183L73.2728 178.546L64.7749 176.937L65.1608 174.899C65.79 171.575 64.8886 169.131 61.5647 168.501L57.3941 167.712C54.0702 167.083 52.3377 169.028 51.7084 172.352ZM60.3116 172.032C61.8795 172.329 62.1642 173.227 61.9386 174.419L61.5765 176.332L54.521 174.996L54.8831 173.083C55.1087 171.891 55.7021 171.159 57.27 171.456L60.3116 172.032Z" fill="#646377"/>
<path d="M58.44 162.325L71.0016 167.002C74.1719 168.182 76.2076 166.556 77.388 163.386L77.4771 163.147C78.6575 159.977 78.1809 157.415 75.0106 156.235L62.449 151.558C59.2787 150.377 57.2431 152.003 56.0626 155.173L55.9735 155.413C54.7931 158.583 55.2398 161.133 58.44 162.325ZM71.755 163.332L60.2702 159.056C58.7747 158.499 58.6456 157.565 59.0687 156.429C59.4919 155.292 60.2002 154.671 61.6956 155.227L73.1805 159.504C74.6759 160.061 74.8051 160.994 74.3819 162.131C73.9587 163.267 73.2505 163.889 71.755 163.332Z" fill="#646377"/>
<path d="M86.3909 145.333L71.9954 142.334L66.8978 134.413L64.937 137.776L71.5004 146.479L62.8153 141.416L60.9509 144.614L80.251 155.865L82.1155 152.667L76.546 149.42L74.5695 146.347L84.4943 148.586L86.3909 145.333Z" fill="#646377"/>
<path d="M92.8893 137.692L95.337 134.83L75.6212 123.512L72.5927 127.053L86.8737 144.726L89.197 142.01L85.9319 138.167L88.5871 135.063L92.8893 137.692ZM83.9147 135.812L77.3882 128.172L85.9476 133.435L83.9147 135.812Z" fill="#646377"/>
<path d="M99.1311 131.602L90.007 120.306L102.93 128.534L105.661 126.328L91.6236 108.949L88.9919 111.075L97.6749 121.825L85.3422 114.022L82.4622 116.348L96.4994 133.728L99.1311 131.602Z" fill="#646377"/>
<path d="M116.247 120.186L114.629 117.362L109.257 120.439L106.053 114.844L110.484 112.307L108.866 109.482L104.435 112.02L101.39 106.702L106.679 103.673L105.062 100.848L96.5595 105.717L107.662 125.103L116.247 120.186Z" fill="#646377"/>
<path d="M128.003 92.4778L117.277 95.5942L118.185 98.7202L121.771 97.6784L127.095 116.006L130.65 114.973L125.326 96.6456L128.911 95.6039L128.003 92.4778Z" fill="#646377"/>
<path d="M147.967 112.154L143.679 103.119C145.121 102.273 145.85 100.836 145.597 98.7127L145.127 94.7513C144.727 91.392 142.351 90.3247 138.991 90.7241L133.255 91.4061L135.893 113.59L139.569 113.153L138.518 104.311L140.356 104.092L144.227 112.599L147.967 112.154ZM137.316 94.2015L139.249 93.9717C140.453 93.8285 141.33 94.1742 141.518 95.7588L141.861 98.6427C142.049 100.227 141.278 100.769 140.074 100.912L138.141 101.142L137.316 94.2015Z" fill="#646377"/>
<path d="M161.762 90.5029L158.066 90.3001L157.118 107.572C157.031 109.165 156.306 109.573 155.095 109.506C153.884 109.44 153.207 108.955 153.295 107.362L154.242 90.0903L150.545 89.8875L149.567 107.733C149.376 111.206 151.475 112.568 154.853 112.753L154.98 112.76C158.358 112.946 160.595 111.79 160.784 108.348L161.762 90.5029Z" fill="#646377"/>
<path d="M175.761 106.77L172.152 105.946L171.249 109.897C170.9 111.422 170.047 111.718 168.896 111.455C167.745 111.192 167.105 110.554 167.453 109.03L170.183 97.0825C170.531 95.558 171.384 95.2619 172.536 95.5249C173.687 95.7879 174.327 96.4252 173.979 97.9497L173.197 101.372L176.806 102.197L177.716 98.2143C178.455 94.9786 176.59 93.112 173.292 92.3585L173.23 92.3443C169.932 91.5908 167.441 92.4621 166.702 95.6979L163.716 108.765C162.941 112.156 164.842 113.867 168.14 114.621L168.202 114.635C171.5 115.389 173.962 114.642 174.73 111.282L175.761 106.77Z" fill="#646377"/>
<path d="M187.073 120.963L188.069 106.293L195.217 100.157L191.616 98.6761L183.896 106.371L187.721 97.0735L184.297 95.6651L175.798 116.326L179.222 117.734L181.674 111.772L184.447 109.393L183.59 119.531L187.073 120.963Z" fill="#646377"/>
<path d="M211.002 120.036L213.192 117.131C215.19 114.48 214.022 112.001 211.575 110.157L211.524 110.118C209.078 108.274 206.373 107.833 204.375 110.484L202.607 112.828C201.205 114.689 201.584 116.254 202.568 118.554L203.748 121.282C204.275 122.439 204.21 123.109 203.518 124.026L202.461 125.428C201.635 126.524 200.633 126.528 199.741 125.855C198.849 125.183 198.577 124.218 199.403 123.123L201.44 120.421L198.534 118.231L196.191 121.34C194.097 124.118 195.093 126.348 197.795 128.385L197.846 128.423C200.547 130.459 202.985 130.778 205.059 128.026L207 125.452C208.441 123.54 208.017 121.982 207.039 119.726L205.833 116.979C205.357 115.861 205.359 115.222 206.05 114.305L206.972 113.082C207.818 111.96 208.762 112.033 209.629 112.686C210.495 113.339 210.825 114.227 209.98 115.349L208.097 117.846L211.002 120.036Z" fill="#646377"/>
<path d="M210.802 140.114L213.145 137.855L208.847 133.398L213.488 128.923L217.032 132.598L219.375 130.339L215.831 126.663L220.242 122.41L224.473 126.797L226.816 124.538L220.015 117.485L203.934 132.993L210.802 140.114Z" fill="#646377"/>
<path d="M219.009 151.659L224.995 143.646C226.417 144.526 228.027 144.5 229.787 143.284L233.069 141.017C235.853 139.095 235.686 136.495 233.764 133.711L230.481 128.958L212.099 141.654L214.203 144.7L221.529 139.64L222.581 141.163L216.869 148.56L219.009 151.659ZM229.907 133.854L231.013 135.456C231.702 136.454 231.806 137.391 230.493 138.298L228.103 139.948C226.79 140.855 225.951 140.426 225.262 139.428L224.156 137.826L229.907 133.854Z" fill="#646377"/>
<path d="M244.75 153.961L243.238 150.722L227.136 155.385L241.051 146.037L239.459 142.624L220.997 155.89L222.724 159.592L244.75 153.961Z" fill="#646377"/>
<path d="M226.078 168.846L247.358 162.046L246.231 158.52L224.951 165.32L226.078 168.846Z" fill="#646377"/>
<path d="M237.915 180.686L237.244 177.045L233.258 177.78C231.72 178.064 231.11 177.397 230.896 176.236C230.682 175.075 231.014 174.235 232.551 173.951L244.603 171.728C246.141 171.445 246.751 172.111 246.965 173.272C247.179 174.434 246.847 175.274 245.309 175.557L241.857 176.194L242.529 179.835L246.546 179.094C249.81 178.492 250.786 176.04 250.172 172.713L250.161 172.651C249.547 169.324 247.761 167.382 244.497 167.984L231.315 170.415C227.894 171.046 227.075 173.468 227.689 176.795L227.7 176.858C228.314 180.185 229.975 182.15 233.364 181.525L237.915 180.686Z" fill="#646377"/>
<path d="M229.314 194.407L232.569 194.342L232.445 188.152L238.891 188.023L238.993 193.128L242.247 193.063L242.145 187.958L248.272 187.835L248.393 193.93L251.648 193.865L251.452 184.069L229.116 184.516L229.314 194.407Z" fill="#646377"/>
<path fill-rule="evenodd" clip-rule="evenodd" d="M85.8947 214.106L87.3866 218.693L89.3926 218.742L87.7126 213.837C88.5526 213.459 89.056 212.603 88.9663 211.703V209.643C88.9663 207.877 87.7878 207.19 86.0075 207.19H82.9609V218.693H84.9168V214.106H85.8947ZM85.9072 212.463H84.8792V208.87H85.9072C86.5341 208.87 86.9729 209.091 86.9729 209.912V211.408C86.9729 212.23 86.5341 212.463 85.9072 212.463Z" fill="#646377"/>
<path d="M91.0098 218.693V207.19H96.1751V208.87H92.9656V212.022H95.6486V213.702H92.9656V217.013H96.2253V218.693H91.0098Z" fill="#646377"/>
<path fill-rule="evenodd" clip-rule="evenodd" d="M103.961 211.801V209.618C103.961 207.877 102.782 207.19 101.002 207.202H97.9553V218.705H99.9111V214.253H101.002C102.782 214.253 103.961 213.542 103.961 211.801ZM100.927 208.87C101.566 208.87 102.005 209.091 102.005 209.912V211.494C102.005 212.316 101.566 212.549 100.927 212.549H99.9112V208.87H100.927Z" fill="#646377"/>
<path fill-rule="evenodd" clip-rule="evenodd" d="M106.982 216.13H109.139L109.552 218.693H111.596L109.377 207.19H106.869L104.688 218.693H106.569L106.982 216.13ZM108.061 209.446L108.876 214.548H107.233L108.061 209.446Z" fill="#646377"/>
<path d="M113.101 218.693V207.19H115.056V218.693H113.101Z" fill="#646377"/>
<path fill-rule="evenodd" clip-rule="evenodd" d="M119.908 214.106L121.413 218.693L123.419 218.742L121.739 213.837C122.579 213.459 123.082 212.603 122.992 211.703V209.643C122.992 207.877 121.814 207.19 120.034 207.19H116.987V218.693H118.943V214.106H119.908ZM119.921 212.463H118.905V208.87H119.921C120.56 208.87 120.999 209.091 120.999 209.912V211.408C120.999 212.23 120.56 212.463 119.921 212.463Z" fill="#646377"/>
<path fill-rule="evenodd" clip-rule="evenodd" d="M133.687 217.883L134.239 218.693L136.119 218.631L134.414 216.044L135.467 212.365H133.687L133.16 214.192L131.606 211.838C130.879 210.832 130.879 210.661 130.879 210.047V209.606C130.936 209.103 131.371 208.723 131.888 208.723C132.405 208.723 132.84 209.103 132.897 209.606V210.918H134.728V209.373C134.753 207.669 133.637 207.006 131.856 207.006C130.076 207.006 128.985 207.669 128.985 209.373V210.084C128.977 210.792 129.192 211.486 129.6 212.071C129.052 212.527 128.755 213.208 128.797 213.91V216.522C128.797 217.895 129.525 218.827 131.305 218.827H131.418C132.291 218.923 133.152 218.565 133.687 217.883ZM130.716 213.494L132.584 216.24C132.383 216.903 132.22 217.246 131.568 217.246C130.916 217.246 130.716 216.903 130.716 216.093V213.727C130.709 213.649 130.709 213.571 130.716 213.494Z" fill="#646377"/>
<path d="M145.911 217.013H144.82L143.052 211.654V218.693H141.247V207.19H143.09L145.359 213.91L147.641 207.227H149.559V218.729H147.678V211.691L145.911 217.013Z" fill="#646377"/>
<path fill-rule="evenodd" clip-rule="evenodd" d="M153.408 216.13H155.552L156.016 218.693H158.009L155.79 207.19H153.283L151.101 218.693H152.982L153.408 216.13ZM154.474 209.446L155.301 214.548H153.659L154.474 209.446Z" fill="#646377"/>
<path d="M159.526 218.693V207.19H161.469V218.693H159.526Z" fill="#646377"/>
<path d="M163.413 218.693V207.19H165.356L167.864 214.303V207.19H169.644V218.693H167.801L165.231 211.213V218.693H163.413Z" fill="#646377"/>
<path d="M177.041 208.87H175.072V218.68H173.129V208.87H171.161V207.19H177.041V208.87Z" fill="#646377"/>
<path d="M178.583 218.693V207.19H183.736V208.87H180.526V212.022H183.222V213.702H180.526V217.013H183.786V218.693H178.583Z" fill="#646377"/>
<path d="M185.541 218.693V207.19H187.484L189.992 214.303V207.19H191.772V218.693H189.866L187.359 211.213V218.693H185.541Z" fill="#646377"/>
<path fill-rule="evenodd" clip-rule="evenodd" d="M195.571 216.13H197.727L198.141 218.693H200.185L197.966 207.19H195.458L193.277 218.693H195.157L195.571 216.13ZM196.649 209.446L197.477 214.548H195.834L196.649 209.446Z" fill="#646377"/>
<path d="M201.664 218.693V207.19H203.657L206.165 214.303V207.19H207.945V218.693H206.102L203.595 211.213V218.693H201.664Z" fill="#646377"/>
<path d="M215.681 216.362C215.681 218.141 214.502 218.815 212.722 218.815V218.815C210.929 218.815 209.763 218.165 209.763 216.362V209.495C209.763 207.779 210.929 207.043 212.722 207.043V207.043C214.502 207.043 215.681 207.766 215.681 209.495V211.592H213.687V209.79C213.687 208.98 213.273 208.735 212.659 208.735C212.045 208.735 211.631 208.98 211.631 209.79V216.093C211.631 216.902 212.032 217.147 212.659 217.147C213.286 217.147 213.687 216.902 213.687 216.093V214.008H215.63L215.681 216.362Z" fill="#646377"/>
<path d="M217.448 218.693V207.19H222.601V208.87H219.454V212.022H222.137V213.702H219.454V217.013H222.702V218.693H217.448Z" fill="#646377"/>
<path d="M240.473 216.363C240.473 218.153 239.344 218.815 237.557 218.815H237.495C235.72 218.815 234.578 218.165 234.578 216.363V207.092H236.527V216.056C236.527 216.89 236.887 217.123 237.532 217.123C238.177 217.123 238.537 216.89 238.537 216.056V207.092H240.473V216.363Z" fill="#646377"/>
<path d="M246.107 211.237V209.618C246.15 209.244 245.971 208.879 245.648 208.678C245.326 208.478 244.915 208.478 244.592 208.678C244.269 208.879 244.091 209.244 244.134 209.618V210.416C244.096 210.927 244.404 211.402 244.891 211.58L246.268 212.353C247.385 212.978 248.055 213.493 248.055 214.732V216.363C248.055 218.153 246.938 218.815 245.151 218.815V218.815C243.377 218.815 242.248 218.202 242.248 216.363V214.352H244.159V216.105C244.159 216.654 244.609 217.099 245.164 217.099C245.719 217.099 246.169 216.654 246.169 216.105V215.198C246.209 214.668 245.898 214.172 245.4 213.972L244.047 213.211C242.905 212.561 242.248 211.985 242.248 210.759V209.238C242.248 207.522 243.489 206.859 245.127 206.859V206.859C246.74 206.859 248.006 207.522 248.006 209.238V211.127L246.107 211.237Z" fill="#646377"/>
<path d="M60.8288 218.636H58.9699L57.4397 210.728L55.8969 218.636H53.9621L52.0906 207.104H54.038L55.0244 215.341L56.5672 207.104H58.3376L59.8803 215.341L60.8667 207.104H62.6877L60.8288 218.636Z" fill="#646377"/>
<path fill-rule="evenodd" clip-rule="evenodd" d="M65.3685 216.061H67.5562L67.9862 218.636H69.9969L67.7459 207.103H65.2168L63.0291 218.636H64.9386L65.3685 216.061ZM66.4813 209.36L67.3032 214.486H65.6467L66.4813 209.36Z" fill="#646377"/>
<path fill-rule="evenodd" clip-rule="evenodd" d="M144.673 134.465C144.673 132.736 143.729 131.258 142.974 130.331C142.578 129.843 142.185 129.448 141.891 129.174C141.743 129.037 141.618 128.928 141.528 128.851C141.482 128.812 141.445 128.782 141.418 128.76C141.405 128.749 141.394 128.74 141.385 128.733L141.374 128.725L141.37 128.721L141.368 128.72C141.368 128.72 141.368 128.719 140.517 129.819C139.667 130.92 139.666 130.919 139.666 130.919L139.666 130.919L139.665 130.918C139.667 130.92 139.671 130.923 139.678 130.929C139.692 130.94 139.714 130.958 139.744 130.984C139.805 131.035 139.897 131.115 140.009 131.22C140.235 131.43 140.534 131.732 140.83 132.096C141.461 132.871 141.902 133.717 141.902 134.465V138.337V138.409V153.761L137.901 155.372V157.695L141.902 156.084V156.13V174.42L137.901 175.194V177.672L133.745 178.291L133.591 148.867L139.748 145.77V138.044L129.59 136.324L91.882 176.433V177.053L129.128 139.731V175.039L91.882 187.273V189.596L93.8831 189.534C93.8853 188.256 94.2979 187.221 94.8065 187.221C95.3165 187.221 95.7299 188.261 95.7299 189.544C95.7299 190.541 95.4803 191.392 95.1297 191.721L95.1297 191.722H95.1284C95.0281 191.816 94.9197 191.867 94.8065 191.867C94.6952 191.867 94.5885 191.818 94.4897 191.727L89.4195 191.764L86.3413 193.933L219.164 193.778L215.47 190.835L197.651 190.967C198.91 190.094 199.548 189.329 200.122 188.42L208.699 188.358V180.924H169.144V184.315H166.262C165.95 178.062 164.764 170.172 160.063 170.084C156.331 170.014 153.909 178.17 154.215 182.318L146.335 182.957C145.439 183.03 144.673 182.318 144.673 181.413V179.375L152.214 178.446L152.83 175.504L144.673 176.588V145.615C145.699 145.667 148.428 145.987 150.521 146.854C152.614 147.721 154.369 148.971 154.984 149.487C155.245 149.487 155.532 149.482 155.862 149.477H155.863L155.864 149.477L155.866 149.477H155.867L155.868 149.477C157.483 149.452 160.114 149.411 165.604 149.797C172.278 150.265 175.146 151.345 175.916 151.655V150.416L174.531 149.642C174.479 149.613 174.428 149.583 174.377 149.555V140.195C174.377 138.466 173.433 136.988 172.679 136.06C172.282 135.573 171.889 135.178 171.596 134.904C171.448 134.766 171.323 134.657 171.232 134.581C171.187 134.542 171.15 134.512 171.123 134.49C171.109 134.479 171.098 134.47 171.089 134.463L171.079 134.454L171.073 134.45C171.073 134.45 171.072 134.449 170.221 135.549C169.371 136.649 169.37 136.649 169.37 136.649L169.37 136.649L169.37 136.648C169.372 136.65 169.376 136.654 169.382 136.659C169.396 136.67 169.418 136.688 169.449 136.714C169.51 136.765 169.601 136.845 169.713 136.949C169.939 137.16 170.238 137.461 170.534 137.826C171.165 138.601 171.607 139.447 171.607 140.195V148.118C166.692 145.795 163.406 145.48 161.968 145.342L161.967 145.342L161.96 145.342L161.957 145.341C161.823 145.328 161.704 145.317 161.603 145.306V141.899L145.134 138.956L144.673 138.878V134.465ZM205.159 173.646V177.827H168.836C168.816 177.726 168.794 177.591 168.767 177.426C168.585 176.327 168.18 173.873 166.681 170.858C164.958 167.389 161.551 166.935 160.063 167.141C161.346 166.677 163.603 165.902 167.297 165.902C170.009 165.902 173.3 167.451 174.993 169.155H169.606V173.026H177.455L179.148 174.884V154.907C179.148 154.842 179.146 154.77 179.144 154.695C179.128 154.191 179.108 153.514 179.694 153.381L196.32 154.982C196.794 155.027 197.155 155.428 197.155 155.907V166.832C197.72 166.987 199.156 167.451 200.387 168.071C201.619 168.69 202.542 169.671 202.85 170.084H199.464V173.646H205.159ZM99.9941 191.686C100.517 190.994 100.676 190.274 100.785 189.318L103.65 189.229C103.763 190.139 104.029 190.805 104.674 191.652L99.9941 191.686ZM171.76 188.627V188.667L170.37 191.167L187.374 191.042C186.562 190.054 186.136 189.318 185.794 188.525L171.76 188.627ZM151.229 187.746L157.198 187.56C156.869 186.274 156.677 184.74 156.677 183.092C156.677 178.559 158.125 174.885 159.91 174.885C161.695 174.885 163.142 178.559 163.142 183.092C163.142 187.625 161.695 191.3 159.91 191.3C159.786 191.3 159.663 191.282 159.543 191.248L148.636 191.328C150.336 189.996 150.827 189.016 151.229 187.746ZM130.394 188.395L137.596 188.171C137.951 189.372 138.454 190.265 139.995 191.392L128.671 191.475C129.615 190.645 130.09 189.641 130.394 188.395ZM114.798 188.882L110.429 189.018C110.307 190.015 110.005 190.752 109.279 191.618L116.23 191.567C115.541 190.82 115.104 189.884 114.798 188.882ZM131.744 183.866C131.744 183.505 131.814 182.627 132.164 181.853C132.456 181.206 132.749 180.955 133 180.739H133.001C133.05 180.697 133.098 180.656 133.143 180.614L137.901 179.994C137.773 180.182 137.672 180.313 137.584 180.426C137.383 180.685 137.256 180.849 137.061 181.388C136.781 182.163 136.781 183.04 136.781 183.401L131.744 183.866ZM156.831 159.243L155.138 152.12C155.51 152.12 156.049 152.11 156.723 152.098C158.751 152.063 162.002 152.006 165.604 152.12C170.529 152.274 174.685 153.359 176.224 153.978L156.831 159.243ZM152.83 152.584L146.52 155.062V162.805L154.523 160.017L152.83 152.584ZM139.901 182.402C139.914 183.456 140.164 184.317 140.604 184.997C141.044 185.677 141.629 186.105 142.198 186.37C142.759 186.631 143.312 186.736 143.73 186.78C143.942 186.802 144.127 186.809 144.269 186.811C144.356 186.812 144.571 186.809 144.519 186.809V184.641C144.501 184.641 144.48 184.641 144.456 184.641C144.205 184.644 143.638 184.651 143.101 184.402C142.83 184.275 142.59 184.092 142.41 183.814C142.23 183.536 142.065 183.094 142.056 182.376C142.024 179.736 142.04 178.516 142.05 177.736V177.735C142.053 177.47 142.056 176.945 142.056 176.743L139.901 177.052C139.901 177.231 139.899 177.431 139.896 177.683C139.885 178.458 139.869 179.727 139.901 182.402ZM117.585 191.609C118.605 191.609 119.432 189.46 119.432 186.809C119.432 184.157 118.605 182.008 117.585 182.008C116.565 182.008 115.738 184.157 115.738 186.809C115.738 189.46 116.565 191.609 117.585 191.609ZM98.1924 189.244C98.1924 190.698 97.7101 191.877 97.115 191.877C96.52 191.877 96.0377 190.698 96.0377 189.244C96.0377 187.79 96.52 186.612 97.115 186.612C97.7101 186.612 98.1924 187.79 98.1924 189.244ZM122.972 191.609C124.247 191.609 125.28 189.113 125.28 186.034C125.28 182.955 124.247 180.459 122.972 180.459C121.697 180.459 120.663 182.955 120.663 186.034C120.663 189.113 121.697 191.609 122.972 191.609Z" fill="#646377"/>
</svg>
