<svg width="300" height="300" viewBox="0 0 300 300" fill="none" xmlns="http://www.w3.org/2000/svg">
<rect width="300" height="300" fill="#FAFAFA"/>
<path fill-rule="evenodd" clip-rule="evenodd" d="M118.632 139.171H156.58V133.148H118.632C115.409 133.148 112.528 134.036 109.988 135.812C107.448 137.588 106.179 139.73 106.179 142.24V143.919C106.179 146.583 107.4 148.755 109.842 150.434C112.283 152.113 115.214 152.953 118.632 152.953L143.98 153.011C146.91 153.011 148.375 154.015 148.375 156.022V157.759C148.375 158.609 147.911 159.333 146.983 159.931C146.055 160.529 145.054 160.829 143.98 160.829H106.032V166.851H143.98C147.203 166.851 150.084 165.973 152.624 164.216C155.164 162.46 156.433 160.308 156.433 157.759V156.022C156.433 153.358 155.188 151.158 152.697 149.421C150.304 147.799 147.398 146.988 143.98 146.988L118.632 146.93C115.702 146.93 114.237 145.927 114.237 143.919V142.24C114.237 141.429 114.701 140.715 115.629 140.097C116.557 139.479 117.558 139.171 118.632 139.171ZM91.7313 153.684H98.5478V146.931H91.7313V153.684ZM212.622 144.093C212.622 146.796 211.413 148.977 208.996 150.637C206.578 152.297 203.636 153.127 200.168 153.127H171.011V146.931H200.168C203.098 146.931 204.563 145.985 204.563 144.093V142.298C204.563 140.252 203.098 139.229 200.168 139.229H168.521V166.851H160.536V133.206H200.168C203.636 133.206 206.578 134.055 208.996 135.754C211.413 137.453 212.622 139.634 212.622 142.298V144.093ZM265.001 150.376C267.443 148.697 268.664 146.506 268.664 143.803V133.148H260.605V143.803C260.605 145.849 259.14 146.873 256.21 146.873H229.324C226.394 146.873 224.929 145.849 224.929 143.803V133.148H216.871V143.803C216.871 146.506 218.092 148.697 220.534 150.376C222.975 152.055 225.906 152.895 229.324 152.895H238.701V166.851H246.76V152.895H256.21C259.629 152.895 262.559 152.055 265.001 150.376Z" fill="#646377"/>
<path d="M83.225 166.852H75.1972V155.888C75.1972 154.999 74.7593 154.312 73.8836 153.829C73.0078 153.345 71.9861 153.104 70.8184 153.104H41.7723V146.897H70.8184C73.7376 146.897 75.1972 145.949 75.1972 144.054V142.256C75.1972 140.206 73.7376 139.181 70.8184 139.181H39.291V166.852H31.3362V133.148H70.8184C74.2728 133.148 77.2041 133.999 79.6125 135.701C82.0209 137.402 83.225 139.587 83.225 142.256V144.054C83.225 146.259 82.179 148.231 80.0869 149.971C82.179 151.75 83.225 153.722 83.225 155.888V166.852Z" fill="#646377"/>
</svg>
