<svg width="300" height="300" viewBox="0 0 300 300" fill="none" xmlns="http://www.w3.org/2000/svg">
<rect x="-0.219604" width="300" height="300" fill="#FAFAFA"/>
<path fill-rule="evenodd" clip-rule="evenodd" d="M109.85 112.774L121.899 155.428L54.2639 160.488L61.9905 118.915L109.85 112.774ZM71.3749 124.561H77.5226C79.9529 124.431 82.3866 124.744 84.7064 125.484C86.153 126.078 87.3733 127.121 88.1898 128.461C89.0703 129.961 89.5116 131.68 89.4628 133.422C89.5334 135.339 88.9405 137.222 87.7852 138.75C86.6316 140.204 85.0438 141.247 83.2558 141.726C81.2421 142.125 79.1886 142.285 77.1377 142.202V155.15H71.3749V124.561ZM77.1377 136.527H78.9929C80.0156 136.579 81.0402 136.475 82.0322 136.22C82.5746 136.039 83.0473 135.692 83.3841 135.227C83.7197 134.705 83.8885 134.092 83.8676 133.471C83.936 132.414 83.4002 131.409 82.4861 130.882C81.3167 130.379 80.0438 130.168 78.7758 130.266H77.1377V136.527ZM95.1861 124.561H111.794V130.276H100.939V135.773H111.794V141.399H100.939V149.445H111.794V155.15H95.1763V124.561H95.1861ZM123.162 154.286L129.922 154.252L123.803 135.822L121.787 147.571L123.162 154.286ZM144.857 154.176L135.635 154.223L141.773 135.822L144.857 154.176ZM145.503 124.561L150.439 154.148L162.272 154.088C160.824 153.325 159.489 152.335 158.321 151.141C153.809 146.542 152.475 139.673 154.937 133.706C157.398 127.739 163.175 123.835 169.6 123.797H169.64C173.516 123.754 177.249 125.212 180.074 127.848L181.195 114.599L115.04 114.629L118.711 132.552L120.083 124.561H120.093H125.708L132.793 145.893L139.908 124.561H145.503ZM179.26 137.457L178.689 144.206C178.211 145.334 177.533 146.397 176.656 147.341C174.849 149.28 172.311 150.361 169.669 150.317C167.319 150.342 165.038 149.522 163.235 148.006C160.834 146.057 159.493 143.079 159.624 139.979C159.526 137.192 160.559 134.484 162.485 132.478C164.319 130.531 166.884 129.451 169.551 129.501L169.59 129.601C172.258 129.546 174.824 130.627 176.656 132.577C177.974 133.997 178.843 135.684 179.26 137.457ZM177.897 153.569L177.86 154.008L177.129 154.012C177.388 153.872 177.645 153.724 177.897 153.569ZM183.84 110.928L245.297 109.241L234.324 153.879L227.959 153.662V130.276H233.505V124.541H216.729L216.66 124.521V130.276H222.038V153.459L212.762 153.141V124.561H206.921V136.08H196.757V124.541H190.836V124.561V152.39L181.59 152.074L183.84 110.928ZM206.921 141.726V152.941L196.757 152.593V141.726H206.921ZM98.9557 175.936L114.606 177.583L109.682 159.972L88.249 160.071L98.9557 175.936ZM118.474 163.019V175.704L113.235 158.206L227.377 157.055L220.025 190.759L123.547 183.056V167.871H131.115V183.22H136.108V163.019H118.474ZM159.17 183.2H159.161L150.565 163.019H147.309L138.763 183.2H143.855L148.996 170.44L154.068 183.2H159.161L159.17 183.22V183.2ZM161.805 183.2H166.837V183.17V175.599H169.521C170.046 177.897 171.36 179.934 173.232 181.354C176.415 183.889 180.757 184.376 184.418 182.61C188.078 180.843 190.417 177.132 190.441 173.05C190.494 170.217 189.363 167.493 187.323 165.539C183.546 161.786 177.584 161.437 173.399 164.725C171.405 166.267 170.029 168.479 169.521 170.956H166.837V163.019H161.805V183.2ZM183.79 168.873C184.845 170.011 185.402 171.526 185.339 173.08L185.379 173.07C185.448 174.644 184.874 176.178 183.79 177.317C182.756 178.385 181.325 178.972 179.843 178.934C178.358 178.988 176.921 178.399 175.896 177.317C173.839 174.905 173.839 171.344 175.896 168.933C176.903 167.818 178.346 167.205 179.843 167.256C181.327 167.211 182.76 167.798 183.79 168.873ZM214.193 167.126L209.999 169.448C209.349 168.718 208.557 168.13 207.671 167.721C206.81 167.381 205.891 167.215 204.967 167.235C203.281 167.162 201.636 167.769 200.398 168.922C199.232 170.05 198.597 171.622 198.651 173.248C198.597 174.819 199.207 176.34 200.329 177.435C201.524 178.548 203.112 179.134 204.74 179.062C206.762 179.165 208.714 178.305 210.009 176.74L213.956 179.479C211.785 182.304 208.376 183.883 204.829 183.705C201.289 183.705 198.52 182.654 196.52 180.55C194.193 178.197 193.115 174.873 193.615 171.592C194.116 168.312 196.135 165.466 199.056 163.921C200.855 162.968 202.864 162.484 204.898 162.512C206.759 162.482 208.602 162.893 210.276 163.713C211.851 164.49 213.2 165.662 214.193 167.116V167.126Z" fill="#646377"/>
</svg>
