<svg width="300" height="300" viewBox="0 0 300 300" fill="none" xmlns="http://www.w3.org/2000/svg">
<rect width="300" height="300" fill="#FAFAFA"/>
<path fill-rule="evenodd" clip-rule="evenodd" d="M165.143 163.664H159.026V133.282H170.563C172.097 133.282 173.546 133.576 174.907 134.164C176.26 134.749 177.44 135.54 178.444 136.537C179.446 137.533 180.243 138.697 180.831 140.028C181.423 141.366 181.719 142.799 181.719 144.324C181.719 145.849 181.423 147.289 180.832 148.64C180.243 149.985 179.447 151.157 178.444 152.154C177.44 153.15 176.26 153.942 174.907 154.527C173.546 155.114 172.097 155.408 170.563 155.408H165.56L168.057 149.332H170.563C171.941 149.332 173.114 148.843 174.113 147.851C175.111 146.859 175.603 145.693 175.603 144.324C175.603 142.93 175.113 141.783 174.113 140.839C173.114 139.848 171.941 139.359 170.563 139.359H165.143V163.664Z" fill="#646377"/>
<path fill-rule="evenodd" clip-rule="evenodd" d="M197.449 163.6C196.426 164.034 195.287 164.25 194.036 164.25C192.583 164.25 191.256 163.976 190.061 163.426C188.871 162.88 187.849 162.131 186.999 161.183C186.152 160.239 185.499 159.133 185.041 157.87C184.584 156.611 184.356 155.266 184.356 153.837V141.663H190.472V153.837C190.472 155.009 190.908 156.022 191.794 156.902C192.651 157.754 193.67 158.174 194.88 158.174C196.118 158.174 197.151 157.754 198.008 156.902C198.865 156.051 199.288 155.039 199.288 153.837V141.663H205.404V163.663H199.288V162.605C198.718 162.99 198.105 163.322 197.449 163.6Z" fill="#646377"/>
<path fill-rule="evenodd" clip-rule="evenodd" d="M217.436 141.826C218.41 141.327 219.407 141.077 220.42 141.077C221.781 141.077 222.916 141.353 223.819 141.91C224.539 142.354 225.196 142.937 225.789 143.659C226.524 142.987 227.418 142.414 228.469 141.941C229.748 141.365 231.143 141.077 232.652 141.077C233.915 141.077 235.029 141.319 235.991 141.804C236.952 142.289 237.742 142.959 238.354 143.81C238.953 144.644 239.402 145.609 239.699 146.702C239.992 147.781 240.139 148.944 240.139 150.191V163.664H234.023V150.191C234.023 149.352 233.726 148.647 233.115 148.04C232.54 147.445 231.834 147.153 230.965 147.153C230.094 147.153 229.389 147.445 228.807 148.047C228.203 148.647 227.907 149.352 227.907 150.191V163.664H221.791V150.191C221.791 149.351 221.494 148.646 220.876 148.032C220.593 147.727 220.273 147.508 219.913 147.369C219.538 147.225 219.146 147.153 218.733 147.153C217.833 147.153 217.114 147.446 216.532 148.047C215.928 148.647 215.632 149.352 215.632 150.191V163.664H209.516V141.663H215.632V142.943C216.214 142.517 216.815 142.145 217.436 141.826Z" fill="#646377"/>
<path fill-rule="evenodd" clip-rule="evenodd" d="M252.332 141.742C253.464 141.298 254.753 141.077 256.196 141.077C257.815 141.077 259.314 141.378 260.69 141.98C262.061 142.581 263.251 143.411 264.256 144.468C265.258 145.522 266.04 146.752 266.598 148.154C267.157 149.557 267.437 151.061 267.437 152.663C267.437 154.238 267.157 155.728 266.598 157.131C266.04 158.533 265.258 159.763 264.256 160.818C263.251 161.874 262.061 162.704 260.69 163.305C259.314 163.907 257.815 164.208 256.196 164.208C254.4 164.208 252.815 163.869 251.447 163.189L251.012 162.973L253.206 157.549L253.699 157.753C254.308 158.006 254.999 158.132 255.774 158.132C256.522 158.132 257.228 157.998 257.896 157.73C258.561 157.463 259.163 157.063 259.703 156.526C260.786 155.45 261.321 154.173 261.321 152.663C261.321 151.127 260.786 149.835 259.712 148.768C258.572 147.687 257.268 147.153 255.774 147.153C254.226 147.153 252.926 147.685 251.844 148.76C250.762 149.835 250.227 151.126 250.227 152.663V171.346H244.111V141.621H250.227V142.804C250.869 142.395 251.57 142.041 252.332 141.742Z" fill="#646377"/>
<path fill-rule="evenodd" clip-rule="evenodd" d="M118.301 146.522L119.3 150.425H118.84H106.739H105.929V163.664H101.942V133.283H122.33V137.185H105.929V146.522H118.301Z" fill="#646377"/>
<path fill-rule="evenodd" clip-rule="evenodd" d="M125.844 163.663V141.663H129.711V163.663H125.844Z" fill="#646377"/>
<path fill-rule="evenodd" clip-rule="evenodd" d="M125.844 133.282H129.711V137.173H125.844V133.282Z" fill="#646377"/>
<path fill-rule="evenodd" clip-rule="evenodd" d="M139.232 143.204C140.217 142.595 140.923 142.289 141.921 141.921C142.918 141.553 144.099 141.349 145.242 141.349C146.665 141.349 147.949 141.611 149.1 142.137C150.255 142.665 151.24 143.389 152.062 144.314C152.892 145.249 153.532 146.334 153.985 147.576C154.44 148.825 154.668 150.162 154.668 151.592V163.699H150.636V151.592C150.636 149.815 149.993 148.315 148.721 147.13C147.52 145.943 146.02 145.333 144.299 145.333C142.54 145.333 141.027 145.946 139.804 147.154C138.581 148.361 137.961 149.856 137.961 151.592V163.699H137.597H134.293H133.929V141.647H137.961V144.159C138.367 143.804 138.789 143.479 139.232 143.204Z" fill="#646377"/>
<path fill-rule="evenodd" clip-rule="evenodd" d="M56.5047 122.237V143.823L50.3298 137.625L38.2167 149.815H32.5C32.5001 135.69 42.9584 124.024 56.5047 122.237Z" fill="#646377"/>
<path fill-rule="evenodd" clip-rule="evenodd" d="M60.1286 177.631L60.1286 171.815L48.0286 159.638L54.2092 153.435H32.7317C34.4939 167.087 46.0882 177.631 60.1286 177.631Z" fill="#646377"/>
<path fill-rule="evenodd" clip-rule="evenodd" d="M87.7574 149.815H81.917L69.8197 161.99L63.6909 155.839V177.402C77.2672 175.642 87.7573 163.962 87.7574 149.815Z" fill="#646377"/>
<path fill-rule="evenodd" clip-rule="evenodd" d="M72.1668 140.05L60.1287 127.936V122C74.1888 122 85.796 132.574 87.5329 146.253H65.9863L72.1668 140.05Z" fill="#646377"/>
</svg>
