<svg width="300" height="300" viewBox="0 0 300 300" fill="none" xmlns="http://www.w3.org/2000/svg">
<rect width="300" height="300" fill="#FAFAFA"/>
<path fill-rule="evenodd" clip-rule="evenodd" d="M203.246 129.098V175.441H173.602L203.246 129.098Z" fill="#646377"/>
<path fill-rule="evenodd" clip-rule="evenodd" d="M97.01 174.822H126.893V142.089L149.988 174.822L202.966 92.3965H170.059L149.988 123.136L128.324 92.3965H97.01V174.822Z" fill="#646377"/>
<path fill-rule="evenodd" clip-rule="evenodd" d="M96.7538 207.311H101.39V197.559L105.733 204.19H105.831L110.198 197.51V207.311H114.907V190.245H109.905L105.831 196.852L101.756 190.245H96.7538V207.311ZM116.567 207.311L123.838 190.123H128.401L135.672 207.311H130.597L129.352 204.263H122.764L121.544 207.311H116.567ZM124.155 200.582H127.986L126.083 195.73L124.155 200.582ZM140.454 207.433L133.525 190.245H138.819L142.699 201.045L146.579 190.245H151.776L144.846 207.433H140.454ZM153.435 207.311H167.294V203.288H158.12V200.582H166.318V196.852H158.12V194.268H167.172V190.245H153.435V207.311ZM169.71 207.311H174.394V197.949L181.69 207.311H185.838V190.245H181.153V199.266L174.126 190.245H169.71V207.311ZM195.574 207.603C199.722 207.603 202.479 205.531 202.479 202.045C202.479 198.802 200.039 197.535 196.11 196.681C193.744 196.145 193.158 195.804 193.158 195.024C193.158 194.365 193.719 193.878 194.866 193.878C196.379 193.878 198.087 194.463 199.648 195.56L202.015 192.22C200.161 190.733 197.892 189.953 194.988 189.953C190.889 189.953 188.376 192.244 188.376 195.414C188.376 198.973 191.182 199.997 194.817 200.826C197.135 201.362 197.696 201.752 197.696 202.459C197.696 203.239 197.013 203.678 195.744 203.678C193.768 203.678 191.889 202.971 190.206 201.63L187.57 204.775C189.669 206.652 192.548 207.603 195.574 207.603Z" fill="#646377"/>
</svg>
