<svg width="300" height="300" viewBox="0 0 300 300" fill="none" xmlns="http://www.w3.org/2000/svg">
<rect y="-0.000488281" width="300" height="300" fill="#FAFAFA"/>
<path fill-rule="evenodd" clip-rule="evenodd" d="M66.5874 206.784V188.702C66.5874 187.657 66.9159 186.83 67.573 186.222C68.2301 185.613 69.037 185.309 69.9938 185.309C70.9506 185.309 71.7603 185.616 72.4232 186.23C73.086 186.845 73.4174 187.668 73.4174 188.702V203.374H77.429V188.702C77.429 187.668 77.7604 186.845 78.4232 186.23C79.0861 185.616 79.8959 185.309 80.8526 185.309C81.7864 185.309 82.5875 185.619 83.2561 186.239C83.9247 186.859 84.259 187.68 84.259 188.702V203.374H88.2533V188.702C88.2533 187.668 88.5876 186.845 89.2562 186.23C89.9247 185.616 90.7374 185.309 91.6942 185.309C92.651 185.309 93.4579 185.613 94.115 186.222C94.772 186.83 95.1006 187.657 95.1006 188.702V206.784C95.1006 209.091 93.9651 210.245 91.6942 210.245H69.9938C67.7228 210.245 66.5874 209.091 66.5874 206.784ZM97.0026 207.145C97.0026 206.514 97.0833 206.055 97.2447 205.768L105.683 187.358C106.006 186.67 106.397 186.156 106.859 185.817C107.32 185.478 107.988 185.309 108.864 185.309C109.717 185.309 110.377 185.484 110.844 185.834C111.311 186.185 111.689 186.704 111.977 187.393L119.671 205.768C119.833 206.089 119.913 206.548 119.913 207.145C119.913 208.052 119.539 208.819 118.79 209.444C118.04 210.07 117.187 210.383 116.23 210.383C114.743 210.383 113.729 209.642 113.187 208.161L112.184 205.44H104.818L103.729 208.161C103.406 208.896 102.977 209.45 102.441 209.823C101.905 210.196 101.331 210.383 100.72 210.383C99.7519 210.383 98.8902 210.082 98.1352 209.479C97.3801 208.876 97.0026 208.098 97.0026 207.145ZM106.98 200.05H110.317L108.795 195.573L106.98 200.05ZM122.092 206.922V188.874C122.092 186.566 123.199 185.412 125.412 185.412H132.432C135.349 185.412 137.525 186.113 138.96 187.513C140.395 188.914 141.112 190.883 141.112 193.42C141.112 195.728 140.487 197.634 139.236 199.138C137.986 200.642 136.305 201.394 134.196 201.394H133.003C131.919 201.394 131.141 201.141 130.669 200.636C130.196 200.131 129.96 199.407 129.96 198.466C129.96 197.605 130.196 196.953 130.669 196.511C131.141 196.069 131.775 195.848 132.571 195.848H133.141C134.386 195.848 135.009 195.228 135.009 193.989C135.009 192.645 134.242 191.974 132.709 191.974H128.991V206.853C128.991 209.206 127.85 210.383 125.568 210.383C123.251 210.383 122.092 209.229 122.092 206.922ZM142.945 206.973V188.547C142.945 187.536 143.259 186.744 143.888 186.17C144.516 185.596 145.285 185.309 146.196 185.309C147.153 185.309 147.948 185.593 148.582 186.162C149.216 186.73 149.533 187.525 149.533 188.547V196.589L155.983 187.031C156.744 185.883 157.77 185.309 159.061 185.309C159.937 185.309 160.692 185.619 161.326 186.239C161.96 186.859 162.277 187.68 162.277 188.702V207.145C162.277 208.167 161.968 208.962 161.352 209.53C160.735 210.099 159.971 210.383 159.061 210.383C158.104 210.383 157.309 210.099 156.675 209.53C156.04 208.962 155.723 208.167 155.723 207.145V199.069L149.326 208.626C148.553 209.797 147.51 210.383 146.196 210.383C145.32 210.383 144.559 210.073 143.914 209.453C143.268 208.833 142.945 208.006 142.945 206.973ZM165.147 206.973V188.702C165.147 187.657 165.476 186.83 166.133 186.222C166.79 185.613 167.608 185.309 168.588 185.309C169.545 185.309 170.355 185.616 171.018 186.23C171.68 186.845 172.012 187.668 172.012 188.702V194.557L177.649 186.618C177.995 186.113 178.346 185.768 178.703 185.585C179.061 185.401 179.591 185.309 180.294 185.309C181.401 185.309 182.274 185.628 182.914 186.265C183.554 186.902 183.874 187.726 183.874 188.736C183.874 189.655 183.614 190.372 183.095 190.889L177.32 197.364L183.13 204.786C183.672 205.463 183.943 206.175 183.943 206.922C183.943 207.978 183.617 208.819 182.966 209.444C182.314 210.07 181.453 210.383 180.381 210.383C179.239 210.383 178.352 209.935 177.718 209.04L172.012 201.118V206.973C172.012 208.052 171.683 208.89 171.026 209.487C170.369 210.084 169.556 210.383 168.588 210.383C167.597 210.383 166.775 210.084 166.124 209.487C165.473 208.89 165.147 208.052 165.147 206.973ZM185.776 197.829C185.776 196.107 186.11 194.462 186.778 192.895C187.447 191.328 188.349 189.982 189.485 188.857C190.62 187.732 191.974 186.836 193.548 186.17C195.121 185.504 196.773 185.171 198.502 185.171C200.231 185.171 201.882 185.504 203.456 186.17C205.029 186.836 206.387 187.732 207.528 188.857C208.669 189.982 209.574 191.328 210.243 192.895C210.911 194.462 211.245 196.107 211.245 197.829C211.245 199.551 210.911 201.196 210.243 202.763C209.574 204.33 208.669 205.676 207.528 206.801C206.387 207.926 205.029 208.822 203.456 209.487C201.882 210.153 200.231 210.486 198.502 210.486C196.773 210.486 195.121 210.153 193.548 209.487C191.974 208.822 190.62 207.926 189.485 206.801C188.349 205.676 187.447 204.33 186.778 202.763C186.11 201.196 185.776 199.551 185.776 197.829ZM192.761 197.932C192.761 199.528 193.323 200.88 194.447 201.988C195.571 203.096 196.934 203.65 198.536 203.65C200.139 203.65 201.505 203.096 202.634 201.988C203.764 200.88 204.329 199.528 204.329 197.932C204.329 196.336 203.761 194.973 202.626 193.842C201.49 192.711 200.127 192.146 198.536 192.146C196.946 192.146 195.585 192.711 194.456 193.842C193.326 194.973 192.761 196.336 192.761 197.932ZM213.684 206.749V188.874C213.684 186.566 214.721 185.412 216.796 185.412H227.672C228.79 185.412 229.761 185.728 230.586 186.36C231.41 186.991 232.015 187.783 232.401 188.736C232.787 189.689 232.981 190.722 232.981 191.836C232.981 193.317 232.666 194.577 232.038 195.616C231.41 196.655 230.485 197.312 229.263 197.588C230.496 197.725 231.496 198.386 232.263 199.568C233.03 200.751 233.413 202.169 233.413 203.822C233.413 205.705 232.897 207.246 231.865 208.446C230.834 209.645 229.28 210.245 227.205 210.245H216.969C214.779 210.245 213.684 209.08 213.684 206.749ZM220.272 203.374H225.407C225.868 203.374 226.22 203.233 226.462 202.952C226.704 202.671 226.825 202.341 226.825 201.962C226.825 201.572 226.704 201.239 226.462 200.963C226.22 200.688 225.868 200.55 225.407 200.55H220.272V203.374ZM220.272 195.538H225.407C225.857 195.538 226.205 195.369 226.453 195.03C226.701 194.692 226.825 194.287 226.825 193.816C226.825 193.415 226.704 193.067 226.462 192.774C226.22 192.482 225.868 192.335 225.407 192.335H220.272V195.538Z" fill="#646377"/>
<path fill-rule="evenodd" clip-rule="evenodd" d="M141.969 167.842C142.267 167.903 143.419 168.349 144.408 169.07C146.416 170.534 148.874 173.134 150 175.961C151.258 173.183 153.741 170.578 155.846 169.049C156.938 168.255 158.19 167.751 158.56 167.663C176.092 163.485 189.721 147.749 189.721 129.082C189.721 107.228 171.937 89.5127 150 89.5127C128.063 89.5127 110.279 107.228 110.279 129.082C110.279 148.195 123.882 164.143 141.969 167.842ZM117.071 130.58C116.082 130.554 115.302 129.732 115.327 128.744C115.666 115.641 123.396 103.243 136.205 97.5392C137.109 97.137 138.167 97.5433 138.569 98.4466C138.972 99.35 138.565 100.408 137.662 100.811C126.155 105.934 119.211 117.067 118.907 128.836C118.882 129.825 118.059 130.605 117.071 130.58ZM132.157 125.025C132.157 123.676 132.658 122.503 133.66 121.506L139.674 115.611C140.883 114.409 142.135 113.808 143.432 113.808C144.597 113.808 145.514 114.237 146.185 115.095C146.856 115.952 147.191 117.144 147.191 118.669V141.608C147.191 142.987 146.778 144.057 145.953 144.82C145.127 145.582 144.081 145.963 142.813 145.963C141.59 145.963 140.558 145.578 139.718 144.809C138.878 144.039 138.458 142.972 138.458 141.608V128.808C137.736 129.16 136.999 129.336 136.247 129.336C135.068 129.336 134.091 128.911 133.318 128.06C132.544 127.21 132.157 126.198 132.157 125.025ZM149.402 125.025C149.402 123.676 149.903 122.503 150.905 121.506L156.919 115.611C158.128 114.409 159.38 113.808 160.677 113.808C161.842 113.808 162.759 114.237 163.43 115.095C164.101 115.952 164.436 117.144 164.436 118.669V141.608C164.436 142.987 164.023 144.057 163.198 144.82C162.372 145.582 161.326 145.963 160.058 145.963C158.835 145.963 157.803 145.578 156.963 144.809C156.123 144.039 155.703 142.972 155.703 141.608V128.808C154.981 129.16 154.244 129.336 153.492 129.336C152.313 129.336 151.336 128.911 150.563 128.06C149.789 127.21 149.402 126.198 149.402 125.025ZM147.998 96.2708C148.128 97.2523 147.438 98.1532 146.456 98.2829C145.364 98.4274 144.272 98.6302 143.185 98.8931C142.223 99.1258 141.254 98.5344 141.021 97.5721C140.789 96.6098 141.38 95.641 142.342 95.4083C143.553 95.1155 144.769 94.8895 145.986 94.7286C146.968 94.5988 147.869 95.2893 147.998 96.2708Z" fill="#646377"/>
</svg>
