<svg width="300" height="300" viewBox="0 0 300 300" fill="none" xmlns="http://www.w3.org/2000/svg">
<rect width="300" height="300" fill="#FAFAFA"/>
<path d="M125.43 96.6646H154.749" stroke="#646377" stroke-width="5.85307"/>
<path d="M140.383 93.7339V140.622" stroke="#646377" stroke-width="5.85307"/>
<path fill-rule="evenodd" clip-rule="evenodd" d="M159.776 140.622L148.885 123.039L153.723 119.737L166.477 140.622H159.776Z" fill="#646377"/>
<path d="M119.566 84.9424H166.477C171.335 84.9424 175.273 88.8785 175.273 93.734V140.622C175.273 145.478 171.335 149.414 166.477 149.414H128.362V105.456" stroke="#646377" stroke-width="5.85307"/>
<path d="M160.613 93.7339H162.079C164.508 93.7339 166.477 95.702 166.477 98.1297V118.643C166.477 121.071 164.508 123.039 162.079 123.039H148.886V117.178H160.613V99.5949V99.0088V98.1297V93.7339Z" fill="#646377"/>
<path d="M75.1657 215.058H76.9953V204.909H75.1657V209.038H71.7201V204.909H69.8906V215.058H71.7201V210.715H75.1657V215.058Z" fill="#646377"/>
<path fill-rule="evenodd" clip-rule="evenodd" d="M85.8259 215.058H82.2431C81.3131 215.058 80.5813 214.311 80.5813 213.381V206.585C80.5813 205.655 81.3131 204.909 82.2431 204.909H85.8259C86.7559 204.909 87.503 205.655 87.503 206.585V213.381C87.503 214.311 86.7559 215.058 85.8259 215.058ZM85.2619 213.382C85.4906 213.382 85.6735 213.214 85.6735 212.986V206.981C85.6735 206.753 85.4906 206.585 85.2619 206.585H82.8225C82.5938 206.585 82.4109 206.753 82.4109 206.981V212.986C82.4109 213.214 82.5938 213.382 82.8225 213.382H85.2619Z" fill="#646377"/>
<path d="M94.7866 213.32H96.3417L98.2779 208.993V215.058H100.047V204.909H98.2779L95.5641 211.126L92.8503 204.909H91.0818V215.058H92.8503V208.993L94.7866 213.32Z" fill="#646377"/>
<path d="M103.71 215.058H109.869V213.381H105.539V210.776H109.488V209.099H105.539V206.585H109.869V204.909H103.71V215.058Z" fill="#646377"/>
<path fill-rule="evenodd" clip-rule="evenodd" d="M119.963 206.509C119.734 206.509 119.551 206.676 119.551 206.905V208.627C119.551 208.84 119.704 209.023 119.917 209.023H126.031V210.623H124.11V213.458C124.11 214.341 123.408 215.058 122.524 215.058H119.338C118.438 215.058 117.722 214.341 117.722 213.458V210.867C117.722 210.273 118.027 209.953 118.438 209.77C118.088 209.572 117.798 209.221 117.798 208.764V206.509C117.798 205.625 118.514 204.909 119.414 204.909H121.503C122.387 204.909 123.088 205.625 123.088 206.509V207.499H121.365V206.905C121.365 206.676 121.183 206.509 120.954 206.509H119.963ZM119.978 210.624C119.75 210.624 119.475 210.791 119.475 211.02V213.062C119.475 213.291 119.658 213.458 119.887 213.458H121.975C122.204 213.458 122.387 213.291 122.387 213.062V210.624H119.978Z" fill="#646377"/>
<path d="M137.824 212.985C137.824 213.214 137.641 213.381 137.412 213.381H135.125C134.897 213.381 134.714 213.214 134.714 212.985V206.981C134.714 206.753 134.897 206.585 135.125 206.585H137.412C137.641 206.585 137.824 206.753 137.824 206.981V208.337H139.654V206.585C139.654 205.655 138.906 204.909 137.976 204.909H134.546C133.616 204.909 132.884 205.655 132.884 206.585V213.381C132.884 214.311 133.616 215.058 134.546 215.058H137.976C138.906 215.058 139.654 214.311 139.654 213.381V211.538H137.824V212.985Z" fill="#646377"/>
<path fill-rule="evenodd" clip-rule="evenodd" d="M148.33 215.058H144.748C143.818 215.058 143.086 214.311 143.086 213.381V206.585C143.086 205.655 143.818 204.909 144.748 204.909H148.33C149.26 204.909 150.007 205.655 150.007 206.585V213.381C150.007 214.311 149.26 215.058 148.33 215.058ZM147.766 213.382C147.995 213.382 148.178 213.214 148.178 212.986V206.981C148.178 206.753 147.995 206.585 147.766 206.585H145.327C145.098 206.585 144.915 206.753 144.915 206.981V212.986C144.915 213.214 145.098 213.382 145.327 213.382H147.766Z" fill="#646377"/>
<path d="M157.291 213.32H158.846L160.782 208.993V215.058H162.551V204.909H160.782L158.069 211.126L155.355 204.909H153.586V215.058H155.355V208.993L157.291 213.32Z" fill="#646377"/>
<path d="M169.919 213.32H171.474L173.41 208.993V215.058H175.179V204.909H173.41L170.697 211.126L167.983 204.909H166.214V215.058H167.983V208.993L169.919 213.32Z" fill="#646377"/>
<path d="M178.842 215.058H185.002V213.381H180.672V210.776H184.621V209.099H180.672V206.585H185.002V204.909H178.842V215.058Z" fill="#646377"/>
<path fill-rule="evenodd" clip-rule="evenodd" d="M196.042 215.058H194.03L192.109 211.141H190.188V215.058H188.358V204.909H193.679C194.609 204.909 195.356 205.655 195.356 206.585V209.465C195.356 210.257 194.823 210.913 194.091 211.096L196.042 215.058ZM193.115 209.465C193.344 209.465 193.527 209.298 193.527 209.069V206.981C193.527 206.753 193.344 206.585 193.115 206.585H190.188V209.465H193.115Z" fill="#646377"/>
<path d="M203.959 212.985C203.959 213.214 203.776 213.381 203.547 213.381H201.26C201.032 213.381 200.849 213.214 200.849 212.985V206.981C200.849 206.753 201.032 206.585 201.26 206.585H203.547C203.776 206.585 203.959 206.753 203.959 206.981V208.337H205.789V206.585C205.789 205.655 205.041 204.909 204.111 204.909H200.681C199.751 204.909 199.019 205.655 199.019 206.585V213.381C199.019 214.311 199.751 215.058 200.681 215.058H204.111C205.041 215.058 205.789 214.311 205.789 213.381V211.538H203.959V212.985Z" fill="#646377"/>
<path d="M211.126 204.909H209.297V215.058H211.126V204.909Z" fill="#646377"/>
<path fill-rule="evenodd" clip-rule="evenodd" d="M217.34 204.909H219.032L222.462 215.058H220.617L219.886 212.848H216.455L215.754 215.058H213.909L217.34 204.909ZM219.352 211.218L218.178 207.347L217.004 211.218H219.352Z" fill="#646377"/>
<path d="M225.248 215.058H231.224V213.381H227.077V204.909H225.248V215.058Z" fill="#646377"/>
<path d="M68.6108 138.278H74.7702V136.602H70.4404V133.996H74.3891V132.32H70.4404V129.805H74.7702V128.129H68.6108V138.278Z" fill="#646377"/>
<path d="M82.7463 134.316C82.9903 134.377 83.158 134.514 83.158 134.743V136.205C83.158 136.434 82.975 136.602 82.7463 136.602H80.5966C80.3679 136.602 80.185 136.434 80.185 136.205V135.139L78.3555 135.443V136.602C78.3555 137.531 79.1025 138.278 80.0325 138.278H83.3257C84.2557 138.278 84.9875 137.531 84.9875 136.602V134.331C84.9875 133.402 84.2709 132.929 83.4019 132.685C82.2889 132.365 81.5266 132.167 80.6271 131.908C80.3984 131.847 80.2155 131.695 80.2155 131.466V130.201C80.2155 129.973 80.3984 129.805 80.6271 129.805H82.7158C82.9445 129.805 83.1275 129.973 83.1275 130.201V131.299L84.957 130.994V129.805C84.957 128.876 84.2099 128.129 83.2799 128.129H80.0478C79.1178 128.129 78.386 128.876 78.386 129.805V131.893C78.386 132.822 79.1178 133.264 80.0173 133.539C81.1455 133.874 81.5876 133.996 82.7463 134.316Z" fill="#646377"/>
<path d="M87.8911 129.805H90.6506V138.278H92.4802V129.805H95.2397V128.129H87.8911V129.805Z" fill="#646377"/>
<path fill-rule="evenodd" clip-rule="evenodd" d="M103.327 138.278H98.3721V128.129H103.327C104.257 128.129 105.004 128.876 105.004 129.805V136.602C105.004 137.531 104.257 138.278 103.327 138.278ZM102.763 136.601C102.992 136.601 103.175 136.434 103.175 136.205V130.201C103.175 129.973 102.992 129.805 102.763 129.805H100.202V136.601H102.763Z" fill="#646377"/>
<path d="M198.627 128.129L196.036 128.967V130.719L198.627 129.881V138.278H200.381V128.129H198.627Z" fill="#646377"/>
<path fill-rule="evenodd" clip-rule="evenodd" d="M210.201 129.729V136.678C210.201 137.562 209.484 138.278 208.585 138.278H205.795C204.91 138.278 204.209 137.562 204.209 136.678V135.84L205.962 135.535V136.282C205.962 136.51 206.145 136.678 206.374 136.678H208.036C208.265 136.678 208.447 136.51 208.447 136.282V133.523C207.624 133.782 206.557 133.965 205.81 133.965C204.773 133.965 204.194 133.249 204.194 132.365V129.729C204.194 128.845 204.91 128.129 205.81 128.129H208.615C209.499 128.129 210.201 128.845 210.201 129.729ZM208.036 131.999C208.326 131.908 208.448 131.725 208.448 131.497V130.125C208.448 129.897 208.265 129.729 208.036 129.729H206.359C206.13 129.729 205.947 129.897 205.947 130.125V131.908C205.947 132.137 206.1 132.304 206.359 132.304C206.74 132.304 207.67 132.121 208.036 131.999Z" fill="#646377"/>
<path fill-rule="evenodd" clip-rule="evenodd" d="M219.948 129.729V136.678C219.948 137.562 219.231 138.278 218.332 138.278H215.542C214.657 138.278 213.956 137.562 213.956 136.678V135.84L215.709 135.535V136.282C215.709 136.51 215.892 136.678 216.121 136.678H217.783C218.012 136.678 218.195 136.51 218.195 136.282V133.523C217.371 133.782 216.304 133.965 215.557 133.965C214.52 133.965 213.941 133.249 213.941 132.365V129.729C213.941 128.845 214.657 128.129 215.557 128.129H218.362C219.247 128.129 219.948 128.845 219.948 129.729ZM217.783 131.999C218.073 131.908 218.195 131.725 218.195 131.497V130.125C218.195 129.897 218.012 129.729 217.783 129.729H216.106C215.877 129.729 215.694 129.897 215.694 130.125V131.908C215.694 132.137 215.847 132.304 216.106 132.304C216.487 132.304 217.417 132.121 217.783 131.999Z" fill="#646377"/>
<path fill-rule="evenodd" clip-rule="evenodd" d="M225.35 138.278H228.292C229.192 138.278 229.908 137.562 229.908 136.678V134.179C229.908 133.584 229.603 133.264 229.192 133.081C229.542 132.883 229.832 132.533 229.832 132.076V129.729C229.832 128.845 229.116 128.129 228.216 128.129H225.426C224.542 128.129 223.84 128.845 223.84 129.729V132.076C223.84 132.533 224.115 132.883 224.465 133.066C224.054 133.264 223.764 133.584 223.764 134.179V136.678C223.764 137.562 224.465 138.278 225.35 138.278ZM228.155 136.281C228.155 136.51 227.972 136.678 227.743 136.678H225.929C225.7 136.678 225.517 136.51 225.517 136.281V134.331C225.517 134.102 225.7 133.935 225.929 133.935H227.743C227.972 133.935 228.155 134.102 228.155 134.331V136.281ZM227.713 132.335C227.926 132.319 228.079 132.152 228.079 131.938V130.125C228.079 129.897 227.896 129.729 227.667 129.729H226.005C225.777 129.729 225.594 129.897 225.594 130.125V131.938C225.594 132.167 225.777 132.335 226.005 132.335H227.713Z" fill="#646377"/>
<path fill-rule="evenodd" clip-rule="evenodd" d="M40.9907 169.166H44.509V169.168H54.6532C56.6563 169.168 58.2653 170.777 58.2653 172.779V187.417C58.2653 189.419 56.6563 191.028 54.6532 191.028H43.3571V173.445H40.9907V169.166ZM53.5039 173.829C53.5039 173.632 53.3725 173.5 53.1754 173.5H48.1185V186.695H53.1754C53.3725 186.695 53.5039 186.563 53.5039 186.366V173.829ZM77.3069 191.027H63.6793V169.168H77.274V173.5H68.4407V177.668H76.5845V182.001H68.4407V186.694H77.3069V191.027ZM98.1967 169.168H93.4681L89.232 184.036L84.996 169.168H80.2674L86.8677 191.027H91.5963L98.1967 169.168ZM115.45 191.027H101.822V169.168H115.417V173.5H106.584V177.668H114.727V182.001H106.584V186.694H115.45V191.027ZM120.38 191.027H133.844V186.694H125.142V169.168H120.38V191.027ZM153.243 172.778V187.417C153.243 189.419 151.634 191.027 149.631 191.027H141.553C139.55 191.027 137.941 189.419 137.941 187.417V172.778C137.941 170.776 139.55 169.168 141.553 169.168H149.631C151.634 169.168 153.243 170.776 153.243 172.778ZM148.482 186.366V173.829C148.482 173.632 148.35 173.5 148.153 173.5H143.031C142.834 173.5 142.702 173.632 142.702 173.829V186.366C142.702 186.563 142.834 186.695 143.031 186.695H148.153C148.35 186.695 148.482 186.563 148.482 186.366ZM158.652 173.444V191.027H163.413V183.019H170.375C172.378 183.019 173.987 181.41 173.987 179.408V172.778C173.987 170.776 172.378 169.168 170.375 169.168H159.528V169.166H156.303V173.444H158.652ZM168.93 173.5C169.127 173.5 169.259 173.632 169.259 173.829V178.358C169.259 178.555 169.127 178.686 168.93 178.686H163.413V173.5H168.93ZM193.641 179.539L190.16 187.646H186.154L182.673 179.539V191.027H178.076V169.168H182.673L188.157 182.264L193.641 169.168H198.238V191.027H193.641V179.539ZM203.818 191.027H217.445V186.694H208.579V182.001H216.723V177.668H208.579V173.5H217.412V169.168H203.818V191.027ZM234.263 169.168H238.86V191.027H234.263L226.973 178.292V191.027H222.376V169.168H226.973L234.263 181.968V169.168ZM242.952 173.5H248.6V191.027H253.361V173.5H259.009V169.168H242.952V173.5Z" fill="#646377"/>
</svg>
