<svg width="301" height="301" viewBox="0 0 301 301" fill="none" xmlns="http://www.w3.org/2000/svg">
<rect x="0.876221" y="0.970215" width="300" height="300" fill="#FAFAFA"/>
<path fill-rule="evenodd" clip-rule="evenodd" d="M86.7657 195.206C111.266 195.206 131.128 175.401 131.128 150.97C131.128 126.539 111.266 106.734 86.7657 106.734C62.2653 106.734 42.4038 126.539 42.4038 150.97C42.4038 175.401 62.2653 195.206 86.7657 195.206Z" fill="#646377"/>
<path fill-rule="evenodd" clip-rule="evenodd" d="M61.6917 171.013V130.913H71.662C74.7801 130.913 77.128 131.761 78.7057 133.458C80.2834 135.154 81.0722 137.615 81.0722 140.84V161.114C81.0722 164.339 80.2834 166.795 78.7057 168.482C77.128 170.169 74.7801 171.013 71.662 171.013H61.6917ZM67.9932 165.28H71.55C72.5956 165.28 73.3938 164.977 73.9446 164.372C74.4954 163.766 74.7708 162.773 74.7708 161.393V140.533C74.7708 139.153 74.4954 138.16 73.9446 137.555C73.3938 136.949 72.5956 136.646 71.55 136.646H67.9932V165.28ZM85.0213 171.013V130.913H93.7873L98.4364 159.38L102.749 130.913H111.516V171.013H105.55V142.266L101.181 171.013H95.2157L90.5106 142.658V171.013H85.0213Z" fill="#FAFAFA"/>
<path fill-rule="evenodd" clip-rule="evenodd" d="M142.193 146.869V122.518H148.246C150.139 122.518 151.565 123.033 152.523 124.063C153.481 125.093 153.959 126.587 153.959 128.546V140.857C153.959 142.816 153.481 144.307 152.523 145.332C151.565 146.357 150.139 146.869 148.246 146.869H142.193ZM146.019 143.388H148.178C148.813 143.388 149.298 143.204 149.632 142.836C149.966 142.468 150.134 141.865 150.134 141.027V128.359C150.134 127.521 149.966 126.919 149.632 126.551C149.298 126.183 148.813 125.999 148.178 125.999H146.019V143.388ZM155.354 146.869L159.248 122.518H164.859L168.753 146.869H164.893L164.23 142.454H159.52L158.857 146.869H155.354ZM160.013 139.142H163.703L161.866 126.831L160.013 139.142ZM170.487 146.869V122.518H175.282L179.227 137.105V122.518H182.645V146.869H178.7L173.939 129.242V146.869H170.487ZM185.382 146.869V122.518H189.208V146.869H185.382ZM191.997 146.869V122.518H195.823V146.869H191.997ZM198.611 146.869V122.518H202.437V143.388H208.745V146.869H198.611ZM215.768 146.869V122.518H221.09L223.913 139.805L226.531 122.518H231.853V146.869H228.232V129.412L225.579 146.869H221.957L219.101 129.65V146.869H215.768ZM233.622 146.869L237.515 122.518H243.127L247.02 146.869H243.161L242.498 142.454H237.788L237.124 146.869H233.622ZM238.281 139.142H241.97L240.134 126.831L238.281 139.142ZM245.83 122.518H249.843L252.768 133.623L255.692 122.518H259.348L254.502 138.803V146.869H250.676V138.803L245.83 122.518ZM141.598 172.113V170.619H145.22V172.351C145.22 173.936 145.883 174.728 147.209 174.728C148.535 174.728 149.199 173.936 149.199 172.351C149.199 171.672 149.06 171.032 148.782 170.432C148.504 169.832 148.147 169.291 147.711 168.81C147.274 168.329 146.79 167.848 146.257 167.367C145.724 166.886 145.189 166.382 144.65 165.855C144.112 165.329 143.624 164.772 143.188 164.183C142.751 163.594 142.394 162.892 142.117 162.077C141.839 161.262 141.7 160.385 141.7 159.445C141.7 157.486 142.179 155.978 143.137 154.919C144.095 153.861 145.497 153.332 147.345 153.332C149.193 153.332 150.596 153.861 151.554 154.919C152.511 155.978 152.99 157.486 152.99 159.445V160.226H149.369V159.207C149.369 157.611 148.728 156.813 147.447 156.813C146.812 156.813 146.336 157.003 146.019 157.382C145.701 157.761 145.543 158.37 145.543 159.207C145.543 159.887 145.682 160.526 145.959 161.126C146.237 161.726 146.594 162.267 147.031 162.748C147.467 163.229 147.952 163.71 148.484 164.191C149.017 164.672 149.55 165.176 150.083 165.703C150.616 166.229 151.1 166.787 151.537 167.375C151.973 167.964 152.33 168.666 152.608 169.481C152.885 170.296 153.024 171.173 153.024 172.113C153.024 174.072 152.537 175.58 151.562 176.639C150.587 177.697 149.17 178.226 147.311 178.226C145.452 178.226 144.035 177.697 143.06 176.639C142.085 175.58 141.598 174.072 141.598 172.113V172.113ZM154.079 157.084V153.603H165.93V157.084H161.917V177.955H158.091V157.084H154.079ZM167.426 172.147V153.603H171.252V172.385C171.252 173.97 171.915 174.762 173.242 174.762C174.557 174.762 175.214 173.97 175.214 172.385V153.603H178.836V172.147C178.836 174.105 178.351 175.614 177.382 176.672C176.413 177.731 174.999 178.26 173.14 178.26C171.28 178.26 169.864 177.731 168.889 176.672C167.914 175.614 167.426 174.105 167.426 172.147V172.147ZM181.454 177.955V153.603H187.508C189.401 153.603 190.826 154.118 191.784 155.149C192.742 156.179 193.221 157.673 193.221 159.632V171.943C193.221 173.902 192.742 175.393 191.784 176.418C190.826 177.442 189.401 177.955 187.508 177.955H181.454ZM185.28 174.473H187.44C188.075 174.473 188.559 174.289 188.894 173.921C189.228 173.553 189.395 172.951 189.395 172.113V159.445C189.395 158.607 189.228 158.004 188.894 157.636C188.559 157.268 188.075 157.084 187.44 157.084H185.28V174.473ZM195.653 177.955V153.603H199.478V177.955H195.653ZM201.944 172.113V159.445C201.944 157.498 202.448 155.992 203.457 154.928C204.466 153.864 205.906 153.332 207.776 153.332C209.647 153.332 211.083 153.864 212.087 154.928C213.09 155.992 213.591 157.498 213.591 159.445V172.113C213.591 174.06 213.09 175.566 212.087 176.63C211.083 177.694 209.647 178.226 207.776 178.226C205.906 178.226 204.466 177.694 203.457 176.63C202.448 175.566 201.944 174.06 201.944 172.113V172.113ZM205.787 172.351C205.787 173.958 206.45 174.762 207.776 174.762C209.091 174.762 209.748 173.958 209.748 172.351V159.207C209.748 157.611 209.091 156.813 207.776 156.813C206.45 156.813 205.787 157.611 205.787 159.207V172.351Z" fill="#646377"/>
</svg>
