<svg width="300" height="300" viewBox="0 0 300 300" fill="none" xmlns="http://www.w3.org/2000/svg">
<rect width="300" height="300" fill="#FAFAFA"/>
<path d="M133.958 111.285L136.233 111.624L136.241 111.572L136.246 111.52L133.958 111.285ZM135.09 108.411L133.324 106.938L133.291 106.977L133.26 107.018L135.09 108.411ZM140.584 108.109L138.939 109.716L138.944 109.721L140.584 108.109ZM144.563 116.308L146.823 115.882L146.823 115.882L144.563 116.308ZM95.9419 163.992L96.7797 166.134L96.7797 166.134L95.9419 163.992ZM73.8452 158.551L75.5328 156.988L75.5316 156.987L73.8452 158.551ZM72.9426 153.354L74.882 154.59L74.8856 154.585L72.9426 153.354ZM76.6728 151.183L76.7603 153.481L76.8057 153.479L76.8511 153.476L76.6728 151.183ZM81.497 151.98L80.9212 154.207L80.9212 154.207L81.497 151.98ZM86.2323 152.556L86.709 154.806L86.7103 154.806L86.2323 152.556ZM86.7793 151.291L84.8989 152.616L84.9041 152.623L86.7793 151.291ZM75.0761 134.605L76.939 133.256L76.9389 133.256L75.0761 134.605ZM75.7599 117.74L77.5583 119.174L77.5637 119.167L75.7599 117.74ZM81.8662 112.371L83.183 114.257L83.1838 114.256L81.8662 112.371ZM97.1286 101.711L98.4309 103.607L98.4314 103.606L97.1286 101.711ZM105.933 97.9161L106.2 100.201L106.2 100.2L105.933 97.9161ZM119.489 103.615L121.315 102.217L121.314 102.216L119.489 103.615ZM127.011 113.158L125.208 114.587L125.211 114.59L127.011 113.158ZM130.652 117.603L132.547 116.3L132.492 116.219L132.43 116.144L130.652 117.603ZM130.994 118.042L129.266 119.56L129.334 119.638L129.409 119.709L130.994 118.042ZM132.867 119.142L133.702 121.285L133.708 121.283L132.867 119.142ZM133.719 117.069L136.002 117.348L136.008 117.294L136.012 117.24L133.719 117.069ZM133.749 114.799L131.45 114.866L131.451 114.887L131.452 114.908L133.749 114.799ZM140.584 132.593L142.458 133.927L142.458 133.927L140.584 132.593ZM136.246 111.52C136.311 110.889 136.547 110.294 136.92 109.804L133.26 107.018C132.369 108.188 131.82 109.586 131.67 111.051L136.246 111.52ZM136.856 109.885C137.357 109.284 137.75 109.18 137.925 109.17C138.082 109.161 138.435 109.201 138.939 109.716L142.229 106.502C140.999 105.243 139.407 104.473 137.651 104.578C135.914 104.682 134.426 105.616 133.324 106.938L136.856 109.885ZM138.944 109.721C140.605 111.412 141.816 114.154 142.303 116.735L146.823 115.882C146.223 112.7 144.707 109.023 142.224 106.497L138.944 109.721ZM95.104 161.85C90.7922 163.537 87.1579 163.59 84.042 162.664C80.8899 161.727 78.07 159.728 75.5328 156.988L72.1577 160.113C75.0738 163.262 78.5664 165.836 82.7314 167.074C86.9326 168.322 91.62 168.152 96.7797 166.134L95.104 161.85ZM75.5316 156.987C74.4854 155.858 74.6263 154.991 74.882 154.59L71.0033 152.117C69.2965 154.794 70.1485 157.947 72.1589 160.115L75.5316 156.987ZM74.8856 154.585C75.3159 153.905 76.0213 153.509 76.7603 153.481L76.5852 148.884C74.2984 148.971 72.2213 150.195 70.9997 152.123L74.8856 154.585ZM76.8511 153.476C78.0365 153.383 79.1117 153.739 80.9212 154.207L82.0727 149.753C80.7026 149.399 78.6528 148.722 76.4945 148.889L76.8511 153.476ZM80.9212 154.207C82.2453 154.549 84.3877 155.298 86.709 154.806L85.7555 150.306C84.7604 150.517 83.9282 150.233 82.0727 149.753L80.9212 154.207ZM86.7103 154.806C87.0258 154.739 87.4334 154.63 87.8306 154.425C88.2329 154.217 88.8124 153.812 89.145 153.066C89.4893 152.294 89.3909 151.56 89.2335 151.071C89.0854 150.61 88.8461 150.229 88.6545 149.96L84.9041 152.623C84.9757 152.724 84.9134 152.663 84.8542 152.479C84.7857 152.265 84.6881 151.766 84.9436 151.193C85.1873 150.646 85.5881 150.406 85.7203 150.338C85.8474 150.272 85.8935 150.277 85.7542 150.307L86.7103 154.806ZM88.6597 149.967C84.7908 144.474 80.9318 138.771 76.939 133.256L73.2132 135.954C77.1934 141.451 80.952 147.013 84.899 152.616L88.6597 149.967ZM76.9389 133.256C75.266 130.946 74.5697 128.554 74.6769 126.235C74.7846 123.906 75.7123 121.489 77.5583 119.174L73.9615 116.306C71.6055 119.261 70.2408 122.584 70.0818 126.023C69.9223 129.473 70.9851 132.878 73.2133 135.954L76.9389 133.256ZM77.5637 119.167C79.0519 117.286 80.9824 115.793 83.183 114.257L80.5495 110.485C78.2916 112.062 75.8869 113.872 73.9561 116.313L77.5637 119.167ZM83.1838 114.256C88.29 110.687 93.3256 107.114 98.4309 103.607L95.8263 99.8151C90.702 103.335 85.6173 106.943 80.5486 110.486L83.1838 114.256ZM98.4314 103.606C101.024 101.825 103.463 100.521 106.2 100.201L105.665 95.6317C101.796 96.0845 98.6012 97.9079 95.8258 99.8154L98.4314 103.606ZM106.2 100.2C110.962 99.642 114.687 101.13 117.663 105.014L121.314 102.216C117.323 97.0069 111.987 94.8902 105.665 95.6318L106.2 100.2ZM117.663 105.014C120.144 108.253 122.711 111.437 125.208 114.587L128.813 111.729C126.284 108.54 123.764 105.415 121.315 102.217L117.663 105.014ZM125.211 114.59C126.417 116.107 127.686 117.614 128.874 119.062L132.43 116.144C131.19 114.633 129.99 113.21 128.811 111.727L125.211 114.59ZM128.757 118.906C128.913 119.134 129.083 119.352 129.266 119.56L132.722 116.524C132.66 116.453 132.601 116.378 132.547 116.3L128.757 118.906ZM129.409 119.709C129.408 119.708 129.413 119.713 129.424 119.724C129.434 119.736 129.449 119.752 129.469 119.774C129.514 119.825 129.557 119.877 129.633 119.966C129.754 120.11 129.987 120.388 130.274 120.642C130.572 120.905 131.04 121.246 131.687 121.416C132.377 121.597 133.069 121.531 133.702 121.285L132.033 116.999C132.11 116.968 132.23 116.934 132.384 116.923C132.542 116.911 132.702 116.927 132.855 116.967C133.151 117.045 133.31 117.186 133.32 117.195C133.329 117.203 133.32 117.196 133.287 117.16C133.253 117.122 133.212 117.075 133.148 116.999C133.093 116.934 133.006 116.83 132.92 116.732C132.83 116.63 132.714 116.504 132.578 116.375L129.409 119.709ZM133.708 121.283C135.063 120.751 135.602 119.63 135.804 118.825C135.897 118.455 135.935 118.106 135.956 117.872C135.983 117.566 135.984 117.495 136.002 117.348L131.436 116.79C131.418 116.931 131.407 117.065 131.398 117.172C131.388 117.295 131.383 117.367 131.374 117.458C131.367 117.539 131.36 117.597 131.354 117.642C131.348 117.686 131.343 117.704 131.343 117.704C131.343 117.704 131.351 117.674 131.372 117.624C131.394 117.573 131.433 117.498 131.496 117.413C131.56 117.326 131.643 117.24 131.743 117.163C131.843 117.087 131.942 117.034 132.027 117.001L133.708 121.283ZM136.012 117.24C136.076 116.392 136.087 115.54 136.047 114.69L131.452 114.908C131.483 115.571 131.474 116.236 131.425 116.898L136.012 117.24ZM136.048 114.732C136.018 113.692 136.08 112.652 136.233 111.624L131.683 110.947C131.49 112.243 131.412 113.555 131.45 114.866L136.048 114.732ZM103.286 157.525C102.506 157.964 100.65 158.974 98.8607 159.926C97.9678 160.401 97.1016 160.856 96.4025 161.214C96.0523 161.393 95.7515 161.544 95.514 161.66C95.3952 161.717 95.2982 161.763 95.2223 161.798C95.1847 161.815 95.1553 161.828 95.1334 161.838C95.1105 161.848 95.1017 161.851 95.104 161.85L96.7797 166.134C97.4257 165.881 99.3022 164.902 101.021 163.988C102.823 163.029 104.717 161.998 105.544 161.532L103.286 157.525ZM142.303 116.735C142.935 120.086 142.248 126.288 138.71 131.26L142.458 133.927C146.769 127.869 147.672 120.38 146.823 115.882L142.303 116.735ZM138.71 131.26C136.808 133.932 134.022 136.265 131.18 138.318C129.766 139.338 128.388 140.256 127.118 141.113C125.883 141.948 124.697 142.76 123.798 143.506L126.736 147.046C127.429 146.471 128.421 145.784 129.693 144.925C130.93 144.09 132.385 143.121 133.873 142.047C136.831 139.911 140.112 137.224 142.458 133.927L138.71 131.26Z" fill="#646377"/>
<path fill-rule="evenodd" clip-rule="evenodd" d="M163.445 125.457C163.184 125.588 162.887 125.683 162.554 125.742L157.091 126.705L157.896 131.268C158.054 132.164 157.91 132.91 157.465 133.505C157.019 134.099 156.403 134.466 155.617 134.605C154.83 134.743 154.128 134.609 153.511 134.202C152.894 133.794 152.506 133.143 152.348 132.246L149.725 117.371C149.387 115.454 150.14 114.333 151.985 114.008L161.465 112.336C161.507 112.329 161.549 112.322 161.59 112.316C162.388 112.202 163.074 112.366 163.648 112.807C164.215 113.243 164.579 113.833 164.739 114.576C164.749 114.623 164.758 114.67 164.767 114.718C164.853 115.205 164.839 115.662 164.726 116.088C164.651 116.371 164.532 116.641 164.369 116.897C163.961 117.54 163.331 117.936 162.479 118.086L155.78 119.267L156.13 121.256L161.593 120.292C161.912 120.236 162.211 120.222 162.49 120.251C162.622 120.265 162.75 120.288 162.873 120.32C163.173 120.399 163.448 120.534 163.697 120.725C164.19 121.102 164.52 121.605 164.688 122.235C164.715 122.332 164.737 122.433 164.755 122.537C164.843 123.033 164.825 123.494 164.701 123.918C164.63 124.163 164.524 124.395 164.383 124.616C164.151 124.979 163.838 125.259 163.445 125.457ZM167.714 123.387C167.922 124.564 168.214 125.608 168.591 126.518C170.145 130.268 173.136 131.752 177.566 130.971C180.096 130.525 181.919 129.527 183.037 127.978C183.247 127.687 183.432 127.377 183.592 127.047C184.407 125.368 184.578 123.185 184.104 120.497L182.508 111.443C182.355 110.575 181.962 109.937 181.33 109.527C180.962 109.289 180.566 109.143 180.143 109.091C179.839 109.054 179.521 109.064 179.188 109.123C178.42 109.258 177.814 109.628 177.371 110.232C176.927 110.837 176.781 111.568 176.932 112.426L178.682 122.353C178.978 124.031 178.251 125.025 176.5 125.333C174.758 125.64 173.74 124.955 173.444 123.277L171.693 113.35C171.54 112.482 171.153 111.843 170.53 111.431C169.907 111.02 169.198 110.885 168.402 111.025C168.334 111.037 168.267 111.051 168.202 111.066C167.519 111.229 166.973 111.586 166.563 112.138C166.115 112.743 165.966 113.475 166.118 114.333L167.714 123.387ZM164.217 108C163.045 107.64 161.828 107.601 160.666 107.806L151.186 109.478C149.52 109.771 147.528 110.578 146.218 112.527C144.935 114.437 144.91 116.555 145.195 118.169L147.818 133.045C148.141 134.879 149.07 136.783 150.977 138.041C152.659 139.151 154.572 139.46 156.415 139.135C158.259 138.81 159.945 137.867 161.146 136.262C162.52 134.428 162.751 132.315 162.426 130.469L162.42 130.437L163.353 130.272C163.928 130.171 164.503 130.007 165.059 129.774C165.836 131.18 166.852 132.435 168.168 133.448C171.156 135.748 174.803 136.129 178.365 135.501C181.148 135.01 183.764 133.908 185.724 131.909C185.801 131.964 185.88 132.019 185.961 132.072C187.603 133.15 189.471 133.454 191.271 133.137C193.044 132.824 194.722 131.938 195.935 130.357C196.01 130.259 196.082 130.161 196.15 130.062C197.701 131.146 199.613 131.666 201.72 131.294C203.094 131.052 204.304 130.449 205.287 129.567C206.582 130.085 207.962 130.194 209.304 129.957C211.077 129.645 212.756 128.758 213.969 127.177C214.043 127.08 214.115 126.981 214.183 126.882C215.734 127.966 217.646 128.486 219.753 128.115C221.695 127.772 223.308 126.711 224.416 125.158C224.722 124.73 224.969 124.287 225.164 123.836C225.53 124.226 225.954 124.587 226.441 124.905C228.148 126.019 230.07 126.295 231.888 125.975C233.719 125.652 235.395 124.722 236.602 123.141C238.004 121.305 238.242 119.177 237.915 117.321L237.04 112.358L239.738 105.351C239.74 105.346 239.742 105.341 239.744 105.335C240.228 104.096 240.434 102.701 240.177 101.245C239.81 99.1588 238.623 97.4799 236.937 96.3795C235.353 95.3452 233.463 94.8816 231.478 95.2317C230.184 95.4599 229.028 96.0208 228.06 96.8247C227.629 97.1824 227.257 97.5768 226.937 97.9965C226.459 97.6886 225.932 97.4303 225.355 97.2377C224.241 96.8653 223.008 96.7252 221.731 96.9504C220.405 97.1842 219.248 97.7445 218.29 98.5374C217.061 98.0934 215.76 98.0033 214.484 98.2285C212.711 98.541 211.032 99.4274 209.819 101.009C209.755 101.093 209.692 101.178 209.633 101.264C208.037 100.163 206.1 99.7067 204.035 100.071C202.665 100.312 201.455 100.913 200.472 101.799C199.181 101.285 197.802 101.17 196.45 101.408C194.678 101.721 192.999 102.607 191.786 104.188C191.721 104.273 191.659 104.358 191.599 104.443C190.004 103.343 188.067 102.886 186.001 103.251C184.64 103.491 183.436 104.086 182.456 104.963C181.144 104.457 179.751 104.353 178.389 104.593C176.507 104.925 174.838 105.91 173.663 107.51C173.581 107.622 173.502 107.735 173.428 107.849C173.311 107.761 173.19 107.676 173.065 107.593C171.374 106.477 169.453 106.169 167.603 106.495C166.357 106.714 165.2 107.218 164.217 108ZM185.113 108.854C185.108 108.862 185.102 108.87 185.096 108.878C184.672 109.483 184.535 110.211 184.685 111.059C184.685 111.059 184.685 111.059 184.685 111.059L187.386 126.378C187.508 127.069 187.774 127.606 188.183 127.989C188.277 128.076 188.378 128.156 188.487 128.227C189.071 128.611 189.733 128.737 190.472 128.607C191.249 128.47 191.854 128.12 192.286 127.557C192.489 127.292 192.628 126.995 192.702 126.667C192.786 126.298 192.788 125.889 192.709 125.44L191.526 118.731L198.164 125.746C198.782 126.413 199.472 126.767 200.234 126.808C200.457 126.821 200.686 126.806 200.921 126.764C201.224 126.711 201.501 126.614 201.753 126.474C202.081 126.291 202.367 126.035 202.611 125.704C202.62 125.691 202.63 125.678 202.639 125.665C203.048 125.092 203.197 124.407 203.085 123.61C203.078 123.563 203.071 123.515 203.062 123.467L200.364 108.162C200.216 107.323 199.845 106.71 199.25 106.323C198.915 106.105 198.557 105.969 198.175 105.915C197.881 105.874 197.572 105.881 197.249 105.938C196.472 106.075 195.868 106.425 195.436 106.988C195.242 107.241 195.107 107.522 195.03 107.831C194.936 108.213 194.93 108.637 195.013 109.105L196.191 115.785L189.594 108.763C188.976 108.09 188.26 107.745 187.446 107.728C187.237 107.724 187.022 107.742 186.8 107.781C186.542 107.826 186.303 107.904 186.082 108.012C185.703 108.199 185.38 108.48 185.113 108.854ZM203.146 105.674C203.141 105.682 203.135 105.69 203.13 105.698C202.727 106.273 202.583 106.957 202.697 107.75C202.703 107.793 202.71 107.836 202.718 107.879L205.419 123.199C205.569 124.047 205.936 124.663 206.52 125.047C206.855 125.267 207.215 125.403 207.601 125.454C207.889 125.492 208.19 125.483 208.505 125.427C209.283 125.29 209.887 124.94 210.319 124.377C210.522 124.112 210.661 123.815 210.735 123.487C210.819 123.118 210.821 122.709 210.742 122.26L209.559 115.552L216.197 122.566C216.815 123.233 217.505 123.587 218.267 123.629C218.49 123.641 218.719 123.626 218.955 123.585C219.651 123.462 220.214 123.108 220.644 122.525C220.653 122.512 220.663 122.498 220.672 122.485C221.106 121.878 221.247 121.145 221.096 120.287L218.397 104.982C218.249 104.143 217.878 103.53 217.284 103.143C216.796 102.826 216.259 102.682 215.673 102.713C215.545 102.72 215.415 102.735 215.282 102.759C214.505 102.896 213.901 103.246 213.469 103.808C213.276 104.061 213.14 104.342 213.064 104.652C212.969 105.033 212.963 105.457 213.046 105.926L214.224 112.605L207.628 105.583C207.01 104.91 206.294 104.565 205.48 104.549C205.271 104.544 205.055 104.562 204.833 104.601C204.538 104.653 204.267 104.747 204.021 104.882C203.682 105.067 203.391 105.332 203.146 105.674ZM220.845 106.217L226.698 112.883L227.795 119.105C227.953 120.002 228.34 120.651 228.957 121.054C229.573 121.456 230.284 121.587 231.089 121.445C231.876 121.306 232.494 120.941 232.945 120.35C233.396 119.76 233.543 119.016 233.385 118.12L232.288 111.898L235.456 103.67C235.676 103.11 235.74 102.568 235.647 102.043C235.513 101.281 235.105 100.677 234.423 100.231C233.741 99.7863 233.025 99.6298 232.276 99.7619C231.808 99.8444 231.383 100.045 230.999 100.363C230.665 100.641 230.406 101.001 230.222 101.443C230.195 101.507 230.17 101.574 230.146 101.642L228.428 106.517L225.141 102.495C225.101 102.445 225.06 102.398 225.018 102.352C224.69 101.991 224.316 101.741 223.897 101.601C223.426 101.443 222.97 101.403 222.529 101.481C222.348 101.512 222.175 101.56 222.009 101.622C221.48 101.822 221.03 102.177 220.657 102.688C220.206 103.306 220.021 103.97 220.102 104.681C220.109 104.743 220.118 104.806 220.129 104.868C220.213 105.345 220.452 105.794 220.845 106.217Z" fill="#646377"/>
<path fill-rule="evenodd" clip-rule="evenodd" d="M130.666 154.493C130.666 154.493 130.038 155.239 129.435 155.938C128.547 156.919 127.159 157.475 125.406 157.479C124.728 157.488 124.057 157.338 123.446 157.04C123.209 156.939 123.005 156.831 122.826 156.736C122.478 156.552 122.22 156.414 121.979 156.471C121.744 156.526 121.526 156.772 121.249 157.084C121.11 157.241 120.956 157.415 120.777 157.589C120.003 158.357 119.24 159.139 118.478 159.921C116.689 161.756 114.9 163.591 112.951 165.244C111.503 166.457 110.847 166.418 109.55 165.069C109.021 164.467 108.591 163.782 108.277 163.04C106.687 159.731 105.655 156.174 105.226 152.517C105.009 150.797 105.494 149.061 106.569 147.715C107.218 146.877 108.094 146.645 109.132 146.934C110.452 147.292 111.775 147.638 113.097 147.985C115.206 148.538 117.315 149.092 119.417 149.688C119.529 149.719 119.645 149.756 119.762 149.794C120.127 149.912 120.499 150.032 120.777 149.969C121.043 149.908 121.222 149.681 121.433 149.416C121.514 149.314 121.599 149.206 121.696 149.099C123.414 147.209 125.658 147.07 127.934 147.573C128.146 147.62 128.359 147.718 128.565 147.812C128.88 147.957 129.179 148.094 129.435 148.031C129.665 147.974 129.988 147.632 130.278 147.324C130.42 147.174 130.554 147.032 130.666 146.934C131.09 146.567 131.5 146.207 131.904 145.853C133.363 144.576 134.737 143.373 136.335 142.133C137.2 141.491 138.029 140.8 138.818 140.064C139.459 139.436 140.241 139.465 141.037 139.803C142.706 140.517 143.394 142.008 144.074 143.574C144.2 143.863 144.308 144.105 144.404 144.317C144.973 145.584 145.065 145.788 145.458 148.646C145.667 150.165 145.709 151.883 145.649 153.337C145.584 154.927 145.359 156.308 145.091 157.29C144.823 158.271 144.402 158.9 143.548 159.048C142.81 159.176 142.117 158.889 141.272 158.538C140.954 158.406 140.615 158.266 140.245 158.135C138.496 157.518 136.771 156.831 135.047 156.145C134.209 155.812 133.371 155.478 132.531 155.153C131.728 154.843 130.666 154.493 130.666 154.493ZM131.964 159.871C130.104 161.423 127.75 162.069 125.441 162.079C124.644 162.087 123.853 161.989 123.088 161.789C122.715 162.167 122.333 162.559 121.943 162.96C120.094 164.855 118.051 166.95 115.926 168.753L115.915 168.762L115.904 168.771C115.188 169.371 113.417 170.841 110.951 170.711C108.48 170.581 106.876 168.925 106.235 168.259L106.163 168.184L106.094 168.105C105.264 167.161 104.588 166.093 104.087 164.942C102.303 161.204 101.146 157.193 100.66 153.071C100.296 150.145 101.117 147.184 102.955 144.869C103.79 143.803 104.943 142.92 106.405 142.489C107.837 142.068 109.208 142.183 110.347 142.497C111.586 142.833 112.874 143.171 114.182 143.514C115.921 143.97 117.696 144.436 119.437 144.917C122.295 142.587 125.637 142.488 128.242 142.945C128.435 142.777 128.628 142.608 128.822 142.438C130.295 141.148 131.799 139.831 133.515 138.499L133.555 138.468L133.595 138.438C134.311 137.907 134.997 137.336 135.652 136.727C136.725 135.698 138.071 135.096 139.515 134.985C140.869 134.88 142.026 135.225 142.839 135.571L142.845 135.574C146.266 137.036 147.587 140.102 148.217 141.566C148.244 141.627 148.269 141.686 148.293 141.741C148.354 141.881 148.423 142.033 148.496 142.196C148.769 142.801 149.106 143.548 149.33 144.297C149.629 145.299 149.797 146.432 150.015 148.018C150.271 149.874 150.313 151.875 150.245 153.525C150.168 155.411 149.9 157.141 149.528 158.503C149.318 159.271 148.93 160.384 148.093 161.402C147.144 162.556 145.842 163.319 144.335 163.58C142.658 163.872 141.267 163.454 140.467 163.165C140.115 163.039 139.76 162.891 139.512 162.788C139.483 162.776 139.456 162.765 139.43 162.754C139.142 162.635 138.928 162.548 138.714 162.473C136.881 161.826 135.004 161.079 133.233 160.374C132.803 160.204 132.379 160.035 131.964 159.871Z" fill="#646377"/>
<mask id="path-5-outside-1" maskUnits="userSpaceOnUse" x="141.031" y="118.092" width="88" height="77" fill="black">
<rect fill="white" x="141.031" y="118.092" width="88" height="77"/>
<path fill-rule="evenodd" clip-rule="evenodd" d="M155.374 150.311C155.719 152.739 156.008 155.181 156.419 157.602C157.408 163.46 158.282 169.336 159.145 175.215C159.709 178.995 160.379 182.759 160.963 186.534C161.962 192.966 159.51 189.472 158.991 186.124C158.195 180.845 157.4 175.57 156.604 170.291C155.92 165.801 155.229 161.312 154.531 156.825C154.148 154.358 153.673 151.9 153.368 149.424C153.304 148.673 152.363 148.067 151.728 147.674C150.5 146.805 149.477 145.849 148.331 144.879C146.845 143.622 145.552 142.189 146.204 140.905C146.857 139.621 148.634 139.142 150.172 138.882C151.711 138.623 151.342 138.612 156.238 138.081C161.133 137.55 163.561 137.34 168.099 137.536C171.196 137.67 172.632 138.006 174.035 138.123C177.127 138.381 180.466 138.596 183.615 138.226C185.307 138.069 186.975 137.717 188.586 137.177C190.814 136.408 192.946 135.382 194.941 134.118C196.7 133.002 198.556 131.645 200.377 130.558C202.834 128.901 206.304 127.303 208.888 126.207C211.473 125.112 213.422 124.629 216.079 123.921C217.681 123.505 219.319 123.242 220.971 123.136C221.977 123.032 223.267 123.048 223.846 123.895C224.425 124.741 224.199 126.284 223.749 127.2C222.063 130.885 220.553 134.902 218.767 138.588C217.745 140.698 217.595 141.257 215.782 143.983C213.969 146.708 211.599 148.829 208.965 150.323C205.414 152.433 201.666 153.505 197.55 152.158C194.58 151.179 192.508 148.999 190.718 146.505C190.432 146.106 190.175 145.688 189.888 145.29C189.482 144.663 188.736 144.358 188.02 144.525C187.334 144.684 187.165 145.325 187.043 145.912C186.716 147.463 186.724 149.393 186.34 150.918C185.533 153.96 183.86 156.355 180.913 157.638C176.379 159.614 171.432 159.99 166.789 157.827C164.21 156.62 162.232 155.219 161.125 154.513C160.017 153.807 159.612 153.346 157.854 152.062L155.374 150.311Z"/>
</mask>
<path fill-rule="evenodd" clip-rule="evenodd" d="M155.374 150.311C155.719 152.739 156.008 155.181 156.419 157.602C157.408 163.46 158.282 169.336 159.145 175.215C159.709 178.995 160.379 182.759 160.963 186.534C161.962 192.966 159.51 189.472 158.991 186.124C158.195 180.845 157.4 175.57 156.604 170.291C155.92 165.801 155.229 161.312 154.531 156.825C154.148 154.358 153.673 151.9 153.368 149.424C153.304 148.673 152.363 148.067 151.728 147.674C150.5 146.805 149.477 145.849 148.331 144.879C146.845 143.622 145.552 142.189 146.204 140.905C146.857 139.621 148.634 139.142 150.172 138.882C151.711 138.623 151.342 138.612 156.238 138.081C161.133 137.55 163.561 137.34 168.099 137.536C171.196 137.67 172.632 138.006 174.035 138.123C177.127 138.381 180.466 138.596 183.615 138.226C185.307 138.069 186.975 137.717 188.586 137.177C190.814 136.408 192.946 135.382 194.941 134.118C196.7 133.002 198.556 131.645 200.377 130.558C202.834 128.901 206.304 127.303 208.888 126.207C211.473 125.112 213.422 124.629 216.079 123.921C217.681 123.505 219.319 123.242 220.971 123.136C221.977 123.032 223.267 123.048 223.846 123.895C224.425 124.741 224.199 126.284 223.749 127.2C222.063 130.885 220.553 134.902 218.767 138.588C217.745 140.698 217.595 141.257 215.782 143.983C213.969 146.708 211.599 148.829 208.965 150.323C205.414 152.433 201.666 153.505 197.55 152.158C194.58 151.179 192.508 148.999 190.718 146.505C190.432 146.106 190.175 145.688 189.888 145.29C189.482 144.663 188.736 144.358 188.02 144.525C187.334 144.684 187.165 145.325 187.043 145.912C186.716 147.463 186.724 149.393 186.34 150.918C185.533 153.96 183.86 156.355 180.913 157.638C176.379 159.614 171.432 159.99 166.789 157.827C164.21 156.62 162.232 155.219 161.125 154.513C160.017 153.807 159.612 153.346 157.854 152.062L155.374 150.311Z" fill="#FAFAFA"/>
<path d="M155.374 150.311L158.026 146.553L149.321 140.41L150.82 150.958L155.374 150.311ZM156.419 157.602L160.955 156.836L160.954 156.832L156.419 157.602ZM159.145 175.215L154.593 175.883L154.595 175.894L159.145 175.215ZM160.963 186.534L156.417 187.237L156.417 187.24L160.963 186.534ZM158.991 186.124L154.442 186.81L154.444 186.82L154.445 186.829L158.991 186.124ZM156.604 170.291L161.153 169.606L161.152 169.598L156.604 170.291ZM154.531 156.825L149.986 157.531L149.986 157.532L154.531 156.825ZM153.368 149.424L148.785 149.817L148.792 149.902L148.802 149.987L153.368 149.424ZM151.728 147.674L149.07 151.429L149.186 151.511L149.307 151.585L151.728 147.674ZM148.331 144.879L151.304 141.368L151.301 141.366L148.331 144.879ZM168.099 137.536L167.9 142.132L168.099 137.536ZM174.035 138.123L173.652 142.707L174.035 138.123ZM183.615 138.226L183.191 133.645L183.134 133.65L183.078 133.657L183.615 138.226ZM188.586 137.177L190.049 141.538L190.068 141.532L190.086 141.525L188.586 137.177ZM194.941 134.118L197.403 138.004L197.405 138.003L194.941 134.118ZM200.377 130.558L202.735 134.507L202.843 134.443L202.947 134.372L200.377 130.558ZM216.079 123.921L214.922 119.469L214.908 119.473L214.894 119.477L216.079 123.921ZM220.971 123.136L221.266 127.727L221.354 127.721L221.443 127.712L220.971 123.136ZM223.749 127.2L219.62 125.173L219.592 125.229L219.566 125.286L223.749 127.2ZM218.767 138.588L222.906 140.594L218.767 138.588ZM208.965 150.323L206.696 146.321L206.655 146.344L206.615 146.368L208.965 150.323ZM197.55 152.158L196.11 156.527L196.119 156.53L197.55 152.158ZM190.718 146.505L194.456 143.823L194.453 143.819L190.718 146.505ZM189.888 145.29L186.027 147.79L186.088 147.884L186.153 147.975L189.888 145.29ZM188.02 144.525L189.055 149.007L189.068 149.004L188.02 144.525ZM187.043 145.912L191.544 146.861L191.546 146.85L187.043 145.912ZM186.34 150.918L190.786 152.097L190.794 152.069L190.801 152.04L186.34 150.918ZM180.913 157.638L179.077 153.42L179.075 153.421L180.913 157.638ZM166.789 157.827L164.839 161.994L164.847 161.997L166.789 157.827ZM157.854 152.062L160.568 148.348L160.538 148.325L160.506 148.303L157.854 152.062ZM150.82 150.958C151.144 153.239 151.46 155.874 151.884 158.372L160.954 156.832C160.556 154.487 160.294 152.24 159.928 149.664L150.82 150.958ZM151.883 158.368C152.863 164.172 153.731 170.005 154.593 175.883L163.696 174.547C162.833 168.667 161.952 162.748 160.955 156.836L151.883 158.368ZM154.595 175.894C155.145 179.576 155.872 183.713 156.417 187.237L165.509 185.83C164.886 181.804 164.273 178.413 163.694 174.536L154.595 175.894ZM156.417 187.24C156.666 188.839 156.567 189.134 156.627 188.814C156.651 188.684 156.729 188.305 156.974 187.836C157.217 187.371 157.782 186.521 158.906 185.975C161.507 184.713 163.474 186.445 163.59 186.547C163.975 186.888 164.113 187.16 164.062 187.073C164.048 187.05 163.991 186.946 163.912 186.754C163.751 186.363 163.606 185.867 163.537 185.42L154.445 186.829C154.636 188.055 154.991 189.252 155.405 190.256C155.725 191.033 156.375 192.45 157.502 193.445C157.895 193.792 160.115 195.615 162.924 194.252C164.151 193.656 164.81 192.707 165.131 192.09C165.455 191.47 165.599 190.886 165.672 190.495C165.926 189.125 165.759 187.444 165.508 185.828L156.417 187.24ZM163.54 185.439C163.142 182.799 162.744 180.161 162.346 177.522C161.949 174.884 161.551 172.245 161.153 169.606L152.056 170.977C152.454 173.617 152.851 176.255 153.249 178.894C153.647 181.532 154.045 184.171 154.442 186.81L163.54 185.439ZM161.152 169.598C160.467 165.103 159.775 160.61 159.076 156.118L149.986 157.532C150.683 162.014 151.373 166.499 152.057 170.984L161.152 169.598ZM159.077 156.118C158.655 153.409 158.229 151.262 157.933 148.861L148.802 149.987C149.117 152.538 149.64 155.307 149.986 157.531L159.077 156.118ZM157.951 149.031C157.768 146.894 156.443 145.547 155.864 145.018C155.186 144.399 154.45 143.949 154.148 143.762L149.307 151.585C149.455 151.677 149.547 151.736 149.621 151.787C149.696 151.839 149.699 151.847 149.66 151.812C149.629 151.783 149.469 151.636 149.292 151.357C149.108 151.068 148.847 150.543 148.785 149.817L157.951 149.031ZM154.385 143.919C153.374 143.203 152.664 142.52 151.304 141.368L145.359 148.389C146.29 149.178 147.625 150.406 149.07 151.429L154.385 143.919ZM151.301 141.366C151 141.111 150.765 140.894 150.587 140.711C150.403 140.52 150.346 140.431 150.353 140.443C150.355 140.445 150.522 140.701 150.596 141.175C150.683 141.726 150.612 142.385 150.305 142.989L142.103 138.821C140.727 141.529 141.734 144.027 142.578 145.361C143.399 146.659 144.548 147.704 145.362 148.392L151.301 141.366ZM150.305 142.989C150.131 143.332 149.917 143.546 149.785 143.653C149.665 143.751 149.611 143.762 149.693 143.727C149.771 143.693 149.916 143.64 150.145 143.581C150.37 143.523 150.632 143.47 150.936 143.419L149.408 134.346C148.523 134.495 147.255 134.754 146.019 135.292C144.802 135.822 143.107 136.846 142.103 138.821L150.305 142.989ZM150.936 143.419C151.902 143.256 151.942 143.231 152.595 143.138C153.221 143.049 154.279 142.921 156.734 142.654L155.741 133.508C153.3 133.773 152.096 133.916 151.297 134.03C150.526 134.14 149.981 134.25 149.408 134.346L150.936 143.419ZM156.734 142.654C161.539 142.133 163.702 141.95 167.9 142.132L168.298 132.941C163.42 132.729 160.727 132.967 155.741 133.508L156.734 142.654ZM167.9 142.132C169.301 142.193 170.308 142.297 171.132 142.4C171.845 142.49 172.831 142.638 173.652 142.707L174.418 133.539C173.836 133.49 173.403 133.413 172.273 133.271C171.253 133.144 169.994 133.014 168.298 132.941L167.9 142.132ZM173.652 142.707C176.744 142.965 180.496 143.224 184.151 142.794L183.078 133.657C180.435 133.967 177.509 133.797 174.418 133.539L173.652 142.707ZM184.038 142.806C186.084 142.617 188.101 142.191 190.049 141.538L187.123 132.816C185.849 133.243 184.53 133.521 183.191 133.645L184.038 142.806ZM190.086 141.525C192.652 140.64 195.107 139.458 197.403 138.004L192.479 130.232C190.786 131.305 188.976 132.176 187.086 132.828L190.086 141.525ZM197.405 138.003C198.355 137.4 199.336 136.729 200.208 136.141C201.115 135.529 201.943 134.98 202.735 134.507L198.019 126.608C196.99 127.222 195.979 127.896 195.063 128.513C194.113 129.154 193.286 129.721 192.477 130.234L197.405 138.003ZM202.947 134.372C205.011 132.982 208.127 131.526 210.683 130.443L207.093 121.972C204.481 123.079 200.658 124.821 197.806 126.743L202.947 134.372ZM210.683 130.443C212.916 129.496 214.542 129.092 217.263 128.366L214.894 119.477C212.302 120.167 210.029 120.728 207.093 121.972L210.683 130.443ZM217.236 128.374C218.555 128.031 219.905 127.814 221.266 127.727L220.677 118.545C218.733 118.67 216.806 118.98 214.922 119.469L217.236 128.374ZM221.443 127.712C221.589 127.697 221.693 127.692 221.761 127.692C221.835 127.692 221.816 127.698 221.728 127.682C221.606 127.659 220.715 127.466 220.048 126.49L227.644 121.299C226.399 119.477 224.573 118.853 223.409 118.636C222.246 118.42 221.159 118.492 220.5 118.56L221.443 127.712ZM220.048 126.49C219.752 126.057 219.654 125.68 219.62 125.503C219.585 125.32 219.593 125.219 219.593 125.216C219.594 125.206 219.593 125.222 219.587 125.247C219.579 125.276 219.581 125.252 219.62 125.173L227.878 129.228C228.379 128.207 228.695 127.004 228.773 125.827C228.845 124.751 228.767 122.942 227.644 121.299L220.048 126.49ZM219.566 125.286C218.686 127.209 217.852 129.218 217.056 131.107C216.246 133.031 215.462 134.858 214.627 136.583L222.906 140.594C223.857 138.632 224.722 136.608 225.534 134.68C226.361 132.717 227.125 130.876 227.932 129.115L219.566 125.286ZM214.627 136.583C214.026 137.823 213.849 138.249 213.501 138.911C213.209 139.466 212.81 140.144 211.952 141.435L219.612 146.53C221.627 143.5 221.909 142.652 222.906 140.594L214.627 136.583ZM211.952 141.435C210.558 143.531 208.733 145.166 206.696 146.321L211.234 154.324C214.464 152.493 217.381 149.885 219.612 146.53L211.952 141.435ZM206.615 146.368C203.706 148.097 201.372 148.568 198.98 147.786L196.119 156.53C201.961 158.441 207.123 156.768 211.315 154.277L206.615 146.368ZM198.99 147.789C197.411 147.269 196.053 146.05 194.456 143.823L186.98 149.186C188.962 151.949 191.748 155.089 196.11 156.527L198.99 147.789ZM194.453 143.819C194.366 143.698 194.276 143.563 194.132 143.348C194.004 143.155 193.822 142.882 193.623 142.604L186.153 147.975C186.24 148.096 186.331 148.231 186.474 148.447C186.603 148.639 186.784 148.913 186.984 149.19L194.453 143.819ZM193.75 142.79C192.311 140.567 189.617 139.427 186.972 140.046L189.068 149.004C187.855 149.288 186.654 148.759 186.027 147.79L193.75 142.79ZM186.986 140.043C185.172 140.462 183.978 141.623 183.316 142.794C182.778 143.745 182.594 144.711 182.539 144.975L191.546 146.85C191.613 146.526 191.575 146.877 191.324 147.322C191.168 147.599 190.901 147.972 190.472 148.316C190.028 148.671 189.532 148.897 189.055 149.007L186.986 140.043ZM182.541 144.963C182.315 146.039 182.212 147.201 182.135 147.967C182.045 148.875 181.976 149.411 181.879 149.796L190.801 152.04C191.088 150.9 191.207 149.708 191.29 148.883C191.387 147.915 191.443 147.336 191.544 146.861L182.541 144.963ZM181.894 149.738C181.359 151.754 180.451 152.822 179.077 153.42L182.748 161.856C187.269 159.888 189.707 156.167 190.786 152.097L181.894 149.738ZM179.075 153.421C175.478 154.988 171.934 155.15 168.731 153.658L164.847 161.997C170.93 164.831 177.281 164.239 182.75 161.855L179.075 153.421ZM168.739 153.661C166.512 152.619 164.898 151.463 163.597 150.634L158.652 158.392C159.566 158.975 161.909 160.622 164.839 161.994L168.739 153.661ZM163.597 150.634C163.243 150.408 163.009 150.231 162.59 149.899C162.142 149.544 161.531 149.051 160.568 148.348L155.14 155.776C155.934 156.356 156.405 156.736 156.876 157.11C157.376 157.506 157.899 157.912 158.652 158.392L163.597 150.634ZM160.506 148.303L158.026 146.553L152.722 154.07L155.202 155.82L160.506 148.303Z" fill="#646377" mask="url(#path-5-outside-1)"/>
<path fill-rule="evenodd" clip-rule="evenodd" d="M175.767 155.439C176.677 155.284 177.839 154.991 178.156 154.887C178.474 154.783 180.162 154.12 181.263 153.109C182.268 152.05 183.105 150.613 183.287 148.937C183.4 147.957 183.172 146.966 182.641 146.135C181.433 144.156 179.509 143.28 177.431 143.044C173.648 142.618 169.87 142.391 166.062 142.471C164.198 142.717 162.807 142.735 161.366 143.507C160.178 144.095 159.335 146.189 160.212 147.429C161.29 148.945 162.507 150.355 163.846 151.64C165.083 152.634 166.136 153.489 167.713 154.227C169.067 154.863 168.785 154.665 170.217 155.12C170.538 155.223 172.203 155.682 173.262 155.674C174.32 155.666 174.857 155.593 175.767 155.439Z" fill="#646377"/>
<path fill-rule="evenodd" clip-rule="evenodd" d="M211.881 142.337C213.374 140.227 214.112 137.971 214.492 135.45C214.764 133.674 213.728 131.918 212.267 131.561C210.841 131.242 209.354 131.39 208.023 131.985C205.652 133.007 203.383 134.276 201.032 135.372C200.335 135.673 199.663 136.031 199.023 136.444C198.175 136.979 197.357 137.561 196.571 138.186C195.255 139.261 194.282 140.401 193.737 141.862C193.344 142.755 193.365 143.782 193.794 144.664C194.359 145.724 195.16 146.722 196.152 147.45C198.632 149.015 200.404 149.25 202.954 148.724C206.781 147.935 209.631 145.52 211.881 142.337Z" fill="#646377"/>
<path fill-rule="evenodd" clip-rule="evenodd" d="M72.1497 191.91L72.9969 196.715C73.1634 197.659 73.012 198.444 72.543 199.07C72.0739 199.696 71.4253 200.083 70.5971 200.229C69.7689 200.375 69.0297 200.233 68.3797 199.804C67.7297 199.375 67.3214 198.689 67.155 197.745L64.3929 182.08C64.037 180.062 64.8302 178.881 66.7726 178.539L76.7556 176.778C77.6528 176.62 78.419 176.785 79.0541 177.274C79.6893 177.762 80.0821 178.434 80.2326 179.287C80.2859 179.589 80.3028 179.88 80.2833 180.16C80.264 180.439 80.2086 180.707 80.1172 180.963C80.0887 181.043 80.0568 181.122 80.0214 181.2C79.962 181.33 79.8928 181.457 79.8137 181.582C79.384 182.258 78.7205 182.675 77.8233 182.834L70.7686 184.077L71.1378 186.171L76.891 185.157C77.3839 185.07 77.833 185.08 78.2381 185.186C78.4885 185.252 78.7222 185.355 78.939 185.495C78.9959 185.532 79.0517 185.571 79.1063 185.613C79.5625 185.962 79.8867 186.414 80.0787 186.968C80.1389 187.142 80.1862 187.326 80.2204 187.52C80.3656 188.344 80.235 189.074 79.8287 189.709C79.4223 190.345 78.7804 190.741 77.9029 190.895L72.1497 191.91ZM81.4625 194.306C81.451 194.34 81.441 194.375 81.4324 194.413C81.3706 194.685 81.3824 195.063 81.4679 195.547C81.6149 196.381 82.0577 197.004 82.7965 197.418C83.5353 197.831 84.3188 197.965 85.147 197.819C85.6696 197.726 86.1313 197.477 86.5322 197.07C86.9332 196.662 87.215 196.113 87.3778 195.422L87.8899 192.878L94.1903 191.767L95.4677 193.995C96.1595 195.209 97.1414 195.704 98.4133 195.479C99.2317 195.335 99.913 194.933 100.457 194.272C100.508 194.211 100.555 194.15 100.6 194.087C101.036 193.477 101.191 192.812 101.064 192.092C101.029 191.89 100.986 191.709 100.936 191.547C100.857 191.289 100.76 191.081 100.645 190.924L91.2294 176.013C90.9604 175.586 90.6621 175.254 90.3346 175.015C90.2327 174.941 90.1279 174.876 90.0203 174.82C89.567 174.584 88.9756 174.531 88.2459 174.659C87.6274 174.769 87.1476 174.957 86.8065 175.225C86.7344 175.282 86.6684 175.342 86.6087 175.406C86.2665 175.772 86.0105 176.281 85.8407 176.932L81.4625 194.306ZM82.1282 173.845C82.0405 173.771 81.9507 173.699 81.8587 173.628C80.0546 172.24 77.9336 171.9 75.9568 172.248L65.9738 174.009C64.2592 174.311 62.2321 175.137 60.9029 177.115C59.5991 179.055 59.5692 181.214 59.8628 182.879L62.6249 198.544C62.9566 200.425 63.906 202.363 65.8461 203.644C67.5604 204.775 69.5107 205.091 71.3959 204.759C73.2811 204.426 74.9996 203.464 76.2249 201.828C77.0402 200.739 77.461 199.553 77.6038 198.377C78.2418 199.652 79.2474 200.703 80.5506 201.432C82.2079 202.359 84.0661 202.68 85.9458 202.349C87.4837 202.077 88.7927 201.33 89.81 200.297C90.8198 199.271 91.4194 198.058 91.7544 196.867L91.8317 196.854C92.4915 197.83 93.406 198.756 94.6532 199.385C96.1776 200.153 97.776 200.263 99.2121 200.009C101.144 199.669 102.788 198.676 104.007 197.199C104.18 196.988 104.342 196.77 104.492 196.545C105.581 196.998 106.726 197.306 107.905 197.489C109.691 197.766 111.504 197.717 113.315 197.398L115.459 197.02C116.763 196.79 118.077 196.257 119.174 195.317C120.635 195.861 122.128 195.844 123.372 195.625L133.355 193.865C134.786 193.612 136.165 192.995 137.281 191.944C138.694 192.557 140.207 192.657 141.622 192.407L147.464 191.377C150.421 190.855 153.321 189.538 155.153 186.8C156.957 184.103 157.123 180.922 156.602 177.966C156.143 175.364 155.112 172.675 152.915 170.81C153.523 169.421 153.714 167.898 153.44 166.348C153.095 164.388 152.062 162.721 150.496 161.53C148.637 160.116 146.47 159.815 144.492 160.164L139.759 160.998C137.392 161.416 135.064 162.339 133.285 164.083C131.607 163.016 129.709 162.771 127.928 163.085L117.945 164.845C116.695 165.065 115.28 165.564 114.09 166.583C112.772 166.085 111.374 166.003 110.032 166.24L108.346 166.537C106.472 166.868 104.695 167.463 103.059 168.364C101.5 169.221 100.101 170.301 98.9539 171.646C97.9173 172.861 97.0843 174.212 96.4618 175.683L95.1198 173.558L95.1189 173.557C94.4563 172.507 93.5014 171.446 92.1435 170.74C90.4676 169.868 88.7406 169.901 87.4471 170.129C86.1984 170.35 84.5441 170.88 83.2494 172.264C82.7844 172.761 82.4178 173.298 82.1282 173.845ZM99.8552 181.058C99.7929 182.048 99.849 183.038 100.024 184.028C100.217 185.123 100.544 186.16 101.007 187.14C101.414 188.002 101.929 188.798 102.553 189.53C102.588 189.571 102.623 189.611 102.659 189.652C102.71 189.71 102.762 189.769 102.815 189.826C103.384 190.448 104.013 190.99 104.701 191.451C104.91 191.591 105.125 191.724 105.345 191.849C105.457 191.913 105.571 191.975 105.687 192.034C106.549 192.471 107.524 192.774 108.61 192.943C109.844 193.135 111.146 193.11 112.516 192.868L114.661 192.49C115 192.43 115.306 192.337 115.576 192.21C116.051 191.987 116.419 191.662 116.681 191.233C117.091 190.56 117.22 189.797 117.07 188.944C116.928 188.14 116.549 187.487 115.932 186.985C115.422 186.57 114.803 186.383 114.074 186.424C113.921 186.433 113.764 186.451 113.601 186.48L111.427 186.863C110.648 187.001 109.917 186.99 109.233 186.831C108.549 186.672 107.97 186.399 107.495 186.011C107.02 185.624 106.628 185.162 106.32 184.626C106.012 184.091 105.803 183.506 105.691 182.874C105.463 181.578 105.698 180.388 106.396 179.302C107.094 178.216 108.217 177.536 109.765 177.263L111.909 176.885C112.071 176.857 112.226 176.82 112.373 176.775C113.066 176.563 113.59 176.169 113.946 175.594C114.377 174.897 114.519 174.132 114.372 173.298C114.371 173.288 114.369 173.278 114.367 173.268C114.217 172.459 113.822 171.801 113.18 171.295C112.769 170.971 112.304 170.782 111.786 170.728C111.485 170.697 111.167 170.711 110.831 170.77L109.145 171.067C107.715 171.319 106.426 171.761 105.277 172.394C104.128 173.026 103.186 173.772 102.453 174.631C101.721 175.49 101.134 176.443 100.693 177.488C100.252 178.534 99.9815 179.61 99.8815 180.714C99.8712 180.829 99.8624 180.943 99.8552 181.058ZM119.126 188.581C119.416 190.226 120.233 191.087 121.576 191.164C121.882 191.181 122.214 191.158 122.573 191.095L132.556 189.335C133.049 189.248 133.471 189.083 133.823 188.84C134.111 188.64 134.353 188.388 134.547 188.083C134.976 187.407 135.116 186.642 134.965 185.788C134.862 185.201 134.644 184.703 134.312 184.296C134.162 184.112 133.988 183.945 133.791 183.798C133.506 183.584 133.194 183.435 132.855 183.35C132.442 183.246 131.989 183.238 131.496 183.325L124.442 184.569L124.07 182.46L129.941 181.425C130.383 181.347 130.764 181.2 131.084 180.983C131.356 180.799 131.584 180.565 131.768 180.28C132.003 179.915 132.146 179.525 132.195 179.109C132.213 178.965 132.219 178.817 132.214 178.667C132.209 178.516 132.192 178.363 132.165 178.206C132.14 178.065 132.107 177.929 132.066 177.798C131.889 177.225 131.561 176.756 131.082 176.394C131.058 176.375 131.033 176.357 131.008 176.339C130.759 176.163 130.489 176.039 130.199 175.966C129.825 175.872 129.417 175.864 128.975 175.942L123.103 176.977L122.739 174.914L129.794 173.67C130.02 173.63 130.231 173.574 130.427 173.501C131.01 173.285 131.463 172.924 131.784 172.418C131.92 172.205 132.027 171.982 132.105 171.751C132.273 171.25 132.306 170.707 132.203 170.123C132.053 169.27 131.66 168.599 131.025 168.11C130.972 168.07 130.919 168.032 130.864 167.996C130.262 167.597 129.549 167.47 128.726 167.615L118.743 169.375C118.393 169.437 118.08 169.526 117.805 169.642C116.552 170.171 116.072 171.262 116.364 172.916L119.126 188.581ZM135.16 173.985C135.207 174.219 135.258 174.444 135.314 174.661C135.361 174.842 135.412 175.017 135.465 175.186C135.75 176.087 136.131 176.832 136.608 177.423C136.645 177.468 136.682 177.512 136.719 177.556C136.832 177.686 136.95 177.808 137.073 177.922C137.217 178.054 137.367 178.176 137.524 178.286C138.046 178.653 138.647 178.908 139.328 179.052C140.214 179.238 141.235 179.235 142.39 179.043C142.43 179.036 142.47 179.029 142.51 179.022L145.527 178.49C145.912 178.422 146.226 178.486 146.468 178.681C146.711 178.877 146.861 179.135 146.918 179.456C146.969 179.747 146.911 180.024 146.744 180.287C146.577 180.549 146.306 180.713 145.931 180.779L139.823 181.857C139.323 181.945 138.896 182.109 138.542 182.349C138.241 182.554 137.993 182.814 137.798 183.13C137.748 183.211 137.702 183.293 137.66 183.375C137.346 183.992 137.251 184.655 137.376 185.363C137.521 186.186 137.903 186.852 138.521 187.359C138.812 187.598 139.137 187.762 139.494 187.853C139.896 187.954 140.339 187.962 140.824 187.877L146.665 186.847C151.083 186.068 152.885 183.374 152.072 178.765C151.703 176.672 150.976 175.176 149.89 174.277C149.819 174.219 149.747 174.163 149.673 174.109C148.896 173.546 147.925 173.242 146.76 173.199C146.161 173.176 145.511 173.222 144.809 173.337C144.758 173.346 144.706 173.354 144.654 173.364L141.637 173.896C141.262 173.962 140.957 173.902 140.721 173.715C140.485 173.529 140.34 173.286 140.287 172.984C140.23 172.663 140.279 172.377 140.433 172.128C140.587 171.878 140.857 171.719 141.241 171.651L146.329 170.754C147.295 170.584 148.003 170.143 148.452 169.432C148.579 169.231 148.682 169.026 148.762 168.817C148.964 168.287 149.013 167.73 148.91 167.146C148.769 166.343 148.369 165.691 147.712 165.191C147.054 164.691 146.247 164.525 145.291 164.694L140.558 165.528C138.626 165.869 137.19 166.573 136.25 167.639C135.761 168.194 135.406 168.847 135.185 169.598C134.85 170.734 134.823 172.095 135.103 173.681C135.121 173.784 135.14 173.885 135.16 173.985ZM91.7617 187.333L88.9073 187.837L89.7697 183.647L91.7617 187.333Z" fill="#646377"/>
<rect x="95.6145" y="164.776" width="4.42244" height="9.9078" transform="rotate(-32.7489 95.6145 164.776)" fill="#646377"/>
<rect x="121.088" y="166.836" width="4.42244" height="16.724" transform="rotate(-102.866 121.088 166.836)" fill="#646377"/>
<rect x="146.968" y="151.171" width="4.42244" height="13.1839" transform="rotate(-7.6605 146.968 151.171)" fill="#646377"/>
<rect x="182.491" y="135.734" width="4.42244" height="9.30581" transform="rotate(-101.069 182.491 135.734)" fill="#646377"/>
<rect x="160.073" y="134.458" width="4.42244" height="9.30581" transform="rotate(-101.069 160.073 134.458)" fill="#646377"/>
<path d="M139.677 137.538L137.218 134.899L146.047 120.551L148.501 130.559L149.351 134.899L144.371 137.538L139.677 137.538Z" fill="#646377"/>
<rect x="100.575" y="161.805" width="4.42244" height="9.9078" transform="rotate(-32.7489 100.575 161.805)" fill="#646377"/>
<rect x="97.6005" y="159.653" width="1.89681" height="11.0418" rx="0.948404" transform="rotate(-32.7489 97.6005 159.653)" fill="white"/>
</svg>
