<svg width="300" height="301" viewBox="0 0 300 301" fill="none" xmlns="http://www.w3.org/2000/svg">
<rect x="-0.0227051" y="0.928711" width="300" height="300" fill="#FAFAFA"/>
<path fill-rule="evenodd" clip-rule="evenodd" d="M132.871 168.044C133.773 166.341 134.538 164.606 135.087 161.353C137.639 146.214 145.191 141.095 153.774 138.892C153.225 160.411 141.2 166.992 132.871 168.044Z" fill="#646377"/>
<path fill-rule="evenodd" clip-rule="evenodd" d="M124.712 112.005C125.074 115.011 126.264 119.399 123.38 122.991C120.497 126.584 116.536 129.891 112.184 138.872C107.831 147.852 100.209 163.629 116.643 156.886C133.078 150.143 131.413 141.856 132.018 134.003C132.621 126.151 132.454 121.362 129.719 115.495C126.984 109.629 124.273 108.345 124.712 112.005V112.005Z" fill="#646377"/>
<path fill-rule="evenodd" clip-rule="evenodd" d="M118.942 96.3118C124.068 98.507 120.872 109.518 121.892 114.76C122.916 120.004 122.078 122.197 118.987 124.792C115.897 127.387 117.643 121.269 117.852 116.325C118.06 111.38 116.418 103.141 109.473 102.851C102.528 102.56 98.1463 100.397 103.159 99.3687C108.172 98.3388 114.87 92.6754 118.942 96.3118V96.3118Z" fill="#646377"/>
<path fill-rule="evenodd" clip-rule="evenodd" d="M110.872 134.606C107.667 139.92 104.533 149.448 104.356 153.65C104.18 157.851 103.268 161.776 95.7359 157.747C88.2031 153.719 84.7738 146.641 80.6396 144.488C76.5064 142.334 69.1377 140.293 71.2566 137.162C73.377 134.032 82.2336 136.135 88.2997 133.665C94.3683 131.193 113.023 130.734 110.872 134.606V134.606Z" fill="#646377"/>
<path fill-rule="evenodd" clip-rule="evenodd" d="M115.094 111.01C115.878 115.995 115.887 127.634 109.602 129.353C103.317 131.071 92.9413 129.648 87.1842 130.646C81.4275 131.643 76.9738 131.21 89.6142 126.042C102.255 120.873 107.414 116.384 109.76 113.759C112.107 111.132 115.228 107.796 115.094 111.01V111.01Z" fill="#646377"/>
<path fill-rule="evenodd" clip-rule="evenodd" d="M92.5092 122.201C86.2254 123.844 76.1594 134.366 71.2763 128.961C66.3917 123.558 70.3199 118.055 73.7014 114.481C77.0812 110.909 74.9096 115.275 75.0641 117.51C75.2187 119.745 82.1283 123.023 85.6725 121.439C89.2184 119.852 96.3062 121.208 92.5092 122.201V122.201Z" fill="#646377"/>
<path fill-rule="evenodd" clip-rule="evenodd" d="M109.451 109.288C108.347 106.022 99.0656 102.169 91.5831 102.847C84.101 103.525 79.6658 108.54 78.353 110.219C77.0407 111.896 78.7243 113.206 81.8254 110.363C84.9267 107.521 97.6076 107.308 101.793 108.226C105.979 109.144 109.626 111.029 109.451 109.288Z" fill="#646377"/>
<path fill-rule="evenodd" clip-rule="evenodd" d="M105.824 112.851C103.693 116.229 96.8421 119.632 91.932 118.189C87.0235 116.745 81.3189 110.59 86.5168 111.055C91.7155 111.519 108.46 109.247 105.824 112.851V112.851Z" fill="#646377"/>
<path fill-rule="evenodd" clip-rule="evenodd" d="M231.396 189.092H245.772C245.772 188.206 245.577 187.413 245.189 186.712C244.8 186.011 244.254 185.411 243.559 184.903C242.865 184.396 242.124 184.018 241.338 183.769C240.551 183.52 239.699 183.39 238.773 183.39C237.005 183.39 235.395 183.898 233.96 184.903C232.525 185.909 231.673 187.311 231.396 189.092V189.092ZM225.166 193.022V192.671C225.166 189.304 226.387 186.296 228.841 183.649C231.284 181.001 234.737 179.682 239.181 179.682C241.458 179.682 243.559 180.208 245.485 181.259C247.41 182.32 248.919 183.796 250.002 185.706C251.03 187.551 251.548 189.692 251.548 192.146V192.358H231.164C231.164 194.895 231.969 197.22 233.571 199.323C235.172 201.418 237.626 202.626 240.939 202.93C241.513 202.93 241.976 202.967 242.319 203.041C243.022 203.041 243.763 202.977 244.55 202.838C245.327 202.7 246.16 202.515 247.04 202.285C248.669 201.814 250.141 201.104 251.437 200.163H251.548L248.836 205.292C246.253 206.261 243.698 206.75 241.162 206.75C236.876 206.75 233.145 205.523 229.951 203.06C226.758 200.606 225.166 197.257 225.166 193.022V193.022Z" fill="#646377"/>
<path fill-rule="evenodd" clip-rule="evenodd" d="M202.504 187.145C202.504 184.516 203.615 182.634 205.827 181.499C208.04 180.364 210.66 179.792 213.678 179.792C216.047 179.792 218.047 180.014 219.676 180.466V185.217C217.621 184.073 215.27 183.501 212.632 183.501C209.29 183.501 207.614 184.378 207.614 186.121V186.333C207.725 187.127 208.225 187.764 209.132 188.252C210.003 188.797 211.511 189.406 213.659 190.088C215.816 190.771 217.38 191.343 218.352 191.786C219.639 192.422 220.676 193.262 221.472 194.332C222.268 195.393 222.666 196.592 222.666 197.949C222.666 200.753 221.388 202.903 218.824 204.397C216.27 205.892 213.437 206.639 210.345 206.639C207.614 206.639 205.143 206.187 202.93 205.292L201.116 199.941C202.578 200.956 204.152 201.731 205.827 202.257C207.494 202.783 209.317 203.041 211.289 203.041C213.261 203.041 214.779 202.755 215.834 202.174C216.89 201.602 217.482 200.781 217.612 199.72V199.388C217.612 198.548 217.278 197.819 216.612 197.229C215.834 196.565 214.714 195.974 213.27 195.467L208.66 193.852C206.651 193.022 205.124 192.136 204.078 191.186C203.032 190.236 202.504 188.889 202.504 187.145V187.145Z" fill="#646377"/>
<path fill-rule="evenodd" clip-rule="evenodd" d="M176.233 192.58C176.233 194.471 176.603 196.205 177.334 197.792C178.066 199.379 179.112 200.67 180.445 201.667C181.787 202.654 183.213 203.152 184.722 203.152L185.157 203.042C186.48 203.042 187.656 202.802 188.693 202.322C189.72 201.852 190.6 201.15 191.331 200.228C192.747 198.447 193.451 196.316 193.451 193.844C193.451 191.085 192.646 188.649 191.044 186.546C189.443 184.433 187.332 183.382 184.722 183.382H184.583C183.602 183.382 182.648 183.566 181.731 183.935C180.806 184.304 179.889 184.858 178.982 185.596C177.149 187.044 176.233 189.369 176.233 192.58V192.58ZM170.568 193.299C170.568 192.183 170.707 191.094 170.984 190.042C171.271 188.991 171.688 187.911 172.252 186.813C173.28 184.784 174.928 183.104 177.196 181.776C179.464 180.457 182.148 179.792 185.231 179.792H185.666C187.906 179.792 190.026 180.291 192.016 181.278C194.145 182.375 195.867 183.953 197.163 186.02C198.468 188.077 199.116 190.411 199.116 193.022C199.116 195.476 198.45 197.755 197.108 199.858C195.775 201.971 193.979 203.622 191.729 204.831C189.48 206.04 187.138 206.639 184.694 206.639C180.315 206.639 176.872 205.32 174.354 202.672C171.827 200.024 170.568 197.008 170.568 193.622V193.299Z" fill="#646377"/>
<path fill-rule="evenodd" clip-rule="evenodd" d="M144.018 198.151V176.886C144.018 175.678 143.991 174.681 143.935 173.897C143.88 173.113 143.787 172.439 143.639 171.876C143.407 170.871 142.695 170.142 141.519 169.708L141.63 169.496H154.618C157.441 169.496 159.728 169.967 161.477 170.917C163.236 171.867 164.523 173.085 165.356 174.561C165.995 175.788 166.309 177.061 166.309 178.381L166.226 179.386C165.772 183.63 162.847 186.582 157.46 188.243L165.957 198.843C167.614 201.002 170.438 203.382 174.418 205.975H168.735C166.198 205.975 164.125 204.895 162.533 202.727L156.062 194.747L150.952 187.034C153.609 186.619 155.932 185.697 157.941 184.267C159.728 182.966 160.625 181.305 160.625 179.276V178.704C160.625 177.716 160.44 176.849 160.061 176.12C159.681 175.382 159.126 174.764 158.404 174.257C156.997 173.371 155.275 172.928 153.229 172.928C152.35 172.928 151.165 173.085 149.684 173.39V198.262V199.535C149.684 201.334 149.822 202.635 150.091 203.428C150.359 204.407 151.045 205.218 152.127 205.864V205.975H141.63V205.763C142.695 205.311 143.361 204.517 143.62 203.391C143.889 202.266 144.018 200.513 144.018 198.151V198.151Z" fill="#646377"/>
<path fill-rule="evenodd" clip-rule="evenodd" d="M106.337 192.815C106.337 190.822 106.865 188.765 107.92 186.662C108.985 184.558 110.521 182.851 112.53 181.541C114.548 180.24 116.946 179.586 119.732 179.586H119.945C122.879 179.586 125.619 180.637 128.165 182.741C128.165 180.309 128.216 175.153 127.102 170.707C125.657 164.939 123.349 160.077 121.851 157.509L121.914 157.468C122.025 157.396 126.283 160.437 129.49 167.137C132.209 172.818 133.24 177.725 133.164 182.792L132.904 200.064C132.874 202.057 133.469 204.514 135.33 205.556V205.768H128.165V191.265C128.165 188.636 127.425 186.643 125.943 185.287C125.203 184.623 124.351 184.106 123.407 183.737C122.454 183.368 121.426 183.183 120.324 183.183C118.084 183.183 116.14 184.042 114.483 185.748C112.826 187.464 112.002 189.632 112.002 192.261V192.833C112.002 194.273 112.262 195.592 112.789 196.791C113.308 197.991 114.057 199.061 115.039 199.993C116.011 200.934 117.047 201.644 118.14 202.115C119.232 202.594 120.417 202.834 121.676 202.834C122.657 202.834 123.555 202.696 124.388 202.41C125.221 202.133 125.98 201.736 126.665 201.229L123.277 206.22C122.176 206.359 121.232 206.432 120.463 206.432C116.881 206.432 113.632 205.362 110.716 203.222C107.8 201.072 106.337 197.612 106.337 192.815H106.337Z" fill="#646377"/>
<path fill-rule="evenodd" clip-rule="evenodd" d="M83.7962 188.885H98.1723C98.1723 187.999 97.9778 187.206 97.5892 186.504C97.2003 185.803 96.6542 185.204 95.9599 184.696C95.2656 184.189 94.5251 183.811 93.7382 183.561C92.9512 183.312 92.0997 183.183 91.174 183.183C89.4059 183.183 87.7953 183.69 86.3604 184.696C84.9256 185.702 84.0739 187.104 83.7962 188.885V188.885ZM77.5663 192.815V192.464C77.5663 189.097 78.788 186.089 81.2412 183.442C83.685 180.794 87.1379 179.475 91.5812 179.475C93.8586 179.475 95.96 180.001 97.8854 181.052C99.8107 182.113 101.32 183.589 102.403 185.499C103.43 187.344 103.949 189.485 103.949 191.939V192.151H83.5648C83.5648 194.688 84.3701 197.013 85.9716 199.116C87.573 201.211 90.0262 202.419 93.3401 202.723C93.914 202.723 94.3768 202.76 94.7195 202.834C95.4231 202.834 96.1635 202.77 96.9503 202.631C97.728 202.493 98.5612 202.308 99.4404 202.078C101.07 201.607 102.542 200.897 103.838 199.956H103.949L101.236 205.085C98.6537 206.054 96.0987 206.543 93.5624 206.543C89.2762 206.543 85.5456 205.316 82.352 202.853C79.1582 200.399 77.5663 197.05 77.5663 192.815Z" fill="#646377"/>
<path fill-rule="evenodd" clip-rule="evenodd" d="M50.9059 197.944V176.679C50.9059 175.471 50.878 174.474 50.8227 173.69C50.767 172.906 50.6745 172.232 50.5264 171.669C50.295 170.664 49.582 169.935 48.4065 169.501L48.5175 169.289H61.5052C64.3285 169.289 66.6151 169.76 68.3646 170.71C70.1235 171.66 71.4101 172.878 72.2432 174.354C72.8821 175.581 73.1968 176.854 73.1968 178.174L73.1135 179.179C72.6599 183.423 69.7346 186.375 64.347 188.036L72.8449 198.636C74.502 200.795 77.3254 203.175 81.3058 205.768H75.6222C73.0858 205.768 71.012 204.688 69.42 202.52L62.9492 194.54L57.8394 186.827C60.4961 186.412 62.8197 185.49 64.8284 184.06C66.6151 182.759 67.5129 181.098 67.5129 179.069V178.497C67.5129 177.509 67.3278 176.642 66.9484 175.913C66.5687 175.175 66.0132 174.557 65.2914 174.05C63.8843 173.164 62.1624 172.721 60.1165 172.721C59.2372 172.721 58.0524 172.878 56.5712 173.183V198.055V199.328C56.5712 201.127 56.7099 202.428 56.9784 203.221C57.2468 204.199 57.932 205.011 59.0149 205.657V205.768H48.5175V205.556C49.582 205.104 50.2485 204.31 50.5078 203.185C50.7762 202.059 50.9059 200.306 50.9059 197.944V197.944Z" fill="#646377"/>
</svg>
