<svg width="300" height="300" viewBox="0 0 300 300" fill="none" xmlns="http://www.w3.org/2000/svg">
<rect width="300" height="300" fill="#FAFAFA"/>
<path fill-rule="evenodd" clip-rule="evenodd" d="M132.099 96.8125H120.165L120.165 144.549V156.483L120.165 156.483H132.099V156.483H155.967V144.549H132.099V96.8125Z" fill="#646377"/>
<rect x="167.901" y="144.548" width="11.9342" height="11.9342" fill="#646377"/>
<path fill-rule="evenodd" clip-rule="evenodd" d="M167.901 96.8115H179.836V132.614H167.901V120.68H155.967V132.614H144.033V96.8119H155.967V108.746H167.901V96.8115Z" fill="#646377"/>
<path d="M25.3196 180.746V203.064H39.1446V198.848H29.7833V180.746H25.3196Z" fill="#646377"/>
<path d="M60.1278 180.746H55.6641V197.918C55.6641 198.6 55.2921 198.972 54.6102 198.972H49.7125C49.0305 198.972 48.6586 198.6 48.6586 197.918V180.746H44.1949V198.786C44.1949 201.39 45.9928 203.188 48.5966 203.188H55.7261C58.3299 203.188 60.1278 201.39 60.1278 198.786V180.746Z" fill="#646377"/>
<path d="M74.0003 195.687L78.34 203.064H83.5477L76.8831 191.905L83.3617 180.746H78.495L74.3723 187.782L70.2186 180.746H65.0109L71.5205 191.626L64.8249 203.064H69.6916L74.0003 195.687Z" fill="#646377"/>
<path d="M104.161 180.746H99.6968V197.918C99.6968 198.6 99.3249 198.972 98.6429 198.972H93.7453C93.0633 198.972 92.6913 198.6 92.6913 197.918V180.746H88.2276V198.786C88.2276 201.39 90.0255 203.188 92.6293 203.188H99.7588C102.363 203.188 104.161 201.39 104.161 198.786V180.746Z" fill="#646377"/>
<path d="M127.514 203.064L123.794 194.602C125.654 194.075 126.832 192.494 126.832 190.386V185.147C126.832 182.543 125.034 180.746 122.43 180.746H111.054V203.064H115.518V194.788H119.114L122.709 203.064H127.514ZM122.368 189.58C122.368 190.262 121.996 190.634 121.314 190.634H115.518V184.961H121.314C121.996 184.961 122.368 185.333 122.368 186.015V189.58Z" fill="#646377"/>
<path d="M142.319 203.064V195.346L149.201 180.746H144.303L140.088 190.293L135.872 180.746H130.974L137.856 195.346V203.064H142.319Z" fill="#646377"/>
<path d="M164.102 203.064H168.565V193.765H176.253V203.064H180.717V180.746H176.253V189.549H168.565V180.746H164.102V203.064Z" fill="#646377"/>
<path d="M191.824 180.622C189.22 180.622 187.423 182.419 187.423 185.023V198.786C187.423 201.39 189.22 203.188 191.824 203.188H199.295C201.899 203.188 203.696 201.39 203.696 198.786V185.023C203.696 182.419 201.899 180.622 199.295 180.622H191.824ZM199.233 197.918C199.233 198.6 198.861 198.972 198.179 198.972H192.94C192.258 198.972 191.886 198.6 191.886 197.918V185.891C191.886 185.209 192.258 184.837 192.94 184.837H198.179C198.861 184.837 199.233 185.209 199.233 185.891V197.918Z" fill="#646377"/>
<path d="M231.731 180.746H226.834L221.068 193.827L215.303 180.746H210.405V203.064H214.621V188.185L219.456 199.499H222.68L227.516 188.185V203.064H231.731V180.746Z" fill="#646377"/>
<path d="M238.945 180.746V203.064H253.545V198.848H243.408V193.765H251.623V189.549H243.408V184.961H253.545V180.746H238.945Z" fill="#646377"/>
<path d="M269.969 187.627H274.308V185.023C274.308 182.419 272.511 180.622 269.907 180.622H263.335C260.731 180.622 258.934 182.419 258.934 185.023V188.805C258.934 191.285 260.979 192.742 263.397 193.269L269.163 194.509C269.845 194.664 270.217 194.881 270.217 195.563V197.918C270.217 198.6 269.845 198.972 269.163 198.972H264.327C263.645 198.972 263.273 198.6 263.273 197.918V195.935H258.934V198.786C258.934 201.39 260.731 203.188 263.335 203.188H270.279C272.883 203.188 274.68 201.39 274.68 198.786V194.757C274.68 192.277 272.635 190.82 270.217 190.293L264.451 189.053C263.769 188.898 263.397 188.681 263.397 187.999V185.891C263.397 185.209 263.769 184.837 264.451 184.837H268.915C269.597 184.837 269.969 185.209 269.969 185.891V187.627Z" fill="#646377"/>
</svg>
