<svg width="300" height="300" viewBox="0 0 300 300" fill="none" xmlns="http://www.w3.org/2000/svg">
<rect width="300" height="300" fill="#FAFAFA"/>
<path fill-rule="evenodd" clip-rule="evenodd" d="M47.9593 162.56H45.1488C45.0009 162.56 44.89 162.486 44.853 162.376C43.5367 159.296 42.3411 156.499 41.2663 153.985L41.2661 153.985C36.4832 142.796 34.0918 137.202 34.0918 137.142C34.0918 136.775 34.2767 136.591 34.7205 136.591H46.4062C46.5171 136.591 46.628 136.665 46.739 136.775L54.135 153.414L71.6635 136.775C71.8114 136.665 71.9594 136.591 72.1073 136.591H74.548C74.8438 136.591 74.9917 136.702 74.9917 136.885C74.9917 137.032 74.8808 137.179 74.6959 137.399L48.4031 162.376C48.2552 162.486 48.1072 162.56 47.9593 162.56ZM93.7036 162.082C93.5927 162.412 93.3708 162.596 93.075 162.596H76.6928C75.1396 162.596 73.9193 162.045 72.9948 160.906C71.9963 159.768 71.5156 158.078 71.5156 155.874C71.5156 154.185 71.8114 152.348 72.4401 150.328L76.4709 137.105C76.5819 136.775 76.8037 136.628 77.0996 136.628H87.0472C87.2691 136.628 87.38 136.738 87.38 136.958C87.38 137.032 87.38 137.105 87.3431 137.105L82.7575 152.165C82.1659 154.038 81.87 155.397 81.87 156.205C81.87 157.491 82.5357 158.115 83.83 158.115H94.4432C94.6651 158.115 94.7761 158.225 94.7761 158.446V158.629L93.7036 162.082ZM135.491 162.596C135.935 162.596 136.12 162.412 136.12 162.008C136.12 161.935 132.533 153.524 125.396 136.811C125.285 136.701 125.174 136.628 125.063 136.628H122.289C122.141 136.628 121.993 136.701 121.845 136.811L95.5157 161.788C95.3308 162.008 95.2198 162.155 95.2198 162.302C95.2198 162.486 95.3677 162.596 95.6636 162.596H115.67C116.003 162.596 116.188 162.412 116.261 162.082C117.001 159.731 117.371 158.519 117.371 158.446C117.371 158.225 117.26 158.115 117.038 158.115H103.208L116.077 145.737L123.51 162.412C123.547 162.523 123.657 162.596 123.842 162.596H135.491ZM167.109 158.629C164.779 161.274 162.339 162.596 159.787 162.596H139.152C138.93 162.596 138.819 162.486 138.819 162.266C138.819 162.155 141.371 153.781 146.511 137.105C146.622 136.775 146.807 136.628 147.14 136.628H167.775C169.365 136.628 170.622 137.179 171.51 138.28C172.508 139.493 173.026 141.182 173.026 143.423C173.026 145.369 172.656 147.426 171.953 149.593C170.844 153.193 169.217 156.205 167.109 158.629ZM162.56 143.056C162.56 143.864 162.265 145.186 161.71 147.023L160.453 151.173C160.12 152.202 159.787 153.12 159.491 153.891C159.195 154.663 158.899 155.324 158.604 155.801C157.679 157.344 156.607 158.115 155.386 158.115H150.394L155.608 141.109H160.601C161.895 141.109 162.56 141.733 162.56 143.056ZM196.989 162.082C196.878 162.412 196.656 162.596 196.323 162.596H178.684C177.094 162.596 175.836 162.008 174.949 160.87C173.95 159.621 173.47 157.895 173.47 155.654C173.47 153.781 173.802 151.761 174.505 149.593C175.614 145.957 177.242 142.945 179.349 140.558C181.642 137.95 184.083 136.628 186.671 136.628H204.311C204.533 136.628 204.644 136.738 204.644 136.958V137.105L203.571 140.631C203.46 140.925 203.276 141.109 202.943 141.109H191.072C189.852 141.109 188.816 141.696 188.04 142.872C187.485 143.68 186.93 145.076 186.339 147.022L185.081 151.173C184.416 153.34 184.046 154.919 184.046 155.911C184.046 157.38 184.675 158.115 185.858 158.115H197.729C197.95 158.115 198.098 158.225 198.098 158.446C198.061 158.482 198.061 158.556 198.061 158.629L196.989 162.082ZM200.021 150.696C200.354 150.696 200.539 150.549 200.613 150.218C201.353 147.868 201.722 146.655 201.722 146.582C201.722 146.325 201.611 146.215 201.39 146.215H188.816C188.52 146.215 188.336 146.362 188.225 146.692L187.912 147.752C187.413 149.449 187.152 150.334 187.152 150.365C187.152 150.586 187.226 150.696 187.448 150.696H200.021ZM212.336 162.082C212.262 162.412 212.04 162.596 211.707 162.596H202.314C202.092 162.596 201.981 162.486 201.981 162.266C201.981 162.155 204.533 153.781 209.673 137.105C209.747 136.775 209.969 136.628 210.265 136.628H219.695C219.917 136.628 219.991 136.738 219.991 136.958C219.991 137.068 217.439 145.443 212.336 162.082ZM233.599 162.596C234.006 162.596 234.228 162.412 234.228 162.008C234.228 161.935 231.75 156.609 226.795 146.067L239.775 137.509C240.071 137.325 240.182 137.142 240.182 136.921C240.182 136.738 240.034 136.628 239.775 136.628H233.451C233.34 136.628 233.266 136.664 233.155 136.738L218.918 146.104C218.77 146.178 218.696 146.288 218.622 146.471L217.661 149.557L217.698 149.851L223.319 162.412C223.356 162.523 223.467 162.596 223.615 162.596H233.599ZM258.006 161.421C256.157 162.192 254.049 162.596 251.645 162.596H236.632C236.41 162.596 236.262 162.486 236.262 162.266C236.299 162.229 236.299 162.155 236.299 162.082L237.371 158.629C237.482 158.299 237.667 158.115 238 158.115H249.575L243.066 149.483C241.809 147.867 241.18 146.214 241.18 144.525C241.18 142.615 241.92 140.925 243.399 139.493C243.991 138.942 244.619 138.464 245.322 138.06C245.987 137.656 246.69 137.325 247.467 137.068C248.465 136.775 249.464 136.628 250.462 136.628H266.363C266.622 136.628 266.733 136.738 266.733 136.958C266.733 137.032 266.696 137.105 266.696 137.105L265.624 140.631C265.513 140.925 265.328 141.109 264.995 141.109H253.347L259.781 149.851C261.371 152.018 262.185 154.001 262.185 155.838C262.185 158.409 260.78 160.245 258.006 161.421Z" fill="#646377"/>
<path fill-rule="evenodd" clip-rule="evenodd" d="M29.9669 126.026H270.033V129.277H29.9669V126.026Z" fill="#646377"/>
<path fill-rule="evenodd" clip-rule="evenodd" d="M29.9669 170.723H270.033V173.973H29.9669V170.723Z" fill="#646377"/>
</svg>
