<svg width="300" height="300" viewBox="0 0 300 300" fill="none" xmlns="http://www.w3.org/2000/svg">
<rect width="300" height="300" fill="#FAFAFA"/>
<path fill-rule="evenodd" clip-rule="evenodd" d="M92.916 180.424L95.2098 183.651C94.918 184.25 94.5423 184.968 94.0827 185.806C93.6233 186.643 93.1164 187.536 92.5618 188.484C92.0074 189.433 91.4325 190.39 90.8365 191.357C90.2407 192.324 89.6801 193.232 89.1547 194.084C90.1331 193.87 91.1773 193.641 92.2876 193.398C93.3981 193.155 94.4928 192.929 95.5721 192.719C96.6515 192.509 97.6628 192.326 98.606 192.169C99.549 192.012 100.352 191.894 101.014 191.817L103.2 194.893C102.305 195.744 101.283 196.669 100.134 197.669C98.9852 198.668 97.7754 199.688 96.5047 200.731C95.2338 201.772 93.9542 202.81 92.6662 203.842C91.378 204.875 90.1615 205.841 89.0168 206.739L86.6767 203.447C88.1063 202.368 89.6556 201.183 91.325 199.891C92.9944 198.599 94.6524 197.26 96.2993 195.876C95.5068 196.046 94.6284 196.233 93.6644 196.437C92.7006 196.641 91.7394 196.848 90.7805 197.06C89.8217 197.271 88.9032 197.47 88.0251 197.657C87.1467 197.844 86.3968 198.005 85.7756 198.141L84.0975 195.78C84.4304 195.239 84.8301 194.585 85.2967 193.819C85.763 193.052 86.2542 192.252 86.7703 191.418C87.2863 190.584 87.7999 189.746 88.3107 188.905C88.8216 188.063 89.2881 187.297 89.7101 186.606C87.8578 187.701 86.0459 188.823 84.2737 189.971C82.5019 191.118 80.8704 192.188 79.3792 193.18L77.0391 189.888C78.2659 189.105 79.5797 188.277 80.9808 187.403C82.3819 186.529 83.7844 185.665 85.1888 184.811C86.5928 183.957 87.9566 183.152 89.2802 182.399C90.6038 181.645 91.8156 180.987 92.916 180.424ZM98.0607 214.055L109.785 199.852L112.986 202.487L101.262 216.691L98.0607 214.055ZM125.954 229.598L122.779 228.163C122.567 225.754 122.254 223.329 121.842 220.888C121.43 218.448 120.89 216.075 120.221 213.771L115.243 224.758L111.511 223.071L119.11 206.301L122.187 207.692C122.479 208.465 122.773 209.385 123.068 210.451C123.363 211.517 123.647 212.642 123.919 213.824C124.191 215.006 124.444 216.219 124.679 217.462C124.914 218.705 125.125 219.894 125.312 221.028L129.796 211.13L133.552 212.827L125.954 229.598ZM137.965 231.587L140.742 213.389L144.845 214.014L142.067 232.211L137.965 231.587ZM158.815 228.919C159.397 228.861 159.873 228.763 160.242 228.628C160.612 228.493 160.903 228.33 161.115 228.14C161.328 227.949 161.466 227.735 161.531 227.497C161.596 227.259 161.614 226.999 161.586 226.717C161.525 226.118 161.193 225.649 160.588 225.31C159.983 224.97 158.97 224.641 157.547 224.322C156.926 224.171 156.302 223.989 155.674 223.776C155.047 223.564 154.474 223.275 153.956 222.909C153.437 222.543 152.998 222.08 152.639 221.52C152.279 220.96 152.056 220.258 151.971 219.412C151.885 218.566 151.967 217.788 152.216 217.078C152.465 216.367 152.856 215.745 153.39 215.211C153.924 214.676 154.593 214.239 155.396 213.9C156.2 213.561 157.122 213.339 158.162 213.233C159.397 213.109 160.478 213.133 161.405 213.307C162.331 213.48 163.101 213.696 163.716 213.954L162.854 217.325C162.315 217.113 161.723 216.937 161.076 216.797C160.429 216.658 159.665 216.633 158.783 216.722C157.795 216.821 157.099 217.03 156.694 217.347C156.29 217.663 156.116 218.103 156.173 218.667C156.207 219.002 156.315 219.276 156.497 219.489C156.679 219.702 156.925 219.886 157.234 220.041C157.544 220.197 157.896 220.331 158.291 220.442C158.685 220.554 159.12 220.666 159.595 220.778C160.583 221.034 161.447 221.298 162.188 221.57C162.928 221.843 163.555 222.184 164.069 222.595C164.583 223.006 164.986 223.508 165.278 224.102C165.569 224.695 165.76 225.433 165.849 226.313C166.022 228.022 165.556 229.409 164.452 230.472C163.348 231.536 161.587 232.19 159.171 232.434C158.359 232.516 157.622 232.541 156.959 232.51C156.297 232.479 155.707 232.419 155.19 232.329C154.673 232.238 154.226 232.132 153.848 232.01C153.47 231.888 153.151 231.769 152.89 231.653L153.722 228.259C154.299 228.503 155.001 228.704 155.828 228.86C156.655 229.017 157.65 229.037 158.815 228.919ZM168.428 212.054L182.511 206.167L183.877 209.426L178.748 211.57L184.499 225.291L180.671 226.891L174.921 213.169L169.793 215.312L168.428 212.054ZM190.844 199.76C192.979 198.003 194.927 197.036 196.688 196.86C198.449 196.683 199.99 197.394 201.31 198.993C202.133 199.99 202.572 200.988 202.627 201.987C202.682 202.987 202.425 204.018 201.856 205.084C202.437 205.202 203.073 205.361 203.766 205.56C204.458 205.758 205.164 205.98 205.884 206.225C206.603 206.471 207.33 206.745 208.062 207.048C208.795 207.351 209.499 207.661 210.174 207.978L206.571 210.944C205.928 210.693 205.277 210.437 204.616 210.178C203.956 209.918 203.3 209.678 202.648 209.457C201.996 209.237 201.368 209.037 200.762 208.858C200.157 208.68 199.582 208.539 199.039 208.435L197.459 209.736L201.739 214.922L198.537 217.557L186.982 203.559C187.567 202.848 188.21 202.158 188.911 201.489C189.611 200.821 190.256 200.244 190.844 199.76ZM193.279 202.334C193.046 202.526 192.843 202.704 192.67 202.87C192.496 203.036 192.333 203.193 192.18 203.342L195.361 207.195L196.264 206.452C197.468 205.46 198.206 204.601 198.478 203.872C198.749 203.143 198.586 202.417 197.989 201.693C197.413 200.996 196.741 200.717 195.972 200.857C195.202 200.997 194.305 201.489 193.279 202.334ZM211.453 188.395C210.797 187.092 210.122 185.818 209.428 184.575C208.734 183.332 208.004 182.128 207.238 180.965L209.704 177.117C210.832 179.036 211.888 180.952 212.873 182.864C213.859 184.776 214.818 186.745 215.751 188.771L221.688 192.565L219.451 196.055L213.56 192.289C211.326 192.292 209.124 192.246 206.954 192.152C204.783 192.057 202.589 191.9 200.371 191.682L202.966 187.632C204.344 187.841 205.738 188.008 207.149 188.132C208.56 188.257 209.994 188.344 211.453 188.395Z" fill="#646377"/>
<path fill-rule="evenodd" clip-rule="evenodd" d="M197.485 106.782L194.646 103.662L208.521 91.0683L216.965 100.346L214.342 102.727L208.737 96.5681L205.834 99.2032L210.82 104.682L208.197 107.063L203.211 101.584L197.485 106.782ZM205.369 117.396L221.401 107.684L223.589 111.288L207.558 121L205.369 117.396ZM229.832 126.385C230.667 129.068 230.828 131.272 230.317 132.997C229.805 134.721 228.542 135.896 226.526 136.521C225.269 136.912 224.159 136.94 223.196 136.607C222.233 136.274 221.359 135.635 220.573 134.691C220.238 135.191 219.844 135.729 219.39 136.303C218.936 136.878 218.455 137.457 217.946 138.039C217.438 138.621 216.9 139.198 216.332 139.771C215.764 140.343 215.201 140.886 214.643 141.398L213.233 136.868C213.717 136.361 214.209 135.847 214.708 135.325C215.207 134.804 215.686 134.279 216.145 133.751C216.604 133.224 217.034 132.71 217.435 132.209C217.837 131.708 218.191 131.223 218.497 130.751L217.879 128.765L211.343 130.794L210.09 126.768L227.736 121.291C228.182 122.115 228.585 122.985 228.945 123.901C229.306 124.817 229.602 125.645 229.832 126.385ZM226.467 127.683C226.377 127.391 226.286 127.131 226.197 126.904C226.107 126.678 226.022 126.463 225.94 126.263L221.083 127.77L221.436 128.905C221.907 130.419 222.434 131.444 223.017 131.98C223.599 132.516 224.347 132.643 225.259 132.359C226.138 132.086 226.659 131.562 226.823 130.784C226.988 130.007 226.869 128.973 226.467 127.683ZM214.182 159.517L214.287 146.25L233.036 146.399L232.936 159.043L229.392 159.015L229.459 150.585L225.779 150.556L225.72 158.041L222.257 158.013L222.316 150.529L217.798 150.493L217.726 159.545L214.182 159.517ZM154.407 76.696C154.315 77.6097 154.343 78.4457 154.494 79.203C154.644 79.9603 154.903 80.6247 155.271 81.1959C155.64 81.7671 156.114 82.2269 156.696 82.5749C157.277 82.9232 157.962 83.137 158.752 83.2166C159.524 83.2944 160.234 83.221 160.882 82.9966C161.53 82.7721 162.091 82.417 162.567 81.9308C163.042 81.4443 163.428 80.8452 163.727 80.1329C164.026 79.4208 164.221 78.6076 164.313 77.6935C164.405 76.7795 164.377 75.9394 164.228 75.1729C164.079 74.4067 163.82 73.7378 163.452 73.1666C163.083 72.5954 162.604 72.1352 162.014 71.7862C161.424 71.4369 160.743 71.2236 159.971 71.1457C159.181 71.0664 158.466 71.1438 157.826 71.3781C157.186 71.6122 156.629 71.9725 156.154 72.459C155.679 72.9451 155.291 73.5487 154.992 74.2697C154.692 74.991 154.497 75.7997 154.407 76.696ZM168.647 78.1299C168.486 79.7249 168.107 81.1034 167.509 82.2654C166.911 83.4271 166.159 84.3742 165.251 85.1068C164.343 85.8389 163.298 86.3538 162.117 86.6511C160.936 86.9487 159.69 87.0315 158.38 86.8995C157.106 86.7713 155.924 86.444 154.835 85.9178C153.746 85.3918 152.821 84.6785 152.06 83.7783C151.299 82.8776 150.737 81.7982 150.375 80.5396C150.012 79.281 149.912 77.8541 150.073 76.2591C150.234 74.6641 150.627 73.2869 151.251 72.1279C151.876 70.9687 152.656 70.02 153.592 69.2815C154.528 68.5427 155.577 68.0236 156.741 67.7246C157.904 67.4252 159.105 67.338 160.343 67.4628C161.617 67.5911 162.799 67.9184 163.888 68.4446C164.977 68.9706 165.901 69.6883 166.661 70.5977C167.422 71.507 167.983 72.5909 168.345 73.8497C168.708 75.108 168.808 76.535 168.647 78.1299ZM176.657 91.667L172.785 89.9907L180.241 72.8101L191.759 77.7958L190.35 81.0436L182.704 77.734L181.144 81.3289L187.946 84.2729L186.536 87.5207L179.734 84.5767L176.657 91.667ZM86.6211 154.783L87.0453 158.976L68.3904 160.858L67.1289 148.384L70.6553 148.029L71.4926 156.309L75.3959 155.915L74.6509 148.549L78.1773 148.193L78.9223 155.559L86.6211 154.783ZM84.0982 136.715L85.6941 128.574L89.2519 129.27L86.845 141.547L68.4448 137.949L69.2554 133.813L84.0982 136.715ZM99.344 109.918L97.1888 113.884C96.5188 113.757 95.8233 113.64 95.1018 113.532C94.3806 113.425 93.6616 113.313 92.9449 113.197L89.4786 119.576C89.9679 120.111 90.4572 120.646 90.9465 121.18C91.4359 121.715 91.9123 122.236 92.3756 122.742L90.2852 126.59C88.845 125.01 87.5224 123.536 86.317 122.166C85.1117 120.796 83.9873 119.485 82.9436 118.233C81.8999 116.982 80.9193 115.774 80.0016 114.612C79.0841 113.449 78.205 112.281 77.3645 111.109L79.312 107.525C80.7453 107.606 82.2019 107.711 83.6817 107.838C85.162 107.966 86.7116 108.126 88.3307 108.319C89.9499 108.511 91.6626 108.74 93.4688 109.003C95.2753 109.267 97.2338 109.572 99.344 109.918ZM82.0233 111.429C82.2163 111.64 82.4779 111.933 82.8083 112.307C83.1385 112.682 83.5157 113.12 83.9399 113.624C84.3639 114.128 84.8356 114.675 85.3549 115.268C85.8741 115.861 86.4231 116.475 87.0017 117.11L89.5183 112.478C88.6684 112.343 87.8544 112.217 87.0762 112.101C86.2981 111.984 85.5821 111.886 84.9277 111.806C84.2733 111.726 83.6964 111.655 83.1969 111.592C82.6974 111.529 82.3061 111.475 82.0233 111.429ZM91.2781 91.5254L94.3884 88.9642C95.0183 89.2161 95.7757 89.5441 96.66 89.9482C97.5446 90.3524 98.4888 90.8005 99.4929 91.2928C100.497 91.785 101.512 92.2973 102.538 92.8302C103.564 93.3629 104.529 93.8644 105.432 94.3343C105.142 93.3589 104.833 92.3174 104.505 91.21C104.177 90.103 103.867 89.0102 103.574 87.9321C103.282 86.8539 103.021 85.8427 102.793 84.8985C102.564 83.9544 102.386 83.1498 102.258 82.4844L105.223 80.0434C106.154 80.888 107.169 81.8556 108.268 82.9464C109.368 84.0372 110.493 85.1882 111.645 86.3994C112.797 87.6105 113.945 88.8308 115.088 90.0604C116.232 91.2899 117.302 92.4516 118.299 93.5453L115.126 96.1579C113.925 94.7886 112.607 93.3058 111.172 91.7091C109.737 90.1124 108.256 88.5307 106.728 86.9634C106.959 87.7541 107.213 88.6303 107.491 89.5921C107.769 90.5538 108.051 91.5126 108.336 92.4686C108.621 93.4244 108.891 94.3407 109.145 95.2169C109.399 96.0929 109.618 96.8408 109.801 97.4605L107.526 99.334C106.952 99.0362 106.258 98.6793 105.446 98.2628C104.633 97.8466 103.784 97.4076 102.898 96.9459C102.013 96.4842 101.124 96.0254 100.232 95.5694C99.3394 95.1136 98.5266 94.6971 97.7933 94.3204C99.0427 96.1166 100.315 97.8703 101.611 99.5814C102.907 101.293 104.113 102.867 105.231 104.306L102.058 106.918C101.172 105.733 100.235 104.462 99.2439 103.107C98.2534 101.751 97.2725 100.393 96.3016 99.033C95.3307 97.673 94.4139 96.3502 93.5511 95.0644C92.6883 93.7786 91.9307 92.5991 91.2781 91.5254ZM136.355 87.001L123.879 91.5593L117.437 73.9746L129.328 69.6299L130.546 72.9538L122.618 75.8504L123.883 79.3014L130.921 76.7299L132.111 79.9777L125.073 82.5495L126.625 86.7872L135.137 83.6768L136.355 87.001Z" fill="#646377"/>
<path fill-rule="evenodd" clip-rule="evenodd" d="M180.703 104.499C181.481 108.199 181.955 111.897 181.686 115.717C181.411 119.63 180.305 124.618 176.938 128.957C172.994 134.038 167.692 137.1 162.25 139.172C156.852 141.227 151.081 142.385 146.208 143.494C138.125 145.332 131.066 146.959 125.895 149.512C120.862 151.997 118.137 155.083 117.816 159.746C117.472 164.758 120.598 168.496 123.734 170.396C123.734 170.396 124.264 172.223 126.225 176.839C120.455 175.793 111.87 169.893 112.592 159.388C113.086 152.187 117.591 147.777 123.575 144.823C130.273 141.517 137.811 140.039 145.045 138.394C150.117 137.241 155.421 136.174 160.385 134.285C165.304 132.412 169.65 129.811 172.798 125.753C175.66 122.065 176.648 117.287 176.516 112.701C172.305 114.816 167.733 116.723 161.847 118.682C154.61 121.092 146.675 121.873 139.965 125.692C133.865 129.164 130.732 135.102 129.837 139.171C129.837 139.171 126.714 140.161 124.155 141.367C124.768 135.95 128.628 126.125 137.372 121.148C144.457 117.116 152.566 116.259 160.191 113.721C167.378 111.328 174.278 108.228 180.703 104.499ZM174.868 141.864C174.568 145.657 173.761 149.591 172.549 153.146C171.507 156.204 169.627 160.032 166.129 164.536C162.48 169.233 157.871 172.225 154.239 174.035C152.41 174.947 150.416 175.804 148.448 176.368C148.354 174.317 148.339 172.621 148.382 170.893C149.608 170.454 150.744 169.932 151.901 169.355C155.095 167.763 158.977 165.209 161.991 161.33C164.417 158.208 166.552 154.775 167.752 150.986C164.887 152.159 163.047 152.898 158.323 154.436C153.043 156.108 149.971 156.704 146.948 157.383C146.348 161.3 145.723 166.073 145.62 170.65C145.398 180.591 145.846 186.071 146.847 192.829L147.702 198.005C145.62 196.591 143.125 194.285 143.125 194.285C139.874 191.441 133.588 185.174 129.301 175.91C125.692 168.426 123.993 160.796 123.588 154.014C123.588 154.014 126.152 152.174 128.663 151.344C128.827 157.955 130.284 166.249 133.912 173.553C135.89 177.537 138.141 180.994 140.528 183.767C140.13 177.685 140.162 174.545 140.327 170.65C140.59 164.403 141.435 157.978 142.489 152.752C148.065 151.785 152.527 150.577 156.863 149.29C162.318 147.536 167.627 145.617 174.868 141.864Z" fill="#646377"/>
</svg>
