<svg width="300" height="300" viewBox="0 0 300 300" fill="none" xmlns="http://www.w3.org/2000/svg">
<rect width="300" height="300" fill="#FAFAFA"/>
<path fill-rule="evenodd" clip-rule="evenodd" d="M80.0833 158.523C80.2011 158.508 80.3187 158.552 80.3979 158.641C80.4772 158.729 80.5079 158.851 80.4801 158.967L78.6826 174.978C78.6874 175.094 78.6404 175.205 78.5546 175.282C78.4687 175.358 78.3529 175.393 78.239 175.375H76.173C75.9448 175.396 75.7423 175.23 75.7178 175.002L73.5234 165.525L71.3173 175.048C71.2815 175.267 71.0824 175.42 70.8621 175.399H68.7611C68.6472 175.416 68.5314 175.382 68.4455 175.305C68.3597 175.228 68.3127 175.117 68.3175 175.002L66.59 159.013C66.5677 158.898 66.6004 158.78 66.6783 158.693C66.7562 158.606 66.8704 158.56 66.9869 158.57H68.9945C69.1049 158.563 69.2131 158.602 69.2944 158.677C69.3758 158.751 69.4234 158.856 69.4264 158.967L70.2551 168.805H70.3485L72.4379 158.943C72.4681 158.719 72.6668 158.555 72.8931 158.57H74.1537C74.3843 158.549 74.5902 158.714 74.6206 158.943L76.7216 168.805H76.8267L77.6904 158.967C77.6964 158.855 77.7466 158.751 77.8298 158.676C77.9131 158.602 78.0225 158.563 78.134 158.57L80.0833 158.523ZM88.8025 175.375C88.6304 175.382 88.4823 175.255 88.464 175.083L87.8804 172.014H84.1336L83.5733 175.083C83.555 175.255 83.4069 175.382 83.2348 175.375H80.982C80.7486 175.375 80.6435 175.259 80.7136 175.025L84.2153 158.861C84.2211 158.776 84.2618 158.696 84.3279 158.641C84.3941 158.586 84.4799 158.56 84.5654 158.57H87.4952C87.5807 158.56 87.6665 158.586 87.7327 158.641C87.7988 158.696 87.8395 158.776 87.8454 158.861L91.3471 175.025C91.3471 175.259 91.3471 175.375 91.0553 175.375H88.8025ZM86.0595 162.246L84.6588 169.575H87.3551L86.0595 162.246ZM221.68 158.523C221.913 158.523 222.101 158.711 222.101 158.943V172.353C222.205 173.184 221.919 174.017 221.325 174.608C220.731 175.2 219.897 175.483 219.066 175.375H216.731C215.901 175.478 215.07 175.193 214.477 174.603C213.885 174.013 213.597 173.183 213.697 172.353V158.99C213.703 158.756 213.894 158.57 214.128 158.57H216.136C216.368 158.57 216.556 158.758 216.556 158.99V171.827C216.525 172.058 216.604 172.291 216.768 172.456C216.933 172.62 217.166 172.699 217.397 172.668H218.494C218.725 172.699 218.957 172.62 219.122 172.456C219.287 172.291 219.366 172.058 219.334 171.827V158.99C219.334 158.878 219.379 158.772 219.457 158.693C219.536 158.614 219.643 158.57 219.755 158.57L221.68 158.523ZM229.629 158.523C230.46 158.415 231.295 158.699 231.888 159.29C232.482 159.881 232.769 160.714 232.664 161.546V163.775C232.676 163.868 232.644 163.96 232.578 164.027C232.511 164.093 232.418 164.125 232.326 164.113H230.143C230.051 164.12 229.961 164.087 229.896 164.022C229.831 163.957 229.797 163.866 229.804 163.775V162.141C229.836 161.91 229.757 161.677 229.592 161.513C229.427 161.348 229.195 161.269 228.964 161.301H227.949C227.719 161.274 227.489 161.354 227.325 161.518C227.162 161.681 227.082 161.911 227.108 162.141V165.035L232.116 166.669C232.452 166.778 232.676 167.097 232.664 167.451V172.306C232.769 173.137 232.482 173.97 231.888 174.562C231.295 175.153 230.46 175.436 229.629 175.329H227.295C226.465 175.431 225.634 175.147 225.041 174.556C224.448 173.966 224.16 173.136 224.26 172.306V170.194C224.249 170.101 224.28 170.008 224.347 169.942C224.413 169.876 224.506 169.844 224.599 169.855H226.793C227.015 169.855 227.12 169.96 227.12 170.194V171.816C227.093 172.046 227.173 172.275 227.337 172.439C227.501 172.602 227.73 172.682 227.96 172.656H228.976C229.207 172.687 229.439 172.609 229.604 172.444C229.769 172.279 229.847 172.047 229.816 171.816V169.026L224.832 167.393C224.481 167.299 224.242 166.974 224.26 166.611V161.592C224.16 160.762 224.448 159.932 225.041 159.342C225.634 158.752 226.465 158.467 227.295 158.57L229.629 158.523ZM62.1615 108.284C62.535 108.284 62.7101 108.575 62.7101 109.054C62.7101 110.653 62.7101 112.24 62.7101 113.839C62.7101 114.317 62.535 114.609 62.1498 114.632L58.1112 114.831C58.0411 125.583 58.1734 136.386 58.1112 147.185C58.1112 147.734 57.9361 148.037 57.5626 148.154L54.0609 149.321C53.7224 149.438 53.5239 149.239 53.5239 148.679L53.4306 115.088L49.4386 115.309C49.1001 115.309 48.89 115.018 48.89 114.492V109.147C48.89 108.61 49.1001 108.284 49.4386 108.284H62.1615ZM65.4064 115.029C65.4064 110.606 67.2039 108.272 70.4488 108.284H74.9448C78.1897 108.284 79.8822 110.408 79.8122 114.352L79.7071 135.937C79.6371 139.893 77.8862 142.402 74.6764 143.278C73.4041 143.616 71.4993 143.955 70.2271 144.316C67.0288 145.227 65.3597 143.406 65.4064 138.995V115.029ZM73.9177 137.778C74.8048 137.568 75.299 136.965 75.3107 135.786C75.3107 129.059 75.346 122.337 75.346 115.586C75.346 114.419 74.8981 113.932 73.9994 113.967L71.3709 114.049C70.4839 114.049 69.9936 114.749 69.9703 115.916C69.9236 122.872 70.0161 129.794 69.9703 136.751C69.9703 137.977 70.4255 138.443 71.3126 138.233L73.9177 137.778ZM95.3343 108.284C95.7078 108.284 95.8829 108.517 95.8712 108.891L95.8012 112.66C95.8012 113.034 95.6144 113.267 95.2292 113.279L91.2256 113.454L91.2139 138.733C91.237 138.906 91.1895 139.082 91.0819 139.22C90.9744 139.358 90.8159 139.448 90.642 139.468C89.4748 139.713 88.3075 139.97 87.0586 140.238C86.7201 140.308 86.51 140.156 86.5217 139.713V113.57L82.518 113.722C82.1795 113.722 81.9694 113.489 81.9811 113.08L82.0511 108.949C82.0511 108.54 82.2729 108.284 82.6114 108.284H95.3343ZM109.885 135.849C109.757 135.877 109.624 135.847 109.519 135.769C109.414 135.691 109.347 135.571 109.337 135.441C109.045 133.795 108.753 132.15 108.45 130.504C106.395 130.738 104.329 130.983 102.275 131.24C101.925 133.025 101.575 134.822 101.236 136.631C101.203 136.936 100.968 137.181 100.664 137.226L96.9525 137.868C96.5673 137.938 96.4039 137.74 96.5206 137.32C98.6216 127.486 100.723 117.974 102.824 108.786C102.836 108.64 102.905 108.505 103.017 108.411C103.129 108.316 103.273 108.271 103.419 108.284H108.216C108.359 108.267 108.503 108.311 108.613 108.403C108.724 108.496 108.791 108.63 108.8 108.774C110.539 117.667 112.302 126.28 114.076 134.741C114.146 135.102 113.994 135.324 113.574 135.371C112.348 135.523 111.111 135.628 109.885 135.849ZM105.683 114.457C104.905 118.589 104.084 122.767 103.221 126.991L107.668 126.56C107.006 122.568 106.345 118.534 105.683 114.457ZM122.357 130.128C125.124 129.906 127.902 129.72 130.668 129.568C131.053 129.568 131.228 129.731 131.228 130.046V133.232C131.228 133.582 131.041 133.758 130.656 133.781C126.478 134.053 122.303 134.415 118.132 134.866C117.782 134.866 117.583 134.761 117.583 134.388C117.7 125.86 117.511 117.344 117.683 108.786C117.675 108.637 117.733 108.492 117.84 108.389C117.948 108.286 118.095 108.235 118.243 108.249H121.838C122.211 108.249 122.386 108.447 122.375 108.774L122.357 130.128ZM180.26 108.284C180.41 108.261 180.562 108.309 180.672 108.415C180.782 108.52 180.836 108.67 180.82 108.821C180.82 109.988 180.82 111.038 180.82 112.147C180.82 112.485 180.657 112.672 180.272 112.672L176.256 112.602L176.303 133.943C176.303 134.305 176.14 134.445 175.755 134.41L172.113 134.107C171.763 134.107 171.552 133.897 171.552 133.547C171.491 126.514 171.638 119.522 171.552 112.52H167.537C167.39 112.537 167.243 112.489 167.135 112.388C167.027 112.287 166.969 112.143 166.977 111.995V108.821C166.965 108.675 167.02 108.531 167.127 108.431C167.234 108.331 167.381 108.285 167.526 108.307L180.26 108.284ZM198.349 122.344C198.349 124.771 197.267 126.268 195.621 126.851C196.485 130.049 197.112 133.241 197.976 136.52C198.092 136.975 197.882 137.162 197.509 137.092L193.89 136.52C193.578 136.494 193.328 136.249 193.295 135.937C192.455 132.844 191.851 129.839 191.01 126.816L188.676 126.595C188.676 129.489 188.556 132.319 188.614 135.213C188.636 135.359 188.582 135.506 188.471 135.603C188.36 135.7 188.207 135.733 188.066 135.692C186.899 135.528 185.65 135.376 184.436 135.236C184.281 135.23 184.135 135.163 184.03 135.049C183.925 134.935 183.869 134.784 183.876 134.63V108.794C183.861 108.645 183.914 108.497 184.02 108.391C184.126 108.284 184.275 108.231 184.424 108.246H193.097C196.342 108.246 198.279 110.113 198.349 113.521V122.344ZM191.967 122.335C192.334 122.398 192.708 122.282 192.976 122.024C193.243 121.766 193.579 121.267 193.529 120.899C193.529 118.693 193.576 116.905 193.529 114.688C193.568 114.3 193.097 113.625 192.825 113.346C192.552 113.067 192.17 112.922 191.781 112.952H188.536V122.102L191.967 122.335ZM214.367 108.284C214.78 108.327 215.256 108.559 215.256 109.098C215.256 117.483 215.256 126.178 215.247 134.76C215.317 138.577 213.636 140.199 210.391 139.499L206.528 138.717C203.271 138.075 201.497 135.927 201.427 132.461C201.279 124.634 201.41 116.819 201.247 108.984C201.234 108.794 201.299 108.608 201.427 108.467C201.554 108.326 201.734 108.243 201.924 108.237H205.239C205.644 108.262 205.958 108.601 205.951 109.007L206.119 132.123C206.03 132.995 206.66 133.776 207.531 133.873L209.329 134.177C210.228 134.329 210.695 133.908 210.671 132.846L210.503 109.031C210.482 108.628 210.779 108.28 211.18 108.237L214.367 108.284ZM232.494 119.872C232.494 120.339 232.307 120.584 231.957 120.561L228.455 120.234C228.082 120.234 227.907 119.919 227.895 119.476C227.895 118.309 227.895 117.142 227.895 115.975C227.895 114.807 227.393 114.177 226.494 114.131L224.697 114.061C223.947 114.067 223.625 114.81 223.636 115.93C223.636 122.451 223.578 128.745 223.578 135.299C223.578 136.466 224.091 137.12 224.978 137.306L226.764 137.703C227.651 137.902 228.118 137.435 228.106 136.233C228.095 135.031 228.106 133.899 228.106 132.732C228.106 132.288 228.27 132.055 228.643 132.125C229.811 132.323 230.978 132.533 232.063 132.755C232.437 132.852 232.678 133.214 232.624 133.595C232.624 135.252 232.624 136.91 232.682 138.555C232.682 142.908 231.025 144.682 227.85 143.807C226.577 143.457 225.293 143.118 224.021 142.792C220.8 141.951 219.014 139.477 218.944 135.591C218.827 128.519 218.981 121.52 218.981 114.377C218.911 110.491 220.308 108.4 223.553 108.377H227.428C230.638 108.377 232.424 110.711 232.482 115.006L232.494 119.872ZM246.957 149.628C246.526 149.457 246.225 149.062 246.175 148.601C244.751 143.046 243.407 137.693 241.948 132.512C241.54 133.597 241.12 134.682 240.711 135.744C240.711 139.362 240.596 142.964 240.677 146.57C240.677 147.212 240.444 147.481 240 147.341C238.926 146.991 237.841 146.664 236.755 146.325C236.275 146.152 235.741 146.052 235.741 145.121V109.299C235.741 108.692 236.066 108.33 236.509 108.319H239.824C240.279 108.319 240.707 108.669 240.707 109.299L240.629 124.471C242.357 119.557 244.131 114.434 245.847 109.066C246.01 108.552 246.255 108.295 246.641 108.295H250.259C250.784 108.295 250.994 108.832 250.749 109.579C248.8 115.753 246.862 121.623 244.913 127.237C247.053 134.387 249.011 141.898 251.019 149.78C251.252 150.55 251.019 151.017 250.517 150.818L246.957 149.628ZM138.345 130.555H159.471V132.763C159.471 133.152 159.155 133.468 158.766 133.468H139.05C138.661 133.468 138.345 133.152 138.345 132.763V130.555ZM138.345 125.458H141.623C141.824 125.458 141.988 125.622 141.988 125.823V127.278C141.988 127.479 141.824 127.643 141.623 127.643H138.345V125.458ZM156.193 125.458H159.471V127.643H156.193C155.992 127.643 155.829 127.479 155.829 127.278V125.823C155.829 125.622 155.992 125.458 156.193 125.458ZM143.158 113.425L148.885 113.071C148.9 113.07 148.915 113.07 148.93 113.071L154.664 113.425C154.838 113.436 154.98 113.568 155.003 113.741L155.568 117.95C155.595 118.15 155.455 118.334 155.256 118.36C155.236 118.363 155.216 118.364 155.196 118.364L148.922 118.177C148.915 118.177 148.908 118.177 148.9 118.177L142.598 118.363C142.396 118.369 142.228 118.211 142.222 118.01C142.222 117.989 142.223 117.968 142.226 117.948L142.819 113.739C142.844 113.567 142.985 113.436 143.158 113.425ZM143.766 120.323L148.865 119.714C148.894 119.71 148.923 119.71 148.951 119.714L154.05 120.323C154.234 120.345 154.372 120.5 154.372 120.685V128.734C154.372 128.936 154.208 129.099 154.007 129.099H143.809C143.608 129.099 143.444 128.936 143.444 128.734V120.685C143.444 120.5 143.583 120.345 143.766 120.323ZM138.33 108.872C138.33 108.482 138.646 108.167 139.035 108.167H158.776C159.166 108.167 159.481 108.482 159.481 108.872V123.703H156.922C156.72 123.703 156.557 123.539 156.557 123.338V118.166C156.557 118.147 156.555 118.129 156.553 118.111L155.753 112.913C155.727 112.744 155.587 112.615 155.416 112.604L148.93 112.179C148.914 112.178 148.898 112.178 148.882 112.179L142.412 112.604C142.244 112.616 142.104 112.741 142.077 112.909L141.209 118.108C141.206 118.128 141.204 118.148 141.204 118.168V123.338C141.204 123.539 141.041 123.703 140.839 123.703H138.33V108.872Z" fill="#646377"/>
<path d="M109.121 146.821C104.238 147.708 101.611 151.053 101.611 156.039L101.609 169.078C101.609 169.86 101.942 170.316 102.792 170.571C107.112 171.61 111.441 172.766 115.778 174.036L116.046 174.115V182.112C116.158 182.84 115.935 183.581 115.439 184.126C114.94 184.673 114.22 184.962 113.484 184.911L110.888 184.981C110.173 185.076 109.455 184.83 108.946 184.316C108.438 183.803 108.198 183.083 108.293 182.367L108.293 178.305C108.324 177.911 108 177.505 107.518 177.534C105.628 177.646 104.208 177.784 102.309 177.911C101.865 177.941 101.599 178.276 101.599 178.732L101.599 184.238C101.587 189.177 104.207 191.802 109.118 191.802H115.234C120.174 191.814 122.74 189.016 122.74 183.603L122.741 169.824C122.784 169.057 122.302 168.358 121.575 168.132C117.814 167.006 114.189 166.059 108.529 164.676L108.245 164.607V160.386C108.245 158.424 108.245 158.424 108.247 156.49C108.186 155.757 108.417 155.03 108.89 154.469C109.363 153.909 110.039 153.56 110.748 153.502L113.373 153.142C115.063 152.923 115.986 153.802 115.986 155.56V159.824C115.986 160.174 116.201 160.643 116.753 160.587C118.49 160.412 119.83 160.266 121.98 160.091C122.559 160.044 122.737 159.499 122.696 159.191C122.692 155.98 122.692 156.267 122.692 153.107C122.681 147.701 120.102 145.229 115.217 145.968C112.164 146.434 110.797 146.503 109.121 146.821Z" fill="#646377"/>
<path d="M142.525 144.029C142.536 150.608 142.529 156.987 142.505 163.51L142.504 163.874L142.141 163.882C139.791 163.93 137.449 164.001 135.116 164.097L134.728 164.113L134.728 163.724L134.741 144.47C134.741 144.042 134.429 143.74 134.082 143.764C132.301 143.888 130.695 144.023 128.908 144.191C128.349 144.243 128.007 144.563 128.008 145.136L128.101 191.074C128.101 191.514 128.402 191.833 128.819 191.833L133.939 191.812C134.475 191.812 134.804 191.495 134.804 190.987L134.8 171.432L135.16 171.421C135.55 171.409 135.866 171.399 136.559 171.376C136.734 171.37 136.734 171.37 136.909 171.364C139.353 171.284 140.686 171.253 142.205 171.253H142.577V190.929C142.577 191.494 142.81 191.815 143.45 191.815L148.456 191.826C148.869 191.826 149.283 191.51 149.283 191.054L149.291 143.841C149.291 143.389 149.038 143.123 148.617 143.123C146.735 143.158 145.121 143.203 143.21 143.264C142.769 143.271 142.524 143.611 142.525 144.029Z" fill="#646377"/>
<path d="M155 151.633V183.339C155 188.898 157.592 191.803 162.531 191.803H168.716C173.667 191.791 176.26 188.945 176.26 183.483C176.26 168.047 176.26 168.047 176.26 152.602C176.272 147.106 173.655 143.991 168.715 143.648C166.741 143.511 164.711 143.401 162.551 143.313C157.625 143.108 155 146.001 155 151.633ZM164.101 184.659C162.438 184.645 161.539 183.647 161.539 181.807V153.357C161.539 151.56 162.444 150.589 164.117 150.589C164.479 150.601 164.771 150.617 165.409 150.656C166.363 150.714 166.778 150.733 167.298 150.733C168.055 150.728 168.776 151.057 169.271 151.633C169.76 152.201 169.98 152.953 169.876 153.696L169.876 181.881C169.863 183.686 168.961 184.647 167.3 184.647L164.101 184.659Z" fill="#646377"/>
<path d="M181.624 145.823L181.55 190.933C181.55 191.491 181.802 191.803 182.387 191.803H187.431C187.874 191.803 188.256 191.532 188.256 190.956V176.158L188.646 176.178C190.856 176.286 193.05 176.406 195.216 176.537C200.145 176.8 202.703 174.381 202.703 169.474V156.04C202.703 151.036 200.092 147.867 195.18 146.972C190.831 146.207 186.823 145.57 182.44 145.028C182.123 144.987 181.624 145.166 181.624 145.823ZM196.033 167.151C196.033 168.831 195.098 169.755 193.435 169.607L188.34 169.145V152.816L188.756 152.867C190.239 153.048 191.808 153.257 193.498 153.499C194.239 153.537 194.932 153.881 195.412 154.449C195.887 155.013 196.111 155.746 196.033 156.479V167.151Z" fill="#646377"/>
<line x1="67.1119" y1="182.034" x2="91.341" y2="182.034" stroke="#646377" stroke-width="2.30379"/>
<line x1="211.79" y1="182.034" x2="235.558" y2="182.034" stroke="#646377" stroke-width="2.30379"/>
</svg>
