<svg width="300" height="300" viewBox="0 0 300 300" fill="none" xmlns="http://www.w3.org/2000/svg">
<rect width="300" height="300" fill="#FAFAFA"/>
<path fill-rule="evenodd" clip-rule="evenodd" d="M143.834 123.346C143.642 123.06 143.861 121.95 143.838 121.51C143.807 120.899 143.434 120.383 143.676 119.907C143.957 119.353 144.097 119.19 144.223 118.438C144.302 117.964 144.247 117.132 144.444 116.777C144.613 118.699 144.412 120 144.05 121.797C143.926 122.412 143.945 122.917 143.872 123.242L143.834 123.346ZM159.303 117.912C159.29 117.58 159.234 117.052 159.386 116.777C159.419 116.822 159.424 116.788 159.459 116.919C159.489 117.033 159.468 117.046 159.469 117.142C159.415 119.044 160.168 119.824 160.22 120.158C160.258 120.405 159.964 121.164 159.96 121.666C159.954 122.389 160.183 123.093 159.941 123.344C159.825 122.965 159.864 122.398 159.788 121.975C159.709 121.54 159.595 121.136 159.524 120.685C159.364 119.66 159.355 118.945 159.303 117.912ZM142.869 138.229C142.965 140.349 142.979 143.467 143.266 145.457C143.794 149.12 141.937 152.3 142.545 155.818C142.736 156.918 142.674 158.206 142.821 159.381C142.892 159.948 143.002 160.478 143.091 161.038C143.24 161.965 143.156 162.011 142.579 162.393C141.521 163.092 142.59 164.316 142.736 165.252C141.479 166.056 142.002 166.463 141.101 167.32C140.695 167.707 140.665 167.897 140.115 168.204C139.547 168.522 139.473 168.663 139.288 169.285C139.373 169.672 139.376 169.317 139.503 169.638C139.602 169.886 139.439 169.823 139.65 170.124C140.14 170.322 141.119 170.405 141.639 170.22C142.356 169.965 142.592 170.022 143.232 169.774C144.051 169.456 145.781 168.811 146.365 168.445C146.752 168.203 146.573 168.219 147.025 168.017C147.378 167.858 147.319 167.804 147.495 167.397C147.834 166.612 148.03 166.602 147.869 165.664C147.655 164.424 147.918 164.817 148.214 164.03C148.641 162.893 148.568 161.304 148.233 160.183C148.037 159.527 148.231 159.005 148.323 158.308C148.493 157.016 148.667 155.733 148.842 154.438C148.951 153.636 149.397 149.368 149.412 148.503C149.433 147.352 149.739 147.439 149.063 146.808C149.208 146.05 149.648 145.038 149.858 144.158C150.221 142.632 151.461 136.242 151.965 135.689C152.288 135.822 153.627 139.076 153.887 139.737C155.01 142.597 155.938 147.033 156.76 148.752C157.318 149.918 157.275 149.77 157.265 151.265C157.259 152.251 157.195 153.244 157.296 154.229C157.4 155.245 157.6 155.706 157.574 156.863C157.555 157.754 157.396 158.804 157.636 159.637C158.4 162.282 156.637 161.813 157.961 164.384C158.201 164.851 158.29 164.947 158.269 165.524C158.251 166.038 158.193 166.52 158.463 166.809C159.547 167.963 159.469 169.747 161.864 169.395C162.626 169.283 164.019 169.383 164.436 168.871C164.636 168.484 164.037 167.445 163.863 167.007C163.397 165.831 163.762 166.077 162.846 165.311C162.363 164.908 162.634 163.774 162.602 163.079C162.549 161.886 162.203 161.753 162.013 161.004C162.675 160.079 163.714 160.281 163.516 158.364C163.38 157.058 163.296 155.861 163.09 154.57C162.732 152.336 162.319 149.566 161.786 147.397C161.348 145.613 161.659 145.135 161.526 143.44C161.429 142.203 161.084 140.757 161.167 139.529C161.21 138.907 161.407 138.339 161.435 137.692C161.485 136.516 161.088 133.613 161.106 132.627C161.115 132.164 161.293 132.134 161.518 131.934C160.935 131.429 160.592 131.188 160.571 130.175L162.547 131.92C163.718 129.893 164.053 125.683 164.451 123.368C164.584 122.591 164.971 119.254 164.884 118.626C164.781 117.887 164.469 117.064 164.509 116.377C164.58 115.138 164.524 115.093 164.157 114.04C163.914 113.343 163.886 112.585 163.648 111.928C163.525 111.591 162.673 110.328 162.375 109.256C162.281 108.919 162.214 108.525 162.12 108.201C161.971 107.686 161.864 107.687 161.93 107.115C161.973 106.735 162.017 106.289 161.819 105.962C161.373 105.228 158.906 104.912 157.978 104.477C157.385 104.198 156.661 103.999 156.082 103.71C155.34 103.34 155.059 103.016 154.523 102.602C154.538 103.433 154.872 104.724 154.483 105.402C154.121 106.033 153.709 106.913 153.716 107.775C153.764 107.994 153.856 108.035 153.693 108.175C153.688 109.033 152.838 115.62 152.666 117.056C151.961 122.952 152.07 120.27 152.884 125.778L151.506 126.032C151.286 126.14 151.253 126.122 150.956 126.097C150.898 125.802 150.889 125.856 151.016 125.627C151.03 123.915 151.701 121.44 151.473 119.609C151.264 117.924 150.767 115.803 150.415 114.126C149.892 111.634 148.593 105.054 148.47 102.802L148.473 102.339C147.827 102.941 148.029 103.059 147.002 103.581C146.374 103.899 145.779 104.321 145.266 104.574C144.3 105.052 141.689 105.063 141.388 106.1C141.074 107.18 141.879 106.356 141.094 108.191C140.814 108.845 140.729 109.505 140.462 110.183C140.307 110.578 140.35 110.964 140.214 111.325C140.089 111.656 139.95 111.851 139.847 112.272C139.672 112.987 139.705 114.14 139.553 114.593C139.328 115.265 138.743 118.443 138.791 119.13C138.929 121.087 137.933 120.16 138.981 123.619C139.211 124.38 139.142 125.222 139.285 126.011C139.41 126.701 139.761 127.236 139.84 128.073C139.97 129.453 140.015 129.094 140.464 130.151C140.66 130.611 140.952 131.782 141.131 132.089C141.562 131.641 141.138 131.134 142.02 130.887L141.983 131.772L141.447 132.171C141.546 132.458 141.693 132.398 141.987 132.585C142.289 132.777 142.169 132.785 142.343 133.16C142.668 133.863 142.88 133.226 142.875 134.469C142.869 135.724 142.845 136.975 142.869 138.229V138.229Z" fill="#646377"/>
<path fill-rule="evenodd" clip-rule="evenodd" d="M130.421 128.541C130.934 128.934 131.543 129.265 132.097 129.72L131.672 130.393C129.958 129.947 129.21 127.613 130.421 128.541ZM121.599 116.454C121.489 116.604 121.759 116.511 121.42 116.582L121.502 116.252C121.46 115.235 121.68 113.596 121.742 112.502C121.779 111.843 122.007 111.251 122.001 110.732C121.968 107.683 123.658 105.566 123.668 104.485C123.671 104.125 123.624 103.025 123.419 102.815C120.189 105.379 119.971 103.277 119.323 108.958C118.966 112.084 119.117 115.46 118.509 118.499C118.181 120.138 118.105 121.455 118.004 123.15C117.9 124.878 117.339 127.932 117.323 128.937C117.309 129.796 117.73 129.175 117.646 129.886C117.518 130.958 117.215 131.054 117.761 132.01C118.111 132.624 118.121 133.203 118.789 133.54C119.502 133.898 119.982 134.148 120.782 133.885C121.036 134.732 121.1 135.996 121.349 136.953C121.614 137.974 121.803 138.938 121.998 140.014C122.375 142.1 122.748 144.211 123.138 146.297C123.518 148.328 124.134 150.278 124.602 152.251C124.964 153.781 124.634 153.806 124.096 155.088C123.392 156.768 123.717 156.578 124.455 157.628C124.396 157.811 123.656 159.032 123.52 159.147C123.196 159.419 122.416 160.057 122.059 160.249C121.841 160.366 120.438 160.747 120.12 160.806C119.243 160.969 118.403 160.655 118.138 161.401C118.233 161.568 118.4 161.666 118.444 161.774C118.59 162.132 118.28 161.745 118.38 162.083C120.237 162.793 122.339 162.331 124.213 161.995C124.827 161.884 124.981 161.857 125.517 161.657C126.177 161.412 126.209 161.734 126.925 161.589C127.824 161.405 129.144 161.708 129.867 161.247C129.842 160.685 129.625 160.856 129.816 160.04C129.933 159.54 130.125 159.415 130.094 158.784C130.067 158.22 130.073 158.011 130.145 157.426C130.261 156.477 129.913 156.761 129.949 156.169C130.004 155.277 130.237 154.453 130.218 153.38C130.201 152.442 130.117 151.167 130.198 150.268C130.05 150.093 130.09 149.529 130.083 149.25C130.273 149.358 130.174 149.08 130.254 149.464C130.654 151.19 131.096 152.968 131.48 154.718C131.747 155.939 132.005 156.164 131.826 157.468C131.748 158.033 131.431 159.922 131.543 160.365L132.37 160.767C132.744 163.1 130.059 164.848 130.883 166.197C133.536 166.595 132.481 166.224 133.381 165.949C133.674 165.859 133.976 165.882 134.29 165.835C136.679 165.477 136.251 163.284 136.985 162.411C137.275 162.067 137.542 161.602 137.784 161.114C138.166 160.342 137.71 160.143 137.505 159.645C137.403 159.398 137.347 159.198 137.204 158.941C136.977 158.533 136.882 158.66 136.697 158.393C136.741 157.914 137.013 157.677 137.077 157.235C137.191 156.433 136.633 151.259 136.561 149.986C136.505 148.995 136.566 148.094 136.416 147.144C136.236 146.002 135.711 142.974 135.318 142.061C134.886 141.061 134.806 140.802 134.694 139.59C134.636 138.966 134.368 137.149 134.494 136.663C134.142 136.044 134.109 132.964 134.517 132.306L136.566 132.303C136.532 131.819 136.375 131.668 136.28 131.236C136.191 130.832 136.189 130.385 136.151 129.962C136.11 129.501 135.571 127.456 135.376 126.569C135.238 125.938 135.124 126.242 135.388 125.591C136.292 123.361 136.974 122.138 137.71 119.549C138.281 117.542 137.759 116.582 137.66 114.647C137.616 113.789 137.672 112.781 137.541 111.959C137.158 109.571 137.32 107.265 136.147 104.995C135.813 104.349 135.307 104.01 134.726 103.622C133.815 103.015 133.57 103.247 132.61 102.93C132.235 102.806 131.066 102.017 130.923 101.82C130.558 101.319 130.271 100.551 129.789 100.231C129.207 101.033 129.778 100.629 128.456 102.011C127.98 102.509 127.591 103.122 127.192 103.769C125.999 105.703 124.087 109.899 123.263 112.078C122.773 113.376 121.904 115.242 121.599 116.454V116.454Z" fill="#646377"/>
<path fill-rule="evenodd" clip-rule="evenodd" d="M178.369 116.2L178.278 116.11C177.933 115.734 176.443 113.561 176.4 113.416C177.478 113.221 177.589 113.851 177.978 114.464C178.201 114.816 178.8 115.684 178.858 116.137L178.369 116.2ZM165.252 129.58L166.877 130.007C167.023 130.466 167.112 132.247 167.291 132.993C167.656 134.518 167.586 134.337 167.369 135.908C167.232 136.905 167.254 138.049 167.393 139.03C167.605 140.525 167.546 140.527 167.243 141.917C166.87 143.623 166.756 146.319 166.726 148.141C166.689 150.366 166.491 152.562 166.548 154.819C166.584 156.228 166.878 156.515 167.567 157.194C168.386 158 168.532 158.388 167.52 159.142C166.553 159.862 167.056 160.225 167.645 161.261C168.065 162 167.27 163.207 168.373 163.773C169 164.096 170.23 164.563 171.029 164.524C171.832 164.485 173.525 164.571 173.548 163.637C173.56 163.183 172.69 161.676 172.457 161.331C172.033 160.705 172.1 160.863 172.106 159.955C172.113 158.887 171.825 159.362 172.449 158.651C172.258 157.694 172.199 156.431 171.925 155.558C171.535 154.312 172.066 155.331 172.271 152.663C172.361 151.49 172.656 150.506 172.54 149.293C172.497 148.85 172.89 146.46 173.061 146.157C173.17 148.408 173.022 149.331 173.796 151.361C174.534 153.295 172.75 153.983 173.08 156.211L173.844 156.444L173.481 160.492C174.132 161.019 182.833 161.111 184.153 160.907C185.09 160.762 185.54 160.171 185.06 159.345C184.673 158.679 183.761 158.899 182.828 158.76C181.205 158.518 179.806 157.803 179.212 156.733C179.763 155.797 179.659 156.753 179.678 154.507C179.696 152.278 178.689 151.412 179.02 149.858C179.193 149.043 179.139 148.067 179.144 147.222C179.153 145.696 179.566 143.911 179.671 142.308C179.784 140.571 179.868 138.756 179.915 137.02C179.973 134.893 180.211 132.609 180.212 130.42C180.213 129.566 180.283 129.906 180.523 129.376C180.959 128.414 180.231 123.043 180.259 121.607C180.297 119.706 179.983 119.303 180.412 117.921C180.549 117.48 180.501 117.099 180.522 116.625C181.673 116.54 182.15 117.068 183.743 116.633C184.77 116.352 185.41 115.881 185.519 114.757C185.628 113.629 185.442 112.607 184.622 112.216C184.051 111.943 183.2 110.795 182.802 110.305C182.445 109.866 182.286 109.751 182.151 109.184C182.045 108.743 182.03 108.914 181.729 108.663C181.454 108.433 181.568 108.409 181.422 108.043C181.251 107.614 181.273 107.877 181.024 107.586L180.063 105.76C179.781 104.874 179.256 104.111 178.311 103.857C177.482 103.634 176.574 102.89 175.753 102.664C175.875 103.584 175.769 104.036 176.037 104.846C176.271 105.555 176.52 106.072 176.725 106.856C176.943 107.691 177.397 110.755 177.215 111.517C176.811 110.787 176.265 108.486 175.043 106.425C174.122 104.871 173.146 103.139 172.013 102.088C168.351 98.688 170.186 100.765 168.296 101.987C166.824 102.937 165.248 103.836 164.971 106.036C164.741 107.866 165.085 109.083 165.506 110.732C165.626 111.203 165.984 111.273 166.254 111.834C166.458 112.256 166.587 112.675 166.769 113.096C167.068 113.785 167.27 113.57 167.144 114.349C167.059 114.878 167.206 115.418 167.385 115.872C167.721 116.727 167.839 116.2 167.536 117.203C167.248 118.155 167.499 119.461 167.322 120.6C167.179 121.524 166.742 122.545 166.483 123.465C165.929 125.43 165.672 127.539 165.252 129.58V129.58Z" fill="#646377"/>
<path fill-rule="evenodd" clip-rule="evenodd" d="M148.712 102.934C149.072 103.723 149.214 104.417 149.764 104.856C150.431 105.39 150.784 105.106 151.565 106.029C152.037 105.799 152.606 105.371 153.114 105.004C153.583 104.666 153.712 103.835 153.848 103.151C154.153 101.623 153.4 102.227 154.149 98.5222C155.191 98.1245 155.212 97.9779 155.224 96.5971C155.232 95.6935 154.937 95.9975 154.693 95.5927C154.422 95.143 155.065 91.8053 151.288 91.3203C149.234 90.9421 146.923 92.8346 147.242 96.0536C147.027 96.2046 147.159 95.9834 146.888 96.1264C146.767 96.1905 146.719 96.3396 146.673 96.4979C146.554 96.9009 146.591 97.1312 146.691 97.54C146.987 98.7407 146.974 98.4379 147.858 98.7073C148.299 100.182 148.625 101.257 148.712 102.934" fill="#646377"/>
<path fill-rule="evenodd" clip-rule="evenodd" d="M124.26 102.994C124.257 103.727 124.592 104.178 125.006 104.438C125.124 104.453 125.078 104.471 125.092 104.325C125.117 103.024 125.242 103.783 127.624 101.94C129.117 100.784 129.1 101.131 129.479 98.8116C130.041 98.7583 130.137 98.763 130.369 98.2489C130.534 97.8823 130.639 97.3864 130.653 96.9215C130.685 95.8566 130.181 96.8833 130.264 95.7114C130.298 95.2346 130.276 94.5785 130.187 94.1127C129.878 92.504 128.055 91.471 126.074 91.5393C124.276 91.9094 123.292 93.0549 123.282 94.7851C123.276 95.9678 122.65 97.1586 123.6 98.1113C123.846 98.3579 123.923 99.2913 124.132 99.6459C124.388 100.08 124.491 100.693 124.583 101.271C124.656 101.729 124.307 102.372 124.26 102.994" fill="#646377"/>
<path fill-rule="evenodd" clip-rule="evenodd" d="M170.396 99.9222C170.384 99.9364 170.298 100.073 170.283 100.091C171.013 100.478 172.431 101.363 173.116 101.863C174.623 102.963 174.701 102.47 174.549 104.685L174.691 104.711C174.684 104.142 174.926 103.543 174.979 102.974C175.065 102.045 174.604 101.928 174.851 101.153C175.307 99.7206 175.699 99.6921 175.983 98.0092C176.361 97.7732 176.511 98.0735 176.718 97.5769C176.808 97.3579 176.927 96.8036 176.921 96.5565C176.898 95.4754 176.469 95.7933 176.375 94.6567C176.235 92.9715 175.668 92.3958 174.367 91.8274C173.108 91.2772 171.541 91.5564 170.73 92.2481C170.634 92.3297 169.676 93.4421 169.631 93.5264C169.459 93.8522 169.487 95.3913 169.483 95.8683C169.441 96.1096 168.892 95.9296 169.147 97.3894C169.28 98.1523 169.426 98.2452 170.141 98.3846L170.396 99.9222Z" fill="#646377"/>
<path fill-rule="evenodd" clip-rule="evenodd" d="M178.55 116.304L179.021 116.24C178.964 115.774 178.389 114.882 178.175 114.521C177.802 113.89 177.695 113.244 176.659 113.444C176.7 113.593 178.132 115.826 178.463 116.212L178.55 116.304Z" fill="#646377"/>
<path fill-rule="evenodd" clip-rule="evenodd" d="M144.262 123.42L144.306 123.311C144.39 122.972 144.368 122.446 144.511 121.805C144.928 119.931 145.161 118.574 144.965 116.569C144.739 116.939 144.801 117.807 144.71 118.301C144.565 119.086 144.404 119.256 144.079 119.833C143.8 120.33 144.231 120.868 144.267 121.505C144.292 121.964 144.041 123.122 144.262 123.42" fill="#646377"/>
<path fill-rule="evenodd" clip-rule="evenodd" d="M131.528 130.797L131.971 130.026C131.394 129.504 130.761 129.125 130.227 128.674C128.969 127.611 129.746 130.285 131.528 130.797" fill="#646377"/>
<path fill-rule="evenodd" clip-rule="evenodd" d="M159.178 117.623L159.418 116.908C159.417 116.819 159.447 116.807 159.403 116.701C159.353 116.58 159.345 116.611 159.298 116.569C159.077 116.825 159.159 117.314 159.178 117.623" fill="#646377"/>
<path fill-rule="evenodd" clip-rule="evenodd" d="M130.319 150.297C130.325 150.142 130.312 150 130.306 149.842C130.295 149.55 130.199 149.619 130.41 149.465C130.28 149.067 130.44 149.355 130.131 149.243C130.142 149.532 130.076 150.116 130.319 150.297" fill="#646377"/>
<path fill-rule="evenodd" clip-rule="evenodd" d="M151.831 125.758L151.125 125.765L151.178 125.527C151.009 125.658 151.021 125.627 151.097 125.795C151.493 125.809 151.537 125.82 151.831 125.758" fill="#646377"/>
<path fill-rule="evenodd" clip-rule="evenodd" d="M153.795 107.625C154.044 107.528 153.904 107.499 153.83 107.347C153.568 107.456 153.643 107.508 153.795 107.625" fill="#646377"/>
<path fill-rule="evenodd" clip-rule="evenodd" d="M121.785 116.739C121.604 116.673 121.669 116.851 121.634 116.569L121.505 116.848C122.035 116.788 121.614 116.865 121.785 116.739" fill="#646377"/>
<path fill-rule="evenodd" clip-rule="evenodd" d="M170.286 100.247C170.301 100.216 170.392 99.9918 170.404 99.9683L170.125 99.9698L170.286 100.247Z" fill="#646377"/>
<path fill-rule="evenodd" clip-rule="evenodd" d="M175.371 104.745L175.092 104.711L175.146 104.99L175.371 104.745Z" fill="#646377"/>
<path fill-rule="evenodd" clip-rule="evenodd" d="M124.905 104.338C125.045 104.487 124.675 104.448 125.184 104.462L125.064 104.184C125.039 104.382 125.125 104.358 124.905 104.338" fill="#646377"/>
<path fill-rule="evenodd" clip-rule="evenodd" d="M150.492 188.354C182.977 188.354 209.311 161.91 209.311 129.288C209.311 96.6666 182.977 70.2217 150.492 70.2217C118.007 70.2217 91.673 96.6666 91.673 129.288C91.673 161.91 118.007 188.354 150.492 188.354Z" stroke="#646377" stroke-width="3.59638"/>
<path d="M76.6101 209.06V229.778H72.9426V209.06H69.428V205.737H80.1248V209.06H76.6101Z" fill="#646377"/>
<path d="M82.9825 229.778V205.737H89.3624C92.8006 205.737 94.5197 207.494 94.5197 211.008V225.806C94.5197 228.454 93.0553 229.778 90.1264 229.778H82.9825ZM86.65 226.455H89.4006C90.3684 226.455 90.8523 226.048 90.8523 225.233V211.047C90.8523 209.723 90.3047 209.06 89.2096 209.06H86.65V226.455Z" fill="#646377"/>
<path d="M98.0367 205.737H105.219C108.02 205.737 109.421 207.303 109.421 210.436V215.262C109.421 217.656 108.695 219.171 107.244 219.808L109.803 229.778H106.327L103.92 220.152H101.704V229.778H98.0367V205.737ZM101.704 217.019H104.111C105.206 217.019 105.754 216.357 105.754 215.033V211.047C105.754 209.723 105.206 209.06 104.111 209.06H101.704V217.019Z" fill="#646377"/>
<path d="M128.831 229.778H120.121V205.737H123.789V226.455H128.831V229.778Z" fill="#646377"/>
<path d="M135.945 229.778C132.991 229.778 131.513 228.225 131.513 225.118V210.436C131.513 207.303 132.978 205.737 135.907 205.737H139.421C142.35 205.737 143.815 207.303 143.815 210.436V225.118C143.815 228.225 142.338 229.778 139.383 229.778H135.945ZM136.824 226.455H138.696C139.663 226.455 140.147 225.92 140.147 224.851V210.665C140.147 209.595 139.6 209.06 138.505 209.06H136.785C135.716 209.06 135.181 209.595 135.181 210.665V224.851C135.181 225.92 135.728 226.455 136.824 226.455Z" fill="#646377"/>
<path d="M153.493 220.216V216.893H159.071V229.778H151.889C149.062 229.778 147.648 228.238 147.648 225.156V210.436C147.648 207.303 149.062 205.737 151.889 205.737H154.41C157.517 205.737 159.071 207.329 159.071 210.512V213.491H155.403V211.047C155.403 209.723 154.881 209.06 153.837 209.06H152.92C151.85 209.06 151.316 209.723 151.316 211.047V224.469C151.316 225.793 151.85 226.455 152.92 226.455H155.403V220.216H153.493Z" fill="#646377"/>
<path d="M162.817 229.778V205.737H166.485V229.778H162.817Z" fill="#646377"/>
<path d="M177.699 213.109V210.703C177.699 209.608 177.164 209.06 176.095 209.06H175.522C174.477 209.06 173.955 209.608 173.955 210.703V213.314C173.955 213.824 174.057 214.167 174.261 214.346C174.465 214.524 174.796 214.753 175.254 215.033L178.731 216.905C179.495 217.338 180.029 217.681 180.335 217.936C180.666 218.165 180.921 218.458 181.099 218.815C181.277 219.146 181.367 219.795 181.367 220.763V225.156C181.367 228.238 179.889 229.778 176.935 229.778H174.681C171.752 229.778 170.288 228.097 170.288 224.736V223.361H173.955V224.851C173.955 225.92 174.503 226.455 175.598 226.455H176.247C177.215 226.455 177.699 225.92 177.699 224.851V221.641C177.699 221.132 177.597 220.788 177.393 220.61C177.19 220.432 176.859 220.202 176.4 219.922L172.924 217.974C172.16 217.567 171.599 217.223 171.243 216.943C170.912 216.663 170.67 216.306 170.517 215.873C170.364 215.415 170.288 214.829 170.288 214.116V210.436C170.288 207.303 171.752 205.737 174.681 205.737H176.973C179.902 205.737 181.367 207.303 181.367 210.436V213.109H177.699Z" fill="#646377"/>
<path d="M191.045 209.06V229.778H187.378V209.06H183.863V205.737H194.56V209.06H191.045Z" fill="#646377"/>
<path d="M197.418 229.778V205.737H201.085V229.778H197.418Z" fill="#646377"/>
<path d="M216.234 223.361V225.118C216.234 228.225 214.77 229.778 211.841 229.778H209.472C206.544 229.778 205.079 228.225 205.079 225.118V210.397C205.079 207.291 206.544 205.737 209.472 205.737H211.841C214.77 205.737 216.234 207.291 216.234 210.397V213.491H212.567V210.665C212.567 209.595 212.019 209.06 210.924 209.06H210.198C209.23 209.06 208.747 209.595 208.747 210.665V224.851C208.747 225.92 209.23 226.455 210.198 226.455H211.115C212.083 226.455 212.567 225.92 212.567 224.851V223.361H216.234Z" fill="#646377"/>
<path d="M226.905 213.109V210.703C226.905 209.608 226.37 209.06 225.3 209.06H224.727C223.683 209.06 223.161 209.608 223.161 210.703V213.314C223.161 213.824 223.263 214.167 223.466 214.346C223.67 214.524 224.001 214.753 224.46 215.033L227.936 216.905C228.7 217.338 229.235 217.681 229.541 217.936C229.872 218.165 230.126 218.458 230.305 218.815C230.483 219.146 230.572 219.795 230.572 220.763V225.156C230.572 228.238 229.095 229.778 226.14 229.778H223.887C220.958 229.778 219.493 228.097 219.493 224.736V223.361H223.161V224.851C223.161 225.92 223.708 226.455 224.803 226.455H225.453C226.421 226.455 226.905 225.92 226.905 224.851V221.641C226.905 221.132 226.803 220.788 226.599 220.61C226.395 220.432 226.064 220.202 225.606 219.922L222.129 217.974C221.365 217.567 220.805 217.223 220.448 216.943C220.117 216.663 219.875 216.306 219.722 215.873C219.57 215.415 219.493 214.829 219.493 214.116V210.436C219.493 207.303 220.958 205.737 223.887 205.737H226.179C229.108 205.737 230.572 207.303 230.572 210.436V213.109H226.905Z" fill="#646377"/>
</svg>
